G04*
G04 #@! TF.GenerationSoftware,Altium Limited,Altium Designer,18.1.3 (115)*
G04*
G04 Layer_Color=128*
%FSAX25Y25*%
%MOIN*%
G70*
G01*
G75*
%ADD101C,0.00200*%
D101*
X0156844Y0231516D02*
X0160388D01*
X0158616Y0229745D02*
Y0233288D01*
X0156844Y0221516D02*
X0160388D01*
X0158616Y0219744D02*
Y0223288D01*
X0156844Y0211516D02*
X0160388D01*
X0158616Y0209745D02*
Y0213288D01*
X0166844Y0231516D02*
X0170388D01*
X0168616Y0229745D02*
Y0233288D01*
X0166844Y0221516D02*
X0170388D01*
X0168616Y0219744D02*
Y0223288D01*
X0166844Y0211516D02*
X0170388D01*
X0168616Y0209745D02*
Y0213288D01*
X0369344Y0132716D02*
X0372888D01*
X0371116Y0130945D02*
Y0134488D01*
X0369344Y0122716D02*
X0372888D01*
X0371116Y0120944D02*
Y0124488D01*
X0359345Y0132716D02*
X0362888D01*
X0361116Y0130945D02*
Y0134488D01*
X0359345Y0122716D02*
X0362888D01*
X0361116Y0120944D02*
Y0124488D01*
X0349344Y0132716D02*
X0352888D01*
X0351116Y0130945D02*
Y0134488D01*
X0349344Y0122716D02*
X0352888D01*
X0351116Y0120944D02*
Y0124488D01*
X0339345Y0132716D02*
X0342888D01*
X0341116Y0130945D02*
Y0134488D01*
X0339345Y0122716D02*
X0342888D01*
X0341116Y0120944D02*
Y0124488D01*
X0329345Y0132716D02*
X0332888D01*
X0331116Y0130945D02*
Y0134488D01*
X0329345Y0122716D02*
X0332888D01*
X0331116Y0120944D02*
Y0124488D01*
X0200416Y0464616D02*
X0206616D01*
X0203516Y0461516D02*
Y0467716D01*
X0187843Y0452293D02*
X0194543D01*
X0191193Y0448943D02*
Y0455643D01*
X0212489Y0452293D02*
X0219189D01*
X0215839Y0448943D02*
Y0455643D01*
X0212489Y0476939D02*
X0219189D01*
X0215839Y0473589D02*
Y0480289D01*
X0187843Y0476939D02*
X0194543D01*
X0191193Y0473589D02*
Y0480289D01*
X0476248Y0425374D02*
X0480185D01*
X0478216Y0423405D02*
Y0427342D01*
X0466405Y0435216D02*
X0470342D01*
X0468374Y0433248D02*
Y0437185D01*
X0476248Y0435216D02*
X0480185D01*
X0478216Y0433248D02*
Y0437185D01*
X0445736Y0445059D02*
X0453610D01*
X0449673Y0441122D02*
Y0448996D01*
X0492980Y0445059D02*
X0500854D01*
X0496917Y0441122D02*
Y0448996D01*
X0466405Y0425374D02*
X0470342D01*
X0468374Y0423405D02*
Y0427342D01*
X0304173Y0440616D02*
X0311260D01*
X0307716Y0437073D02*
Y0444160D01*
X0557911Y0120616D02*
X0569722D01*
X0563816Y0114711D02*
Y0126522D01*
X0557711Y0479116D02*
X0569522D01*
X0563616Y0473211D02*
Y0485022D01*
X0160611Y0479116D02*
X0172422D01*
X0166516Y0473211D02*
Y0485022D01*
X0322073Y0457316D02*
X0329159D01*
X0325616Y0453773D02*
Y0460859D01*
X0303973Y0475016D02*
X0311059D01*
X0307516Y0471473D02*
Y0478559D01*
X0355354Y0460816D02*
X0360078D01*
X0357716Y0458454D02*
Y0463178D01*
X0375354Y0460816D02*
X0380078D01*
X0377716Y0458454D02*
Y0463178D01*
X0395354Y0460816D02*
X0400078D01*
X0397716Y0458454D02*
Y0463178D01*
X0405354Y0460816D02*
X0410078D01*
X0407716Y0458454D02*
Y0463178D01*
X0365354Y0460816D02*
X0370078D01*
X0367716Y0458454D02*
Y0463178D01*
X0439245Y0149716D02*
X0442788D01*
X0441016Y0147944D02*
Y0151488D01*
X0429245Y0149716D02*
X0432788D01*
X0431016Y0147944D02*
Y0151488D01*
X0419244Y0149716D02*
X0422788D01*
X0421016Y0147944D02*
Y0151488D01*
X0439245Y0139716D02*
X0442788D01*
X0441016Y0137944D02*
Y0141488D01*
X0429245Y0139716D02*
X0432788D01*
X0431016Y0137944D02*
Y0141488D01*
X0419244Y0139716D02*
X0422788D01*
X0421016Y0137944D02*
Y0141488D01*
X0160811Y0120316D02*
X0172622D01*
X0166716Y0114411D02*
Y0126222D01*
X0186016Y0294516D02*
X0188016D01*
X0187016Y0293516D02*
Y0295516D01*
X0298966Y0321216D02*
X0300966D01*
X0299966Y0320216D02*
Y0322216D01*
X0261916Y0393116D02*
X0263916D01*
X0262916Y0392116D02*
Y0394116D01*
X0296787Y0346716D02*
X0298787D01*
X0297787Y0345716D02*
Y0347716D01*
X0279216Y0459566D02*
X0281216D01*
X0280216Y0458566D02*
Y0460566D01*
X0380716Y0251103D02*
X0382716D01*
X0381716Y0250103D02*
Y0252103D01*
X0313216Y0195216D02*
X0315216D01*
X0314216Y0194216D02*
Y0196216D01*
X0320316Y0201316D02*
X0322316D01*
X0321316Y0200316D02*
Y0202316D01*
X0324316Y0207316D02*
X0326316D01*
X0325316Y0206316D02*
Y0208316D01*
X0153516Y0370292D02*
X0155516D01*
X0154516Y0369292D02*
Y0371292D01*
X0327616Y0188816D02*
X0329616D01*
X0328616Y0187816D02*
Y0189816D01*
X0483116Y0258416D02*
X0485116D01*
X0484116Y0257416D02*
Y0259416D01*
X0401216Y0161416D02*
X0403216D01*
X0402216Y0160416D02*
Y0162416D01*
X0283116Y0342916D02*
X0285116D01*
X0284116Y0341916D02*
Y0343916D01*
X0262116Y0376816D02*
X0264116D01*
X0263116Y0375816D02*
Y0377816D01*
X0385467Y0294707D02*
X0387467D01*
X0386467Y0293707D02*
Y0295707D01*
X0379939Y0295007D02*
X0381939D01*
X0380939Y0294007D02*
Y0296007D01*
X0380062Y0300507D02*
X0382062D01*
X0381062Y0299507D02*
Y0301507D01*
X0397016Y0217916D02*
X0399016D01*
X0398016Y0216916D02*
Y0218916D01*
X0404016Y0216516D02*
X0406016D01*
X0405016Y0215516D02*
Y0217516D01*
X0424816Y0219316D02*
X0426816D01*
X0425816Y0218316D02*
Y0220316D01*
X0279316Y0349316D02*
X0281316D01*
X0280316Y0348316D02*
Y0350316D01*
X0284016Y0329816D02*
X0286016D01*
X0285016Y0328816D02*
Y0330816D01*
X0314884Y0240158D02*
X0316884D01*
X0315884Y0239158D02*
Y0241158D01*
X0338816Y0165777D02*
X0340816D01*
X0339816Y0164777D02*
Y0166777D01*
X0398684Y0227471D02*
X0400684D01*
X0399684Y0226471D02*
Y0228471D01*
X0385262Y0300807D02*
X0387262D01*
X0386262Y0299807D02*
Y0301807D01*
X0256687Y0240139D02*
X0258687D01*
X0257687Y0239139D02*
Y0241139D01*
X0222916Y0286316D02*
X0224916D01*
X0223916Y0285316D02*
Y0287316D01*
X0266262Y0257739D02*
X0268262D01*
X0267262Y0256739D02*
Y0258739D01*
X0387416Y0244116D02*
X0389416D01*
X0388416Y0243116D02*
Y0245116D01*
X0377203Y0216758D02*
X0379203D01*
X0378203Y0215758D02*
Y0217758D01*
X0449516Y0216371D02*
X0451516D01*
X0450516Y0215371D02*
Y0217371D01*
X0460516Y0185771D02*
X0462516D01*
X0461516Y0184771D02*
Y0186771D01*
X0409316Y0153171D02*
X0411316D01*
X0410316Y0152171D02*
Y0154171D01*
X0531516Y0270816D02*
X0533516D01*
X0532516Y0269816D02*
Y0271816D01*
X0540516Y0313176D02*
X0542516D01*
X0541516Y0312176D02*
Y0314176D01*
X0252716Y0296516D02*
X0254716D01*
X0253716Y0295516D02*
Y0297516D01*
X0201279Y0197930D02*
X0203279D01*
X0202279Y0196930D02*
Y0198930D01*
X0222979Y0211416D02*
X0224979D01*
X0223979Y0210416D02*
Y0212416D01*
X0160379Y0248816D02*
X0162379D01*
X0161379Y0247816D02*
Y0249816D01*
X0483942Y0409275D02*
X0485942D01*
X0484942Y0408275D02*
Y0410275D01*
X0354455Y0435755D02*
X0356455D01*
X0355455Y0434755D02*
Y0436755D01*
X0316726Y0366416D02*
X0318726D01*
X0317726Y0365416D02*
Y0367416D01*
X0316816Y0361916D02*
X0318816D01*
X0317816Y0360916D02*
Y0362916D01*
X0561216Y0328016D02*
X0563216D01*
X0562216Y0327016D02*
Y0329016D01*
X0277816Y0361416D02*
X0279816D01*
X0278816Y0360416D02*
Y0362416D01*
X0198516Y0409916D02*
X0200516D01*
X0199516Y0408916D02*
Y0410916D01*
X0326416Y0356916D02*
X0328416D01*
X0327416Y0355916D02*
Y0357916D01*
X0488116Y0225716D02*
X0490116D01*
X0489116Y0224716D02*
Y0226716D01*
X0455916Y0311616D02*
X0457916D01*
X0456916Y0310616D02*
Y0312616D01*
X0498016Y0308316D02*
X0500016D01*
X0499016Y0307316D02*
Y0309316D01*
X0448316Y0257516D02*
X0450316D01*
X0449316Y0256516D02*
Y0258516D01*
X0408216Y0258216D02*
X0410216D01*
X0409216Y0257216D02*
Y0259216D01*
X0312916Y0256516D02*
X0314916D01*
X0313916Y0255516D02*
Y0257516D01*
X0440916Y0173026D02*
X0442916D01*
X0441916Y0172026D02*
Y0174026D01*
X0176916Y0166016D02*
X0178916D01*
X0177916Y0165016D02*
Y0167016D01*
X0193716Y0276716D02*
X0195716D01*
X0194716Y0275716D02*
Y0277716D01*
X0195316Y0285316D02*
X0197316D01*
X0196316Y0284316D02*
Y0286316D01*
X0283316Y0136556D02*
X0285316D01*
X0284316Y0135556D02*
Y0137556D01*
X0288716Y0136556D02*
X0290716D01*
X0289716Y0135556D02*
Y0137556D01*
X0284116Y0196016D02*
X0286116D01*
X0285116Y0195016D02*
Y0197016D01*
X0287716Y0191356D02*
X0289716D01*
X0288716Y0190356D02*
Y0192356D01*
X0276416Y0180316D02*
X0278416D01*
X0277416Y0179316D02*
Y0181316D01*
X0261716Y0173816D02*
X0263716D01*
X0262716Y0172816D02*
Y0174816D01*
X0241316Y0160616D02*
X0243316D01*
X0242316Y0159616D02*
Y0161616D01*
X0246016Y0156216D02*
X0248016D01*
X0247016Y0155216D02*
Y0157216D01*
X0250616Y0151216D02*
X0252616D01*
X0251616Y0150216D02*
Y0152216D01*
X0257478Y0149516D02*
X0259478D01*
X0258478Y0148516D02*
Y0150516D01*
X0263116Y0152816D02*
X0265116D01*
X0264116Y0151816D02*
Y0153816D01*
X0269716Y0153916D02*
X0271716D01*
X0270716Y0152916D02*
Y0154916D01*
X0276516Y0157216D02*
X0278516D01*
X0277516Y0156216D02*
Y0158216D01*
X0279416Y0161516D02*
X0281416D01*
X0280416Y0160516D02*
Y0162516D01*
X0501916Y0288216D02*
X0503916D01*
X0502916Y0287216D02*
Y0289216D01*
X0464816Y0257216D02*
X0466816D01*
X0465816Y0256216D02*
Y0258216D01*
X0420616Y0182926D02*
X0422616D01*
X0421616Y0181926D02*
Y0183926D01*
X0411316Y0175276D02*
X0413316D01*
X0412316Y0174276D02*
Y0176276D01*
X0386616Y0223216D02*
X0388616D01*
X0387616Y0222216D02*
Y0224216D01*
X0373616Y0252216D02*
X0375616D01*
X0374616Y0251216D02*
Y0253216D01*
X0363816Y0182216D02*
X0365816D01*
X0364816Y0181216D02*
Y0183216D01*
X0433116Y0302516D02*
X0435116D01*
X0434116Y0301516D02*
Y0303516D01*
X0324716Y0226501D02*
X0326716D01*
X0325716Y0225501D02*
Y0227501D01*
X0321216Y0230616D02*
X0323216D01*
X0322216Y0229616D02*
Y0231616D01*
X0379116Y0152216D02*
X0381116D01*
X0380116Y0151216D02*
Y0153216D01*
X0379216Y0172876D02*
X0381216D01*
X0380216Y0171876D02*
Y0173876D01*
X0164616Y0191356D02*
X0166616D01*
X0165616Y0190356D02*
Y0192356D01*
X0298709Y0210016D02*
X0300709D01*
X0299709Y0209016D02*
Y0211016D01*
X0313816Y0171476D02*
X0315816D01*
X0314816Y0170476D02*
Y0172476D01*
X0298216Y0180416D02*
X0300216D01*
X0299216Y0179416D02*
Y0181416D01*
X0262316Y0236176D02*
X0264316D01*
X0263316Y0235176D02*
Y0237176D01*
X0235216Y0171316D02*
X0237216D01*
X0236216Y0170316D02*
Y0172316D01*
X0237816Y0166016D02*
X0239816D01*
X0238816Y0165016D02*
Y0167016D01*
X0241974Y0180516D02*
X0243974D01*
X0242974Y0179516D02*
Y0181516D01*
X0240116Y0185216D02*
X0242116D01*
X0241116Y0184216D02*
Y0186216D01*
X0244216Y0189116D02*
X0246216D01*
X0245216Y0188116D02*
Y0190116D01*
X0249316Y0191416D02*
X0251316D01*
X0250316Y0190416D02*
Y0192416D01*
X0253016Y0195616D02*
X0255016D01*
X0254016Y0194616D02*
Y0196616D01*
X0227816Y0229556D02*
X0229816D01*
X0228816Y0228556D02*
Y0230556D01*
X0202216Y0229556D02*
X0204216D01*
X0203216Y0228556D02*
Y0230556D01*
X0268416Y0209076D02*
X0270416D01*
X0269416Y0208076D02*
Y0210076D01*
X0219016Y0243576D02*
X0221016D01*
X0220016Y0242576D02*
Y0244576D01*
X0252416Y0226416D02*
X0254416D01*
X0253416Y0225416D02*
Y0227416D01*
X0201416Y0243616D02*
X0203416D01*
X0202416Y0242616D02*
Y0244616D01*
X0514916Y0383623D02*
X0516916D01*
X0515916Y0382623D02*
Y0384623D01*
X0553216Y0391916D02*
X0555216D01*
X0554216Y0390916D02*
Y0392916D01*
X0440616Y0399316D02*
X0442616D01*
X0441616Y0398316D02*
Y0400316D01*
X0402416Y0441516D02*
X0404416D01*
X0403416Y0440516D02*
Y0442516D01*
X0213716Y0280116D02*
X0215716D01*
X0214716Y0279116D02*
Y0281116D01*
X0230016Y0273016D02*
X0232016D01*
X0231016Y0272016D02*
Y0274016D01*
X0233216Y0380616D02*
X0235216D01*
X0234216Y0379616D02*
Y0381616D01*
X0368516Y0252281D02*
X0370516D01*
X0369516Y0251281D02*
Y0253281D01*
X0525516Y0265116D02*
X0527516D01*
X0526516Y0264116D02*
Y0266116D01*
X0517116Y0273416D02*
X0519116D01*
X0518116Y0272416D02*
Y0274416D01*
X0383716Y0267016D02*
X0385716D01*
X0384716Y0266016D02*
Y0268016D01*
X0388516Y0252133D02*
X0390516D01*
X0389516Y0251133D02*
Y0253134D01*
X0526716Y0273216D02*
X0528716D01*
X0527716Y0272216D02*
Y0274216D01*
X0413116Y0287714D02*
X0415116D01*
X0414116Y0286714D02*
Y0288714D01*
X0398716Y0252616D02*
X0400716D01*
X0399716Y0251616D02*
Y0253616D01*
X0316416Y0306616D02*
X0318416D01*
X0317416Y0305616D02*
Y0307616D01*
X0251316Y0353516D02*
X0253316D01*
X0252316Y0352516D02*
Y0354516D01*
X0276316Y0306616D02*
X0278316D01*
X0277316Y0305616D02*
Y0307616D01*
X0248716Y0361816D02*
X0250716D01*
X0249716Y0360816D02*
Y0362816D01*
X0228016Y0437872D02*
X0230016D01*
X0229016Y0436872D02*
Y0438872D01*
X0238016Y0404216D02*
X0240016D01*
X0239016Y0403216D02*
Y0405216D01*
X0210416Y0336316D02*
X0212416D01*
X0211416Y0335316D02*
Y0337316D01*
X0298916Y0301416D02*
X0300916D01*
X0299916Y0300416D02*
Y0302416D01*
X0276616Y0328916D02*
X0278616D01*
X0277616Y0327916D02*
Y0329916D01*
X0172216Y0393216D02*
X0174216D01*
X0173216Y0392216D02*
Y0394216D01*
X0228816Y0364316D02*
X0230816D01*
X0229816Y0363316D02*
Y0365316D01*
X0294855Y0436855D02*
X0296855D01*
X0295855Y0435855D02*
Y0437855D01*
X0162855Y0425355D02*
X0164855D01*
X0163855Y0424355D02*
Y0426355D01*
X0165155Y0369455D02*
X0167155D01*
X0166155Y0368455D02*
Y0370455D01*
X0222155Y0438755D02*
X0224155D01*
X0223155Y0437755D02*
Y0439755D01*
X0499355Y0414055D02*
X0501355D01*
X0500355Y0413055D02*
Y0415055D01*
M02*
