G04*
G04 #@! TF.GenerationSoftware,Altium Limited,Altium Designer,18.1.3 (115)*
G04*
G04 Layer_Physical_Order=2*
G04 Layer_Color=16711680*
%FSAX25Y25*%
%MOIN*%
G70*
G01*
G75*
%ADD13C,0.01000*%
%ADD14C,0.02000*%
%ADD34C,0.04000*%
%ADD86R,0.05906X0.05906*%
%ADD87C,0.05906*%
%ADD88R,0.07000X0.07000*%
%ADD89C,0.07000*%
%ADD90C,0.09200*%
%ADD91C,0.09500*%
%ADD92C,0.07874*%
%ADD93C,0.15748*%
%ADD94C,0.13780*%
%ADD95C,0.19685*%
%ADD96R,0.05906X0.05906*%
%ADD97R,0.06000X0.06000*%
%ADD98R,0.06000X0.06000*%
G36*
X0252016Y0483916D02*
X0249166D01*
Y0479916D01*
Y0475916D01*
X0252016D01*
Y0461605D01*
X0244300D01*
X0243855Y0461694D01*
X0243074Y0461539D01*
X0242413Y0461097D01*
X0242413Y0461097D01*
X0223342Y0442026D01*
X0223268Y0441962D01*
X0223180Y0441896D01*
X0223096Y0441840D01*
X0223029Y0441802D01*
X0222981Y0441779D01*
X0222955Y0441769D01*
X0222952Y0441769D01*
X0222903Y0441762D01*
X0222831Y0441738D01*
X0222372Y0441678D01*
X0221642Y0441375D01*
X0221015Y0440894D01*
X0220534Y0440268D01*
X0220232Y0439538D01*
X0220129Y0438755D01*
X0220232Y0437972D01*
X0220534Y0437242D01*
X0221015Y0436615D01*
X0221029Y0436605D01*
X0221032Y0436598D01*
X0221049Y0436556D01*
X0221069Y0436491D01*
X0221090Y0436401D01*
X0221106Y0436301D01*
X0221115Y0436184D01*
Y0429578D01*
X0221271Y0428797D01*
X0221713Y0428136D01*
X0232203Y0417646D01*
X0232177Y0417516D01*
Y0383154D01*
X0232169Y0383082D01*
X0232151Y0382970D01*
X0232131Y0382880D01*
X0232110Y0382815D01*
X0232094Y0382773D01*
X0232090Y0382766D01*
X0232077Y0382756D01*
X0231596Y0382129D01*
X0231293Y0381399D01*
X0231228Y0380906D01*
X0230757Y0380503D01*
X0230701Y0380499D01*
X0181595D01*
X0180815Y0380343D01*
X0180153Y0379901D01*
X0178708Y0378456D01*
X0178246Y0378647D01*
Y0412493D01*
X0178129Y0413078D01*
X0177798Y0413575D01*
X0167091Y0424281D01*
X0167073Y0424306D01*
X0167036Y0424370D01*
X0167000Y0424449D01*
X0166966Y0424546D01*
X0166934Y0424663D01*
X0166911Y0424784D01*
X0166877Y0425145D01*
X0166875Y0425310D01*
X0166881Y0425355D01*
X0166778Y0426138D01*
X0166475Y0426868D01*
X0165994Y0427494D01*
X0165368Y0427975D01*
X0164638Y0428277D01*
X0163855Y0428381D01*
X0163072Y0428277D01*
X0162342Y0427975D01*
X0161715Y0427494D01*
X0161234Y0426868D01*
X0160932Y0426138D01*
X0160829Y0425355D01*
X0160932Y0424572D01*
X0161234Y0423842D01*
X0161715Y0423215D01*
X0162342Y0422734D01*
X0163072Y0422432D01*
X0163855Y0422329D01*
X0163900Y0422335D01*
X0164079Y0422332D01*
X0164255Y0422321D01*
X0164410Y0422301D01*
X0164547Y0422275D01*
X0164663Y0422244D01*
X0164760Y0422209D01*
X0164840Y0422173D01*
X0164904Y0422136D01*
X0164928Y0422118D01*
X0175187Y0411860D01*
Y0396051D01*
X0175052Y0395984D01*
X0174687Y0395854D01*
X0173999Y0396139D01*
X0173216Y0396242D01*
X0172433Y0396139D01*
X0171703Y0395837D01*
X0171077Y0395356D01*
X0170596Y0394729D01*
X0170293Y0393999D01*
X0170190Y0393216D01*
X0170193Y0393199D01*
X0170190Y0393192D01*
X0170173Y0393151D01*
X0170141Y0393090D01*
X0170092Y0393012D01*
X0170032Y0392930D01*
X0169957Y0392841D01*
X0169071Y0391955D01*
X0158816D01*
X0158036Y0391800D01*
X0157374Y0391358D01*
X0153074Y0387058D01*
X0152632Y0386397D01*
X0152477Y0385616D01*
Y0372829D01*
X0152469Y0372758D01*
X0152451Y0372645D01*
X0152430Y0372556D01*
X0152410Y0372490D01*
X0152394Y0372449D01*
X0152390Y0372442D01*
X0152376Y0372431D01*
X0151896Y0371805D01*
X0151593Y0371075D01*
X0151490Y0370292D01*
X0151593Y0369509D01*
X0151896Y0368779D01*
X0152376Y0368152D01*
X0152595Y0367984D01*
X0152632Y0367799D01*
X0153074Y0367138D01*
X0156199Y0364013D01*
X0156199Y0364013D01*
X0156861Y0363571D01*
X0157641Y0363416D01*
X0157641Y0363416D01*
X0168590D01*
X0169371Y0363571D01*
X0170032Y0364013D01*
X0182439Y0376420D01*
X0229872D01*
X0231617Y0374674D01*
X0231617Y0374674D01*
X0232279Y0374232D01*
X0233059Y0374077D01*
X0245916D01*
X0246696Y0374232D01*
X0247358Y0374674D01*
X0262564Y0389880D01*
X0262620Y0389925D01*
X0262712Y0389992D01*
X0262790Y0390041D01*
X0262851Y0390073D01*
X0262892Y0390090D01*
X0262899Y0390092D01*
X0262916Y0390090D01*
X0263699Y0390193D01*
X0264429Y0390496D01*
X0264782Y0390767D01*
X0267877Y0387671D01*
Y0359716D01*
X0268032Y0358936D01*
X0268474Y0358274D01*
X0277080Y0349668D01*
X0277125Y0349613D01*
X0277192Y0349520D01*
X0277241Y0349442D01*
X0277273Y0349381D01*
X0277290Y0349341D01*
X0277292Y0349333D01*
X0277290Y0349316D01*
X0277393Y0348533D01*
X0277696Y0347803D01*
X0278176Y0347177D01*
X0278803Y0346696D01*
X0279533Y0346393D01*
X0280316Y0346290D01*
X0280333Y0346292D01*
X0280341Y0346290D01*
X0280381Y0346273D01*
X0280442Y0346241D01*
X0280520Y0346192D01*
X0280603Y0346132D01*
X0280692Y0346057D01*
X0281274Y0345474D01*
X0281936Y0345032D01*
X0282716Y0344877D01*
X0294392D01*
X0294736Y0344648D01*
X0295516Y0344492D01*
X0295707Y0344530D01*
X0296274Y0344096D01*
X0297004Y0343793D01*
X0297787Y0343690D01*
X0298570Y0343793D01*
X0299300Y0344096D01*
X0299926Y0344577D01*
X0300407Y0345203D01*
X0300710Y0345933D01*
X0300813Y0346716D01*
X0300710Y0347499D01*
X0300407Y0348229D01*
X0299926Y0348856D01*
X0299300Y0349337D01*
X0298570Y0349639D01*
X0297787Y0349742D01*
X0297004Y0349639D01*
X0296274Y0349337D01*
X0295978Y0349110D01*
X0295906Y0349076D01*
X0295867Y0349048D01*
X0295863Y0349046D01*
X0295835Y0349034D01*
X0295781Y0349016D01*
X0295703Y0348996D01*
X0295602Y0348977D01*
X0295489Y0348961D01*
X0295403Y0348955D01*
X0283675D01*
X0283342Y0349316D01*
X0283239Y0350099D01*
X0282937Y0350829D01*
X0282456Y0351456D01*
X0281829Y0351937D01*
X0281099Y0352239D01*
X0280316Y0352342D01*
X0280299Y0352340D01*
X0280292Y0352342D01*
X0280251Y0352360D01*
X0280190Y0352392D01*
X0280112Y0352441D01*
X0280030Y0352500D01*
X0279941Y0352576D01*
X0271955Y0360561D01*
Y0388516D01*
X0271800Y0389297D01*
X0271358Y0389958D01*
X0266758Y0394558D01*
X0266096Y0395000D01*
X0265316Y0395155D01*
X0265133D01*
X0265056Y0395256D01*
X0264429Y0395737D01*
X0263699Y0396039D01*
X0262916Y0396142D01*
X0262133Y0396039D01*
X0261403Y0395737D01*
X0260776Y0395256D01*
X0260296Y0394629D01*
X0259993Y0393899D01*
X0259890Y0393116D01*
X0259893Y0393099D01*
X0259890Y0393092D01*
X0259873Y0393051D01*
X0259841Y0392990D01*
X0259792Y0392912D01*
X0259732Y0392830D01*
X0259657Y0392741D01*
X0245072Y0378155D01*
X0236723D01*
X0236493Y0378655D01*
X0236837Y0379103D01*
X0237139Y0379833D01*
X0237242Y0380616D01*
X0237139Y0381399D01*
X0236837Y0382129D01*
X0236356Y0382756D01*
X0236342Y0382766D01*
X0236339Y0382773D01*
X0236322Y0382815D01*
X0236302Y0382880D01*
X0236281Y0382970D01*
X0236265Y0383070D01*
X0236255Y0383187D01*
Y0416720D01*
X0236600Y0417236D01*
X0236755Y0418016D01*
X0236600Y0418796D01*
X0236158Y0419458D01*
X0225194Y0430422D01*
Y0436217D01*
X0225202Y0436288D01*
X0225220Y0436401D01*
X0225240Y0436491D01*
X0225260Y0436556D01*
X0225277Y0436598D01*
X0225281Y0436605D01*
X0225294Y0436615D01*
X0225775Y0437242D01*
X0226078Y0437972D01*
X0226181Y0438755D01*
X0226162Y0438895D01*
X0226168Y0438924D01*
X0226167Y0438965D01*
X0226168Y0438969D01*
X0226181Y0439001D01*
X0226207Y0439054D01*
X0226250Y0439126D01*
X0226303Y0439202D01*
X0226384Y0439301D01*
X0244611Y0457527D01*
X0252016D01*
Y0416016D01*
X0252216Y0415816D01*
X0260516D01*
X0260516Y0402616D01*
X0269916Y0393216D01*
X0284516Y0393216D01*
X0284916Y0392816D01*
X0284716Y0392616D01*
X0284716Y0357716D01*
X0288016Y0354416D01*
X0302271D01*
X0302271Y0338262D01*
X0305316Y0335216D01*
X0305016Y0334916D01*
Y0328516D01*
X0293916D01*
X0289916Y0324516D01*
X0284900D01*
X0280852Y0328564D01*
X0280807Y0328620D01*
X0280741Y0328712D01*
X0280692Y0328790D01*
X0280660Y0328851D01*
X0280642Y0328892D01*
X0280640Y0328899D01*
X0280642Y0328916D01*
X0280539Y0329699D01*
X0280237Y0330429D01*
X0279756Y0331056D01*
X0279129Y0331537D01*
X0278399Y0331839D01*
X0277616Y0331942D01*
X0276833Y0331839D01*
X0276103Y0331537D01*
X0275477Y0331056D01*
X0274996Y0330429D01*
X0274693Y0329699D01*
X0274590Y0328916D01*
X0274693Y0328133D01*
X0274996Y0327403D01*
X0275477Y0326777D01*
X0276103Y0326296D01*
X0276833Y0325993D01*
X0277616Y0325890D01*
X0277633Y0325892D01*
X0277641Y0325890D01*
X0277681Y0325873D01*
X0277742Y0325841D01*
X0277820Y0325792D01*
X0277903Y0325732D01*
X0277992Y0325657D01*
X0279274Y0324374D01*
X0278416Y0323516D01*
Y0312927D01*
X0277016Y0312116D01*
X0273716D01*
Y0315916D01*
X0268056Y0321576D01*
Y0325916D01*
X0261803D01*
X0254216Y0318329D01*
Y0309816D01*
X0253616Y0309216D01*
X0171556D01*
X0171456Y0309316D01*
X0170756Y0308616D01*
X0150916D01*
X0150646Y0309004D01*
Y0471116D01*
X0150714Y0489087D01*
X0161079D01*
X0161220Y0488587D01*
X0160123Y0487915D01*
X0158826Y0486807D01*
X0157717Y0485509D01*
X0156825Y0484054D01*
X0156172Y0482477D01*
X0155774Y0480818D01*
X0155640Y0479116D01*
X0155774Y0477415D01*
X0156172Y0475755D01*
X0156825Y0474179D01*
X0157717Y0472723D01*
X0158826Y0471426D01*
X0160123Y0470317D01*
X0161579Y0469425D01*
X0163155Y0468772D01*
X0164815Y0468374D01*
X0166516Y0468240D01*
X0168218Y0468374D01*
X0169877Y0468772D01*
X0171454Y0469425D01*
X0172909Y0470317D01*
X0174207Y0471426D01*
X0175315Y0472723D01*
X0176207Y0474179D01*
X0176860Y0475755D01*
X0177258Y0477415D01*
X0177392Y0479116D01*
X0177258Y0480818D01*
X0176860Y0482477D01*
X0176207Y0484054D01*
X0175315Y0485509D01*
X0174207Y0486807D01*
X0172909Y0487915D01*
X0171813Y0488587D01*
X0171954Y0489087D01*
X0252016D01*
Y0483916D01*
D02*
G37*
G36*
X0382916Y0488966D02*
Y0462470D01*
X0382416Y0462370D01*
X0382029Y0463306D01*
X0381237Y0464337D01*
X0380206Y0465129D01*
X0379005Y0465626D01*
X0377716Y0465796D01*
X0376427Y0465626D01*
X0375226Y0465129D01*
X0374195Y0464337D01*
X0373404Y0463306D01*
X0372987Y0462299D01*
X0372446D01*
X0372029Y0463306D01*
X0371237Y0464337D01*
X0370206Y0465129D01*
X0369005Y0465626D01*
X0367716Y0465796D01*
X0366427Y0465626D01*
X0365226Y0465129D01*
X0364195Y0464337D01*
X0363404Y0463306D01*
X0362987Y0462299D01*
X0362446D01*
X0362029Y0463306D01*
X0361237Y0464337D01*
X0360206Y0465129D01*
X0359005Y0465626D01*
X0357716Y0465796D01*
X0356427Y0465626D01*
X0355226Y0465129D01*
X0354195Y0464337D01*
X0353404Y0463306D01*
X0352906Y0462105D01*
X0352737Y0460816D01*
X0352906Y0459527D01*
X0353404Y0458326D01*
X0354195Y0457295D01*
X0355226Y0456504D01*
X0356427Y0456006D01*
X0357716Y0455837D01*
X0359005Y0456006D01*
X0360206Y0456504D01*
X0361237Y0457295D01*
X0362029Y0458326D01*
X0362446Y0459333D01*
X0362987D01*
X0363404Y0458326D01*
X0364195Y0457295D01*
X0365226Y0456504D01*
X0366427Y0456006D01*
X0367716Y0455837D01*
X0369005Y0456006D01*
X0370206Y0456504D01*
X0371237Y0457295D01*
X0372029Y0458326D01*
X0372446Y0459333D01*
X0372987D01*
X0373404Y0458326D01*
X0374195Y0457295D01*
X0375226Y0456504D01*
X0376427Y0456006D01*
X0377716Y0455837D01*
X0379005Y0456006D01*
X0380206Y0456504D01*
X0381237Y0457295D01*
X0382029Y0458326D01*
X0382416Y0459262D01*
X0382916Y0459163D01*
Y0411216D01*
X0349816D01*
Y0413366D01*
X0345816D01*
X0341816D01*
Y0411216D01*
X0334316D01*
Y0410516D01*
X0274616D01*
X0261016Y0424116D01*
Y0457527D01*
X0277679D01*
X0277750Y0457519D01*
X0277863Y0457501D01*
X0277952Y0457481D01*
X0278018Y0457460D01*
X0278059Y0457444D01*
X0278066Y0457440D01*
X0278077Y0457427D01*
X0278703Y0456946D01*
X0279433Y0456643D01*
X0280216Y0456540D01*
X0280999Y0456643D01*
X0281729Y0456946D01*
X0282356Y0457427D01*
X0282837Y0458053D01*
X0283139Y0458783D01*
X0283242Y0459566D01*
X0283139Y0460349D01*
X0282837Y0461079D01*
X0282356Y0461706D01*
X0281729Y0462187D01*
X0280999Y0462489D01*
X0280216Y0462592D01*
X0279433Y0462489D01*
X0278703Y0462187D01*
X0278077Y0461706D01*
X0278066Y0461692D01*
X0278059Y0461689D01*
X0278018Y0461672D01*
X0277952Y0461652D01*
X0277863Y0461631D01*
X0277762Y0461615D01*
X0277646Y0461605D01*
X0261016D01*
Y0475916D01*
X0264166D01*
Y0479916D01*
Y0483916D01*
X0261016D01*
Y0488713D01*
X0261370Y0489066D01*
X0382916Y0488966D01*
D02*
G37*
G36*
X0278788Y0458166D02*
X0278702Y0458242D01*
X0278602Y0458310D01*
X0278488Y0458370D01*
X0278359Y0458422D01*
X0278216Y0458466D01*
X0278058Y0458502D01*
X0277886Y0458530D01*
X0277700Y0458550D01*
X0277284Y0458566D01*
Y0460566D01*
X0277499Y0460570D01*
X0277886Y0460602D01*
X0278058Y0460630D01*
X0278216Y0460666D01*
X0278359Y0460710D01*
X0278488Y0460762D01*
X0278602Y0460822D01*
X0278702Y0460890D01*
X0278788Y0460966D01*
Y0458166D01*
D02*
G37*
G36*
X0558063Y0489016D02*
X0558204Y0488516D01*
X0557223Y0487915D01*
X0555926Y0486807D01*
X0554817Y0485509D01*
X0553926Y0484054D01*
X0553272Y0482477D01*
X0552874Y0480818D01*
X0552740Y0479116D01*
X0552874Y0477415D01*
X0553272Y0475755D01*
X0553926Y0474179D01*
X0554817Y0472723D01*
X0555926Y0471426D01*
X0557223Y0470317D01*
X0558678Y0469425D01*
X0560255Y0468772D01*
X0561915Y0468374D01*
X0563616Y0468240D01*
X0565318Y0468374D01*
X0566977Y0468772D01*
X0568554Y0469425D01*
X0570009Y0470317D01*
X0571307Y0471426D01*
X0572415Y0472723D01*
X0573187Y0473983D01*
X0573687Y0473842D01*
Y0359216D01*
X0506566D01*
X0495066Y0370716D01*
X0458066D01*
X0416666Y0412116D01*
X0392766D01*
Y0458559D01*
X0393266Y0458658D01*
X0393404Y0458326D01*
X0394195Y0457295D01*
X0395226Y0456504D01*
X0396427Y0456006D01*
X0396966Y0455935D01*
Y0460816D01*
Y0465697D01*
X0396427Y0465626D01*
X0395226Y0465129D01*
X0394195Y0464337D01*
X0393404Y0463306D01*
X0393266Y0462974D01*
X0392766Y0463073D01*
Y0489016D01*
X0558063Y0489016D01*
D02*
G37*
G36*
X0225888Y0440273D02*
X0225739Y0440118D01*
X0225491Y0439821D01*
X0225392Y0439679D01*
X0225310Y0439541D01*
X0225244Y0439408D01*
X0225195Y0439278D01*
X0225163Y0439153D01*
X0225147Y0439033D01*
X0225148Y0438916D01*
X0223033Y0440751D01*
X0223143Y0440765D01*
X0223258Y0440794D01*
X0223378Y0440839D01*
X0223502Y0440898D01*
X0223632Y0440973D01*
X0223767Y0441062D01*
X0223907Y0441167D01*
X0224202Y0441422D01*
X0224357Y0441572D01*
X0225888Y0440273D01*
D02*
G37*
G36*
X0224479Y0437241D02*
X0224411Y0437141D01*
X0224351Y0437026D01*
X0224299Y0436898D01*
X0224255Y0436754D01*
X0224219Y0436597D01*
X0224191Y0436425D01*
X0224171Y0436239D01*
X0224155Y0435823D01*
X0222155D01*
X0222151Y0436038D01*
X0222119Y0436425D01*
X0222091Y0436597D01*
X0222055Y0436754D01*
X0222011Y0436898D01*
X0221959Y0437026D01*
X0221899Y0437141D01*
X0221831Y0437241D01*
X0221755Y0437326D01*
X0224555D01*
X0224479Y0437241D01*
D02*
G37*
G36*
X0165858Y0425089D02*
X0165901Y0424640D01*
X0165940Y0424435D01*
X0165991Y0424243D01*
X0166054Y0424066D01*
X0166129Y0423902D01*
X0166216Y0423751D01*
X0166315Y0423614D01*
X0166426Y0423490D01*
X0165719Y0422783D01*
X0165595Y0422894D01*
X0165458Y0422993D01*
X0165308Y0423080D01*
X0165144Y0423155D01*
X0164966Y0423218D01*
X0164775Y0423269D01*
X0164570Y0423309D01*
X0164352Y0423336D01*
X0164120Y0423351D01*
X0163875Y0423355D01*
X0165855Y0425335D01*
X0165858Y0425089D01*
D02*
G37*
G36*
X0454716Y0345416D02*
X0573216D01*
X0573316Y0345316D01*
Y0126786D01*
X0572835Y0126650D01*
X0572615Y0127009D01*
X0571507Y0128307D01*
X0570209Y0129415D01*
X0568754Y0130307D01*
X0567177Y0130960D01*
X0565518Y0131358D01*
X0563816Y0131492D01*
X0562115Y0131358D01*
X0560455Y0130960D01*
X0558879Y0130307D01*
X0557423Y0129415D01*
X0556126Y0128307D01*
X0555017Y0127009D01*
X0554125Y0125554D01*
X0553472Y0123977D01*
X0553074Y0122318D01*
X0552940Y0120616D01*
X0553074Y0118915D01*
X0553472Y0117255D01*
X0554125Y0115679D01*
X0555017Y0114223D01*
X0556126Y0112926D01*
X0557423Y0111817D01*
X0558879Y0110925D01*
X0560455Y0110272D01*
X0562115Y0109874D01*
X0563816Y0109740D01*
X0565518Y0109874D01*
X0567177Y0110272D01*
X0568754Y0110925D01*
X0570209Y0111817D01*
X0571507Y0112926D01*
X0572615Y0114223D01*
X0572835Y0114582D01*
X0573316Y0114446D01*
Y0105390D01*
X0572842Y0104916D01*
X0150916D01*
X0150816Y0104958D01*
X0150646Y0170740D01*
Y0298346D01*
X0150816Y0298516D01*
X0232856Y0298516D01*
X0239556Y0305216D01*
X0259339Y0305216D01*
X0264639Y0310516D01*
X0278016D01*
Y0311517D01*
X0278927Y0312045D01*
X0279027Y0312133D01*
X0279137Y0312207D01*
X0279175Y0312263D01*
X0279226Y0312308D01*
X0279285Y0312427D01*
X0279358Y0312537D01*
X0279371Y0312604D01*
X0279401Y0312665D01*
X0279410Y0312797D01*
X0279436Y0312927D01*
Y0319836D01*
X0281116Y0321516D01*
X0282132D01*
X0294374Y0309274D01*
X0294695Y0309060D01*
X0294499Y0308589D01*
X0294216Y0308646D01*
X0293631Y0308529D01*
X0293135Y0308198D01*
X0293083Y0308146D01*
X0280364D01*
X0280334Y0308150D01*
X0280262Y0308170D01*
X0280181Y0308200D01*
X0280087Y0308244D01*
X0279983Y0308305D01*
X0279881Y0308374D01*
X0279602Y0308605D01*
X0279484Y0308720D01*
X0279456Y0308756D01*
X0278829Y0309237D01*
X0278099Y0309539D01*
X0277316Y0309642D01*
X0276533Y0309539D01*
X0275803Y0309237D01*
X0275177Y0308756D01*
X0274696Y0308129D01*
X0274393Y0307399D01*
X0274290Y0306616D01*
X0274393Y0305833D01*
X0274696Y0305103D01*
X0275177Y0304476D01*
X0275803Y0303996D01*
X0276533Y0303693D01*
X0277316Y0303590D01*
X0278099Y0303693D01*
X0278829Y0303996D01*
X0279456Y0304476D01*
X0279484Y0304513D01*
X0279612Y0304638D01*
X0279744Y0304753D01*
X0279868Y0304850D01*
X0279983Y0304928D01*
X0280087Y0304988D01*
X0280181Y0305032D01*
X0280262Y0305063D01*
X0280334Y0305082D01*
X0280364Y0305087D01*
X0293716D01*
X0294022Y0305148D01*
X0296680Y0302490D01*
X0296697Y0302465D01*
X0296734Y0302401D01*
X0296771Y0302322D01*
X0296805Y0302224D01*
X0296836Y0302108D01*
X0296860Y0301987D01*
X0296894Y0301626D01*
X0296896Y0301461D01*
X0296890Y0301416D01*
X0296993Y0300633D01*
X0297296Y0299903D01*
X0297524Y0299605D01*
X0297565Y0299523D01*
X0297843Y0299158D01*
X0297933Y0299020D01*
X0298012Y0298884D01*
X0298075Y0298760D01*
X0298122Y0298650D01*
X0298154Y0298553D01*
X0298175Y0298470D01*
X0298180Y0298438D01*
Y0213064D01*
X0298175Y0213034D01*
X0298155Y0212963D01*
X0298125Y0212881D01*
X0298081Y0212787D01*
X0298021Y0212683D01*
X0297951Y0212581D01*
X0297720Y0212302D01*
X0297605Y0212183D01*
X0297569Y0212156D01*
X0297088Y0211529D01*
X0296786Y0210799D01*
X0296683Y0210016D01*
X0296786Y0209233D01*
X0297088Y0208503D01*
X0297569Y0207876D01*
X0298196Y0207396D01*
X0298926Y0207093D01*
X0299709Y0206990D01*
X0300492Y0207093D01*
X0301222Y0207396D01*
X0301849Y0207876D01*
X0302329Y0208503D01*
X0302632Y0209233D01*
X0302735Y0210016D01*
X0302632Y0210799D01*
X0302329Y0211529D01*
X0301849Y0212156D01*
X0301812Y0212183D01*
X0301687Y0212312D01*
X0301571Y0212444D01*
X0301475Y0212568D01*
X0301397Y0212683D01*
X0301337Y0212787D01*
X0301293Y0212881D01*
X0301262Y0212963D01*
X0301243Y0213034D01*
X0301238Y0213064D01*
Y0298324D01*
X0301243Y0298350D01*
X0301260Y0298410D01*
X0301287Y0298476D01*
X0301326Y0298551D01*
X0301381Y0298636D01*
X0301454Y0298729D01*
X0301547Y0298830D01*
X0301661Y0298939D01*
X0301817Y0299071D01*
X0301865Y0299130D01*
X0302056Y0299276D01*
X0302537Y0299903D01*
X0302839Y0300633D01*
X0302942Y0301416D01*
X0302839Y0302199D01*
X0302537Y0302929D01*
X0302056Y0303556D01*
X0301429Y0304037D01*
X0300699Y0304339D01*
X0299916Y0304442D01*
X0299871Y0304436D01*
X0299692Y0304439D01*
X0299516Y0304450D01*
X0299360Y0304470D01*
X0299224Y0304496D01*
X0299108Y0304527D01*
X0299011Y0304562D01*
X0298931Y0304598D01*
X0298867Y0304635D01*
X0298843Y0304653D01*
X0295298Y0308198D01*
X0295143Y0308301D01*
X0295338Y0308772D01*
X0295816Y0308677D01*
X0295816Y0308677D01*
X0312472D01*
X0314180Y0306968D01*
X0314225Y0306913D01*
X0314292Y0306820D01*
X0314341Y0306742D01*
X0314373Y0306681D01*
X0314390Y0306641D01*
X0314392Y0306633D01*
X0314390Y0306616D01*
X0314392Y0306599D01*
X0314390Y0306592D01*
X0314373Y0306551D01*
X0314341Y0306490D01*
X0314292Y0306412D01*
X0314232Y0306330D01*
X0314157Y0306241D01*
X0312474Y0304558D01*
X0312032Y0303896D01*
X0311877Y0303116D01*
Y0259053D01*
X0311869Y0258982D01*
X0311851Y0258870D01*
X0311830Y0258780D01*
X0311810Y0258715D01*
X0311794Y0258673D01*
X0311790Y0258666D01*
X0311776Y0258656D01*
X0311296Y0258029D01*
X0310993Y0257299D01*
X0310890Y0256516D01*
X0310993Y0255733D01*
X0311296Y0255003D01*
X0311776Y0254377D01*
X0312403Y0253896D01*
X0313133Y0253593D01*
X0313916Y0253490D01*
X0314699Y0253593D01*
X0315429Y0253896D01*
X0316056Y0254377D01*
X0316537Y0255003D01*
X0316839Y0255733D01*
X0316942Y0256516D01*
X0316839Y0257299D01*
X0316537Y0258029D01*
X0316056Y0258656D01*
X0316042Y0258666D01*
X0316039Y0258673D01*
X0316022Y0258715D01*
X0316002Y0258780D01*
X0315981Y0258870D01*
X0315965Y0258970D01*
X0315955Y0259086D01*
Y0302272D01*
X0317064Y0303380D01*
X0317120Y0303425D01*
X0317212Y0303492D01*
X0317290Y0303541D01*
X0317351Y0303573D01*
X0317392Y0303590D01*
X0317399Y0303592D01*
X0317416Y0303590D01*
X0318187Y0303692D01*
X0318292Y0303699D01*
X0318687Y0303384D01*
Y0237566D01*
X0318803Y0236981D01*
X0319135Y0236485D01*
X0321605Y0234014D01*
X0321557Y0233872D01*
X0321391Y0233521D01*
X0320703Y0233237D01*
X0320076Y0232756D01*
X0319596Y0232129D01*
X0319293Y0231399D01*
X0319190Y0230616D01*
X0319293Y0229833D01*
X0319596Y0229103D01*
X0319687Y0228984D01*
X0319705Y0228940D01*
X0319839Y0228734D01*
X0319943Y0228562D01*
X0320124Y0228218D01*
X0320181Y0228087D01*
X0320228Y0227961D01*
X0320262Y0227851D01*
X0320282Y0227759D01*
X0320287Y0227727D01*
Y0205766D01*
X0320403Y0205181D01*
X0320682Y0204763D01*
X0320611Y0204450D01*
X0320491Y0204221D01*
X0319803Y0203937D01*
X0319177Y0203456D01*
X0318696Y0202829D01*
X0318393Y0202099D01*
X0318290Y0201316D01*
X0318393Y0200533D01*
X0318696Y0199803D01*
X0319177Y0199177D01*
X0319213Y0199149D01*
X0319338Y0199020D01*
X0319454Y0198888D01*
X0319550Y0198764D01*
X0319628Y0198649D01*
X0319688Y0198545D01*
X0319732Y0198452D01*
X0319763Y0198370D01*
X0319782Y0198299D01*
X0319787Y0198268D01*
Y0118116D01*
X0319903Y0117531D01*
X0320228Y0117046D01*
X0320219Y0116999D01*
X0320017Y0116546D01*
X0317821D01*
X0310869Y0123498D01*
X0310373Y0123829D01*
X0309788Y0123946D01*
X0202650D01*
X0175946Y0150650D01*
Y0163182D01*
X0176080Y0163248D01*
X0176446Y0163378D01*
X0177133Y0163093D01*
X0177916Y0162990D01*
X0178699Y0163093D01*
X0179429Y0163396D01*
X0180056Y0163876D01*
X0180537Y0164503D01*
X0180839Y0165233D01*
X0180942Y0166016D01*
X0180839Y0166799D01*
X0180537Y0167529D01*
X0180056Y0168156D01*
X0180020Y0168184D01*
X0179895Y0168312D01*
X0179779Y0168444D01*
X0179682Y0168569D01*
X0179605Y0168683D01*
X0179544Y0168787D01*
X0179500Y0168881D01*
X0179470Y0168963D01*
X0179450Y0169034D01*
X0179446Y0169064D01*
Y0204473D01*
X0201398Y0226425D01*
X0201729Y0226921D01*
X0201733Y0226923D01*
X0202433Y0226634D01*
X0203216Y0226530D01*
X0203999Y0226634D01*
X0204729Y0226936D01*
X0205356Y0227417D01*
X0205366Y0227430D01*
X0205373Y0227434D01*
X0205415Y0227450D01*
X0205480Y0227471D01*
X0205570Y0227491D01*
X0205670Y0227507D01*
X0205786Y0227517D01*
X0226279D01*
X0226350Y0227509D01*
X0226463Y0227491D01*
X0226552Y0227471D01*
X0226618Y0227451D01*
X0226659Y0227434D01*
X0226666Y0227430D01*
X0226677Y0227417D01*
X0227303Y0226936D01*
X0228033Y0226634D01*
X0228816Y0226530D01*
X0229599Y0226634D01*
X0230329Y0226936D01*
X0230956Y0227417D01*
X0230966Y0227430D01*
X0230973Y0227434D01*
X0231014Y0227450D01*
X0231080Y0227471D01*
X0231170Y0227491D01*
X0231270Y0227507D01*
X0231386Y0227517D01*
X0241231D01*
X0245516Y0223233D01*
X0245532Y0223150D01*
X0245974Y0222489D01*
X0252003Y0216460D01*
X0251977Y0216331D01*
Y0198153D01*
X0251969Y0198082D01*
X0251951Y0197970D01*
X0251930Y0197880D01*
X0251910Y0197815D01*
X0251894Y0197773D01*
X0251890Y0197766D01*
X0251876Y0197756D01*
X0251396Y0197129D01*
X0251093Y0196399D01*
X0250990Y0195616D01*
X0251093Y0194833D01*
X0251396Y0194103D01*
X0251876Y0193476D01*
X0252503Y0192996D01*
X0253233Y0192693D01*
X0254016Y0192590D01*
X0254799Y0192693D01*
X0255529Y0192996D01*
X0256156Y0193476D01*
X0256637Y0194103D01*
X0256939Y0194833D01*
X0257042Y0195616D01*
X0256939Y0196399D01*
X0256637Y0197129D01*
X0256156Y0197756D01*
X0256142Y0197766D01*
X0256139Y0197773D01*
X0256122Y0197815D01*
X0256102Y0197880D01*
X0256081Y0197970D01*
X0256065Y0198070D01*
X0256055Y0198187D01*
Y0215534D01*
X0256400Y0216051D01*
X0256555Y0216831D01*
X0256400Y0217611D01*
X0255958Y0218273D01*
X0253306Y0220925D01*
X0253497Y0221387D01*
X0254942D01*
X0266180Y0210150D01*
X0266197Y0210125D01*
X0266234Y0210061D01*
X0266271Y0209981D01*
X0266305Y0209884D01*
X0266336Y0209768D01*
X0266360Y0209647D01*
X0266394Y0209286D01*
X0266396Y0209121D01*
X0266390Y0209076D01*
X0266493Y0208293D01*
X0266796Y0207563D01*
X0267277Y0206936D01*
X0267903Y0206455D01*
X0268633Y0206153D01*
X0269416Y0206050D01*
X0270199Y0206153D01*
X0270929Y0206455D01*
X0271556Y0206936D01*
X0272037Y0207563D01*
X0272339Y0208293D01*
X0272442Y0209076D01*
X0272339Y0209859D01*
X0272037Y0210589D01*
X0271556Y0211216D01*
X0270929Y0211697D01*
X0270199Y0211999D01*
X0269416Y0212102D01*
X0269371Y0212096D01*
X0269192Y0212099D01*
X0269016Y0212110D01*
X0268860Y0212130D01*
X0268724Y0212156D01*
X0268608Y0212187D01*
X0268511Y0212221D01*
X0268431Y0212258D01*
X0268367Y0212295D01*
X0268342Y0212313D01*
X0256658Y0223998D01*
X0256204Y0224300D01*
X0256102Y0224424D01*
X0255959Y0224802D01*
X0256037Y0224903D01*
X0256339Y0225633D01*
X0256442Y0226416D01*
X0256339Y0227199D01*
X0256037Y0227929D01*
X0255556Y0228556D01*
X0255520Y0228584D01*
X0255395Y0228712D01*
X0255279Y0228844D01*
X0255182Y0228968D01*
X0255105Y0229083D01*
X0255044Y0229187D01*
X0255000Y0229281D01*
X0254970Y0229363D01*
X0254950Y0229434D01*
X0254946Y0229464D01*
Y0233316D01*
X0254829Y0233901D01*
X0254665Y0234147D01*
X0254933Y0234647D01*
X0260268D01*
X0260298Y0234642D01*
X0260370Y0234623D01*
X0260452Y0234592D01*
X0260545Y0234548D01*
X0260649Y0234488D01*
X0260751Y0234418D01*
X0261031Y0234187D01*
X0261149Y0234072D01*
X0261176Y0234036D01*
X0261803Y0233556D01*
X0262533Y0233253D01*
X0263316Y0233150D01*
X0264099Y0233253D01*
X0264829Y0233556D01*
X0265456Y0234036D01*
X0265937Y0234663D01*
X0266239Y0235393D01*
X0266342Y0236176D01*
X0266239Y0236959D01*
X0265937Y0237689D01*
X0265456Y0238316D01*
X0264829Y0238796D01*
X0264099Y0239099D01*
X0263316Y0239202D01*
X0262533Y0239099D01*
X0261803Y0238796D01*
X0261176Y0238316D01*
X0261149Y0238280D01*
X0261020Y0238155D01*
X0260888Y0238039D01*
X0260764Y0237942D01*
X0260649Y0237864D01*
X0260545Y0237804D01*
X0260452Y0237760D01*
X0260370Y0237729D01*
X0260298Y0237710D01*
X0260268Y0237705D01*
X0254018D01*
X0241566Y0250157D01*
X0241070Y0250489D01*
X0240485Y0250605D01*
X0217738D01*
X0217153Y0250489D01*
X0216657Y0250157D01*
X0213645Y0247146D01*
X0207150D01*
X0206098Y0248198D01*
X0205601Y0248529D01*
X0205016Y0248646D01*
X0200966D01*
X0200381Y0248529D01*
X0199885Y0248198D01*
X0197835Y0246147D01*
X0197503Y0245651D01*
X0197387Y0245066D01*
Y0228907D01*
X0197503Y0228321D01*
X0197835Y0227825D01*
X0198153Y0227507D01*
X0189007Y0218361D01*
X0188546Y0218552D01*
Y0291469D01*
X0188550Y0291498D01*
X0188569Y0291570D01*
X0188600Y0291652D01*
X0188644Y0291745D01*
X0188705Y0291849D01*
X0188774Y0291951D01*
X0189005Y0292231D01*
X0189120Y0292349D01*
X0189156Y0292376D01*
X0189637Y0293003D01*
X0189939Y0293733D01*
X0190042Y0294516D01*
X0189939Y0295299D01*
X0189637Y0296029D01*
X0189156Y0296656D01*
X0188529Y0297137D01*
X0187799Y0297439D01*
X0187016Y0297542D01*
X0186233Y0297439D01*
X0185503Y0297137D01*
X0184877Y0296656D01*
X0184396Y0296029D01*
X0184093Y0295299D01*
X0183990Y0294516D01*
X0184093Y0293733D01*
X0184396Y0293003D01*
X0184877Y0292376D01*
X0184913Y0292349D01*
X0185038Y0292220D01*
X0185153Y0292088D01*
X0185250Y0291964D01*
X0185328Y0291849D01*
X0185388Y0291745D01*
X0185432Y0291652D01*
X0185463Y0291570D01*
X0185482Y0291498D01*
X0185487Y0291469D01*
Y0217669D01*
X0173335Y0205516D01*
X0173003Y0205020D01*
X0172887Y0204435D01*
Y0150016D01*
X0173003Y0149431D01*
X0173335Y0148935D01*
X0200935Y0121335D01*
X0201431Y0121003D01*
X0202016Y0120887D01*
X0309154D01*
X0316106Y0113935D01*
X0316602Y0113603D01*
X0317188Y0113487D01*
X0381445D01*
X0382030Y0113603D01*
X0382526Y0113935D01*
X0391678Y0123087D01*
X0447116D01*
X0447701Y0123203D01*
X0448198Y0123535D01*
X0454198Y0129535D01*
X0454529Y0130031D01*
X0454646Y0130616D01*
Y0162316D01*
X0454529Y0162901D01*
X0454198Y0163398D01*
X0445305Y0172290D01*
X0445285Y0172317D01*
X0445237Y0172394D01*
X0445192Y0172479D01*
X0445075Y0172767D01*
X0445032Y0172904D01*
X0444934Y0173309D01*
X0444892Y0173537D01*
X0444866Y0173602D01*
X0444839Y0173809D01*
X0444537Y0174539D01*
X0444056Y0175165D01*
X0443429Y0175646D01*
X0442699Y0175948D01*
X0441916Y0176051D01*
X0441133Y0175948D01*
X0440403Y0175646D01*
X0439777Y0175165D01*
X0439296Y0174539D01*
X0438993Y0173809D01*
X0438890Y0173026D01*
X0438993Y0172242D01*
X0439296Y0171513D01*
X0439777Y0170886D01*
X0440403Y0170405D01*
X0441133Y0170103D01*
X0441916Y0170000D01*
X0442343Y0170056D01*
X0442438Y0170052D01*
X0442631Y0170082D01*
X0442774Y0170094D01*
X0442898Y0170095D01*
X0443001Y0170087D01*
X0443087Y0170072D01*
X0443156Y0170053D01*
X0443212Y0170030D01*
X0443259Y0170004D01*
X0443279Y0169991D01*
X0451587Y0161683D01*
Y0131250D01*
X0446483Y0126146D01*
X0391045D01*
X0390459Y0126029D01*
X0389963Y0125698D01*
X0380811Y0116546D01*
X0374887D01*
X0374679Y0117046D01*
X0377198Y0119564D01*
X0377529Y0120060D01*
X0377646Y0120645D01*
Y0123383D01*
X0379998Y0125735D01*
X0380329Y0126231D01*
X0380446Y0126816D01*
Y0130116D01*
X0380329Y0130701D01*
X0379998Y0131198D01*
X0377398Y0133798D01*
X0376901Y0134129D01*
X0376316Y0134246D01*
X0375616D01*
Y0137216D01*
X0366616D01*
Y0128216D01*
X0375616D01*
Y0130546D01*
X0376116Y0130753D01*
X0377387Y0129483D01*
Y0127450D01*
X0375350Y0125412D01*
X0374686Y0125456D01*
X0374326Y0125926D01*
X0373386Y0126647D01*
X0372291Y0127100D01*
X0371866Y0127156D01*
Y0122716D01*
X0371116D01*
Y0121966D01*
X0366676D01*
X0366732Y0121541D01*
X0367185Y0120447D01*
X0367723Y0119746D01*
X0367477Y0119246D01*
X0364756D01*
X0364509Y0119746D01*
X0365047Y0120447D01*
X0365500Y0121541D01*
X0365655Y0122716D01*
X0365500Y0123891D01*
X0365047Y0124986D01*
X0364326Y0125926D01*
X0363386Y0126647D01*
X0362291Y0127100D01*
X0361116Y0127255D01*
X0359941Y0127100D01*
X0358847Y0126647D01*
X0357907Y0125926D01*
X0357185Y0124986D01*
X0356732Y0123891D01*
X0356577Y0122716D01*
X0356732Y0121541D01*
X0357185Y0120447D01*
X0357723Y0119746D01*
X0357477Y0119246D01*
X0354755D01*
X0354509Y0119746D01*
X0355047Y0120447D01*
X0355500Y0121541D01*
X0355655Y0122716D01*
X0355500Y0123891D01*
X0355047Y0124986D01*
X0354326Y0125926D01*
X0353386Y0126647D01*
X0352291Y0127100D01*
X0351116Y0127255D01*
X0349941Y0127100D01*
X0348847Y0126647D01*
X0347907Y0125926D01*
X0347185Y0124986D01*
X0346732Y0123891D01*
X0346577Y0122716D01*
X0346732Y0121541D01*
X0347185Y0120447D01*
X0347724Y0119746D01*
X0347477Y0119246D01*
X0344755D01*
X0344509Y0119746D01*
X0345047Y0120447D01*
X0345500Y0121541D01*
X0345655Y0122716D01*
X0345500Y0123891D01*
X0345047Y0124986D01*
X0344326Y0125926D01*
X0343386Y0126647D01*
X0342291Y0127100D01*
X0341116Y0127255D01*
X0339941Y0127100D01*
X0338847Y0126647D01*
X0337907Y0125926D01*
X0337185Y0124986D01*
X0336732Y0123891D01*
X0336577Y0122716D01*
X0336732Y0121541D01*
X0337185Y0120447D01*
X0337723Y0119746D01*
X0337477Y0119246D01*
X0334755D01*
X0334509Y0119746D01*
X0335047Y0120447D01*
X0335500Y0121541D01*
X0335556Y0121966D01*
X0331116D01*
X0326676D01*
X0326732Y0121541D01*
X0327185Y0120447D01*
X0327724Y0119746D01*
X0327477Y0119246D01*
X0322846D01*
Y0136977D01*
X0323346Y0137128D01*
X0323556Y0136814D01*
X0325665Y0134704D01*
X0325717Y0134623D01*
X0325807Y0134451D01*
X0325902Y0134240D01*
X0326594Y0132128D01*
X0326713Y0131687D01*
X0326732Y0131541D01*
X0327185Y0130447D01*
X0327907Y0129507D01*
X0328847Y0128785D01*
X0329941Y0128332D01*
X0331116Y0128177D01*
X0332291Y0128332D01*
X0333386Y0128785D01*
X0334326Y0129507D01*
X0335047Y0130447D01*
X0335500Y0131541D01*
X0335655Y0132716D01*
X0335500Y0133891D01*
X0335047Y0134986D01*
X0334326Y0135926D01*
X0333386Y0136647D01*
X0332291Y0137100D01*
X0331116Y0137255D01*
X0329941Y0137100D01*
X0329810Y0137046D01*
X0329482Y0136962D01*
X0329116Y0136889D01*
X0328788Y0136846D01*
X0328502Y0136830D01*
X0328258Y0136839D01*
X0328057Y0136867D01*
X0327897Y0136909D01*
X0327775Y0136960D01*
X0327679Y0137019D01*
X0327663Y0137032D01*
X0326167Y0138529D01*
Y0190417D01*
X0326229Y0190511D01*
X0326346Y0191096D01*
Y0201339D01*
X0326807Y0201530D01*
X0349687Y0178651D01*
Y0138215D01*
X0349686Y0138209D01*
X0349658Y0138089D01*
X0349600Y0137930D01*
X0349504Y0137736D01*
X0349368Y0137511D01*
X0349190Y0137259D01*
X0348975Y0136992D01*
X0348388Y0136360D01*
X0348043Y0136030D01*
X0347907Y0135926D01*
X0347185Y0134986D01*
X0346732Y0133891D01*
X0346577Y0132716D01*
X0346732Y0131541D01*
X0347185Y0130447D01*
X0347907Y0129507D01*
X0348847Y0128785D01*
X0349941Y0128332D01*
X0351116Y0128177D01*
X0352291Y0128332D01*
X0353386Y0128785D01*
X0354326Y0129507D01*
X0355047Y0130447D01*
X0355500Y0131541D01*
X0355655Y0132716D01*
X0355500Y0133891D01*
X0355047Y0134986D01*
X0354326Y0135926D01*
X0354242Y0135989D01*
X0354034Y0136212D01*
X0353457Y0136895D01*
X0353244Y0137184D01*
X0353066Y0137455D01*
X0352929Y0137695D01*
X0352833Y0137900D01*
X0352773Y0138066D01*
X0352746Y0138187D01*
Y0179285D01*
X0352629Y0179870D01*
X0352298Y0180366D01*
X0327469Y0205194D01*
X0327937Y0205803D01*
X0328239Y0206533D01*
X0328342Y0207316D01*
X0328239Y0208099D01*
X0327937Y0208829D01*
X0327456Y0209456D01*
X0326829Y0209937D01*
X0326099Y0210239D01*
X0325316Y0210342D01*
X0324533Y0210239D01*
X0323846Y0209954D01*
X0323480Y0210084D01*
X0323346Y0210151D01*
Y0223908D01*
X0323846Y0224155D01*
X0324203Y0223880D01*
X0324933Y0223578D01*
X0325716Y0223475D01*
X0325761Y0223481D01*
X0325940Y0223478D01*
X0326116Y0223467D01*
X0326272Y0223447D01*
X0326408Y0223421D01*
X0326524Y0223390D01*
X0326622Y0223355D01*
X0326701Y0223319D01*
X0326765Y0223282D01*
X0326790Y0223264D01*
X0359687Y0190367D01*
Y0138215D01*
X0359686Y0138209D01*
X0359658Y0138089D01*
X0359600Y0137930D01*
X0359504Y0137736D01*
X0359368Y0137511D01*
X0359190Y0137259D01*
X0358975Y0136992D01*
X0358388Y0136360D01*
X0358043Y0136030D01*
X0357907Y0135926D01*
X0357185Y0134986D01*
X0356732Y0133891D01*
X0356577Y0132716D01*
X0356732Y0131541D01*
X0357185Y0130447D01*
X0357907Y0129507D01*
X0358847Y0128785D01*
X0359941Y0128332D01*
X0361116Y0128177D01*
X0362291Y0128332D01*
X0363386Y0128785D01*
X0364326Y0129507D01*
X0365047Y0130447D01*
X0365500Y0131541D01*
X0365655Y0132716D01*
X0365500Y0133891D01*
X0365047Y0134986D01*
X0364326Y0135926D01*
X0364243Y0135989D01*
X0364034Y0136212D01*
X0363457Y0136895D01*
X0363244Y0137184D01*
X0363066Y0137455D01*
X0362929Y0137695D01*
X0362833Y0137900D01*
X0362773Y0138066D01*
X0362746Y0138187D01*
Y0179458D01*
X0363194Y0179680D01*
X0363303Y0179596D01*
X0364033Y0179293D01*
X0364816Y0179190D01*
X0365599Y0179293D01*
X0366329Y0179596D01*
X0366956Y0180077D01*
X0367437Y0180703D01*
X0367739Y0181433D01*
X0367842Y0182216D01*
X0367739Y0182999D01*
X0367437Y0183729D01*
X0366956Y0184356D01*
X0366920Y0184383D01*
X0366795Y0184512D01*
X0366679Y0184644D01*
X0366582Y0184768D01*
X0366505Y0184883D01*
X0366444Y0184987D01*
X0366400Y0185081D01*
X0366370Y0185162D01*
X0366350Y0185234D01*
X0366346Y0185264D01*
Y0190516D01*
X0366229Y0191101D01*
X0365898Y0191598D01*
X0331746Y0225750D01*
Y0227566D01*
X0331629Y0228151D01*
X0331298Y0228647D01*
X0321746Y0238199D01*
Y0303833D01*
X0321998Y0304085D01*
X0322329Y0304581D01*
X0322446Y0305166D01*
Y0308066D01*
X0322329Y0308651D01*
X0321998Y0309147D01*
X0316847Y0314298D01*
X0316351Y0314629D01*
X0315766Y0314746D01*
X0309650D01*
X0305170Y0319225D01*
X0305362Y0319687D01*
X0413816D01*
X0414401Y0319803D01*
X0414560Y0319909D01*
X0430880Y0303590D01*
X0430898Y0303565D01*
X0430934Y0303501D01*
X0430971Y0303422D01*
X0431005Y0303324D01*
X0431036Y0303208D01*
X0431060Y0303087D01*
X0431094Y0302726D01*
X0431096Y0302561D01*
X0431090Y0302516D01*
X0431193Y0301733D01*
X0431496Y0301003D01*
X0431977Y0300377D01*
X0432603Y0299896D01*
X0433333Y0299593D01*
X0434116Y0299490D01*
X0434899Y0299593D01*
X0435629Y0299896D01*
X0436256Y0300377D01*
X0436737Y0301003D01*
X0437039Y0301733D01*
X0437142Y0302516D01*
X0437039Y0303299D01*
X0436737Y0304029D01*
X0436256Y0304656D01*
X0435629Y0305137D01*
X0434899Y0305439D01*
X0434116Y0305542D01*
X0434071Y0305536D01*
X0433892Y0305539D01*
X0433716Y0305550D01*
X0433560Y0305570D01*
X0433424Y0305596D01*
X0433308Y0305627D01*
X0433211Y0305662D01*
X0433131Y0305698D01*
X0433067Y0305735D01*
X0433042Y0305753D01*
X0429680Y0309115D01*
X0429872Y0309577D01*
X0454379D01*
X0454450Y0309569D01*
X0454563Y0309551D01*
X0454652Y0309530D01*
X0454718Y0309510D01*
X0454759Y0309494D01*
X0454766Y0309490D01*
X0454776Y0309476D01*
X0455403Y0308996D01*
X0456133Y0308693D01*
X0456916Y0308590D01*
X0456933Y0308593D01*
X0456941Y0308590D01*
X0456982Y0308573D01*
X0457042Y0308541D01*
X0457120Y0308492D01*
X0457203Y0308432D01*
X0457292Y0308357D01*
X0458774Y0306874D01*
X0458774Y0306874D01*
X0459436Y0306432D01*
X0460216Y0306277D01*
X0496479D01*
X0496550Y0306269D01*
X0496663Y0306251D01*
X0496752Y0306230D01*
X0496818Y0306210D01*
X0496859Y0306194D01*
X0496866Y0306190D01*
X0496876Y0306176D01*
X0497503Y0305696D01*
X0498233Y0305393D01*
X0499016Y0305290D01*
X0499799Y0305393D01*
X0500529Y0305696D01*
X0501156Y0306176D01*
X0501637Y0306803D01*
X0501939Y0307533D01*
X0502042Y0308316D01*
X0502040Y0308333D01*
X0502042Y0308341D01*
X0502060Y0308382D01*
X0502092Y0308442D01*
X0502141Y0308520D01*
X0502200Y0308603D01*
X0502276Y0308692D01*
X0504721Y0311137D01*
X0538979D01*
X0539050Y0311129D01*
X0539163Y0311111D01*
X0539252Y0311090D01*
X0539318Y0311070D01*
X0539359Y0311053D01*
X0539366Y0311050D01*
X0539376Y0311036D01*
X0539390Y0311026D01*
X0539394Y0311019D01*
X0539410Y0310978D01*
X0539431Y0310912D01*
X0539451Y0310823D01*
X0539467Y0310722D01*
X0539477Y0310606D01*
Y0246561D01*
X0535872Y0242955D01*
X0504316D01*
X0504316Y0242955D01*
X0503536Y0242800D01*
X0502874Y0242358D01*
X0489468Y0228952D01*
X0489413Y0228907D01*
X0489320Y0228841D01*
X0489242Y0228792D01*
X0489182Y0228760D01*
X0489141Y0228742D01*
X0489133Y0228740D01*
X0489116Y0228742D01*
X0488333Y0228639D01*
X0487603Y0228337D01*
X0486976Y0227856D01*
X0486966Y0227842D01*
X0486959Y0227839D01*
X0486918Y0227822D01*
X0486852Y0227802D01*
X0486763Y0227781D01*
X0486662Y0227765D01*
X0486546Y0227755D01*
X0481661D01*
X0474755Y0234661D01*
Y0255973D01*
X0474600Y0256753D01*
X0474158Y0257415D01*
X0469648Y0261925D01*
X0469839Y0262387D01*
X0478983D01*
X0481340Y0260030D01*
X0481349Y0260016D01*
X0481364Y0259987D01*
X0481374Y0259960D01*
X0481381Y0259927D01*
X0481385Y0259882D01*
X0481382Y0259820D01*
X0481370Y0259738D01*
X0481344Y0259635D01*
X0481289Y0259474D01*
X0481280Y0259407D01*
X0481193Y0259199D01*
X0481090Y0258416D01*
X0481193Y0257633D01*
X0481496Y0256903D01*
X0481977Y0256276D01*
X0482603Y0255796D01*
X0483333Y0255493D01*
X0484116Y0255390D01*
X0484899Y0255493D01*
X0485629Y0255796D01*
X0486256Y0256276D01*
X0486737Y0256903D01*
X0487039Y0257633D01*
X0487142Y0258416D01*
X0487039Y0259199D01*
X0486737Y0259929D01*
X0486256Y0260556D01*
X0485629Y0261037D01*
X0485260Y0261190D01*
X0485174Y0261244D01*
X0484691Y0261432D01*
X0484309Y0261603D01*
X0484005Y0261763D01*
X0483901Y0261826D01*
X0483814Y0261885D01*
X0483794Y0261901D01*
X0481770Y0263925D01*
X0481962Y0264387D01*
X0520283D01*
X0520635Y0264035D01*
X0521131Y0263703D01*
X0521716Y0263587D01*
X0523468D01*
X0523498Y0263582D01*
X0523570Y0263563D01*
X0523652Y0263532D01*
X0523745Y0263488D01*
X0523849Y0263428D01*
X0523951Y0263358D01*
X0524231Y0263128D01*
X0524349Y0263013D01*
X0524376Y0262977D01*
X0525003Y0262496D01*
X0525733Y0262193D01*
X0526516Y0262090D01*
X0527299Y0262193D01*
X0528029Y0262496D01*
X0528656Y0262977D01*
X0529137Y0263603D01*
X0529439Y0264333D01*
X0529542Y0265116D01*
X0529439Y0265899D01*
X0529137Y0266629D01*
X0528698Y0267200D01*
X0528696Y0267239D01*
X0528735Y0267435D01*
X0528864Y0267726D01*
X0529251Y0267803D01*
X0529747Y0268135D01*
X0530295Y0268682D01*
X0530377Y0268676D01*
X0531003Y0268196D01*
X0531733Y0267893D01*
X0532516Y0267790D01*
X0533299Y0267893D01*
X0534029Y0268196D01*
X0534656Y0268676D01*
X0535137Y0269303D01*
X0535439Y0270033D01*
X0535542Y0270816D01*
X0535439Y0271599D01*
X0535137Y0272329D01*
X0534656Y0272956D01*
X0534029Y0273437D01*
X0533299Y0273739D01*
X0532516Y0273842D01*
X0531733Y0273739D01*
X0531206Y0273521D01*
X0530671Y0273758D01*
X0530639Y0273999D01*
X0530337Y0274729D01*
X0529856Y0275356D01*
X0529229Y0275837D01*
X0528499Y0276139D01*
X0527716Y0276242D01*
X0526933Y0276139D01*
X0526203Y0275837D01*
X0525576Y0275356D01*
X0525096Y0274729D01*
X0524793Y0273999D01*
X0524690Y0273216D01*
X0524703Y0273122D01*
X0524373Y0272746D01*
X0521558D01*
X0521103Y0273116D01*
X0521142Y0273416D01*
X0521039Y0274199D01*
X0520737Y0274929D01*
X0520256Y0275556D01*
X0519629Y0276037D01*
X0518899Y0276339D01*
X0518116Y0276442D01*
X0517333Y0276339D01*
X0516603Y0276037D01*
X0515976Y0275556D01*
X0515949Y0275520D01*
X0515820Y0275395D01*
X0515688Y0275279D01*
X0515564Y0275182D01*
X0515449Y0275105D01*
X0515345Y0275044D01*
X0515252Y0275000D01*
X0515170Y0274970D01*
X0515098Y0274950D01*
X0515068Y0274946D01*
X0387816D01*
X0387231Y0274829D01*
X0386735Y0274498D01*
X0383635Y0271398D01*
X0383303Y0270901D01*
X0383187Y0270316D01*
Y0270064D01*
X0383182Y0270034D01*
X0383163Y0269963D01*
X0383132Y0269881D01*
X0383088Y0269787D01*
X0383028Y0269683D01*
X0382959Y0269581D01*
X0382728Y0269302D01*
X0382613Y0269183D01*
X0382576Y0269156D01*
X0382549Y0269120D01*
X0382420Y0268995D01*
X0382288Y0268879D01*
X0382164Y0268782D01*
X0382049Y0268705D01*
X0381945Y0268644D01*
X0381852Y0268600D01*
X0381770Y0268569D01*
X0381698Y0268550D01*
X0381668Y0268546D01*
X0379316D01*
X0378731Y0268429D01*
X0378235Y0268098D01*
X0367028Y0256891D01*
X0366985Y0256862D01*
X0364935Y0254812D01*
X0364603Y0254316D01*
X0364487Y0253730D01*
Y0244816D01*
X0364603Y0244231D01*
X0364935Y0243735D01*
X0384380Y0224290D01*
X0384398Y0224265D01*
X0384434Y0224201D01*
X0384471Y0224122D01*
X0384505Y0224024D01*
X0384537Y0223908D01*
X0384560Y0223787D01*
X0384594Y0223426D01*
X0384596Y0223261D01*
X0384590Y0223216D01*
X0384693Y0222433D01*
X0384996Y0221703D01*
X0385476Y0221076D01*
X0386103Y0220596D01*
X0386833Y0220293D01*
X0387616Y0220190D01*
X0388399Y0220293D01*
X0389129Y0220596D01*
X0389756Y0221076D01*
X0390237Y0221703D01*
X0390539Y0222433D01*
X0390642Y0223216D01*
X0390539Y0223999D01*
X0390237Y0224729D01*
X0389756Y0225356D01*
X0389129Y0225837D01*
X0388399Y0226139D01*
X0387616Y0226242D01*
X0387571Y0226236D01*
X0387392Y0226239D01*
X0387216Y0226250D01*
X0387060Y0226270D01*
X0386924Y0226296D01*
X0386808Y0226327D01*
X0386711Y0226362D01*
X0386631Y0226398D01*
X0386567Y0226435D01*
X0386543Y0226453D01*
X0367546Y0245450D01*
Y0248371D01*
X0368046Y0248421D01*
X0368103Y0248131D01*
X0368435Y0247635D01*
X0393387Y0222683D01*
Y0220376D01*
X0393103Y0219951D01*
X0392987Y0219366D01*
Y0216466D01*
X0393103Y0215881D01*
X0393435Y0215385D01*
X0396885Y0211935D01*
X0397381Y0211603D01*
X0397966Y0211487D01*
X0404583D01*
X0410687Y0205383D01*
Y0178294D01*
X0410682Y0178262D01*
X0410662Y0178185D01*
X0410630Y0178096D01*
X0410584Y0177994D01*
X0410523Y0177881D01*
X0410451Y0177767D01*
X0410223Y0177466D01*
X0410181Y0177419D01*
X0410177Y0177416D01*
X0410168Y0177404D01*
X0410082Y0177307D01*
X0410047Y0177247D01*
X0409696Y0176789D01*
X0409393Y0176059D01*
X0409290Y0175276D01*
X0409393Y0174493D01*
X0409696Y0173763D01*
X0410177Y0173136D01*
X0410803Y0172655D01*
X0411533Y0172353D01*
X0412316Y0172250D01*
X0413099Y0172353D01*
X0413829Y0172655D01*
X0414456Y0173136D01*
X0414937Y0173763D01*
X0415239Y0174493D01*
X0415342Y0175276D01*
X0415239Y0176059D01*
X0414937Y0176789D01*
X0414456Y0177416D01*
X0414359Y0177490D01*
X0414339Y0177517D01*
X0414184Y0177662D01*
X0414069Y0177783D01*
X0413974Y0177896D01*
X0413898Y0178000D01*
X0413840Y0178095D01*
X0413797Y0178180D01*
X0413768Y0178254D01*
X0413750Y0178320D01*
X0413746Y0178348D01*
Y0206016D01*
X0413629Y0206602D01*
X0413298Y0207098D01*
X0406869Y0213526D01*
X0406913Y0214190D01*
X0407156Y0214376D01*
X0407637Y0215003D01*
X0407939Y0215733D01*
X0408042Y0216516D01*
X0407939Y0217299D01*
X0407637Y0218029D01*
X0407156Y0218656D01*
X0407120Y0218684D01*
X0406995Y0218812D01*
X0406879Y0218944D01*
X0406782Y0219068D01*
X0406705Y0219183D01*
X0406644Y0219287D01*
X0406600Y0219381D01*
X0406569Y0219462D01*
X0406550Y0219534D01*
X0406546Y0219564D01*
Y0232106D01*
X0406829Y0232531D01*
X0406946Y0233116D01*
X0406829Y0233701D01*
X0406498Y0234198D01*
X0406498Y0234198D01*
X0391423Y0249272D01*
X0391510Y0249866D01*
X0391523Y0249884D01*
X0391541Y0249896D01*
X0391554Y0249916D01*
X0391656Y0249994D01*
X0392137Y0250621D01*
X0392439Y0251350D01*
X0392542Y0252133D01*
X0392439Y0252917D01*
X0392137Y0253646D01*
X0391656Y0254273D01*
X0391620Y0254301D01*
X0391495Y0254429D01*
X0391379Y0254562D01*
X0391282Y0254686D01*
X0391205Y0254800D01*
X0391144Y0254905D01*
X0391100Y0254998D01*
X0391070Y0255080D01*
X0391050Y0255151D01*
X0391046Y0255181D01*
Y0260083D01*
X0395350Y0264387D01*
X0400071D01*
X0400262Y0263925D01*
X0398635Y0262298D01*
X0398303Y0261801D01*
X0398187Y0261216D01*
Y0255664D01*
X0398182Y0255634D01*
X0398163Y0255562D01*
X0398132Y0255481D01*
X0398088Y0255387D01*
X0398028Y0255283D01*
X0397958Y0255181D01*
X0397728Y0254902D01*
X0397613Y0254784D01*
X0397576Y0254756D01*
X0397096Y0254129D01*
X0396793Y0253399D01*
X0396690Y0252616D01*
X0396793Y0251833D01*
X0397096Y0251103D01*
X0397576Y0250477D01*
X0398203Y0249996D01*
X0398933Y0249693D01*
X0399716Y0249590D01*
X0400499Y0249693D01*
X0401229Y0249996D01*
X0401856Y0250477D01*
X0402337Y0251103D01*
X0402639Y0251833D01*
X0402742Y0252616D01*
X0402639Y0253399D01*
X0402337Y0254129D01*
X0401856Y0254756D01*
X0401820Y0254784D01*
X0401695Y0254912D01*
X0401579Y0255044D01*
X0401482Y0255168D01*
X0401405Y0255283D01*
X0401344Y0255387D01*
X0401300Y0255481D01*
X0401269Y0255562D01*
X0401250Y0255634D01*
X0401246Y0255664D01*
Y0260583D01*
X0403050Y0262387D01*
X0455714D01*
X0455905Y0261925D01*
X0453536Y0259555D01*
X0451853D01*
X0451782Y0259563D01*
X0451670Y0259581D01*
X0451580Y0259602D01*
X0451514Y0259622D01*
X0451473Y0259639D01*
X0451466Y0259642D01*
X0451456Y0259656D01*
X0450829Y0260137D01*
X0450099Y0260439D01*
X0449316Y0260542D01*
X0448533Y0260439D01*
X0448198Y0260300D01*
X0447529Y0260255D01*
X0411753D01*
X0411682Y0260263D01*
X0411570Y0260281D01*
X0411480Y0260302D01*
X0411414Y0260322D01*
X0411373Y0260339D01*
X0411366Y0260342D01*
X0411356Y0260356D01*
X0410729Y0260837D01*
X0409999Y0261139D01*
X0409216Y0261242D01*
X0408433Y0261139D01*
X0407703Y0260837D01*
X0407077Y0260356D01*
X0406596Y0259729D01*
X0406293Y0258999D01*
X0406190Y0258216D01*
X0406293Y0257433D01*
X0406596Y0256703D01*
X0407077Y0256077D01*
X0407703Y0255596D01*
X0408433Y0255293D01*
X0409216Y0255190D01*
X0409999Y0255293D01*
X0410729Y0255596D01*
X0411356Y0256077D01*
X0411366Y0256090D01*
X0411373Y0256094D01*
X0411414Y0256110D01*
X0411480Y0256131D01*
X0411570Y0256151D01*
X0411670Y0256167D01*
X0411787Y0256177D01*
X0446474D01*
X0446549Y0256166D01*
X0446627Y0256149D01*
X0446636Y0256146D01*
X0446696Y0256003D01*
X0447177Y0255377D01*
X0447803Y0254896D01*
X0448533Y0254593D01*
X0449316Y0254490D01*
X0450099Y0254593D01*
X0450829Y0254896D01*
X0451456Y0255377D01*
X0451466Y0255390D01*
X0451473Y0255394D01*
X0451514Y0255410D01*
X0451580Y0255431D01*
X0451670Y0255451D01*
X0451770Y0255467D01*
X0451887Y0255477D01*
X0454178D01*
X0454388Y0254980D01*
X0429635Y0230227D01*
X0429303Y0229731D01*
X0429187Y0229145D01*
Y0220325D01*
X0428687Y0220225D01*
X0428437Y0220829D01*
X0427956Y0221456D01*
X0427329Y0221937D01*
X0426599Y0222239D01*
X0425816Y0222342D01*
X0425033Y0222239D01*
X0424303Y0221937D01*
X0423676Y0221456D01*
X0423196Y0220829D01*
X0422893Y0220099D01*
X0422865Y0219883D01*
X0422743Y0219701D01*
X0422627Y0219116D01*
X0422743Y0218531D01*
X0422788Y0218465D01*
X0422787Y0218461D01*
X0422763Y0218356D01*
X0422735Y0218270D01*
X0422705Y0218199D01*
X0422673Y0218142D01*
X0422656Y0218119D01*
X0422522Y0217985D01*
X0422190Y0217489D01*
X0422074Y0216903D01*
Y0216040D01*
X0420920Y0214886D01*
X0418397D01*
X0417811Y0214769D01*
X0417315Y0214438D01*
X0417035Y0214158D01*
X0416703Y0213661D01*
X0416587Y0213076D01*
Y0167716D01*
X0416703Y0167131D01*
X0417035Y0166635D01*
X0429460Y0154209D01*
X0429425Y0154105D01*
X0429354Y0153948D01*
X0429252Y0153765D01*
X0429117Y0153560D01*
X0428955Y0153343D01*
X0428499Y0152821D01*
X0428282Y0152601D01*
X0428197Y0152535D01*
X0427563Y0151710D01*
X0427165Y0150748D01*
X0427029Y0149716D01*
X0427165Y0148684D01*
X0427563Y0147723D01*
X0428197Y0146897D01*
X0429023Y0146263D01*
X0429984Y0145865D01*
X0431016Y0145729D01*
X0432048Y0145865D01*
X0433010Y0146263D01*
X0433835Y0146897D01*
X0434469Y0147723D01*
X0434867Y0148684D01*
X0435003Y0149716D01*
X0434867Y0150748D01*
X0434469Y0151710D01*
X0433835Y0152535D01*
X0433750Y0152601D01*
X0433533Y0152821D01*
X0433077Y0153343D01*
X0432915Y0153560D01*
X0432780Y0153765D01*
X0432678Y0153948D01*
X0432607Y0154105D01*
X0432564Y0154232D01*
X0432546Y0154320D01*
Y0154816D01*
X0432429Y0155401D01*
X0432098Y0155898D01*
X0419646Y0168350D01*
Y0180091D01*
X0419780Y0180157D01*
X0420146Y0180288D01*
X0420833Y0180003D01*
X0421616Y0179900D01*
X0422399Y0180003D01*
X0423129Y0180305D01*
X0423756Y0180786D01*
X0424237Y0181413D01*
X0424539Y0182142D01*
X0424642Y0182926D01*
X0424539Y0183709D01*
X0424237Y0184439D01*
X0423756Y0185065D01*
X0423720Y0185093D01*
X0423595Y0185222D01*
X0423479Y0185354D01*
X0423382Y0185478D01*
X0423305Y0185593D01*
X0423244Y0185697D01*
X0423200Y0185790D01*
X0423170Y0185872D01*
X0423150Y0185943D01*
X0423146Y0185973D01*
Y0209958D01*
X0426237Y0213049D01*
X0426578D01*
X0427163Y0213165D01*
X0427660Y0213497D01*
X0431798Y0217635D01*
X0432129Y0218131D01*
X0432246Y0218716D01*
Y0228512D01*
X0459220Y0255487D01*
X0462835D01*
X0462867Y0255482D01*
X0462950Y0255462D01*
X0463046Y0255429D01*
X0463156Y0255382D01*
X0463279Y0255320D01*
X0463403Y0255247D01*
X0463726Y0255022D01*
X0463898Y0254885D01*
X0463988Y0254838D01*
X0464303Y0254596D01*
X0465033Y0254293D01*
X0465816Y0254190D01*
X0466599Y0254293D01*
X0467329Y0254596D01*
X0467956Y0255077D01*
X0468437Y0255703D01*
X0468717Y0256381D01*
X0468961Y0256493D01*
X0469237Y0256569D01*
X0470677Y0255128D01*
Y0233816D01*
X0470832Y0233036D01*
X0471274Y0232374D01*
X0479374Y0224274D01*
X0480036Y0223832D01*
X0480816Y0223677D01*
X0486579D01*
X0486650Y0223669D01*
X0486763Y0223651D01*
X0486852Y0223630D01*
X0486918Y0223610D01*
X0486959Y0223594D01*
X0486966Y0223590D01*
X0486976Y0223576D01*
X0487603Y0223096D01*
X0488333Y0222793D01*
X0489116Y0222690D01*
X0489899Y0222793D01*
X0490629Y0223096D01*
X0491256Y0223576D01*
X0491737Y0224203D01*
X0492039Y0224933D01*
X0492142Y0225716D01*
X0492140Y0225733D01*
X0492142Y0225741D01*
X0492160Y0225781D01*
X0492192Y0225842D01*
X0492241Y0225920D01*
X0492300Y0226003D01*
X0492376Y0226092D01*
X0505161Y0238877D01*
X0536716D01*
X0537497Y0239032D01*
X0538158Y0239474D01*
X0542958Y0244274D01*
X0542958Y0244274D01*
X0543400Y0244936D01*
X0543555Y0245716D01*
X0543555Y0245716D01*
Y0310639D01*
X0543563Y0310710D01*
X0543581Y0310823D01*
X0543602Y0310912D01*
X0543622Y0310978D01*
X0543639Y0311019D01*
X0543642Y0311026D01*
X0543656Y0311036D01*
X0544137Y0311663D01*
X0544439Y0312393D01*
X0544542Y0313176D01*
X0544439Y0313959D01*
X0544137Y0314689D01*
X0543656Y0315316D01*
X0543029Y0315796D01*
X0542299Y0316099D01*
X0541516Y0316202D01*
X0540733Y0316099D01*
X0540003Y0315796D01*
X0539376Y0315316D01*
X0539366Y0315302D01*
X0539359Y0315299D01*
X0539318Y0315282D01*
X0539252Y0315262D01*
X0539163Y0315241D01*
X0539062Y0315225D01*
X0538946Y0315215D01*
X0503876D01*
X0503876Y0315215D01*
X0503096Y0315060D01*
X0502434Y0314618D01*
X0499368Y0311552D01*
X0499313Y0311507D01*
X0499220Y0311441D01*
X0499142Y0311392D01*
X0499082Y0311360D01*
X0499041Y0311342D01*
X0499033Y0311340D01*
X0499016Y0311342D01*
X0498233Y0311239D01*
X0497503Y0310937D01*
X0496876Y0310456D01*
X0496866Y0310442D01*
X0496859Y0310439D01*
X0496818Y0310422D01*
X0496752Y0310402D01*
X0496663Y0310381D01*
X0496562Y0310365D01*
X0496446Y0310355D01*
X0461061D01*
X0460152Y0311264D01*
X0460107Y0311320D01*
X0460041Y0311412D01*
X0459992Y0311490D01*
X0459960Y0311551D01*
X0459942Y0311592D01*
X0459940Y0311599D01*
X0459942Y0311616D01*
X0459839Y0312399D01*
X0459537Y0313129D01*
X0459056Y0313756D01*
X0458429Y0314237D01*
X0457699Y0314539D01*
X0456916Y0314642D01*
X0456133Y0314539D01*
X0455403Y0314237D01*
X0454776Y0313756D01*
X0454766Y0313742D01*
X0454759Y0313739D01*
X0454718Y0313722D01*
X0454652Y0313702D01*
X0454563Y0313681D01*
X0454462Y0313665D01*
X0454346Y0313655D01*
X0429396D01*
X0417094Y0325958D01*
X0416432Y0326400D01*
X0415652Y0326555D01*
X0360661D01*
X0330652Y0356564D01*
X0330607Y0356620D01*
X0330541Y0356712D01*
X0330492Y0356790D01*
X0330460Y0356851D01*
X0330442Y0356892D01*
X0330440Y0356899D01*
X0330442Y0356916D01*
X0330339Y0357699D01*
X0330037Y0358429D01*
X0329556Y0359056D01*
X0328929Y0359537D01*
X0328199Y0359839D01*
X0327416Y0359942D01*
X0326633Y0359839D01*
X0325903Y0359537D01*
X0325276Y0359056D01*
X0324796Y0358429D01*
X0324493Y0357699D01*
X0324390Y0356916D01*
X0324493Y0356133D01*
X0324796Y0355403D01*
X0325276Y0354777D01*
X0325903Y0354296D01*
X0326633Y0353993D01*
X0327416Y0353890D01*
X0327433Y0353892D01*
X0327441Y0353890D01*
X0327482Y0353873D01*
X0327542Y0353841D01*
X0327620Y0353792D01*
X0327703Y0353732D01*
X0327792Y0353657D01*
X0358203Y0323246D01*
X0357996Y0322746D01*
X0303014D01*
X0302984Y0322750D01*
X0302912Y0322769D01*
X0302831Y0322800D01*
X0302737Y0322844D01*
X0302633Y0322905D01*
X0302531Y0322974D01*
X0302252Y0323205D01*
X0302133Y0323320D01*
X0302106Y0323356D01*
X0301479Y0323837D01*
X0300749Y0324139D01*
X0299966Y0324242D01*
X0299183Y0324139D01*
X0298453Y0323837D01*
X0297827Y0323356D01*
X0297346Y0322729D01*
X0297043Y0321999D01*
X0296940Y0321216D01*
X0297043Y0320433D01*
X0297346Y0319703D01*
X0297827Y0319076D01*
X0298453Y0318596D01*
X0299183Y0318293D01*
X0299966Y0318190D01*
X0300749Y0318293D01*
X0300999Y0318397D01*
X0301077Y0318409D01*
X0301234Y0318466D01*
X0301333Y0318493D01*
X0301411Y0318506D01*
X0301468Y0318508D01*
X0301508Y0318506D01*
X0301537Y0318499D01*
X0301562Y0318491D01*
X0301589Y0318477D01*
X0301602Y0318468D01*
X0306852Y0313217D01*
X0306661Y0312755D01*
X0296661D01*
X0288362Y0321054D01*
X0288553Y0321516D01*
X0296095D01*
X0296096Y0323679D01*
X0298833Y0326416D01*
X0309216D01*
X0310016Y0325616D01*
Y0338416D01*
X0313316Y0341716D01*
X0313118Y0341915D01*
Y0401016D01*
X0341816D01*
Y0398366D01*
X0345816D01*
X0349816D01*
Y0401016D01*
X0398716D01*
X0398916Y0401216D01*
X0454716Y0345416D01*
D02*
G37*
G36*
X0173196Y0391216D02*
X0173082Y0391210D01*
X0172963Y0391187D01*
X0172840Y0391148D01*
X0172712Y0391094D01*
X0172580Y0391024D01*
X0172443Y0390938D01*
X0172301Y0390836D01*
X0172155Y0390719D01*
X0171850Y0390436D01*
X0170436Y0391850D01*
X0170585Y0392005D01*
X0170836Y0392301D01*
X0170938Y0392443D01*
X0171024Y0392580D01*
X0171094Y0392712D01*
X0171148Y0392840D01*
X0171187Y0392963D01*
X0171210Y0393082D01*
X0171216Y0393196D01*
X0173196Y0391216D01*
D02*
G37*
G36*
X0262896Y0391116D02*
X0262782Y0391109D01*
X0262663Y0391087D01*
X0262540Y0391048D01*
X0262412Y0390994D01*
X0262280Y0390924D01*
X0262143Y0390838D01*
X0262001Y0390736D01*
X0261855Y0390619D01*
X0261550Y0390336D01*
X0260136Y0391750D01*
X0260285Y0391905D01*
X0260536Y0392201D01*
X0260638Y0392343D01*
X0260724Y0392480D01*
X0260794Y0392612D01*
X0260848Y0392740D01*
X0260887Y0392863D01*
X0260910Y0392982D01*
X0260916Y0393096D01*
X0262896Y0391116D01*
D02*
G37*
G36*
X0175052Y0390448D02*
X0175187Y0390382D01*
Y0377750D01*
X0168971Y0371534D01*
X0168307Y0371577D01*
X0168294Y0371594D01*
X0167668Y0372075D01*
X0166938Y0372377D01*
X0166155Y0372481D01*
X0165372Y0372377D01*
X0164642Y0372075D01*
X0164015Y0371594D01*
X0163534Y0370968D01*
X0163232Y0370238D01*
X0163129Y0369455D01*
X0163232Y0368672D01*
X0163513Y0367994D01*
X0163374Y0367617D01*
X0163313Y0367494D01*
X0158486D01*
X0157155Y0368824D01*
X0157439Y0369509D01*
X0157542Y0370292D01*
X0157439Y0371075D01*
X0157137Y0371805D01*
X0156656Y0372431D01*
X0156642Y0372442D01*
X0156639Y0372449D01*
X0156622Y0372490D01*
X0156602Y0372556D01*
X0156581Y0372645D01*
X0156565Y0372746D01*
X0156555Y0372862D01*
Y0384771D01*
X0159661Y0387877D01*
X0169916D01*
X0170696Y0388032D01*
X0171358Y0388474D01*
X0172864Y0389980D01*
X0172920Y0390025D01*
X0173012Y0390092D01*
X0173090Y0390141D01*
X0173151Y0390173D01*
X0173192Y0390190D01*
X0173199Y0390193D01*
X0173216Y0390190D01*
X0173999Y0390293D01*
X0174687Y0390578D01*
X0175052Y0390448D01*
D02*
G37*
G36*
X0235220Y0383333D02*
X0235252Y0382946D01*
X0235280Y0382774D01*
X0235316Y0382616D01*
X0235360Y0382473D01*
X0235412Y0382345D01*
X0235472Y0382230D01*
X0235540Y0382130D01*
X0235616Y0382045D01*
X0232816D01*
X0232892Y0382130D01*
X0232960Y0382230D01*
X0233020Y0382345D01*
X0233072Y0382473D01*
X0233116Y0382616D01*
X0233152Y0382774D01*
X0233180Y0382946D01*
X0233200Y0383132D01*
X0233216Y0383548D01*
X0235216D01*
X0235220Y0383333D01*
D02*
G37*
G36*
X0155520Y0373009D02*
X0155552Y0372622D01*
X0155580Y0372450D01*
X0155616Y0372292D01*
X0155660Y0372149D01*
X0155712Y0372020D01*
X0155772Y0371906D01*
X0155840Y0371806D01*
X0155916Y0371720D01*
X0153116D01*
X0153192Y0371806D01*
X0153260Y0371906D01*
X0153320Y0372020D01*
X0153372Y0372149D01*
X0153416Y0372292D01*
X0153452Y0372450D01*
X0153480Y0372622D01*
X0153500Y0372808D01*
X0153516Y0373224D01*
X0155516D01*
X0155520Y0373009D01*
D02*
G37*
G36*
X0167930Y0370400D02*
X0168013Y0370307D01*
X0168107Y0370224D01*
X0168211Y0370153D01*
X0168326Y0370092D01*
X0168451Y0370043D01*
X0168586Y0370004D01*
X0168732Y0369977D01*
X0168888Y0369960D01*
X0169055Y0369955D01*
Y0368955D01*
X0168888Y0368949D01*
X0168732Y0368933D01*
X0168586Y0368905D01*
X0168451Y0368867D01*
X0168326Y0368817D01*
X0168211Y0368757D01*
X0168107Y0368685D01*
X0168013Y0368603D01*
X0167930Y0368509D01*
X0167857Y0368405D01*
Y0370505D01*
X0167930Y0370400D01*
D02*
G37*
G36*
X0156050Y0368987D02*
X0156026Y0368901D01*
X0156024Y0368805D01*
X0156043Y0368701D01*
X0156085Y0368588D01*
X0156149Y0368465D01*
X0156234Y0368335D01*
X0156342Y0368195D01*
X0156471Y0368046D01*
X0156622Y0367888D01*
X0154927Y0366755D01*
X0153474Y0368585D01*
X0156096Y0369065D01*
X0156050Y0368987D01*
D02*
G37*
G36*
X0329423Y0356782D02*
X0329446Y0356663D01*
X0329484Y0356540D01*
X0329538Y0356412D01*
X0329608Y0356280D01*
X0329694Y0356143D01*
X0329796Y0356001D01*
X0329914Y0355855D01*
X0330196Y0355550D01*
X0328782Y0354136D01*
X0328627Y0354285D01*
X0328331Y0354536D01*
X0328190Y0354638D01*
X0328053Y0354724D01*
X0327920Y0354794D01*
X0327793Y0354848D01*
X0327669Y0354887D01*
X0327551Y0354909D01*
X0327436Y0354916D01*
X0329416Y0356896D01*
X0329423Y0356782D01*
D02*
G37*
G36*
X0279105Y0351947D02*
X0279401Y0351696D01*
X0279543Y0351594D01*
X0279680Y0351508D01*
X0279812Y0351438D01*
X0279940Y0351384D01*
X0280063Y0351345D01*
X0280182Y0351323D01*
X0280296Y0351316D01*
X0278316Y0349336D01*
X0278309Y0349450D01*
X0278287Y0349569D01*
X0278248Y0349693D01*
X0278194Y0349820D01*
X0278124Y0349953D01*
X0278038Y0350090D01*
X0277936Y0350231D01*
X0277819Y0350377D01*
X0277536Y0350682D01*
X0278950Y0352097D01*
X0279105Y0351947D01*
D02*
G37*
G36*
X0282323Y0349182D02*
X0282346Y0349063D01*
X0282384Y0348940D01*
X0282438Y0348812D01*
X0282508Y0348680D01*
X0282594Y0348543D01*
X0282696Y0348401D01*
X0282814Y0348255D01*
X0283097Y0347950D01*
X0281682Y0346536D01*
X0281527Y0346685D01*
X0281231Y0346936D01*
X0281090Y0347038D01*
X0280953Y0347124D01*
X0280820Y0347194D01*
X0280693Y0347248D01*
X0280569Y0347287D01*
X0280451Y0347309D01*
X0280336Y0347316D01*
X0282316Y0349296D01*
X0282323Y0349182D01*
D02*
G37*
G36*
X0296226Y0345466D02*
X0296146Y0345551D01*
X0296051Y0345628D01*
X0295942Y0345696D01*
X0295817Y0345754D01*
X0295677Y0345804D01*
X0295523Y0345844D01*
X0295353Y0345876D01*
X0295168Y0345898D01*
X0294969Y0345912D01*
X0294754Y0345916D01*
X0294987Y0347916D01*
X0295203Y0347920D01*
X0295592Y0347946D01*
X0295766Y0347970D01*
X0295925Y0348000D01*
X0296069Y0348037D01*
X0296200Y0348081D01*
X0296316Y0348131D01*
X0296418Y0348188D01*
X0296506Y0348252D01*
X0296226Y0345466D01*
D02*
G37*
G36*
X0279623Y0328782D02*
X0279645Y0328663D01*
X0279684Y0328540D01*
X0279738Y0328412D01*
X0279808Y0328280D01*
X0279894Y0328143D01*
X0279996Y0328001D01*
X0280114Y0327855D01*
X0280397Y0327550D01*
X0278982Y0326136D01*
X0278827Y0326285D01*
X0278531Y0326536D01*
X0278390Y0326638D01*
X0278253Y0326724D01*
X0278120Y0326794D01*
X0277993Y0326848D01*
X0277869Y0326887D01*
X0277750Y0326909D01*
X0277636Y0326916D01*
X0279616Y0328896D01*
X0279623Y0328782D01*
D02*
G37*
G36*
X0301570Y0322445D02*
X0301919Y0322157D01*
X0302091Y0322040D01*
X0302263Y0321941D01*
X0302433Y0321860D01*
X0302602Y0321797D01*
X0302770Y0321752D01*
X0302937Y0321725D01*
X0303103Y0321716D01*
Y0320716D01*
X0302937Y0320707D01*
X0302770Y0320680D01*
X0302602Y0320635D01*
X0302468Y0320585D01*
X0302621Y0320352D01*
X0302712Y0320236D01*
X0302801Y0320138D01*
X0302390Y0319135D01*
X0302257Y0319254D01*
X0302116Y0319352D01*
X0301968Y0319428D01*
X0301813Y0319484D01*
X0301650Y0319517D01*
X0301480Y0319530D01*
X0301303Y0319521D01*
X0301118Y0319491D01*
X0300926Y0319439D01*
X0300727Y0319367D01*
X0301395Y0320923D01*
Y0322616D01*
X0301570Y0322445D01*
D02*
G37*
G36*
X0540088Y0311776D02*
X0540002Y0311852D01*
X0539902Y0311920D01*
X0539788Y0311980D01*
X0539659Y0312032D01*
X0539516Y0312076D01*
X0539358Y0312112D01*
X0539186Y0312140D01*
X0539000Y0312160D01*
X0538584Y0312176D01*
Y0314176D01*
X0538799Y0314180D01*
X0539186Y0314212D01*
X0539358Y0314240D01*
X0539516Y0314276D01*
X0539659Y0314320D01*
X0539788Y0314372D01*
X0539902Y0314432D01*
X0540002Y0314500D01*
X0540088Y0314576D01*
Y0311776D01*
D02*
G37*
G36*
X0542840Y0311662D02*
X0542772Y0311562D01*
X0542712Y0311448D01*
X0542660Y0311319D01*
X0542616Y0311176D01*
X0542580Y0311018D01*
X0542552Y0310846D01*
X0542532Y0310660D01*
X0542516Y0310244D01*
X0540516D01*
X0540512Y0310459D01*
X0540480Y0310846D01*
X0540452Y0311018D01*
X0540416Y0311176D01*
X0540372Y0311319D01*
X0540320Y0311448D01*
X0540260Y0311562D01*
X0540192Y0311662D01*
X0540116Y0311748D01*
X0542916D01*
X0542840Y0311662D01*
D02*
G37*
G36*
X0455488Y0310216D02*
X0455402Y0310292D01*
X0455302Y0310360D01*
X0455188Y0310420D01*
X0455059Y0310472D01*
X0454916Y0310516D01*
X0454758Y0310552D01*
X0454586Y0310580D01*
X0454400Y0310600D01*
X0453984Y0310616D01*
Y0312616D01*
X0454199Y0312620D01*
X0454586Y0312652D01*
X0454758Y0312680D01*
X0454916Y0312716D01*
X0455059Y0312760D01*
X0455188Y0312812D01*
X0455302Y0312872D01*
X0455402Y0312940D01*
X0455488Y0313016D01*
Y0310216D01*
D02*
G37*
G36*
X0458923Y0311482D02*
X0458946Y0311363D01*
X0458984Y0311240D01*
X0459038Y0311112D01*
X0459108Y0310980D01*
X0459194Y0310843D01*
X0459296Y0310701D01*
X0459414Y0310555D01*
X0459697Y0310250D01*
X0458282Y0308836D01*
X0458127Y0308985D01*
X0457831Y0309236D01*
X0457690Y0309338D01*
X0457553Y0309424D01*
X0457420Y0309494D01*
X0457293Y0309548D01*
X0457169Y0309587D01*
X0457051Y0309610D01*
X0456936Y0309616D01*
X0458916Y0311596D01*
X0458923Y0311482D01*
D02*
G37*
G36*
X0501797Y0309682D02*
X0501647Y0309527D01*
X0501396Y0309231D01*
X0501294Y0309090D01*
X0501208Y0308953D01*
X0501138Y0308820D01*
X0501084Y0308693D01*
X0501046Y0308569D01*
X0501023Y0308451D01*
X0501016Y0308336D01*
X0499036Y0310316D01*
X0499151Y0310323D01*
X0499269Y0310346D01*
X0499393Y0310384D01*
X0499520Y0310438D01*
X0499653Y0310508D01*
X0499790Y0310594D01*
X0499931Y0310696D01*
X0500077Y0310814D01*
X0500382Y0311097D01*
X0501797Y0309682D01*
D02*
G37*
G36*
X0497588Y0306916D02*
X0497502Y0306992D01*
X0497402Y0307060D01*
X0497288Y0307120D01*
X0497159Y0307172D01*
X0497016Y0307216D01*
X0496858Y0307252D01*
X0496686Y0307280D01*
X0496500Y0307300D01*
X0496084Y0307316D01*
Y0309316D01*
X0496299Y0309320D01*
X0496686Y0309352D01*
X0496858Y0309380D01*
X0497016Y0309416D01*
X0497159Y0309460D01*
X0497288Y0309512D01*
X0497402Y0309572D01*
X0497502Y0309640D01*
X0497588Y0309716D01*
Y0306916D01*
D02*
G37*
G36*
X0316205Y0309247D02*
X0316501Y0308996D01*
X0316643Y0308894D01*
X0316780Y0308808D01*
X0316912Y0308738D01*
X0317040Y0308684D01*
X0317163Y0308646D01*
X0317282Y0308623D01*
X0317396Y0308616D01*
X0315416Y0306636D01*
X0315409Y0306750D01*
X0315387Y0306869D01*
X0315348Y0306993D01*
X0315294Y0307120D01*
X0315224Y0307253D01*
X0315138Y0307390D01*
X0315036Y0307531D01*
X0314919Y0307677D01*
X0314636Y0307982D01*
X0316050Y0309397D01*
X0316205Y0309247D01*
D02*
G37*
G36*
X0278920Y0307845D02*
X0279269Y0307557D01*
X0279441Y0307440D01*
X0279613Y0307341D01*
X0279783Y0307260D01*
X0279952Y0307197D01*
X0280120Y0307152D01*
X0280287Y0307125D01*
X0280453Y0307116D01*
Y0306116D01*
X0280287Y0306107D01*
X0280120Y0306080D01*
X0279952Y0306035D01*
X0279783Y0305972D01*
X0279613Y0305891D01*
X0279441Y0305792D01*
X0279269Y0305675D01*
X0279095Y0305540D01*
X0278920Y0305387D01*
X0278745Y0305216D01*
Y0308016D01*
X0278920Y0307845D01*
D02*
G37*
G36*
X0317396Y0304616D02*
X0317282Y0304609D01*
X0317163Y0304587D01*
X0317040Y0304548D01*
X0316912Y0304494D01*
X0316780Y0304424D01*
X0316643Y0304338D01*
X0316501Y0304236D01*
X0316355Y0304119D01*
X0316050Y0303836D01*
X0314636Y0305250D01*
X0314785Y0305405D01*
X0315036Y0305701D01*
X0315138Y0305843D01*
X0315224Y0305980D01*
X0315294Y0306112D01*
X0315348Y0306240D01*
X0315387Y0306363D01*
X0315409Y0306482D01*
X0315416Y0306596D01*
X0317396Y0304616D01*
D02*
G37*
G36*
X0432375Y0304977D02*
X0432513Y0304878D01*
X0432663Y0304791D01*
X0432827Y0304716D01*
X0433005Y0304653D01*
X0433196Y0304602D01*
X0433401Y0304562D01*
X0433619Y0304535D01*
X0433851Y0304520D01*
X0434096Y0304516D01*
X0432116Y0302536D01*
X0432113Y0302781D01*
X0432070Y0303231D01*
X0432031Y0303436D01*
X0431980Y0303627D01*
X0431917Y0303805D01*
X0431842Y0303969D01*
X0431755Y0304120D01*
X0431656Y0304257D01*
X0431545Y0304380D01*
X0432252Y0305088D01*
X0432375Y0304977D01*
D02*
G37*
G36*
X0298176Y0303877D02*
X0298313Y0303778D01*
X0298463Y0303691D01*
X0298627Y0303616D01*
X0298805Y0303553D01*
X0298996Y0303502D01*
X0299201Y0303462D01*
X0299419Y0303435D01*
X0299651Y0303419D01*
X0299896Y0303416D01*
X0297916Y0301436D01*
X0297913Y0301681D01*
X0297870Y0302131D01*
X0297831Y0302336D01*
X0297780Y0302527D01*
X0297717Y0302705D01*
X0297641Y0302869D01*
X0297555Y0303020D01*
X0297456Y0303157D01*
X0297345Y0303280D01*
X0298052Y0303988D01*
X0298176Y0303877D01*
D02*
G37*
G36*
X0301161Y0299851D02*
X0300980Y0299698D01*
X0300818Y0299544D01*
X0300675Y0299388D01*
X0300552Y0299229D01*
X0300447Y0299069D01*
X0300361Y0298907D01*
X0300294Y0298743D01*
X0300247Y0298576D01*
X0300218Y0298408D01*
X0300209Y0298238D01*
X0299209Y0298345D01*
X0299201Y0298505D01*
X0299176Y0298670D01*
X0299134Y0298838D01*
X0299076Y0299011D01*
X0299001Y0299189D01*
X0298909Y0299370D01*
X0298801Y0299556D01*
X0298676Y0299747D01*
X0298376Y0300141D01*
X0301161Y0299851D01*
D02*
G37*
G36*
X0188245Y0292912D02*
X0187957Y0292564D01*
X0187840Y0292391D01*
X0187741Y0292220D01*
X0187660Y0292050D01*
X0187597Y0291880D01*
X0187552Y0291712D01*
X0187525Y0291545D01*
X0187516Y0291380D01*
X0186516D01*
X0186507Y0291545D01*
X0186480Y0291712D01*
X0186435Y0291880D01*
X0186372Y0292050D01*
X0186291Y0292220D01*
X0186192Y0292391D01*
X0186075Y0292564D01*
X0185940Y0292737D01*
X0185787Y0292912D01*
X0185616Y0293088D01*
X0188416D01*
X0188245Y0292912D01*
D02*
G37*
G36*
X0516688Y0272016D02*
X0516512Y0272187D01*
X0516164Y0272475D01*
X0515991Y0272592D01*
X0515820Y0272691D01*
X0515650Y0272772D01*
X0515480Y0272835D01*
X0515312Y0272880D01*
X0515145Y0272907D01*
X0514980Y0272916D01*
Y0273916D01*
X0515145Y0273925D01*
X0515312Y0273952D01*
X0515480Y0273997D01*
X0515650Y0274060D01*
X0515820Y0274141D01*
X0515991Y0274240D01*
X0516164Y0274357D01*
X0516337Y0274492D01*
X0516512Y0274645D01*
X0516688Y0274816D01*
Y0272016D01*
D02*
G37*
G36*
X0527162Y0271295D02*
X0527058Y0271317D01*
X0526954Y0271325D01*
X0526848Y0271318D01*
X0526741Y0271297D01*
X0526633Y0271260D01*
X0526523Y0271210D01*
X0526411Y0271145D01*
X0526299Y0271065D01*
X0526185Y0270971D01*
X0526070Y0270863D01*
X0525363Y0271570D01*
X0525471Y0271685D01*
X0525565Y0271799D01*
X0525645Y0271912D01*
X0525710Y0272023D01*
X0525761Y0272133D01*
X0525797Y0272241D01*
X0525818Y0272348D01*
X0525825Y0272454D01*
X0525817Y0272558D01*
X0525795Y0272661D01*
X0527162Y0271295D01*
D02*
G37*
G36*
X0385225Y0269987D02*
X0385252Y0269820D01*
X0385297Y0269652D01*
X0385360Y0269483D01*
X0385441Y0269313D01*
X0385540Y0269141D01*
X0385657Y0268969D01*
X0385792Y0268795D01*
X0385945Y0268620D01*
X0386116Y0268444D01*
X0383316D01*
X0383487Y0268620D01*
X0383775Y0268969D01*
X0383892Y0269141D01*
X0383991Y0269313D01*
X0384072Y0269483D01*
X0384135Y0269652D01*
X0384180Y0269820D01*
X0384207Y0269987D01*
X0384216Y0270153D01*
X0385216D01*
X0385225Y0269987D01*
D02*
G37*
G36*
X0383288Y0265616D02*
X0383112Y0265787D01*
X0382764Y0266075D01*
X0382591Y0266192D01*
X0382420Y0266291D01*
X0382249Y0266372D01*
X0382080Y0266435D01*
X0381912Y0266480D01*
X0381745Y0266507D01*
X0381580Y0266516D01*
Y0267516D01*
X0381745Y0267525D01*
X0381912Y0267552D01*
X0382080Y0267597D01*
X0382249Y0267660D01*
X0382420Y0267741D01*
X0382591Y0267840D01*
X0382764Y0267957D01*
X0382937Y0268092D01*
X0383112Y0268245D01*
X0383288Y0268416D01*
Y0265616D01*
D02*
G37*
G36*
X0525088Y0263716D02*
X0524912Y0263887D01*
X0524564Y0264175D01*
X0524391Y0264292D01*
X0524220Y0264391D01*
X0524050Y0264472D01*
X0523880Y0264535D01*
X0523712Y0264580D01*
X0523545Y0264607D01*
X0523380Y0264616D01*
Y0265616D01*
X0523545Y0265625D01*
X0523712Y0265652D01*
X0523880Y0265697D01*
X0524050Y0265760D01*
X0524220Y0265841D01*
X0524391Y0265940D01*
X0524564Y0266057D01*
X0524737Y0266192D01*
X0524912Y0266345D01*
X0525088Y0266516D01*
Y0263716D01*
D02*
G37*
G36*
X0483094Y0261155D02*
X0483212Y0261062D01*
X0483348Y0260969D01*
X0483502Y0260875D01*
X0483864Y0260685D01*
X0484298Y0260491D01*
X0484804Y0260294D01*
X0482253Y0259142D01*
X0482322Y0259344D01*
X0482371Y0259539D01*
X0482399Y0259725D01*
X0482406Y0259904D01*
X0482392Y0260076D01*
X0482357Y0260240D01*
X0482301Y0260396D01*
X0482224Y0260544D01*
X0482126Y0260685D01*
X0482008Y0260818D01*
X0482994Y0261246D01*
X0483094Y0261155D01*
D02*
G37*
G36*
X0314920Y0259233D02*
X0314952Y0258846D01*
X0314980Y0258674D01*
X0315016Y0258516D01*
X0315060Y0258373D01*
X0315112Y0258244D01*
X0315172Y0258130D01*
X0315240Y0258030D01*
X0315316Y0257944D01*
X0312516D01*
X0312592Y0258030D01*
X0312660Y0258130D01*
X0312720Y0258244D01*
X0312772Y0258373D01*
X0312816Y0258516D01*
X0312852Y0258674D01*
X0312880Y0258846D01*
X0312900Y0259032D01*
X0312916Y0259448D01*
X0314916D01*
X0314920Y0259233D01*
D02*
G37*
G36*
X0410730Y0259540D02*
X0410830Y0259472D01*
X0410945Y0259412D01*
X0411073Y0259360D01*
X0411216Y0259316D01*
X0411374Y0259280D01*
X0411546Y0259252D01*
X0411732Y0259232D01*
X0412148Y0259216D01*
Y0257216D01*
X0411933Y0257212D01*
X0411546Y0257180D01*
X0411374Y0257152D01*
X0411216Y0257116D01*
X0411073Y0257072D01*
X0410945Y0257020D01*
X0410830Y0256960D01*
X0410730Y0256892D01*
X0410644Y0256816D01*
Y0259616D01*
X0410730Y0259540D01*
D02*
G37*
G36*
X0447488Y0256705D02*
X0447434Y0256802D01*
X0447362Y0256889D01*
X0447271Y0256965D01*
X0447163Y0257032D01*
X0447037Y0257088D01*
X0446893Y0257134D01*
X0446732Y0257170D01*
X0446552Y0257196D01*
X0446354Y0257211D01*
X0446139Y0257216D01*
X0447063Y0259216D01*
X0447287Y0259217D01*
X0448336Y0259287D01*
X0448411Y0259306D01*
X0448468Y0259328D01*
X0447488Y0256705D01*
D02*
G37*
G36*
X0450830Y0258840D02*
X0450930Y0258772D01*
X0451045Y0258712D01*
X0451173Y0258660D01*
X0451316Y0258616D01*
X0451474Y0258580D01*
X0451646Y0258552D01*
X0451832Y0258532D01*
X0452248Y0258516D01*
Y0256516D01*
X0452033Y0256512D01*
X0451646Y0256480D01*
X0451474Y0256452D01*
X0451316Y0256416D01*
X0451173Y0256372D01*
X0451045Y0256320D01*
X0450930Y0256260D01*
X0450830Y0256192D01*
X0450744Y0256116D01*
Y0258916D01*
X0450830Y0258840D01*
D02*
G37*
G36*
X0464535Y0255680D02*
X0464337Y0255839D01*
X0463953Y0256107D01*
X0463767Y0256215D01*
X0463586Y0256307D01*
X0463409Y0256382D01*
X0463236Y0256441D01*
X0463067Y0256483D01*
X0462903Y0256508D01*
X0462743Y0256516D01*
X0462639Y0257516D01*
X0462809Y0257526D01*
X0462977Y0257554D01*
X0463143Y0257602D01*
X0463308Y0257668D01*
X0463471Y0257754D01*
X0463631Y0257858D01*
X0463790Y0257982D01*
X0463947Y0258124D01*
X0464102Y0258286D01*
X0464255Y0258466D01*
X0464535Y0255680D01*
D02*
G37*
G36*
X0400225Y0255587D02*
X0400252Y0255420D01*
X0400297Y0255252D01*
X0400360Y0255083D01*
X0400441Y0254913D01*
X0400540Y0254741D01*
X0400657Y0254569D01*
X0400792Y0254395D01*
X0400945Y0254220D01*
X0401116Y0254045D01*
X0398316D01*
X0398487Y0254220D01*
X0398775Y0254569D01*
X0398892Y0254741D01*
X0398991Y0254913D01*
X0399072Y0255083D01*
X0399135Y0255252D01*
X0399180Y0255420D01*
X0399207Y0255587D01*
X0399216Y0255753D01*
X0400216D01*
X0400225Y0255587D01*
D02*
G37*
G36*
X0375125Y0255187D02*
X0375152Y0255020D01*
X0375197Y0254852D01*
X0375260Y0254683D01*
X0375341Y0254513D01*
X0375440Y0254341D01*
X0375557Y0254169D01*
X0375692Y0253995D01*
X0375845Y0253820D01*
X0376016Y0253644D01*
X0373216D01*
X0373387Y0253820D01*
X0373675Y0254169D01*
X0373792Y0254341D01*
X0373891Y0254513D01*
X0373972Y0254683D01*
X0374035Y0254852D01*
X0374080Y0255020D01*
X0374107Y0255187D01*
X0374116Y0255353D01*
X0375116D01*
X0375125Y0255187D01*
D02*
G37*
G36*
X0390025Y0255104D02*
X0390052Y0254937D01*
X0390097Y0254769D01*
X0390160Y0254600D01*
X0390241Y0254430D01*
X0390340Y0254258D01*
X0390457Y0254086D01*
X0390592Y0253912D01*
X0390745Y0253738D01*
X0390916Y0253562D01*
X0388116D01*
X0388287Y0253738D01*
X0388575Y0254086D01*
X0388692Y0254258D01*
X0388791Y0254430D01*
X0388872Y0254600D01*
X0388935Y0254769D01*
X0388980Y0254937D01*
X0389007Y0255104D01*
X0389016Y0255270D01*
X0390016D01*
X0390025Y0255104D01*
D02*
G37*
G36*
X0370745Y0250676D02*
X0370457Y0250328D01*
X0370340Y0250156D01*
X0370241Y0249984D01*
X0370160Y0249814D01*
X0370097Y0249645D01*
X0370052Y0249477D01*
X0370025Y0249310D01*
X0370016Y0249144D01*
X0369016D01*
X0369007Y0249310D01*
X0368980Y0249477D01*
X0368935Y0249645D01*
X0368872Y0249814D01*
X0368791Y0249984D01*
X0368692Y0250156D01*
X0368575Y0250328D01*
X0368440Y0250502D01*
X0368287Y0250676D01*
X0368116Y0250852D01*
X0370916D01*
X0370745Y0250676D01*
D02*
G37*
G36*
X0375845Y0250612D02*
X0375557Y0250264D01*
X0375440Y0250091D01*
X0375341Y0249920D01*
X0375260Y0249749D01*
X0375197Y0249580D01*
X0375152Y0249412D01*
X0375125Y0249245D01*
X0375116Y0249080D01*
X0374116D01*
X0374107Y0249245D01*
X0374080Y0249412D01*
X0374035Y0249580D01*
X0373972Y0249749D01*
X0373891Y0249920D01*
X0373792Y0250091D01*
X0373675Y0250264D01*
X0373540Y0250437D01*
X0373387Y0250612D01*
X0373216Y0250788D01*
X0376016D01*
X0375845Y0250612D01*
D02*
G37*
G36*
X0390667Y0250476D02*
X0390530Y0250332D01*
X0390410Y0250183D01*
X0390305Y0250029D01*
X0390217Y0249871D01*
X0390145Y0249709D01*
X0390089Y0249542D01*
X0390048Y0249371D01*
X0390024Y0249196D01*
X0390016Y0249016D01*
X0389016D01*
X0389008Y0249196D01*
X0388984Y0249371D01*
X0388944Y0249542D01*
X0388888Y0249709D01*
X0388815Y0249871D01*
X0388727Y0250029D01*
X0388622Y0250183D01*
X0388502Y0250332D01*
X0388365Y0250476D01*
X0388213Y0250617D01*
X0390820D01*
X0390667Y0250476D01*
D02*
G37*
G36*
X0387987Y0259805D02*
Y0255181D01*
X0387982Y0255151D01*
X0387963Y0255080D01*
X0387932Y0254998D01*
X0387888Y0254905D01*
X0387828Y0254801D01*
X0387758Y0254698D01*
X0387528Y0254419D01*
X0387413Y0254301D01*
X0387376Y0254273D01*
X0386896Y0253646D01*
X0386593Y0252917D01*
X0386490Y0252133D01*
X0386593Y0251350D01*
X0386896Y0250621D01*
X0387376Y0249994D01*
X0387478Y0249916D01*
X0387492Y0249896D01*
X0387510Y0249884D01*
X0387523Y0249866D01*
X0387649Y0249750D01*
X0387734Y0249660D01*
X0387803Y0249574D01*
X0387859Y0249492D01*
X0387903Y0249414D01*
X0387937Y0249338D01*
X0387962Y0249262D01*
X0387981Y0249185D01*
X0387987Y0249139D01*
Y0249016D01*
X0388103Y0248431D01*
X0388435Y0247935D01*
X0403514Y0232855D01*
X0403487Y0232716D01*
Y0219564D01*
X0403482Y0219534D01*
X0403463Y0219462D01*
X0403432Y0219381D01*
X0403388Y0219287D01*
X0403328Y0219183D01*
X0403259Y0219081D01*
X0403028Y0218802D01*
X0402913Y0218684D01*
X0402877Y0218656D01*
X0402396Y0218029D01*
X0402093Y0217299D01*
X0401990Y0216516D01*
X0402093Y0215733D01*
X0402378Y0215046D01*
X0402248Y0214680D01*
X0402182Y0214546D01*
X0399025D01*
X0398925Y0215046D01*
X0399529Y0215296D01*
X0400156Y0215776D01*
X0400637Y0216403D01*
X0400939Y0217133D01*
X0401042Y0217916D01*
X0400939Y0218699D01*
X0400637Y0219429D01*
X0400156Y0220056D01*
X0400120Y0220083D01*
X0399995Y0220212D01*
X0399879Y0220344D01*
X0399782Y0220468D01*
X0399705Y0220583D01*
X0399644Y0220687D01*
X0399600Y0220781D01*
X0399570Y0220863D01*
X0399550Y0220934D01*
X0399546Y0220964D01*
Y0222206D01*
X0399829Y0222631D01*
X0399946Y0223216D01*
X0399829Y0223801D01*
X0399498Y0224298D01*
X0399498Y0224298D01*
X0376146Y0247650D01*
Y0249168D01*
X0376150Y0249198D01*
X0376169Y0249270D01*
X0376200Y0249352D01*
X0376244Y0249445D01*
X0376305Y0249549D01*
X0376374Y0249651D01*
X0376605Y0249931D01*
X0376720Y0250049D01*
X0376756Y0250077D01*
X0377237Y0250703D01*
X0377539Y0251433D01*
X0377642Y0252216D01*
X0377539Y0252999D01*
X0377237Y0253729D01*
X0376756Y0254356D01*
X0376720Y0254383D01*
X0376595Y0254512D01*
X0376479Y0254644D01*
X0376382Y0254768D01*
X0376305Y0254883D01*
X0376244Y0254987D01*
X0376200Y0255081D01*
X0376169Y0255163D01*
X0376150Y0255234D01*
X0376146Y0255264D01*
Y0256011D01*
X0377525Y0257390D01*
X0377987Y0257199D01*
Y0255377D01*
X0378103Y0254791D01*
X0378435Y0254295D01*
X0379538Y0253192D01*
X0379096Y0252616D01*
X0378793Y0251886D01*
X0378690Y0251103D01*
X0378793Y0250320D01*
X0379096Y0249590D01*
X0379576Y0248964D01*
X0380203Y0248483D01*
X0380933Y0248180D01*
X0381716Y0248077D01*
X0382499Y0248180D01*
X0383229Y0248483D01*
X0383856Y0248964D01*
X0384337Y0249590D01*
X0384639Y0250320D01*
X0384742Y0251103D01*
X0384639Y0251886D01*
X0384337Y0252616D01*
X0383856Y0253243D01*
X0383229Y0253724D01*
X0383126Y0253766D01*
X0382798Y0254258D01*
X0381046Y0256010D01*
Y0258083D01*
X0382950Y0259987D01*
X0387016D01*
X0387487Y0260080D01*
X0387987Y0259805D01*
D02*
G37*
G36*
X0204020Y0244845D02*
X0204369Y0244557D01*
X0204541Y0244440D01*
X0204713Y0244341D01*
X0204883Y0244260D01*
X0205052Y0244197D01*
X0205220Y0244152D01*
X0205387Y0244125D01*
X0205553Y0244116D01*
Y0243116D01*
X0205387Y0243107D01*
X0205220Y0243080D01*
X0205052Y0243035D01*
X0204883Y0242972D01*
X0204713Y0242891D01*
X0204541Y0242792D01*
X0204369Y0242675D01*
X0204195Y0242540D01*
X0204020Y0242387D01*
X0203844Y0242216D01*
Y0245016D01*
X0204020Y0244845D01*
D02*
G37*
G36*
X0221620Y0244805D02*
X0221969Y0244517D01*
X0222141Y0244400D01*
X0222313Y0244301D01*
X0222483Y0244220D01*
X0222652Y0244157D01*
X0222820Y0244112D01*
X0222987Y0244085D01*
X0223153Y0244076D01*
Y0243076D01*
X0222987Y0243067D01*
X0222820Y0243040D01*
X0222652Y0242995D01*
X0222483Y0242932D01*
X0222313Y0242851D01*
X0222141Y0242752D01*
X0221969Y0242635D01*
X0221795Y0242500D01*
X0221620Y0242347D01*
X0221445Y0242176D01*
Y0244976D01*
X0221620Y0244805D01*
D02*
G37*
G36*
X0216761Y0242917D02*
X0217111Y0242751D01*
X0217396Y0242063D01*
X0217877Y0241436D01*
X0218503Y0240955D01*
X0219233Y0240653D01*
X0220016Y0240550D01*
X0220799Y0240653D01*
X0221529Y0240955D01*
X0222156Y0241436D01*
X0222183Y0241473D01*
X0222312Y0241598D01*
X0222444Y0241713D01*
X0222568Y0241810D01*
X0222683Y0241888D01*
X0222787Y0241948D01*
X0222881Y0241992D01*
X0222962Y0242023D01*
X0223034Y0242042D01*
X0223064Y0242047D01*
X0239694D01*
X0248387Y0233354D01*
Y0226783D01*
X0247925Y0226591D01*
X0243518Y0230998D01*
X0242856Y0231440D01*
X0242076Y0231595D01*
X0231353D01*
X0231282Y0231603D01*
X0231170Y0231622D01*
X0231080Y0231642D01*
X0231015Y0231662D01*
X0230973Y0231679D01*
X0230966Y0231682D01*
X0230956Y0231696D01*
X0230329Y0232177D01*
X0229599Y0232479D01*
X0228816Y0232582D01*
X0228033Y0232479D01*
X0227303Y0232177D01*
X0226677Y0231696D01*
X0226666Y0231682D01*
X0226659Y0231679D01*
X0226618Y0231662D01*
X0226552Y0231642D01*
X0226463Y0231622D01*
X0226362Y0231605D01*
X0226246Y0231595D01*
X0205753D01*
X0205682Y0231603D01*
X0205570Y0231622D01*
X0205480Y0231642D01*
X0205415Y0231662D01*
X0205373Y0231679D01*
X0205366Y0231682D01*
X0205356Y0231696D01*
X0204729Y0232177D01*
X0203999Y0232479D01*
X0203216Y0232582D01*
X0202433Y0232479D01*
X0201703Y0232177D01*
X0201077Y0231696D01*
X0200946Y0231525D01*
X0200446Y0231695D01*
Y0240782D01*
X0200580Y0240848D01*
X0200946Y0240978D01*
X0201633Y0240693D01*
X0202416Y0240590D01*
X0203199Y0240693D01*
X0203929Y0240996D01*
X0204556Y0241476D01*
X0204584Y0241513D01*
X0204712Y0241638D01*
X0204844Y0241754D01*
X0204968Y0241850D01*
X0205083Y0241928D01*
X0205187Y0241988D01*
X0205281Y0242032D01*
X0205363Y0242063D01*
X0205434Y0242082D01*
X0205464Y0242087D01*
X0215107D01*
X0215692Y0242203D01*
X0216188Y0242535D01*
X0216618Y0242965D01*
X0216761Y0242917D01*
D02*
G37*
G36*
X0261888Y0234776D02*
X0261712Y0234947D01*
X0261364Y0235235D01*
X0261191Y0235352D01*
X0261020Y0235451D01*
X0260849Y0235532D01*
X0260680Y0235595D01*
X0260512Y0235640D01*
X0260345Y0235667D01*
X0260180Y0235676D01*
Y0236676D01*
X0260345Y0236685D01*
X0260512Y0236712D01*
X0260680Y0236757D01*
X0260849Y0236820D01*
X0261020Y0236901D01*
X0261191Y0237000D01*
X0261364Y0237117D01*
X0261537Y0237252D01*
X0261712Y0237405D01*
X0261888Y0237576D01*
Y0234776D01*
D02*
G37*
G36*
X0230330Y0230880D02*
X0230430Y0230812D01*
X0230544Y0230752D01*
X0230673Y0230700D01*
X0230816Y0230656D01*
X0230974Y0230620D01*
X0231146Y0230592D01*
X0231332Y0230572D01*
X0231748Y0230556D01*
Y0228556D01*
X0231533Y0228552D01*
X0231146Y0228520D01*
X0230974Y0228492D01*
X0230816Y0228456D01*
X0230673Y0228412D01*
X0230544Y0228360D01*
X0230430Y0228300D01*
X0230330Y0228232D01*
X0230244Y0228156D01*
Y0230956D01*
X0230330Y0230880D01*
D02*
G37*
G36*
X0227388Y0228156D02*
X0227302Y0228232D01*
X0227202Y0228300D01*
X0227088Y0228360D01*
X0226959Y0228412D01*
X0226816Y0228456D01*
X0226658Y0228492D01*
X0226486Y0228520D01*
X0226300Y0228540D01*
X0225884Y0228556D01*
Y0230556D01*
X0226099Y0230560D01*
X0226486Y0230592D01*
X0226658Y0230620D01*
X0226816Y0230656D01*
X0226959Y0230700D01*
X0227088Y0230752D01*
X0227202Y0230812D01*
X0227302Y0230880D01*
X0227388Y0230956D01*
Y0228156D01*
D02*
G37*
G36*
X0204730Y0230880D02*
X0204830Y0230812D01*
X0204944Y0230752D01*
X0205073Y0230700D01*
X0205216Y0230656D01*
X0205374Y0230620D01*
X0205546Y0230592D01*
X0205732Y0230572D01*
X0206148Y0230556D01*
Y0228556D01*
X0205933Y0228552D01*
X0205546Y0228520D01*
X0205374Y0228492D01*
X0205216Y0228456D01*
X0205073Y0228412D01*
X0204944Y0228360D01*
X0204830Y0228300D01*
X0204730Y0228232D01*
X0204644Y0228156D01*
Y0230956D01*
X0204730Y0230880D01*
D02*
G37*
G36*
X0253925Y0229387D02*
X0253952Y0229220D01*
X0253997Y0229052D01*
X0254060Y0228883D01*
X0254141Y0228713D01*
X0254240Y0228541D01*
X0254357Y0228369D01*
X0254492Y0228195D01*
X0254645Y0228020D01*
X0254816Y0227845D01*
X0252016D01*
X0252187Y0228020D01*
X0252475Y0228369D01*
X0252592Y0228541D01*
X0252691Y0228713D01*
X0252772Y0228883D01*
X0252835Y0229052D01*
X0252880Y0229220D01*
X0252907Y0229387D01*
X0252916Y0229553D01*
X0253916D01*
X0253925Y0229387D01*
D02*
G37*
G36*
X0323302Y0228937D02*
X0323115Y0228807D01*
X0322947Y0228672D01*
X0322799Y0228532D01*
X0322671Y0228388D01*
X0322563Y0228238D01*
X0322474Y0228084D01*
X0322405Y0227925D01*
X0322356Y0227761D01*
X0322326Y0227592D01*
X0322316Y0227419D01*
X0321316Y0227630D01*
X0321309Y0227783D01*
X0321286Y0227943D01*
X0321248Y0228111D01*
X0321195Y0228287D01*
X0321127Y0228469D01*
X0321043Y0228660D01*
X0320831Y0229063D01*
X0320703Y0229276D01*
X0320559Y0229497D01*
X0323302Y0228937D01*
D02*
G37*
G36*
X0491897Y0227082D02*
X0491747Y0226927D01*
X0491496Y0226631D01*
X0491394Y0226490D01*
X0491308Y0226353D01*
X0491238Y0226220D01*
X0491184Y0226093D01*
X0491146Y0225969D01*
X0491123Y0225851D01*
X0491116Y0225736D01*
X0489136Y0227716D01*
X0489251Y0227723D01*
X0489369Y0227746D01*
X0489493Y0227784D01*
X0489620Y0227838D01*
X0489753Y0227908D01*
X0489890Y0227994D01*
X0490031Y0228096D01*
X0490177Y0228214D01*
X0490482Y0228497D01*
X0491897Y0227082D01*
D02*
G37*
G36*
X0487688Y0224316D02*
X0487602Y0224392D01*
X0487502Y0224460D01*
X0487388Y0224520D01*
X0487259Y0224572D01*
X0487116Y0224616D01*
X0486958Y0224652D01*
X0486786Y0224680D01*
X0486600Y0224700D01*
X0486184Y0224716D01*
Y0226716D01*
X0486399Y0226720D01*
X0486786Y0226752D01*
X0486958Y0226780D01*
X0487116Y0226816D01*
X0487259Y0226860D01*
X0487388Y0226912D01*
X0487502Y0226972D01*
X0487602Y0227040D01*
X0487688Y0227116D01*
Y0224316D01*
D02*
G37*
G36*
X0327719Y0226235D02*
X0327762Y0225785D01*
X0327801Y0225581D01*
X0327853Y0225390D01*
X0327916Y0225212D01*
X0327991Y0225048D01*
X0328078Y0224897D01*
X0328177Y0224760D01*
X0328288Y0224636D01*
X0327580Y0223929D01*
X0327457Y0224040D01*
X0327320Y0224139D01*
X0327169Y0224226D01*
X0327005Y0224301D01*
X0326827Y0224364D01*
X0326636Y0224415D01*
X0326431Y0224455D01*
X0326213Y0224482D01*
X0325981Y0224497D01*
X0325736Y0224501D01*
X0327716Y0226481D01*
X0327719Y0226235D01*
D02*
G37*
G36*
X0385876Y0225677D02*
X0386013Y0225578D01*
X0386163Y0225491D01*
X0386327Y0225416D01*
X0386505Y0225353D01*
X0386696Y0225302D01*
X0386901Y0225262D01*
X0387119Y0225235D01*
X0387351Y0225219D01*
X0387596Y0225216D01*
X0385616Y0223236D01*
X0385613Y0223481D01*
X0385570Y0223931D01*
X0385531Y0224136D01*
X0385480Y0224327D01*
X0385417Y0224505D01*
X0385342Y0224669D01*
X0385255Y0224820D01*
X0385156Y0224957D01*
X0385045Y0225080D01*
X0385752Y0225788D01*
X0385876Y0225677D01*
D02*
G37*
G36*
X0398525Y0220887D02*
X0398552Y0220720D01*
X0398597Y0220552D01*
X0398660Y0220383D01*
X0398741Y0220213D01*
X0398840Y0220041D01*
X0398957Y0219869D01*
X0399092Y0219695D01*
X0399245Y0219520D01*
X0399416Y0219344D01*
X0396616D01*
X0396787Y0219520D01*
X0397075Y0219869D01*
X0397192Y0220041D01*
X0397291Y0220213D01*
X0397372Y0220383D01*
X0397435Y0220552D01*
X0397480Y0220720D01*
X0397507Y0220887D01*
X0397516Y0221053D01*
X0398516D01*
X0398525Y0220887D01*
D02*
G37*
G36*
X0405525Y0219487D02*
X0405552Y0219320D01*
X0405597Y0219152D01*
X0405660Y0218983D01*
X0405741Y0218813D01*
X0405840Y0218641D01*
X0405957Y0218469D01*
X0406092Y0218295D01*
X0406245Y0218120D01*
X0406416Y0217945D01*
X0403616D01*
X0403787Y0218120D01*
X0404075Y0218469D01*
X0404192Y0218641D01*
X0404291Y0218813D01*
X0404372Y0218983D01*
X0404435Y0219152D01*
X0404480Y0219320D01*
X0404507Y0219487D01*
X0404516Y0219653D01*
X0405516D01*
X0405525Y0219487D01*
D02*
G37*
G36*
X0425938Y0217320D02*
X0425687Y0217299D01*
X0425229Y0217229D01*
X0425022Y0217179D01*
X0424829Y0217119D01*
X0424651Y0217050D01*
X0424487Y0216971D01*
X0424337Y0216882D01*
X0424202Y0216783D01*
X0424082Y0216675D01*
X0423323Y0217330D01*
X0423436Y0217456D01*
X0423534Y0217595D01*
X0423619Y0217746D01*
X0423690Y0217910D01*
X0423747Y0218086D01*
X0423790Y0218274D01*
X0423819Y0218476D01*
X0423835Y0218690D01*
X0423836Y0218916D01*
X0423823Y0219155D01*
X0425938Y0217320D01*
D02*
G37*
G36*
X0300218Y0212987D02*
X0300245Y0212820D01*
X0300290Y0212652D01*
X0300353Y0212483D01*
X0300434Y0212313D01*
X0300533Y0212141D01*
X0300650Y0211969D01*
X0300785Y0211795D01*
X0300938Y0211620D01*
X0301109Y0211444D01*
X0298309D01*
X0298480Y0211620D01*
X0298768Y0211969D01*
X0298885Y0212141D01*
X0298984Y0212313D01*
X0299065Y0212483D01*
X0299128Y0212652D01*
X0299173Y0212820D01*
X0299200Y0212987D01*
X0299209Y0213153D01*
X0300209D01*
X0300218Y0212987D01*
D02*
G37*
G36*
X0267675Y0211537D02*
X0267813Y0211438D01*
X0267963Y0211351D01*
X0268127Y0211276D01*
X0268305Y0211212D01*
X0268496Y0211161D01*
X0268701Y0211122D01*
X0268919Y0211095D01*
X0269151Y0211079D01*
X0269396Y0211076D01*
X0267416Y0209096D01*
X0267413Y0209341D01*
X0267370Y0209791D01*
X0267331Y0209996D01*
X0267280Y0210187D01*
X0267217Y0210365D01*
X0267142Y0210529D01*
X0267055Y0210680D01*
X0266956Y0210817D01*
X0266845Y0210940D01*
X0267552Y0211647D01*
X0267675Y0211537D01*
D02*
G37*
G36*
X0322545Y0199712D02*
X0322257Y0199364D01*
X0322140Y0199191D01*
X0322041Y0199020D01*
X0321960Y0198849D01*
X0321897Y0198680D01*
X0321852Y0198512D01*
X0321825Y0198345D01*
X0321816Y0198180D01*
X0320816D01*
X0320807Y0198345D01*
X0320780Y0198512D01*
X0320735Y0198680D01*
X0320672Y0198849D01*
X0320591Y0199020D01*
X0320492Y0199191D01*
X0320375Y0199364D01*
X0320240Y0199537D01*
X0320087Y0199712D01*
X0319916Y0199888D01*
X0322716D01*
X0322545Y0199712D01*
D02*
G37*
G36*
X0255020Y0198333D02*
X0255052Y0197946D01*
X0255080Y0197774D01*
X0255116Y0197616D01*
X0255160Y0197473D01*
X0255212Y0197345D01*
X0255272Y0197230D01*
X0255340Y0197130D01*
X0255416Y0197045D01*
X0252616D01*
X0252692Y0197130D01*
X0252760Y0197230D01*
X0252820Y0197345D01*
X0252872Y0197473D01*
X0252916Y0197616D01*
X0252952Y0197774D01*
X0252980Y0197946D01*
X0253000Y0198132D01*
X0253016Y0198548D01*
X0255016D01*
X0255020Y0198333D01*
D02*
G37*
G36*
X0422125Y0185896D02*
X0422152Y0185729D01*
X0422197Y0185561D01*
X0422260Y0185392D01*
X0422341Y0185222D01*
X0422440Y0185051D01*
X0422557Y0184878D01*
X0422692Y0184704D01*
X0422845Y0184530D01*
X0423016Y0184354D01*
X0420216D01*
X0420387Y0184530D01*
X0420675Y0184878D01*
X0420792Y0185051D01*
X0420891Y0185222D01*
X0420972Y0185392D01*
X0421035Y0185561D01*
X0421080Y0185729D01*
X0421107Y0185896D01*
X0421116Y0186062D01*
X0422116D01*
X0422125Y0185896D01*
D02*
G37*
G36*
X0365325Y0185187D02*
X0365352Y0185020D01*
X0365397Y0184852D01*
X0365460Y0184683D01*
X0365541Y0184513D01*
X0365640Y0184341D01*
X0365757Y0184169D01*
X0365892Y0183995D01*
X0366045Y0183820D01*
X0366216Y0183644D01*
X0363416D01*
X0363587Y0183820D01*
X0363875Y0184169D01*
X0363992Y0184341D01*
X0364091Y0184513D01*
X0364172Y0184683D01*
X0364235Y0184852D01*
X0364280Y0185020D01*
X0364307Y0185187D01*
X0364316Y0185353D01*
X0365316D01*
X0365325Y0185187D01*
D02*
G37*
G36*
X0412725Y0178268D02*
X0412753Y0178100D01*
X0412800Y0177933D01*
X0412864Y0177766D01*
X0412948Y0177599D01*
X0413050Y0177433D01*
X0413170Y0177267D01*
X0413309Y0177102D01*
X0413467Y0176937D01*
X0413643Y0176772D01*
X0410847Y0176632D01*
X0411012Y0176820D01*
X0411290Y0177186D01*
X0411403Y0177365D01*
X0411499Y0177541D01*
X0411577Y0177715D01*
X0411638Y0177886D01*
X0411681Y0178055D01*
X0411707Y0178221D01*
X0411716Y0178384D01*
X0412716Y0178436D01*
X0412725Y0178268D01*
D02*
G37*
G36*
X0443936Y0173096D02*
X0444049Y0172630D01*
X0444115Y0172421D01*
X0444266Y0172049D01*
X0444351Y0171887D01*
X0444443Y0171741D01*
X0444541Y0171610D01*
X0444645Y0171495D01*
X0444066Y0170659D01*
X0443937Y0170774D01*
X0443797Y0170873D01*
X0443646Y0170954D01*
X0443484Y0171019D01*
X0443312Y0171068D01*
X0443128Y0171100D01*
X0442933Y0171115D01*
X0442727Y0171113D01*
X0442510Y0171095D01*
X0442283Y0171060D01*
X0443889Y0173353D01*
X0443936Y0173096D01*
D02*
G37*
G36*
X0178425Y0168987D02*
X0178452Y0168820D01*
X0178497Y0168652D01*
X0178560Y0168483D01*
X0178641Y0168313D01*
X0178740Y0168141D01*
X0178857Y0167969D01*
X0178992Y0167795D01*
X0179145Y0167620D01*
X0179316Y0167445D01*
X0176516D01*
X0176687Y0167620D01*
X0176975Y0167969D01*
X0177092Y0168141D01*
X0177191Y0168313D01*
X0177272Y0168483D01*
X0177335Y0168652D01*
X0177380Y0168820D01*
X0177407Y0168987D01*
X0177416Y0169153D01*
X0178416D01*
X0178425Y0168987D01*
D02*
G37*
G36*
X0431532Y0154185D02*
X0431579Y0153963D01*
X0431657Y0153731D01*
X0431767Y0153488D01*
X0431908Y0153236D01*
X0432080Y0152974D01*
X0432284Y0152701D01*
X0432785Y0152127D01*
X0433083Y0151825D01*
X0428949D01*
X0429247Y0152127D01*
X0429748Y0152701D01*
X0429952Y0152974D01*
X0430124Y0153236D01*
X0430266Y0153488D01*
X0430375Y0153731D01*
X0430453Y0153963D01*
X0430501Y0154185D01*
X0430516Y0154398D01*
X0431516D01*
X0431532Y0154185D01*
D02*
G37*
G36*
X0351716Y0138264D02*
X0351735Y0138030D01*
X0351793Y0137779D01*
X0351889Y0137510D01*
X0352023Y0137224D01*
X0352196Y0136921D01*
X0352408Y0136600D01*
X0352657Y0136263D01*
X0353272Y0135535D01*
X0353637Y0135145D01*
X0348739Y0135285D01*
X0349114Y0135644D01*
X0349747Y0136324D01*
X0350004Y0136645D01*
X0350222Y0136952D01*
X0350400Y0137246D01*
X0350538Y0137528D01*
X0350637Y0137796D01*
X0350696Y0138051D01*
X0350716Y0138293D01*
X0351716Y0138264D01*
D02*
G37*
G36*
X0361716Y0138264D02*
X0361735Y0138030D01*
X0361793Y0137779D01*
X0361889Y0137510D01*
X0362023Y0137224D01*
X0362196Y0136921D01*
X0362407Y0136600D01*
X0362657Y0136263D01*
X0363272Y0135535D01*
X0363637Y0135145D01*
X0358739Y0135285D01*
X0359114Y0135644D01*
X0359747Y0136324D01*
X0360004Y0136645D01*
X0360222Y0136952D01*
X0360400Y0137246D01*
X0360538Y0137528D01*
X0360637Y0137796D01*
X0360696Y0138051D01*
X0360716Y0138293D01*
X0361716Y0138264D01*
D02*
G37*
G36*
X0327080Y0136189D02*
X0327310Y0136049D01*
X0327569Y0135941D01*
X0327855Y0135865D01*
X0328170Y0135822D01*
X0328512Y0135810D01*
X0328883Y0135830D01*
X0329282Y0135883D01*
X0329708Y0135967D01*
X0330163Y0136084D01*
X0327730Y0131831D01*
X0327572Y0132419D01*
X0326854Y0134609D01*
X0326725Y0134897D01*
X0326600Y0135134D01*
X0326480Y0135322D01*
X0326365Y0135460D01*
X0326878Y0136362D01*
X0327080Y0136189D01*
D02*
G37*
G36*
X0374602Y0133621D02*
X0374633Y0133536D01*
X0374683Y0133461D01*
X0374754Y0133396D01*
X0374845Y0133341D01*
X0374956Y0133296D01*
X0375088Y0133261D01*
X0375240Y0133236D01*
X0375412Y0133221D01*
X0375604Y0133216D01*
Y0132216D01*
X0375412Y0132211D01*
X0375240Y0132196D01*
X0375088Y0132171D01*
X0374956Y0132136D01*
X0374845Y0132091D01*
X0374754Y0132036D01*
X0374683Y0131971D01*
X0374633Y0131896D01*
X0374602Y0131811D01*
X0374592Y0131716D01*
Y0133716D01*
X0374602Y0133621D01*
D02*
G37*
%LPC*%
G36*
X0247666Y0483916D02*
X0244416D01*
Y0480666D01*
X0247666D01*
Y0483916D01*
D02*
G37*
G36*
X0216589Y0482640D02*
Y0477689D01*
X0221540D01*
X0221441Y0478440D01*
X0220862Y0479839D01*
X0219940Y0481040D01*
X0218739Y0481962D01*
X0217340Y0482541D01*
X0216589Y0482640D01*
D02*
G37*
G36*
X0191943D02*
Y0477689D01*
X0196894D01*
X0196795Y0478440D01*
X0196216Y0479839D01*
X0195294Y0481040D01*
X0194093Y0481962D01*
X0192694Y0482541D01*
X0191943Y0482640D01*
D02*
G37*
G36*
X0215089D02*
X0214338Y0482541D01*
X0212939Y0481962D01*
X0211738Y0481040D01*
X0210816Y0479839D01*
X0210237Y0478440D01*
X0210138Y0477689D01*
X0215089D01*
Y0482640D01*
D02*
G37*
G36*
X0190443D02*
X0189692Y0482541D01*
X0188294Y0481962D01*
X0187092Y0481040D01*
X0186171Y0479839D01*
X0185591Y0478440D01*
X0185493Y0477689D01*
X0190443D01*
Y0482640D01*
D02*
G37*
G36*
X0247666Y0479166D02*
X0244416D01*
Y0475916D01*
X0247666D01*
Y0479166D01*
D02*
G37*
G36*
X0221540Y0476189D02*
X0216589D01*
Y0471238D01*
X0217340Y0471337D01*
X0218739Y0471916D01*
X0219940Y0472838D01*
X0220862Y0474039D01*
X0221441Y0475438D01*
X0221540Y0476189D01*
D02*
G37*
G36*
X0196894D02*
X0191943D01*
Y0471238D01*
X0192694Y0471337D01*
X0194093Y0471916D01*
X0195294Y0472838D01*
X0196216Y0474039D01*
X0196795Y0475438D01*
X0196894Y0476189D01*
D02*
G37*
G36*
X0215089D02*
X0210138D01*
X0210237Y0475438D01*
X0210816Y0474039D01*
X0211738Y0472838D01*
X0212939Y0471916D01*
X0214338Y0471337D01*
X0215089Y0471238D01*
Y0476189D01*
D02*
G37*
G36*
X0190443D02*
X0185493D01*
X0185591Y0475438D01*
X0186171Y0474039D01*
X0187092Y0472838D01*
X0188294Y0471916D01*
X0189692Y0471337D01*
X0190443Y0471238D01*
Y0476189D01*
D02*
G37*
G36*
X0203516Y0470264D02*
X0202054Y0470072D01*
X0200692Y0469508D01*
X0199522Y0468610D01*
X0198625Y0467440D01*
X0198060Y0466078D01*
X0197868Y0464616D01*
X0198060Y0463154D01*
X0198625Y0461792D01*
X0199522Y0460622D01*
X0200692Y0459725D01*
X0202054Y0459160D01*
X0203516Y0458968D01*
X0204978Y0459160D01*
X0206340Y0459725D01*
X0207510Y0460622D01*
X0208408Y0461792D01*
X0208972Y0463154D01*
X0209165Y0464616D01*
X0208972Y0466078D01*
X0208408Y0467440D01*
X0207510Y0468610D01*
X0206340Y0469508D01*
X0204978Y0470072D01*
X0203516Y0470264D01*
D02*
G37*
G36*
X0216589Y0457994D02*
Y0453043D01*
X0221540D01*
X0221441Y0453794D01*
X0220862Y0455193D01*
X0219940Y0456394D01*
X0218739Y0457316D01*
X0217340Y0457895D01*
X0216589Y0457994D01*
D02*
G37*
G36*
X0191943D02*
Y0453043D01*
X0196894D01*
X0196795Y0453794D01*
X0196216Y0455193D01*
X0195294Y0456394D01*
X0194093Y0457316D01*
X0192694Y0457895D01*
X0191943Y0457994D01*
D02*
G37*
G36*
X0215089D02*
X0214338Y0457895D01*
X0212939Y0457316D01*
X0211738Y0456394D01*
X0210816Y0455193D01*
X0210237Y0453794D01*
X0210138Y0453043D01*
X0215089D01*
Y0457994D01*
D02*
G37*
G36*
X0190443D02*
X0189692Y0457895D01*
X0188294Y0457316D01*
X0187092Y0456394D01*
X0186171Y0455193D01*
X0185591Y0453794D01*
X0185493Y0453043D01*
X0190443D01*
Y0457994D01*
D02*
G37*
G36*
X0215089Y0451543D02*
X0210138D01*
X0210237Y0450792D01*
X0210816Y0449394D01*
X0211738Y0448192D01*
X0212939Y0447271D01*
X0214338Y0446691D01*
X0215089Y0446593D01*
Y0451543D01*
D02*
G37*
G36*
X0190443D02*
X0185493D01*
X0185591Y0450792D01*
X0186171Y0449394D01*
X0187092Y0448192D01*
X0188294Y0447271D01*
X0189692Y0446691D01*
X0190443Y0446593D01*
Y0451543D01*
D02*
G37*
G36*
X0221540D02*
X0216589D01*
Y0446593D01*
X0217340Y0446691D01*
X0218739Y0447271D01*
X0219940Y0448192D01*
X0220862Y0449394D01*
X0221441Y0450792D01*
X0221540Y0451543D01*
D02*
G37*
G36*
X0196894D02*
X0191943D01*
Y0446593D01*
X0192694Y0446691D01*
X0194093Y0447271D01*
X0195294Y0448192D01*
X0196216Y0449394D01*
X0196795Y0450792D01*
X0196894Y0451543D01*
D02*
G37*
G36*
X0199516Y0412942D02*
X0198733Y0412839D01*
X0198003Y0412537D01*
X0197377Y0412056D01*
X0196896Y0411429D01*
X0196593Y0410699D01*
X0196490Y0409916D01*
X0196593Y0409133D01*
X0196896Y0408403D01*
X0197377Y0407776D01*
X0198003Y0407296D01*
X0198733Y0406993D01*
X0199516Y0406890D01*
X0200299Y0406993D01*
X0201029Y0407296D01*
X0201656Y0407776D01*
X0202137Y0408403D01*
X0202439Y0409133D01*
X0202542Y0409916D01*
X0202439Y0410699D01*
X0202137Y0411429D01*
X0201656Y0412056D01*
X0201029Y0412537D01*
X0200299Y0412839D01*
X0199516Y0412942D01*
D02*
G37*
G36*
X0263116Y0379842D02*
X0262333Y0379739D01*
X0261603Y0379437D01*
X0260977Y0378956D01*
X0260496Y0378329D01*
X0260193Y0377599D01*
X0260090Y0376816D01*
X0260096Y0376771D01*
X0260094Y0376592D01*
X0260082Y0376416D01*
X0260063Y0376260D01*
X0260036Y0376124D01*
X0260005Y0376008D01*
X0259971Y0375911D01*
X0259934Y0375831D01*
X0259897Y0375767D01*
X0259880Y0375743D01*
X0257235Y0373098D01*
X0256903Y0372601D01*
X0256787Y0372016D01*
Y0360150D01*
X0253390Y0356753D01*
X0253365Y0356735D01*
X0253301Y0356698D01*
X0253222Y0356662D01*
X0253124Y0356627D01*
X0253008Y0356596D01*
X0252887Y0356573D01*
X0252526Y0356538D01*
X0252361Y0356536D01*
X0252316Y0356542D01*
X0251533Y0356439D01*
X0250803Y0356137D01*
X0250177Y0355656D01*
X0249696Y0355029D01*
X0249393Y0354299D01*
X0249290Y0353516D01*
X0249393Y0352733D01*
X0249696Y0352003D01*
X0250177Y0351377D01*
X0250803Y0350896D01*
X0251533Y0350593D01*
X0252316Y0350490D01*
X0253099Y0350593D01*
X0253829Y0350896D01*
X0254456Y0351377D01*
X0254937Y0352003D01*
X0255239Y0352733D01*
X0255342Y0353516D01*
X0255336Y0353561D01*
X0255339Y0353741D01*
X0255350Y0353916D01*
X0255370Y0354072D01*
X0255396Y0354208D01*
X0255427Y0354324D01*
X0255462Y0354422D01*
X0255498Y0354501D01*
X0255535Y0354565D01*
X0255553Y0354590D01*
X0259398Y0358435D01*
X0259729Y0358931D01*
X0259846Y0359516D01*
Y0371383D01*
X0262042Y0373580D01*
X0262067Y0373598D01*
X0262131Y0373634D01*
X0262211Y0373671D01*
X0262308Y0373705D01*
X0262424Y0373737D01*
X0262545Y0373760D01*
X0262906Y0373794D01*
X0263071Y0373796D01*
X0263116Y0373790D01*
X0263899Y0373893D01*
X0264629Y0374196D01*
X0265256Y0374676D01*
X0265737Y0375303D01*
X0266039Y0376033D01*
X0266142Y0376816D01*
X0266039Y0377599D01*
X0265737Y0378329D01*
X0265256Y0378956D01*
X0264629Y0379437D01*
X0263899Y0379739D01*
X0263116Y0379842D01*
D02*
G37*
G36*
X0278816Y0364442D02*
X0278033Y0364339D01*
X0277303Y0364037D01*
X0276677Y0363556D01*
X0276196Y0362929D01*
X0275893Y0362199D01*
X0275790Y0361416D01*
X0275893Y0360633D01*
X0276196Y0359903D01*
X0276677Y0359277D01*
X0277303Y0358796D01*
X0278033Y0358493D01*
X0278816Y0358390D01*
X0279599Y0358493D01*
X0280329Y0358796D01*
X0280956Y0359277D01*
X0281437Y0359903D01*
X0281739Y0360633D01*
X0281842Y0361416D01*
X0281739Y0362199D01*
X0281437Y0362929D01*
X0280956Y0363556D01*
X0280329Y0364037D01*
X0279599Y0364339D01*
X0278816Y0364442D01*
D02*
G37*
G36*
X0277516Y0345246D02*
X0221416D01*
X0220831Y0345129D01*
X0220335Y0344798D01*
X0213966Y0338429D01*
X0213556Y0338456D01*
X0212929Y0338937D01*
X0212199Y0339239D01*
X0211416Y0339342D01*
X0210633Y0339239D01*
X0209903Y0338937D01*
X0209277Y0338456D01*
X0208796Y0337829D01*
X0208493Y0337099D01*
X0208390Y0336316D01*
X0208493Y0335533D01*
X0208796Y0334803D01*
X0209277Y0334176D01*
X0209903Y0333696D01*
X0210633Y0333393D01*
X0211416Y0333290D01*
X0212199Y0333393D01*
X0212929Y0333696D01*
X0213556Y0334176D01*
X0214025Y0334789D01*
X0214601Y0334903D01*
X0215098Y0335235D01*
X0222050Y0342187D01*
X0276883D01*
X0283487Y0335583D01*
Y0332864D01*
X0283482Y0332834D01*
X0283463Y0332763D01*
X0283432Y0332681D01*
X0283388Y0332587D01*
X0283328Y0332483D01*
X0283259Y0332381D01*
X0283028Y0332102D01*
X0282913Y0331983D01*
X0282876Y0331956D01*
X0282396Y0331329D01*
X0282093Y0330599D01*
X0281990Y0329816D01*
X0282093Y0329033D01*
X0282396Y0328303D01*
X0282876Y0327677D01*
X0283503Y0327196D01*
X0284233Y0326893D01*
X0285016Y0326790D01*
X0285799Y0326893D01*
X0286529Y0327196D01*
X0287156Y0327677D01*
X0287637Y0328303D01*
X0287939Y0329033D01*
X0288042Y0329816D01*
X0287939Y0330599D01*
X0287637Y0331329D01*
X0287156Y0331956D01*
X0287120Y0331983D01*
X0286995Y0332112D01*
X0286879Y0332244D01*
X0286782Y0332368D01*
X0286705Y0332483D01*
X0286644Y0332587D01*
X0286600Y0332681D01*
X0286569Y0332763D01*
X0286550Y0332834D01*
X0286546Y0332864D01*
Y0336216D01*
X0286429Y0336801D01*
X0286098Y0337298D01*
X0278598Y0344798D01*
X0278101Y0345129D01*
X0277516Y0345246D01*
D02*
G37*
%LPD*%
G36*
X0263096Y0374816D02*
X0262851Y0374813D01*
X0262401Y0374770D01*
X0262196Y0374731D01*
X0262005Y0374680D01*
X0261827Y0374617D01*
X0261663Y0374541D01*
X0261513Y0374455D01*
X0261375Y0374356D01*
X0261252Y0374245D01*
X0260545Y0374952D01*
X0260656Y0375076D01*
X0260755Y0375213D01*
X0260841Y0375363D01*
X0260917Y0375527D01*
X0260980Y0375705D01*
X0261031Y0375896D01*
X0261070Y0376101D01*
X0261097Y0376319D01*
X0261113Y0376551D01*
X0261116Y0376796D01*
X0263096Y0374816D01*
D02*
G37*
G36*
X0254888Y0355381D02*
X0254777Y0355257D01*
X0254678Y0355120D01*
X0254591Y0354969D01*
X0254516Y0354805D01*
X0254453Y0354627D01*
X0254401Y0354436D01*
X0254362Y0354231D01*
X0254335Y0354013D01*
X0254320Y0353781D01*
X0254316Y0353536D01*
X0252336Y0355516D01*
X0252581Y0355520D01*
X0253031Y0355562D01*
X0253236Y0355602D01*
X0253427Y0355653D01*
X0253605Y0355716D01*
X0253769Y0355791D01*
X0253920Y0355878D01*
X0254057Y0355977D01*
X0254181Y0356088D01*
X0254888Y0355381D01*
D02*
G37*
G36*
X0213310Y0336978D02*
X0213343Y0336944D01*
X0213386Y0336914D01*
X0213442Y0336888D01*
X0213509Y0336866D01*
X0213587Y0336848D01*
X0213677Y0336834D01*
X0213778Y0336824D01*
X0214016Y0336816D01*
Y0335816D01*
X0213892Y0335814D01*
X0213677Y0335798D01*
X0213587Y0335784D01*
X0213509Y0335766D01*
X0213442Y0335744D01*
X0213386Y0335718D01*
X0213343Y0335688D01*
X0213310Y0335654D01*
X0213290Y0335616D01*
Y0337016D01*
X0213310Y0336978D01*
D02*
G37*
G36*
X0285525Y0332787D02*
X0285552Y0332620D01*
X0285597Y0332452D01*
X0285660Y0332283D01*
X0285741Y0332113D01*
X0285840Y0331941D01*
X0285957Y0331769D01*
X0286092Y0331595D01*
X0286245Y0331420D01*
X0286416Y0331244D01*
X0283616D01*
X0283787Y0331420D01*
X0284075Y0331769D01*
X0284192Y0331941D01*
X0284291Y0332113D01*
X0284372Y0332283D01*
X0284435Y0332452D01*
X0284480Y0332620D01*
X0284507Y0332787D01*
X0284516Y0332953D01*
X0285516D01*
X0285525Y0332787D01*
D02*
G37*
%LPC*%
G36*
X0268916Y0483916D02*
X0265666D01*
Y0480666D01*
X0268916D01*
Y0483916D01*
D02*
G37*
G36*
Y0479166D02*
X0265666D01*
Y0475916D01*
X0268916D01*
Y0479166D01*
D02*
G37*
G36*
X0307516Y0482944D02*
X0305970Y0482792D01*
X0304482Y0482341D01*
X0303112Y0481608D01*
X0301910Y0480622D01*
X0300924Y0479421D01*
X0300192Y0478050D01*
X0299741Y0476563D01*
X0299588Y0475016D01*
X0299741Y0473469D01*
X0300192Y0471982D01*
X0300924Y0470612D01*
X0301910Y0469410D01*
X0303112Y0468424D01*
X0304482Y0467692D01*
X0305970Y0467241D01*
X0307516Y0467088D01*
X0309063Y0467241D01*
X0310550Y0467692D01*
X0311921Y0468424D01*
X0313122Y0469410D01*
X0314108Y0470612D01*
X0314841Y0471982D01*
X0315292Y0473469D01*
X0315444Y0475016D01*
X0315292Y0476563D01*
X0314841Y0478050D01*
X0314108Y0479421D01*
X0313122Y0480622D01*
X0311921Y0481608D01*
X0310550Y0482341D01*
X0309063Y0482792D01*
X0307516Y0482944D01*
D02*
G37*
G36*
X0325616Y0465244D02*
X0324069Y0465092D01*
X0322582Y0464641D01*
X0321212Y0463908D01*
X0320010Y0462922D01*
X0319024Y0461721D01*
X0318292Y0460350D01*
X0317841Y0458863D01*
X0317688Y0457316D01*
X0317841Y0455769D01*
X0318292Y0454282D01*
X0319024Y0452912D01*
X0320010Y0451710D01*
X0321212Y0450724D01*
X0322582Y0449992D01*
X0324069Y0449541D01*
X0325616Y0449388D01*
X0327163Y0449541D01*
X0328650Y0449992D01*
X0330021Y0450724D01*
X0331222Y0451710D01*
X0332208Y0452912D01*
X0332941Y0454282D01*
X0333392Y0455769D01*
X0333544Y0457316D01*
X0333392Y0458863D01*
X0332941Y0460350D01*
X0332208Y0461721D01*
X0331222Y0462922D01*
X0330021Y0463908D01*
X0328650Y0464641D01*
X0327163Y0465092D01*
X0325616Y0465244D01*
D02*
G37*
G36*
X0307716Y0448544D02*
X0306170Y0448392D01*
X0304682Y0447941D01*
X0303312Y0447208D01*
X0302110Y0446222D01*
X0301124Y0445021D01*
X0300392Y0443650D01*
X0299941Y0442163D01*
X0299788Y0440616D01*
X0299941Y0439070D01*
X0300392Y0437582D01*
X0301124Y0436212D01*
X0302110Y0435010D01*
X0303312Y0434024D01*
X0304682Y0433292D01*
X0306170Y0432841D01*
X0307716Y0432688D01*
X0309263Y0432841D01*
X0310750Y0433292D01*
X0312121Y0434024D01*
X0313322Y0435010D01*
X0314308Y0436212D01*
X0315041Y0437582D01*
X0315492Y0439070D01*
X0315644Y0440616D01*
X0315492Y0442163D01*
X0315041Y0443650D01*
X0314308Y0445021D01*
X0313322Y0446222D01*
X0312121Y0447208D01*
X0310750Y0447941D01*
X0309263Y0448392D01*
X0307716Y0448544D01*
D02*
G37*
G36*
X0349816Y0418116D02*
X0346566D01*
Y0414866D01*
X0349816D01*
Y0418116D01*
D02*
G37*
G36*
X0345066D02*
X0341816D01*
Y0414866D01*
X0345066D01*
Y0418116D01*
D02*
G37*
G36*
X0407716Y0465796D02*
X0406427Y0465626D01*
X0405226Y0465129D01*
X0404195Y0464337D01*
X0403404Y0463306D01*
X0402987Y0462299D01*
X0402446D01*
X0402029Y0463306D01*
X0401237Y0464337D01*
X0400206Y0465129D01*
X0399005Y0465626D01*
X0398466Y0465697D01*
Y0460816D01*
Y0455935D01*
X0399005Y0456006D01*
X0400206Y0456504D01*
X0401237Y0457295D01*
X0402029Y0458326D01*
X0402446Y0459333D01*
X0402987D01*
X0403404Y0458326D01*
X0404195Y0457295D01*
X0405226Y0456504D01*
X0406427Y0456006D01*
X0407716Y0455837D01*
X0409005Y0456006D01*
X0410206Y0456504D01*
X0411237Y0457295D01*
X0412029Y0458326D01*
X0412526Y0459527D01*
X0412696Y0460816D01*
X0412526Y0462105D01*
X0412029Y0463306D01*
X0411237Y0464337D01*
X0410206Y0465129D01*
X0409005Y0465626D01*
X0407716Y0465796D01*
D02*
G37*
G36*
X0478216Y0440196D02*
X0476927Y0440026D01*
X0475726Y0439529D01*
X0474695Y0438737D01*
X0473904Y0437706D01*
X0473565Y0436890D01*
X0473024D01*
X0472686Y0437706D01*
X0471895Y0438737D01*
X0470863Y0439529D01*
X0469663Y0440026D01*
X0469124Y0440097D01*
Y0435216D01*
X0468374D01*
Y0434466D01*
X0463493D01*
X0463564Y0433927D01*
X0464061Y0432726D01*
X0464853Y0431695D01*
X0465884Y0430904D01*
X0466700Y0430566D01*
Y0430024D01*
X0465884Y0429686D01*
X0464853Y0428895D01*
X0464061Y0427864D01*
X0463564Y0426662D01*
X0463394Y0425374D01*
X0463564Y0424085D01*
X0464061Y0422884D01*
X0464853Y0421852D01*
X0464982Y0421753D01*
X0465201Y0421527D01*
X0465462Y0421229D01*
X0465687Y0420939D01*
X0465875Y0420659D01*
X0466030Y0420390D01*
X0466152Y0420132D01*
X0466242Y0419886D01*
X0466305Y0419651D01*
X0466334Y0419464D01*
Y0417159D01*
X0466490Y0416378D01*
X0466932Y0415717D01*
X0470174Y0412474D01*
X0470836Y0412032D01*
X0471616Y0411877D01*
X0472313Y0412015D01*
X0497817D01*
X0497889Y0412008D01*
X0498001Y0411989D01*
X0498091Y0411969D01*
X0498156Y0411949D01*
X0498198Y0411932D01*
X0498205Y0411929D01*
X0498215Y0411915D01*
X0498842Y0411434D01*
X0499572Y0411132D01*
X0500355Y0411029D01*
X0500372Y0411031D01*
X0500379Y0411029D01*
X0500420Y0411011D01*
X0500481Y0410979D01*
X0500559Y0410930D01*
X0500641Y0410871D01*
X0500730Y0410795D01*
X0513877Y0397649D01*
Y0386160D01*
X0513869Y0386089D01*
X0513851Y0385976D01*
X0513831Y0385887D01*
X0513810Y0385821D01*
X0513794Y0385780D01*
X0513790Y0385773D01*
X0513776Y0385763D01*
X0513296Y0385136D01*
X0512993Y0384406D01*
X0512890Y0383623D01*
X0512993Y0382840D01*
X0513296Y0382110D01*
X0513776Y0381483D01*
X0514403Y0381002D01*
X0515133Y0380700D01*
X0515916Y0380597D01*
X0516699Y0380700D01*
X0517429Y0381002D01*
X0518056Y0381483D01*
X0518537Y0382110D01*
X0518839Y0382840D01*
X0518942Y0383623D01*
X0518839Y0384406D01*
X0518537Y0385136D01*
X0518056Y0385763D01*
X0518042Y0385773D01*
X0518039Y0385780D01*
X0518022Y0385821D01*
X0518002Y0385887D01*
X0517981Y0385976D01*
X0517965Y0386077D01*
X0517955Y0386193D01*
Y0398493D01*
X0517800Y0399274D01*
X0517358Y0399935D01*
X0505740Y0411554D01*
X0505931Y0412015D01*
X0531233D01*
X0550980Y0392268D01*
X0551025Y0392213D01*
X0551092Y0392120D01*
X0551141Y0392042D01*
X0551173Y0391982D01*
X0551190Y0391941D01*
X0551193Y0391933D01*
X0551190Y0391916D01*
X0551293Y0391133D01*
X0551596Y0390403D01*
X0552076Y0389776D01*
X0552703Y0389296D01*
X0553433Y0388993D01*
X0554216Y0388890D01*
X0554999Y0388993D01*
X0555729Y0389296D01*
X0556356Y0389776D01*
X0556837Y0390403D01*
X0557139Y0391133D01*
X0557242Y0391916D01*
X0557139Y0392699D01*
X0556837Y0393429D01*
X0556356Y0394056D01*
X0555729Y0394537D01*
X0554999Y0394839D01*
X0554216Y0394942D01*
X0554199Y0394940D01*
X0554192Y0394942D01*
X0554151Y0394960D01*
X0554090Y0394992D01*
X0554012Y0395041D01*
X0553930Y0395100D01*
X0553841Y0395176D01*
X0533520Y0415497D01*
X0532858Y0415939D01*
X0532078Y0416094D01*
X0502892D01*
X0502821Y0416102D01*
X0502708Y0416120D01*
X0502619Y0416140D01*
X0502553Y0416160D01*
X0502512Y0416177D01*
X0502505Y0416181D01*
X0502494Y0416194D01*
X0501868Y0416675D01*
X0501138Y0416978D01*
X0500355Y0417081D01*
X0499572Y0416978D01*
X0498842Y0416675D01*
X0498215Y0416194D01*
X0498205Y0416181D01*
X0498198Y0416177D01*
X0498156Y0416160D01*
X0498091Y0416140D01*
X0498001Y0416120D01*
X0497901Y0416104D01*
X0497784Y0416094D01*
X0472322D01*
X0470413Y0418003D01*
Y0419464D01*
X0470443Y0419651D01*
X0470505Y0419886D01*
X0470596Y0420132D01*
X0470717Y0420390D01*
X0470872Y0420659D01*
X0471061Y0420939D01*
X0471285Y0421229D01*
X0471546Y0421527D01*
X0471765Y0421753D01*
X0471895Y0421852D01*
X0472686Y0422884D01*
X0473024Y0423700D01*
X0473565D01*
X0473904Y0422884D01*
X0474695Y0421852D01*
X0475726Y0421061D01*
X0476927Y0420564D01*
X0478216Y0420394D01*
X0479505Y0420564D01*
X0480706Y0421061D01*
X0481737Y0421852D01*
X0482529Y0422884D01*
X0483026Y0424085D01*
X0483196Y0425374D01*
X0483026Y0426662D01*
X0482529Y0427864D01*
X0481737Y0428895D01*
X0480706Y0429686D01*
X0479889Y0430024D01*
Y0430566D01*
X0480706Y0430904D01*
X0481737Y0431695D01*
X0482529Y0432726D01*
X0483026Y0433927D01*
X0483196Y0435216D01*
X0483026Y0436505D01*
X0482529Y0437706D01*
X0481737Y0438737D01*
X0480706Y0439529D01*
X0479505Y0440026D01*
X0478216Y0440196D01*
D02*
G37*
G36*
X0496917Y0453976D02*
X0495177Y0453804D01*
X0493505Y0453297D01*
X0491963Y0452473D01*
X0490612Y0451364D01*
X0489503Y0450013D01*
X0488679Y0448471D01*
X0488171Y0446798D01*
X0488000Y0445059D01*
X0488171Y0443319D01*
X0488679Y0441646D01*
X0489503Y0440105D01*
X0490612Y0438753D01*
X0491963Y0437644D01*
X0493505Y0436821D01*
X0495177Y0436313D01*
X0496917Y0436142D01*
X0498657Y0436313D01*
X0500329Y0436821D01*
X0501871Y0437644D01*
X0503222Y0438753D01*
X0504331Y0440105D01*
X0505155Y0441646D01*
X0505663Y0443319D01*
X0505834Y0445059D01*
X0505663Y0446798D01*
X0505155Y0448471D01*
X0504331Y0450013D01*
X0503222Y0451364D01*
X0501871Y0452473D01*
X0500329Y0453297D01*
X0498657Y0453804D01*
X0496917Y0453976D01*
D02*
G37*
G36*
X0449673D02*
X0447933Y0453804D01*
X0446260Y0453297D01*
X0444719Y0452473D01*
X0443368Y0451364D01*
X0442259Y0450013D01*
X0441435Y0448471D01*
X0440927Y0446798D01*
X0440756Y0445059D01*
X0440927Y0443319D01*
X0441435Y0441646D01*
X0442259Y0440105D01*
X0443368Y0438753D01*
X0444719Y0437644D01*
X0446260Y0436821D01*
X0447933Y0436313D01*
X0449673Y0436142D01*
X0451412Y0436313D01*
X0453085Y0436821D01*
X0454627Y0437644D01*
X0455978Y0438753D01*
X0457087Y0440105D01*
X0457911Y0441646D01*
X0458419Y0443319D01*
X0458590Y0445059D01*
X0458419Y0446798D01*
X0457911Y0448471D01*
X0457087Y0450013D01*
X0455978Y0451364D01*
X0454627Y0452473D01*
X0453085Y0453297D01*
X0451412Y0453804D01*
X0449673Y0453976D01*
D02*
G37*
G36*
X0467624Y0440097D02*
X0467085Y0440026D01*
X0465884Y0439529D01*
X0464853Y0438737D01*
X0464061Y0437706D01*
X0463564Y0436505D01*
X0463493Y0435966D01*
X0467624D01*
Y0440097D01*
D02*
G37*
G36*
X0403416Y0444542D02*
X0402633Y0444439D01*
X0401903Y0444137D01*
X0401276Y0443656D01*
X0400796Y0443029D01*
X0400493Y0442299D01*
X0400390Y0441516D01*
X0400493Y0440733D01*
X0400796Y0440003D01*
X0401276Y0439376D01*
X0401290Y0439366D01*
X0401294Y0439359D01*
X0401310Y0439318D01*
X0401331Y0439252D01*
X0401351Y0439163D01*
X0401367Y0439062D01*
X0401377Y0438946D01*
Y0437516D01*
X0401532Y0436736D01*
X0401974Y0436074D01*
X0438380Y0399668D01*
X0438425Y0399613D01*
X0438492Y0399520D01*
X0438541Y0399442D01*
X0438573Y0399381D01*
X0438590Y0399341D01*
X0438592Y0399333D01*
X0438590Y0399316D01*
X0438693Y0398533D01*
X0438996Y0397803D01*
X0439476Y0397177D01*
X0440103Y0396696D01*
X0440833Y0396393D01*
X0441616Y0396290D01*
X0442399Y0396393D01*
X0443129Y0396696D01*
X0443756Y0397177D01*
X0444237Y0397803D01*
X0444539Y0398533D01*
X0444642Y0399316D01*
X0444539Y0400099D01*
X0444237Y0400829D01*
X0443756Y0401456D01*
X0443129Y0401937D01*
X0442399Y0402239D01*
X0441616Y0402342D01*
X0441599Y0402340D01*
X0441592Y0402342D01*
X0441551Y0402360D01*
X0441490Y0402392D01*
X0441412Y0402441D01*
X0441330Y0402500D01*
X0441241Y0402576D01*
X0405455Y0438361D01*
Y0438979D01*
X0405463Y0439050D01*
X0405481Y0439163D01*
X0405502Y0439252D01*
X0405522Y0439318D01*
X0405539Y0439359D01*
X0405542Y0439366D01*
X0405556Y0439376D01*
X0406037Y0440003D01*
X0406339Y0440733D01*
X0406442Y0441516D01*
X0406339Y0442299D01*
X0406037Y0443029D01*
X0405556Y0443656D01*
X0404929Y0444137D01*
X0404199Y0444439D01*
X0403416Y0444542D01*
D02*
G37*
%LPD*%
G36*
X0470796Y0422219D02*
X0470497Y0421877D01*
X0470234Y0421537D01*
X0470006Y0421199D01*
X0469813Y0420862D01*
X0469655Y0420527D01*
X0469532Y0420193D01*
X0469444Y0419862D01*
X0469391Y0419532D01*
X0469374Y0419204D01*
X0467374D01*
X0467356Y0419532D01*
X0467303Y0419862D01*
X0467216Y0420193D01*
X0467093Y0420527D01*
X0466935Y0420862D01*
X0466742Y0421199D01*
X0466513Y0421537D01*
X0466250Y0421877D01*
X0465951Y0422219D01*
X0465618Y0422562D01*
X0471130D01*
X0470796Y0422219D01*
D02*
G37*
G36*
X0498926Y0412655D02*
X0498841Y0412731D01*
X0498741Y0412799D01*
X0498626Y0412859D01*
X0498498Y0412911D01*
X0498354Y0412955D01*
X0498197Y0412991D01*
X0498025Y0413019D01*
X0497839Y0413039D01*
X0497423Y0413055D01*
Y0415055D01*
X0497638Y0415059D01*
X0498025Y0415091D01*
X0498197Y0415119D01*
X0498354Y0415155D01*
X0498498Y0415199D01*
X0498626Y0415251D01*
X0498741Y0415311D01*
X0498841Y0415379D01*
X0498926Y0415455D01*
Y0412655D01*
D02*
G37*
G36*
X0501869Y0415379D02*
X0501969Y0415311D01*
X0502083Y0415251D01*
X0502212Y0415199D01*
X0502355Y0415155D01*
X0502513Y0415119D01*
X0502684Y0415091D01*
X0502871Y0415071D01*
X0503287Y0415055D01*
Y0413055D01*
X0503072Y0413051D01*
X0502823Y0413030D01*
X0502852Y0412994D01*
X0503135Y0412689D01*
X0501721Y0411274D01*
X0501566Y0411424D01*
X0501270Y0411675D01*
X0501128Y0411776D01*
X0500991Y0411863D01*
X0500859Y0411933D01*
X0500731Y0411987D01*
X0500608Y0412025D01*
X0500489Y0412048D01*
X0500375Y0412055D01*
X0501783Y0413463D01*
Y0415455D01*
X0501869Y0415379D01*
D02*
G37*
G36*
X0553005Y0394547D02*
X0553301Y0394296D01*
X0553443Y0394194D01*
X0553580Y0394108D01*
X0553712Y0394038D01*
X0553840Y0393984D01*
X0553963Y0393946D01*
X0554082Y0393923D01*
X0554196Y0393916D01*
X0552216Y0391936D01*
X0552210Y0392051D01*
X0552187Y0392169D01*
X0552148Y0392293D01*
X0552094Y0392420D01*
X0552024Y0392553D01*
X0551938Y0392690D01*
X0551836Y0392831D01*
X0551719Y0392977D01*
X0551436Y0393282D01*
X0552850Y0394696D01*
X0553005Y0394547D01*
D02*
G37*
G36*
X0516920Y0386340D02*
X0516952Y0385953D01*
X0516980Y0385781D01*
X0517016Y0385623D01*
X0517060Y0385480D01*
X0517112Y0385351D01*
X0517172Y0385237D01*
X0517240Y0385137D01*
X0517316Y0385051D01*
X0514516D01*
X0514592Y0385137D01*
X0514660Y0385237D01*
X0514720Y0385351D01*
X0514772Y0385480D01*
X0514816Y0385623D01*
X0514852Y0385781D01*
X0514880Y0385953D01*
X0514900Y0386139D01*
X0514916Y0386555D01*
X0516916D01*
X0516920Y0386340D01*
D02*
G37*
G36*
X0404740Y0440002D02*
X0404672Y0439902D01*
X0404612Y0439788D01*
X0404560Y0439659D01*
X0404516Y0439516D01*
X0404480Y0439358D01*
X0404452Y0439186D01*
X0404432Y0439000D01*
X0404416Y0438584D01*
X0402416D01*
X0402412Y0438799D01*
X0402380Y0439186D01*
X0402352Y0439358D01*
X0402316Y0439516D01*
X0402272Y0439659D01*
X0402220Y0439788D01*
X0402160Y0439902D01*
X0402092Y0440002D01*
X0402016Y0440088D01*
X0404816D01*
X0404740Y0440002D01*
D02*
G37*
G36*
X0440405Y0401947D02*
X0440701Y0401696D01*
X0440843Y0401594D01*
X0440980Y0401508D01*
X0441112Y0401438D01*
X0441240Y0401384D01*
X0441363Y0401345D01*
X0441482Y0401323D01*
X0441596Y0401316D01*
X0439616Y0399336D01*
X0439609Y0399450D01*
X0439587Y0399569D01*
X0439548Y0399693D01*
X0439494Y0399820D01*
X0439424Y0399953D01*
X0439338Y0400090D01*
X0439236Y0400231D01*
X0439119Y0400377D01*
X0438836Y0400682D01*
X0440250Y0402097D01*
X0440405Y0401947D01*
D02*
G37*
%LPC*%
G36*
X0349816Y0396866D02*
X0346566D01*
Y0393616D01*
X0349816D01*
Y0396866D01*
D02*
G37*
G36*
X0345066D02*
X0341816D01*
Y0393616D01*
X0345066D01*
Y0396866D01*
D02*
G37*
G36*
X0502916Y0291242D02*
X0502133Y0291139D01*
X0501403Y0290837D01*
X0500776Y0290356D01*
X0500296Y0289729D01*
X0500282Y0289696D01*
X0500219Y0289595D01*
X0500143Y0289491D01*
X0500073Y0289411D01*
X0500010Y0289351D01*
X0499955Y0289309D01*
X0499907Y0289280D01*
X0499863Y0289260D01*
X0499821Y0289247D01*
X0499801Y0289244D01*
X0417164D01*
X0417134Y0289249D01*
X0417063Y0289268D01*
X0416981Y0289298D01*
X0416887Y0289343D01*
X0416783Y0289403D01*
X0416681Y0289472D01*
X0416402Y0289703D01*
X0416284Y0289818D01*
X0416256Y0289854D01*
X0415629Y0290335D01*
X0414899Y0290637D01*
X0414116Y0290740D01*
X0413333Y0290637D01*
X0412603Y0290335D01*
X0411976Y0289854D01*
X0411496Y0289227D01*
X0411193Y0288497D01*
X0411090Y0287714D01*
X0411193Y0286931D01*
X0411496Y0286201D01*
X0411976Y0285575D01*
X0412603Y0285094D01*
X0413333Y0284792D01*
X0414116Y0284688D01*
X0414899Y0284792D01*
X0415629Y0285094D01*
X0416256Y0285575D01*
X0416284Y0285611D01*
X0416412Y0285736D01*
X0416544Y0285852D01*
X0416669Y0285948D01*
X0416783Y0286026D01*
X0416887Y0286086D01*
X0416981Y0286130D01*
X0417063Y0286161D01*
X0417134Y0286180D01*
X0417164Y0286185D01*
X0500084D01*
X0500115Y0286181D01*
X0500197Y0286163D01*
X0500475Y0286076D01*
X0500594Y0286028D01*
X0501167Y0285741D01*
X0501363Y0285627D01*
X0501403Y0285596D01*
X0502133Y0285293D01*
X0502916Y0285190D01*
X0503699Y0285293D01*
X0504429Y0285596D01*
X0505056Y0286076D01*
X0505537Y0286703D01*
X0505839Y0287433D01*
X0505942Y0288216D01*
X0505839Y0288999D01*
X0505537Y0289729D01*
X0505056Y0290356D01*
X0504429Y0290837D01*
X0503699Y0291139D01*
X0502916Y0291242D01*
D02*
G37*
G36*
X0196316Y0288342D02*
X0195533Y0288239D01*
X0194803Y0287937D01*
X0194176Y0287456D01*
X0193696Y0286829D01*
X0193393Y0286099D01*
X0193290Y0285316D01*
X0193393Y0284533D01*
X0193696Y0283803D01*
X0194176Y0283176D01*
X0194803Y0282696D01*
X0195533Y0282393D01*
X0196316Y0282290D01*
X0197099Y0282393D01*
X0197829Y0282696D01*
X0198456Y0283176D01*
X0198484Y0283213D01*
X0198612Y0283338D01*
X0198744Y0283453D01*
X0198869Y0283550D01*
X0198983Y0283628D01*
X0199087Y0283688D01*
X0199181Y0283732D01*
X0199262Y0283763D01*
X0199334Y0283782D01*
X0199364Y0283787D01*
X0207883D01*
X0211232Y0280438D01*
X0211238Y0280429D01*
X0211381Y0280208D01*
X0211438Y0280104D01*
X0211796Y0279302D01*
X0211884Y0279068D01*
X0211885Y0279067D01*
X0211885Y0279067D01*
X0211941Y0278978D01*
X0212078Y0278646D01*
X0211948Y0278280D01*
X0211882Y0278146D01*
X0197788D01*
X0197760Y0278150D01*
X0197694Y0278169D01*
X0197620Y0278197D01*
X0197535Y0278240D01*
X0197441Y0278298D01*
X0197336Y0278374D01*
X0197223Y0278469D01*
X0197102Y0278584D01*
X0196958Y0278739D01*
X0196930Y0278759D01*
X0196856Y0278856D01*
X0196229Y0279337D01*
X0195499Y0279639D01*
X0194716Y0279742D01*
X0193933Y0279639D01*
X0193203Y0279337D01*
X0192577Y0278856D01*
X0192096Y0278229D01*
X0191793Y0277499D01*
X0191690Y0276716D01*
X0191793Y0275933D01*
X0192096Y0275203D01*
X0192577Y0274576D01*
X0193203Y0274096D01*
X0193933Y0273793D01*
X0194716Y0273690D01*
X0195499Y0273793D01*
X0196229Y0274096D01*
X0196687Y0274447D01*
X0196748Y0274482D01*
X0196845Y0274568D01*
X0196856Y0274576D01*
X0196859Y0274581D01*
X0196916Y0274631D01*
X0197061Y0274747D01*
X0197196Y0274844D01*
X0197321Y0274923D01*
X0197434Y0274985D01*
X0197536Y0275030D01*
X0197625Y0275062D01*
X0197702Y0275082D01*
X0197734Y0275087D01*
X0226783D01*
X0227780Y0274090D01*
X0227798Y0274065D01*
X0227834Y0274001D01*
X0227871Y0273922D01*
X0227905Y0273824D01*
X0227937Y0273708D01*
X0227960Y0273587D01*
X0227994Y0273226D01*
X0227996Y0273061D01*
X0227990Y0273016D01*
X0228093Y0272233D01*
X0228396Y0271503D01*
X0228876Y0270877D01*
X0229503Y0270396D01*
X0230233Y0270093D01*
X0231016Y0269990D01*
X0231799Y0270093D01*
X0232529Y0270396D01*
X0233156Y0270877D01*
X0233637Y0271503D01*
X0233939Y0272233D01*
X0234042Y0273016D01*
X0233939Y0273799D01*
X0233637Y0274529D01*
X0233156Y0275156D01*
X0232529Y0275637D01*
X0231799Y0275939D01*
X0231016Y0276042D01*
X0230971Y0276036D01*
X0230792Y0276039D01*
X0230616Y0276050D01*
X0230460Y0276070D01*
X0230324Y0276096D01*
X0230208Y0276127D01*
X0230111Y0276162D01*
X0230031Y0276198D01*
X0229967Y0276235D01*
X0229942Y0276253D01*
X0228498Y0277698D01*
X0228001Y0278029D01*
X0227416Y0278146D01*
X0217551D01*
X0217484Y0278280D01*
X0217354Y0278646D01*
X0217639Y0279333D01*
X0217742Y0280116D01*
X0217639Y0280899D01*
X0217337Y0281629D01*
X0216856Y0282256D01*
X0216229Y0282737D01*
X0215499Y0283039D01*
X0214716Y0283142D01*
X0213933Y0283039D01*
X0213725Y0282953D01*
X0213658Y0282944D01*
X0213497Y0282888D01*
X0213394Y0282862D01*
X0213312Y0282850D01*
X0213250Y0282848D01*
X0213205Y0282851D01*
X0213173Y0282858D01*
X0213145Y0282868D01*
X0213116Y0282883D01*
X0213103Y0282892D01*
X0209598Y0286398D01*
X0209101Y0286729D01*
X0208516Y0286846D01*
X0199364D01*
X0199334Y0286850D01*
X0199262Y0286870D01*
X0199181Y0286900D01*
X0199087Y0286944D01*
X0198983Y0287005D01*
X0198881Y0287074D01*
X0198602Y0287305D01*
X0198484Y0287420D01*
X0198456Y0287456D01*
X0197829Y0287937D01*
X0197099Y0288239D01*
X0196316Y0288342D01*
D02*
G37*
G36*
X0168616Y0235503D02*
X0167584Y0235367D01*
X0166623Y0234969D01*
X0165797Y0234335D01*
X0165163Y0233510D01*
X0164765Y0232548D01*
X0164629Y0231516D01*
X0164642Y0231419D01*
X0164638Y0231254D01*
X0164618Y0231045D01*
X0164584Y0230849D01*
X0164538Y0230665D01*
X0164478Y0230492D01*
X0164406Y0230328D01*
X0164320Y0230170D01*
X0164219Y0230018D01*
X0164162Y0229946D01*
X0163031Y0228815D01*
X0162569Y0229006D01*
Y0235469D01*
X0154663D01*
Y0227563D01*
X0161371D01*
X0161724Y0227063D01*
X0161624Y0226563D01*
Y0224821D01*
X0161124Y0224574D01*
X0160610Y0224969D01*
X0159648Y0225367D01*
X0158616Y0225503D01*
X0157584Y0225367D01*
X0156623Y0224969D01*
X0155797Y0224335D01*
X0155164Y0223510D01*
X0154765Y0222548D01*
X0154629Y0221516D01*
X0154765Y0220484D01*
X0155164Y0219523D01*
X0155797Y0218697D01*
X0156623Y0218063D01*
X0157584Y0217665D01*
X0158616Y0217529D01*
X0159648Y0217665D01*
X0160610Y0218063D01*
X0161124Y0218458D01*
X0161624Y0218212D01*
Y0214821D01*
X0161124Y0214574D01*
X0160610Y0214969D01*
X0159648Y0215367D01*
X0158616Y0215503D01*
X0157584Y0215367D01*
X0156623Y0214969D01*
X0155797Y0214335D01*
X0155163Y0213510D01*
X0154765Y0212548D01*
X0154629Y0211516D01*
X0154765Y0210484D01*
X0155163Y0209523D01*
X0155797Y0208697D01*
X0156623Y0208064D01*
X0157584Y0207665D01*
X0158616Y0207529D01*
X0159648Y0207665D01*
X0160610Y0208064D01*
X0161290Y0208586D01*
X0161379Y0208604D01*
X0161768Y0208553D01*
X0161908Y0208492D01*
X0162222Y0208023D01*
X0163577Y0206667D01*
Y0193894D01*
X0163569Y0193823D01*
X0163551Y0193710D01*
X0163531Y0193620D01*
X0163510Y0193555D01*
X0163494Y0193513D01*
X0163490Y0193506D01*
X0163477Y0193496D01*
X0162996Y0192869D01*
X0162693Y0192139D01*
X0162590Y0191356D01*
X0162693Y0190573D01*
X0162996Y0189843D01*
X0163477Y0189217D01*
X0164103Y0188736D01*
X0164833Y0188434D01*
X0165616Y0188330D01*
X0166399Y0188434D01*
X0167129Y0188736D01*
X0167756Y0189217D01*
X0168237Y0189843D01*
X0168539Y0190573D01*
X0168642Y0191356D01*
X0168539Y0192139D01*
X0168237Y0192869D01*
X0167756Y0193496D01*
X0167742Y0193506D01*
X0167739Y0193513D01*
X0167722Y0193555D01*
X0167702Y0193620D01*
X0167681Y0193710D01*
X0167665Y0193810D01*
X0167655Y0193927D01*
Y0207152D01*
X0167866Y0207352D01*
Y0211516D01*
Y0215404D01*
X0167584Y0215367D01*
X0166623Y0214969D01*
X0166203Y0214647D01*
X0165703Y0214893D01*
Y0218139D01*
X0166203Y0218386D01*
X0166623Y0218063D01*
X0167584Y0217665D01*
X0168616Y0217529D01*
X0169648Y0217665D01*
X0170610Y0218063D01*
X0171435Y0218697D01*
X0172069Y0219523D01*
X0172467Y0220484D01*
X0172603Y0221516D01*
X0172467Y0222548D01*
X0172069Y0223510D01*
X0171435Y0224335D01*
X0170610Y0224969D01*
X0169648Y0225367D01*
X0168616Y0225503D01*
X0167584Y0225367D01*
X0166623Y0224969D01*
X0166203Y0224646D01*
X0165703Y0224893D01*
Y0225719D01*
X0167046Y0227062D01*
X0167119Y0227119D01*
X0167270Y0227220D01*
X0167428Y0227306D01*
X0167592Y0227378D01*
X0167765Y0227438D01*
X0167949Y0227484D01*
X0168145Y0227518D01*
X0168354Y0227538D01*
X0168519Y0227542D01*
X0168616Y0227529D01*
X0169648Y0227665D01*
X0170610Y0228064D01*
X0171435Y0228697D01*
X0172069Y0229523D01*
X0172467Y0230484D01*
X0172603Y0231516D01*
X0172467Y0232548D01*
X0172069Y0233510D01*
X0171435Y0234335D01*
X0170610Y0234969D01*
X0169648Y0235367D01*
X0168616Y0235503D01*
D02*
G37*
G36*
X0169366Y0215404D02*
Y0212266D01*
X0172504D01*
X0172467Y0212548D01*
X0172069Y0213510D01*
X0171435Y0214335D01*
X0170610Y0214969D01*
X0169648Y0215367D01*
X0169366Y0215404D01*
D02*
G37*
G36*
X0172504Y0210766D02*
X0169366D01*
Y0207628D01*
X0169648Y0207665D01*
X0170610Y0208064D01*
X0171435Y0208697D01*
X0172069Y0209523D01*
X0172467Y0210484D01*
X0172504Y0210766D01*
D02*
G37*
G36*
X0299216Y0183442D02*
X0298433Y0183339D01*
X0297703Y0183037D01*
X0297077Y0182556D01*
X0296596Y0181929D01*
X0296293Y0181199D01*
X0296190Y0180416D01*
X0296293Y0179633D01*
X0296596Y0178903D01*
X0297077Y0178277D01*
X0297703Y0177796D01*
X0298433Y0177493D01*
X0299216Y0177390D01*
X0299999Y0177493D01*
X0300729Y0177796D01*
X0301356Y0178277D01*
X0301383Y0178313D01*
X0301512Y0178438D01*
X0301644Y0178553D01*
X0301768Y0178650D01*
X0301883Y0178728D01*
X0301987Y0178788D01*
X0302081Y0178832D01*
X0302163Y0178863D01*
X0302234Y0178882D01*
X0302264Y0178887D01*
X0302683D01*
X0311175Y0170395D01*
X0311671Y0170063D01*
X0312200Y0169958D01*
X0312677Y0169336D01*
X0313303Y0168856D01*
X0314033Y0168553D01*
X0314816Y0168450D01*
X0315599Y0168553D01*
X0316329Y0168856D01*
X0316956Y0169336D01*
X0317437Y0169963D01*
X0317739Y0170693D01*
X0317842Y0171476D01*
X0317739Y0172259D01*
X0317437Y0172989D01*
X0316956Y0173616D01*
X0316329Y0174097D01*
X0315599Y0174399D01*
X0314816Y0174502D01*
X0314033Y0174399D01*
X0313303Y0174097D01*
X0312677Y0173616D01*
X0312304Y0173591D01*
X0304398Y0181498D01*
X0303901Y0181829D01*
X0303316Y0181946D01*
X0302264D01*
X0302234Y0181950D01*
X0302163Y0181969D01*
X0302081Y0182000D01*
X0301987Y0182044D01*
X0301883Y0182105D01*
X0301781Y0182174D01*
X0301502Y0182405D01*
X0301383Y0182520D01*
X0301356Y0182556D01*
X0300729Y0183037D01*
X0299999Y0183339D01*
X0299216Y0183442D01*
D02*
G37*
G36*
X0380216Y0175902D02*
X0379433Y0175799D01*
X0378703Y0175496D01*
X0378077Y0175016D01*
X0377596Y0174389D01*
X0377293Y0173659D01*
X0377190Y0172876D01*
X0377293Y0172093D01*
X0377596Y0171363D01*
X0377947Y0170905D01*
X0377982Y0170845D01*
X0378068Y0170748D01*
X0378077Y0170736D01*
X0378081Y0170733D01*
X0378131Y0170676D01*
X0378247Y0170531D01*
X0378344Y0170396D01*
X0378423Y0170271D01*
X0378485Y0170158D01*
X0378530Y0170056D01*
X0378562Y0169967D01*
X0378582Y0169890D01*
X0378587Y0169859D01*
Y0155264D01*
X0378582Y0155234D01*
X0378563Y0155163D01*
X0378532Y0155081D01*
X0378488Y0154987D01*
X0378428Y0154883D01*
X0378359Y0154781D01*
X0378128Y0154502D01*
X0378013Y0154384D01*
X0377976Y0154356D01*
X0377496Y0153729D01*
X0377193Y0152999D01*
X0377090Y0152216D01*
X0377193Y0151433D01*
X0377496Y0150703D01*
X0377976Y0150076D01*
X0378603Y0149596D01*
X0379333Y0149293D01*
X0380116Y0149190D01*
X0380899Y0149293D01*
X0381629Y0149596D01*
X0382256Y0150076D01*
X0382737Y0150703D01*
X0383039Y0151433D01*
X0383142Y0152216D01*
X0383039Y0152999D01*
X0382737Y0153729D01*
X0382256Y0154356D01*
X0382220Y0154384D01*
X0382095Y0154512D01*
X0381979Y0154644D01*
X0381882Y0154769D01*
X0381805Y0154883D01*
X0381744Y0154987D01*
X0381700Y0155081D01*
X0381669Y0155163D01*
X0381650Y0155234D01*
X0381646Y0155264D01*
Y0169804D01*
X0381650Y0169832D01*
X0381668Y0169898D01*
X0381697Y0169972D01*
X0381740Y0170057D01*
X0381798Y0170152D01*
X0381874Y0170256D01*
X0381969Y0170369D01*
X0382084Y0170490D01*
X0382239Y0170634D01*
X0382259Y0170662D01*
X0382356Y0170736D01*
X0382837Y0171363D01*
X0383139Y0172093D01*
X0383242Y0172876D01*
X0383139Y0173659D01*
X0382837Y0174389D01*
X0382356Y0175016D01*
X0381729Y0175496D01*
X0380999Y0175799D01*
X0380216Y0175902D01*
D02*
G37*
G36*
X0441016Y0153703D02*
X0439984Y0153567D01*
X0439023Y0153169D01*
X0438197Y0152535D01*
X0437564Y0151710D01*
X0437165Y0150748D01*
X0437029Y0149716D01*
X0437165Y0148684D01*
X0437564Y0147723D01*
X0438197Y0146897D01*
X0439023Y0146263D01*
X0439984Y0145865D01*
X0441016Y0145729D01*
X0442048Y0145865D01*
X0443010Y0146263D01*
X0443835Y0146897D01*
X0444469Y0147723D01*
X0444867Y0148684D01*
X0445003Y0149716D01*
X0444867Y0150748D01*
X0444469Y0151710D01*
X0443835Y0152535D01*
X0443010Y0153169D01*
X0442048Y0153567D01*
X0441016Y0153703D01*
D02*
G37*
G36*
X0421016D02*
X0419984Y0153567D01*
X0419023Y0153169D01*
X0418197Y0152535D01*
X0417563Y0151710D01*
X0417165Y0150748D01*
X0417029Y0149716D01*
X0417165Y0148684D01*
X0417563Y0147723D01*
X0418197Y0146897D01*
X0419023Y0146263D01*
X0419984Y0145865D01*
X0421016Y0145729D01*
X0422048Y0145865D01*
X0423010Y0146263D01*
X0423835Y0146897D01*
X0424469Y0147723D01*
X0424867Y0148684D01*
X0425003Y0149716D01*
X0424867Y0150748D01*
X0424469Y0151710D01*
X0423835Y0152535D01*
X0423010Y0153169D01*
X0422048Y0153567D01*
X0421016Y0153703D01*
D02*
G37*
G36*
X0424969Y0143669D02*
X0421766D01*
Y0140466D01*
X0424969D01*
Y0143669D01*
D02*
G37*
G36*
X0420266D02*
X0417063D01*
Y0140466D01*
X0420266D01*
Y0143669D01*
D02*
G37*
G36*
X0424969Y0138966D02*
X0421766D01*
Y0135763D01*
X0424969D01*
Y0138966D01*
D02*
G37*
G36*
X0420266D02*
X0417063D01*
Y0135763D01*
X0420266D01*
Y0138966D01*
D02*
G37*
G36*
X0441016Y0143703D02*
X0439984Y0143567D01*
X0439023Y0143169D01*
X0438197Y0142535D01*
X0437564Y0141710D01*
X0437165Y0140748D01*
X0437029Y0139716D01*
X0437165Y0138684D01*
X0437564Y0137723D01*
X0438197Y0136897D01*
X0439023Y0136263D01*
X0439984Y0135865D01*
X0441016Y0135729D01*
X0442048Y0135865D01*
X0443010Y0136263D01*
X0443835Y0136897D01*
X0444469Y0137723D01*
X0444867Y0138684D01*
X0445003Y0139716D01*
X0444867Y0140748D01*
X0444469Y0141710D01*
X0443835Y0142535D01*
X0443010Y0143169D01*
X0442048Y0143567D01*
X0441016Y0143703D01*
D02*
G37*
G36*
X0431016D02*
X0429984Y0143567D01*
X0429023Y0143169D01*
X0428197Y0142535D01*
X0427563Y0141710D01*
X0427165Y0140748D01*
X0427029Y0139716D01*
X0427165Y0138684D01*
X0427563Y0137723D01*
X0428197Y0136897D01*
X0429023Y0136263D01*
X0429984Y0135865D01*
X0431016Y0135729D01*
X0432048Y0135865D01*
X0433010Y0136263D01*
X0433835Y0136897D01*
X0434469Y0137723D01*
X0434867Y0138684D01*
X0435003Y0139716D01*
X0434867Y0140748D01*
X0434469Y0141710D01*
X0433835Y0142535D01*
X0433010Y0143169D01*
X0432048Y0143567D01*
X0431016Y0143703D01*
D02*
G37*
G36*
X0285116Y0199042D02*
X0284333Y0198939D01*
X0283603Y0198637D01*
X0282977Y0198156D01*
X0282496Y0197529D01*
X0282193Y0196799D01*
X0282090Y0196016D01*
X0282193Y0195233D01*
X0282420Y0194685D01*
X0282435Y0194627D01*
X0282494Y0194506D01*
X0282496Y0194503D01*
X0282496Y0194502D01*
X0282760Y0193960D01*
X0282823Y0193808D01*
X0282934Y0193487D01*
X0282963Y0193376D01*
X0282983Y0193276D01*
X0282987Y0193247D01*
Y0139648D01*
X0282982Y0139621D01*
X0282965Y0139561D01*
X0282938Y0139494D01*
X0282898Y0139418D01*
X0282843Y0139333D01*
X0282770Y0139239D01*
X0282677Y0139137D01*
X0282563Y0139028D01*
X0282406Y0138895D01*
X0282361Y0138837D01*
X0282176Y0138696D01*
X0281696Y0138069D01*
X0281393Y0137339D01*
X0281290Y0136556D01*
X0281393Y0135773D01*
X0281696Y0135043D01*
X0282176Y0134417D01*
X0282803Y0133936D01*
X0283533Y0133633D01*
X0284316Y0133530D01*
X0285099Y0133633D01*
X0285829Y0133936D01*
X0286456Y0134417D01*
X0286701Y0134736D01*
X0287331D01*
X0287577Y0134417D01*
X0288203Y0133936D01*
X0288933Y0133633D01*
X0289716Y0133530D01*
X0290499Y0133633D01*
X0291229Y0133936D01*
X0291856Y0134417D01*
X0292337Y0135043D01*
X0292639Y0135773D01*
X0292742Y0136556D01*
X0292639Y0137339D01*
X0292337Y0138069D01*
X0291856Y0138696D01*
X0291820Y0138724D01*
X0291695Y0138852D01*
X0291579Y0138985D01*
X0291482Y0139109D01*
X0291405Y0139223D01*
X0291344Y0139328D01*
X0291300Y0139421D01*
X0291269Y0139503D01*
X0291250Y0139574D01*
X0291246Y0139604D01*
Y0188980D01*
X0291264Y0189156D01*
X0291280Y0189257D01*
X0291522Y0190215D01*
X0291588Y0190424D01*
X0291589Y0190436D01*
X0291595Y0190447D01*
X0291598Y0190473D01*
X0291639Y0190573D01*
X0291742Y0191356D01*
X0291639Y0192139D01*
X0291337Y0192869D01*
X0290856Y0193496D01*
X0290229Y0193977D01*
X0289499Y0194279D01*
X0288716Y0194382D01*
X0288200Y0194314D01*
X0287843Y0194761D01*
X0288039Y0195233D01*
X0288142Y0196016D01*
X0288039Y0196799D01*
X0287737Y0197529D01*
X0287256Y0198156D01*
X0286629Y0198637D01*
X0285899Y0198939D01*
X0285116Y0199042D01*
D02*
G37*
G36*
X0341116Y0137255D02*
X0339941Y0137100D01*
X0338847Y0136647D01*
X0337907Y0135926D01*
X0337185Y0134986D01*
X0336732Y0133891D01*
X0336577Y0132716D01*
X0336732Y0131541D01*
X0337185Y0130447D01*
X0337907Y0129507D01*
X0338847Y0128785D01*
X0339941Y0128332D01*
X0341116Y0128177D01*
X0342291Y0128332D01*
X0343386Y0128785D01*
X0344326Y0129507D01*
X0345047Y0130447D01*
X0345500Y0131541D01*
X0345655Y0132716D01*
X0345500Y0133891D01*
X0345047Y0134986D01*
X0344326Y0135926D01*
X0343386Y0136647D01*
X0342291Y0137100D01*
X0341116Y0137255D01*
D02*
G37*
G36*
X0370366Y0127156D02*
X0369941Y0127100D01*
X0368847Y0126647D01*
X0367907Y0125926D01*
X0367185Y0124986D01*
X0366732Y0123891D01*
X0366676Y0123466D01*
X0370366D01*
Y0127156D01*
D02*
G37*
G36*
X0331866Y0127156D02*
Y0123466D01*
X0335556D01*
X0335500Y0123891D01*
X0335047Y0124986D01*
X0334326Y0125926D01*
X0333386Y0126647D01*
X0332291Y0127100D01*
X0331866Y0127156D01*
D02*
G37*
G36*
X0330366D02*
X0329941Y0127100D01*
X0328847Y0126647D01*
X0327907Y0125926D01*
X0327185Y0124986D01*
X0326732Y0123891D01*
X0326676Y0123466D01*
X0330366D01*
Y0127156D01*
D02*
G37*
G36*
X0166716Y0131192D02*
X0165015Y0131058D01*
X0163355Y0130660D01*
X0161778Y0130007D01*
X0160323Y0129115D01*
X0159026Y0128007D01*
X0157917Y0126709D01*
X0157026Y0125254D01*
X0156372Y0123677D01*
X0155974Y0122018D01*
X0155840Y0120316D01*
X0155974Y0118615D01*
X0156372Y0116955D01*
X0157026Y0115378D01*
X0157917Y0113923D01*
X0159026Y0112626D01*
X0160323Y0111517D01*
X0161778Y0110626D01*
X0163355Y0109972D01*
X0165015Y0109574D01*
X0166716Y0109440D01*
X0168418Y0109574D01*
X0170077Y0109972D01*
X0171654Y0110626D01*
X0173109Y0111517D01*
X0174407Y0112626D01*
X0175515Y0113923D01*
X0176407Y0115378D01*
X0177060Y0116955D01*
X0177458Y0118615D01*
X0177592Y0120316D01*
X0177458Y0122018D01*
X0177060Y0123677D01*
X0176407Y0125254D01*
X0175515Y0126709D01*
X0174407Y0128007D01*
X0173109Y0129115D01*
X0171654Y0130007D01*
X0170077Y0130660D01*
X0168418Y0131058D01*
X0166716Y0131192D01*
D02*
G37*
%LPD*%
G36*
X0501885Y0286503D02*
X0501653Y0286638D01*
X0501013Y0286958D01*
X0500819Y0287036D01*
X0500457Y0287150D01*
X0500291Y0287186D01*
X0500133Y0287207D01*
X0499985Y0287214D01*
X0499716Y0288214D01*
X0499891Y0288224D01*
X0500060Y0288254D01*
X0500223Y0288304D01*
X0500379Y0288374D01*
X0500529Y0288464D01*
X0500672Y0288574D01*
X0500809Y0288704D01*
X0500940Y0288854D01*
X0501064Y0289023D01*
X0501182Y0289213D01*
X0501885Y0286503D01*
D02*
G37*
G36*
X0415720Y0288943D02*
X0416069Y0288655D01*
X0416241Y0288538D01*
X0416413Y0288439D01*
X0416583Y0288358D01*
X0416752Y0288295D01*
X0416920Y0288250D01*
X0417087Y0288223D01*
X0417253Y0288214D01*
Y0287214D01*
X0417087Y0287205D01*
X0416920Y0287178D01*
X0416752Y0287133D01*
X0416583Y0287070D01*
X0416413Y0286989D01*
X0416241Y0286890D01*
X0416069Y0286773D01*
X0415895Y0286638D01*
X0415720Y0286485D01*
X0415545Y0286314D01*
Y0289114D01*
X0415720Y0288943D01*
D02*
G37*
G36*
X0197920Y0286545D02*
X0198269Y0286257D01*
X0198441Y0286140D01*
X0198613Y0286041D01*
X0198783Y0285960D01*
X0198952Y0285897D01*
X0199120Y0285852D01*
X0199287Y0285825D01*
X0199453Y0285816D01*
Y0284816D01*
X0199287Y0284807D01*
X0199120Y0284780D01*
X0198952Y0284735D01*
X0198783Y0284672D01*
X0198613Y0284591D01*
X0198441Y0284492D01*
X0198269Y0284375D01*
X0198095Y0284240D01*
X0197920Y0284087D01*
X0197745Y0283916D01*
Y0286716D01*
X0197920Y0286545D01*
D02*
G37*
G36*
X0212448Y0282106D02*
X0212588Y0282008D01*
X0212737Y0281931D01*
X0212893Y0281876D01*
X0213057Y0281841D01*
X0213228Y0281826D01*
X0213407Y0281834D01*
X0213594Y0281861D01*
X0213788Y0281910D01*
X0213990Y0281980D01*
X0212838Y0279428D01*
X0212739Y0279690D01*
X0212352Y0280559D01*
X0212257Y0280731D01*
X0212070Y0281021D01*
X0211978Y0281139D01*
X0211887Y0281239D01*
X0212315Y0282225D01*
X0212448Y0282106D01*
D02*
G37*
G36*
X0196377Y0277867D02*
X0196542Y0277709D01*
X0196707Y0277570D01*
X0196873Y0277450D01*
X0197039Y0277348D01*
X0197206Y0277264D01*
X0197373Y0277200D01*
X0197540Y0277153D01*
X0197708Y0277125D01*
X0197876Y0277116D01*
X0197824Y0276116D01*
X0197661Y0276108D01*
X0197495Y0276081D01*
X0197327Y0276038D01*
X0197155Y0275977D01*
X0196982Y0275899D01*
X0196805Y0275803D01*
X0196626Y0275690D01*
X0196444Y0275560D01*
X0196260Y0275412D01*
X0196073Y0275247D01*
X0196213Y0278043D01*
X0196377Y0277867D01*
D02*
G37*
G36*
X0229275Y0275477D02*
X0229413Y0275378D01*
X0229563Y0275291D01*
X0229727Y0275216D01*
X0229905Y0275153D01*
X0230096Y0275101D01*
X0230301Y0275062D01*
X0230519Y0275035D01*
X0230751Y0275020D01*
X0230996Y0275016D01*
X0229016Y0273036D01*
X0229013Y0273281D01*
X0228970Y0273731D01*
X0228931Y0273936D01*
X0228880Y0274127D01*
X0228817Y0274305D01*
X0228742Y0274469D01*
X0228655Y0274620D01*
X0228556Y0274757D01*
X0228445Y0274881D01*
X0229152Y0275588D01*
X0229275Y0275477D01*
D02*
G37*
G36*
X0168587Y0228564D02*
X0168293Y0228556D01*
X0168009Y0228530D01*
X0167736Y0228482D01*
X0167473Y0228415D01*
X0167219Y0228328D01*
X0166976Y0228221D01*
X0166744Y0228094D01*
X0166521Y0227946D01*
X0166308Y0227779D01*
X0166106Y0227592D01*
X0164692Y0229006D01*
X0164879Y0229208D01*
X0165046Y0229421D01*
X0165194Y0229644D01*
X0165321Y0229876D01*
X0165428Y0230119D01*
X0165515Y0230373D01*
X0165582Y0230636D01*
X0165629Y0230909D01*
X0165656Y0231193D01*
X0165664Y0231487D01*
X0168587Y0228564D01*
D02*
G37*
G36*
X0166620Y0194073D02*
X0166652Y0193686D01*
X0166680Y0193514D01*
X0166716Y0193357D01*
X0166760Y0193213D01*
X0166812Y0193085D01*
X0166872Y0192970D01*
X0166940Y0192870D01*
X0167016Y0192785D01*
X0164216D01*
X0164292Y0192870D01*
X0164360Y0192970D01*
X0164420Y0193085D01*
X0164472Y0193213D01*
X0164516Y0193357D01*
X0164552Y0193514D01*
X0164580Y0193686D01*
X0164600Y0193872D01*
X0164616Y0194288D01*
X0166616D01*
X0166620Y0194073D01*
D02*
G37*
G36*
X0300820Y0181645D02*
X0301169Y0181357D01*
X0301341Y0181240D01*
X0301513Y0181141D01*
X0301683Y0181060D01*
X0301852Y0180997D01*
X0302020Y0180952D01*
X0302187Y0180925D01*
X0302353Y0180916D01*
Y0179916D01*
X0302187Y0179907D01*
X0302020Y0179880D01*
X0301852Y0179835D01*
X0301683Y0179772D01*
X0301513Y0179691D01*
X0301341Y0179592D01*
X0301169Y0179475D01*
X0300995Y0179340D01*
X0300820Y0179187D01*
X0300644Y0179016D01*
Y0181816D01*
X0300820Y0181645D01*
D02*
G37*
G36*
X0312926Y0170823D02*
X0312910Y0170852D01*
X0312882Y0170878D01*
X0312843Y0170901D01*
X0312793Y0170921D01*
X0312732Y0170938D01*
X0312659Y0170951D01*
X0312576Y0170962D01*
X0312374Y0170975D01*
X0312256Y0170976D01*
Y0171976D01*
X0312374Y0171977D01*
X0312659Y0172001D01*
X0312732Y0172014D01*
X0312793Y0172031D01*
X0312843Y0172051D01*
X0312882Y0172074D01*
X0312910Y0172100D01*
X0312926Y0172129D01*
Y0170823D01*
D02*
G37*
G36*
X0381543Y0171379D02*
X0381367Y0171215D01*
X0381209Y0171050D01*
X0381070Y0170885D01*
X0380950Y0170719D01*
X0380848Y0170553D01*
X0380765Y0170386D01*
X0380700Y0170220D01*
X0380653Y0170052D01*
X0380625Y0169885D01*
X0380616Y0169716D01*
X0379616Y0169768D01*
X0379608Y0169931D01*
X0379581Y0170097D01*
X0379538Y0170266D01*
X0379477Y0170437D01*
X0379399Y0170611D01*
X0379303Y0170787D01*
X0379190Y0170966D01*
X0379060Y0171148D01*
X0378912Y0171332D01*
X0378747Y0171519D01*
X0381543Y0171379D01*
D02*
G37*
G36*
X0380625Y0155187D02*
X0380652Y0155020D01*
X0380697Y0154852D01*
X0380760Y0154683D01*
X0380841Y0154513D01*
X0380940Y0154341D01*
X0381057Y0154169D01*
X0381192Y0153995D01*
X0381345Y0153820D01*
X0381516Y0153645D01*
X0378716D01*
X0378887Y0153820D01*
X0379175Y0154169D01*
X0379292Y0154341D01*
X0379391Y0154513D01*
X0379472Y0154683D01*
X0379535Y0154852D01*
X0379580Y0155020D01*
X0379607Y0155187D01*
X0379616Y0155353D01*
X0380616D01*
X0380625Y0155187D01*
D02*
G37*
G36*
X0286023Y0194234D02*
X0285832Y0194127D01*
X0285661Y0194013D01*
X0285510Y0193891D01*
X0285379Y0193761D01*
X0285268Y0193624D01*
X0285177Y0193478D01*
X0285107Y0193325D01*
X0285056Y0193164D01*
X0285026Y0192995D01*
X0285016Y0192819D01*
X0284016Y0193146D01*
X0284010Y0193288D01*
X0283990Y0193442D01*
X0283956Y0193607D01*
X0283910Y0193783D01*
X0283777Y0194169D01*
X0283691Y0194378D01*
X0283352Y0195074D01*
X0286023Y0194234D01*
D02*
G37*
G36*
X0290541Y0190494D02*
X0290280Y0189463D01*
X0290252Y0189289D01*
X0290220Y0188974D01*
X0290216Y0188833D01*
X0289216Y0188220D01*
X0289206Y0188401D01*
X0289176Y0188569D01*
X0289126Y0188724D01*
X0289056Y0188864D01*
X0288967Y0188991D01*
X0288857Y0189104D01*
X0288727Y0189204D01*
X0288577Y0189289D01*
X0288407Y0189361D01*
X0288218Y0189419D01*
X0290617Y0190733D01*
X0290541Y0190494D01*
D02*
G37*
G36*
X0286577Y0189217D02*
X0287203Y0188736D01*
X0287933Y0188434D01*
X0287971Y0188428D01*
X0288058Y0188402D01*
X0288123Y0188374D01*
X0288161Y0188353D01*
X0288177Y0188340D01*
X0288179Y0188338D01*
X0288180Y0188338D01*
X0288185Y0188322D01*
X0288187Y0188310D01*
Y0139604D01*
X0288182Y0139574D01*
X0288163Y0139503D01*
X0288132Y0139421D01*
X0288088Y0139328D01*
X0288028Y0139223D01*
X0287959Y0139121D01*
X0287728Y0138842D01*
X0287613Y0138724D01*
X0287577Y0138696D01*
X0287331Y0138376D01*
X0286702Y0138376D01*
X0286661Y0138458D01*
X0286382Y0138822D01*
X0286292Y0138959D01*
X0286213Y0139094D01*
X0286150Y0139217D01*
X0286103Y0139327D01*
X0286071Y0139423D01*
X0286051Y0139505D01*
X0286046Y0139537D01*
Y0189087D01*
X0286546Y0189257D01*
X0286577Y0189217D01*
D02*
G37*
G36*
X0290225Y0139527D02*
X0290252Y0139360D01*
X0290297Y0139192D01*
X0290360Y0139023D01*
X0290441Y0138853D01*
X0290540Y0138681D01*
X0290657Y0138509D01*
X0290792Y0138335D01*
X0290945Y0138161D01*
X0291116Y0137985D01*
X0288316D01*
X0288487Y0138161D01*
X0288775Y0138509D01*
X0288892Y0138681D01*
X0288991Y0138853D01*
X0289072Y0139023D01*
X0289135Y0139192D01*
X0289180Y0139360D01*
X0289207Y0139527D01*
X0289216Y0139693D01*
X0290216D01*
X0290225Y0139527D01*
D02*
G37*
G36*
X0285016Y0139630D02*
X0285024Y0139470D01*
X0285050Y0139305D01*
X0285091Y0139137D01*
X0285150Y0138964D01*
X0285225Y0138786D01*
X0285317Y0138605D01*
X0285426Y0138420D01*
X0285551Y0138230D01*
X0285852Y0137837D01*
X0283066Y0138118D01*
X0283246Y0138271D01*
X0283408Y0138426D01*
X0283551Y0138583D01*
X0283674Y0138741D01*
X0283779Y0138902D01*
X0283864Y0139065D01*
X0283931Y0139229D01*
X0283978Y0139395D01*
X0284007Y0139564D01*
X0284016Y0139734D01*
X0285016Y0139630D01*
D02*
G37*
D13*
X0254916Y0479416D02*
G03*
X0258916Y0479416I0002000J0000583D01*
G01*
X0346316Y0404116D02*
G03*
X0346316Y0408116I-0000583J0002000D01*
G01*
X0206516Y0245616D02*
X0214278D01*
X0205016Y0247116D02*
X0206516Y0245616D01*
X0200966Y0247116D02*
X0205016D01*
X0301016Y0321216D02*
X0413816D01*
X0299966D02*
X0301016D01*
X0320216Y0237566D02*
X0330216Y0227566D01*
Y0225116D02*
Y0227566D01*
Y0225116D02*
X0364816Y0190516D01*
Y0182216D02*
Y0190516D01*
X0324637Y0137895D02*
X0330466Y0132066D01*
X0324637Y0137895D02*
Y0190917D01*
X0351216Y0132716D02*
Y0179285D01*
X0361216Y0132716D02*
Y0191001D01*
X0371116Y0132716D02*
X0376316D01*
X0378916Y0130116D01*
Y0126816D02*
Y0130116D01*
X0376116Y0124016D02*
X0378916Y0126816D01*
X0376116Y0120645D02*
Y0124016D01*
X0373187Y0117716D02*
X0376116Y0120645D01*
X0321716Y0117716D02*
X0373187D01*
X0321316Y0118116D02*
X0321716Y0117716D01*
X0381445Y0115016D02*
X0391045Y0124616D01*
X0317188Y0115016D02*
X0381445D01*
X0309788Y0122416D02*
X0317188Y0115016D01*
X0321316Y0118116D02*
Y0201316D01*
X0187016Y0217072D02*
Y0294516D01*
X0186798Y0216854D02*
X0187016Y0217072D01*
X0413816Y0321216D02*
X0414616Y0322016D01*
X0301016Y0321216D02*
X0309016Y0313216D01*
X0186798Y0216854D02*
X0186816Y0216835D01*
X0174416Y0204435D02*
X0186816Y0216835D01*
X0379516Y0255377D02*
Y0258716D01*
Y0255377D02*
X0381716Y0253176D01*
Y0251103D02*
Y0253176D01*
X0321816Y0205766D02*
X0324816Y0202766D01*
Y0191096D02*
Y0202766D01*
X0324637Y0190917D02*
X0324816Y0191096D01*
X0325316Y0205185D02*
Y0207316D01*
X0321816Y0205766D02*
Y0230216D01*
X0484116Y0258416D02*
Y0259416D01*
X0479616Y0263916D02*
X0484116Y0259416D01*
X0258316Y0372016D02*
X0263116Y0376816D01*
X0458587Y0257016D02*
X0467316D01*
X0425603Y0214578D02*
X0426578D01*
X0397966Y0213016D02*
X0405216D01*
X0423603Y0216903D02*
X0425816Y0219116D01*
X0418397Y0213356D02*
X0421553D01*
X0418116Y0213076D02*
X0418397Y0213356D01*
X0423603Y0215407D02*
Y0216903D01*
X0421616Y0210591D02*
X0425603Y0214578D01*
X0421616Y0182926D02*
Y0210591D01*
X0394516Y0216466D02*
X0397966Y0213016D01*
X0394916Y0219766D02*
Y0223316D01*
X0394516Y0219366D02*
X0394916Y0219766D01*
X0394516Y0216466D02*
Y0219366D01*
X0398016Y0217916D02*
Y0222816D01*
X0398416Y0223216D01*
X0405016Y0216516D02*
Y0232716D01*
X0405416Y0233116D01*
X0421553Y0213356D02*
X0423603Y0215407D01*
X0405216Y0213016D02*
X0412216Y0206016D01*
X0430716Y0229145D02*
X0458587Y0257016D01*
X0430716Y0218716D02*
Y0229145D01*
X0426578Y0214578D02*
X0430716Y0218716D01*
X0424356Y0219316D02*
X0425816D01*
X0424156Y0219116D02*
X0424356Y0219316D01*
X0425816Y0219116D02*
Y0219316D01*
X0277516Y0343716D02*
X0285016Y0336216D01*
Y0329816D02*
Y0336216D01*
X0530266Y0270816D02*
X0532516D01*
X0251416Y0479416D02*
X0254916D01*
X0258916D02*
X0261916D01*
X0320916Y0305166D02*
Y0308066D01*
X0320216Y0304466D02*
X0320916Y0305166D01*
X0315766Y0313216D02*
X0320916Y0308066D01*
X0320216Y0237566D02*
Y0304466D01*
X0442216Y0173216D02*
X0453116Y0162316D01*
Y0130616D02*
Y0162316D01*
X0447116Y0124616D02*
X0453116Y0130616D01*
X0391045Y0124616D02*
X0447116D01*
X0202016Y0122416D02*
X0309788D01*
X0174416Y0150016D02*
X0202016Y0122416D01*
X0174416Y0150016D02*
Y0204435D01*
X0177916Y0205107D02*
X0200316Y0227507D01*
X0177916Y0166016D02*
Y0205107D01*
X0227416Y0276616D02*
X0231016Y0273016D01*
X0194816Y0276616D02*
X0227416D01*
X0194716Y0276716D02*
X0194816Y0276616D01*
X0208516Y0285316D02*
X0213716Y0280116D01*
X0196316Y0285316D02*
X0208516D01*
X0284516Y0195416D02*
X0285116Y0196016D01*
X0284516Y0136756D02*
Y0195416D01*
X0284316Y0136556D02*
X0284516Y0136756D01*
X0288716Y0191356D02*
X0289716Y0190356D01*
Y0136556D02*
Y0190356D01*
X0502414Y0287714D02*
X0502916Y0288216D01*
X0418116Y0167716D02*
Y0213076D01*
Y0167716D02*
X0431016Y0154816D01*
X0379316Y0267016D02*
X0384716D01*
X0368081Y0255781D02*
X0379316Y0267016D01*
X0368066Y0255781D02*
X0368081D01*
X0366016Y0253730D02*
X0368066Y0255781D01*
X0366016Y0244816D02*
Y0253730D01*
Y0244816D02*
X0387616Y0223216D01*
X0412216Y0175816D02*
Y0206016D01*
X0369516Y0248716D02*
X0394916Y0223316D01*
X0369516Y0248716D02*
Y0252281D01*
X0374616Y0247016D02*
X0398416Y0223216D01*
X0374616Y0247016D02*
Y0252216D01*
X0389516Y0249016D02*
Y0252133D01*
Y0249016D02*
X0405416Y0233116D01*
X0374616Y0252216D02*
Y0256645D01*
X0381488Y0263516D01*
X0389516Y0260716D02*
X0394716Y0265916D01*
X0387016Y0261516D02*
X0393416Y0267916D01*
X0388216Y0265566D02*
Y0268466D01*
X0386166Y0263516D02*
X0388216Y0265566D01*
X0381488Y0263516D02*
X0386166D01*
X0393416Y0267916D02*
X0520945D01*
X0389516Y0252133D02*
Y0260716D01*
X0394716Y0265916D02*
X0520916D01*
X0414616Y0322016D02*
X0434116Y0302516D01*
X0309016Y0313216D02*
X0315766D01*
X0431016Y0149716D02*
Y0154816D01*
X0321816Y0230216D02*
X0322216Y0230616D01*
X0325316Y0205185D02*
X0351216Y0179285D01*
X0325716Y0226501D02*
X0361216Y0191001D01*
X0380116Y0152216D02*
Y0172776D01*
X0380216Y0172876D01*
X0198916Y0228907D02*
X0200316Y0227507D01*
X0198916Y0228907D02*
Y0245066D01*
X0200966Y0247116D01*
X0214278Y0245616D02*
X0217738Y0249076D01*
X0240485D01*
X0253385Y0236176D01*
X0263316D01*
X0239656Y0247076D02*
X0253416Y0233316D01*
X0249916Y0224966D02*
Y0233988D01*
X0240328Y0243576D02*
X0249916Y0233988D01*
X0220016Y0243576D02*
X0240328D01*
X0299709Y0301209D02*
X0299916Y0301416D01*
X0299709Y0210016D02*
Y0301209D01*
X0312256Y0171476D02*
X0314816D01*
X0303316Y0180416D02*
X0312256Y0171476D01*
X0299216Y0180416D02*
X0303316D01*
X0249916Y0224966D02*
X0251966Y0222916D01*
X0255576D01*
X0269416Y0209076D01*
X0202416Y0243616D02*
X0215107D01*
X0218566Y0247076D01*
X0239656D01*
X0253416Y0226416D02*
Y0233316D01*
X0213716Y0280116D02*
X0214716D01*
X0399716Y0252616D02*
Y0261216D01*
X0402416Y0263916D01*
X0479616D01*
X0521716Y0265116D02*
X0526516D01*
X0520916Y0265916D02*
X0521716Y0265116D01*
X0382316Y0261516D02*
X0387016D01*
X0387888Y0269916D02*
X0520116D01*
X0387888Y0268794D02*
Y0269916D01*
X0387816Y0273416D02*
X0518116D01*
X0384716Y0270316D02*
X0387816Y0273416D01*
X0387888Y0268794D02*
X0388216Y0268466D01*
X0384716Y0267016D02*
Y0270316D01*
X0520945Y0267916D02*
X0522245Y0269216D01*
X0528666D01*
X0530266Y0270816D01*
X0520116Y0269916D02*
X0521416Y0271216D01*
X0525716D01*
X0527716Y0273216D01*
X0379516Y0258716D02*
X0382316Y0261516D01*
X0414116Y0287714D02*
X0502414D01*
X0252316Y0353516D02*
X0258316Y0359516D01*
X0277316Y0306616D02*
X0293716D01*
X0294216Y0307116D01*
X0221416Y0343716D02*
X0277516D01*
X0214016Y0336316D02*
X0221416Y0343716D01*
X0211416Y0336316D02*
X0214016D01*
X0294216Y0307116D02*
X0299916Y0301416D01*
X0258316Y0359516D02*
Y0372016D01*
X0169055Y0369455D02*
X0176716Y0377116D01*
X0166155Y0369455D02*
X0169055D01*
X0163855Y0425355D02*
X0176716Y0412493D01*
Y0377116D02*
Y0412493D01*
X0346316Y0408116D02*
Y0411116D01*
Y0400616D02*
Y0404116D01*
D14*
X0245916Y0376116D02*
X0262916Y0393116D01*
X0265316D01*
X0269916Y0388516D01*
X0282716Y0346916D02*
X0297587D01*
X0297787Y0346716D01*
X0295701D02*
X0297787D01*
X0295516Y0346532D02*
X0295701Y0346716D01*
X0280316Y0349316D02*
X0282716Y0346916D01*
X0243943Y0459566D02*
X0280216D01*
X0243855Y0459655D02*
X0243943Y0459566D01*
X0515916Y0383623D02*
Y0398493D01*
X0154516Y0368580D02*
X0157641Y0365455D01*
X0154516Y0370292D02*
Y0385616D01*
X0158816Y0389916D01*
X0154516Y0368580D02*
Y0370292D01*
X0500355Y0414055D02*
X0515916Y0398493D01*
X0269916Y0359716D02*
X0280316Y0349316D01*
X0541516Y0245716D02*
Y0313176D01*
X0499016Y0308316D02*
X0503876Y0313176D01*
X0541516D01*
X0536716Y0240916D02*
X0541516Y0245716D01*
X0327416Y0356916D02*
X0359816Y0324516D01*
X0415652D01*
X0428552Y0311616D01*
X0456916D01*
X0504316Y0240916D02*
X0536716D01*
X0489116Y0225716D02*
X0504316Y0240916D01*
X0480816Y0225716D02*
X0489116D01*
X0472716Y0233816D02*
X0480816Y0225716D01*
X0472716Y0233816D02*
Y0255973D01*
X0456916Y0311616D02*
X0460216Y0308316D01*
X0499016D01*
X0467473Y0261216D02*
X0472716Y0255973D01*
X0458081Y0261216D02*
X0467473D01*
X0454381Y0257516D02*
X0458081Y0261216D01*
X0449316Y0257516D02*
X0454381D01*
X0448616Y0258216D02*
X0449316Y0257516D01*
X0409216Y0258216D02*
X0448616D01*
X0313916Y0303116D02*
X0317416Y0306616D01*
X0313916Y0256516D02*
Y0303116D01*
X0163663Y0226563D02*
X0168616Y0231516D01*
X0163663Y0209465D02*
Y0226563D01*
Y0209465D02*
X0165616Y0207512D01*
Y0191356D02*
Y0207512D01*
X0254016Y0195616D02*
Y0216331D01*
X0254516Y0216831D01*
X0228816Y0229556D02*
X0242076D01*
X0247416Y0224216D01*
Y0223931D02*
Y0224216D01*
Y0223931D02*
X0254516Y0216831D01*
X0203216Y0229556D02*
X0228816D01*
X0532078Y0414055D02*
X0554216Y0391916D01*
X0500355Y0414055D02*
X0532078D01*
X0403416Y0437516D02*
Y0441516D01*
Y0437516D02*
X0441616Y0399316D01*
X0269916Y0359716D02*
Y0388516D01*
X0233059Y0376116D02*
X0245916D01*
X0234216Y0380616D02*
Y0417516D01*
X0234716Y0418016D01*
X0313316Y0310716D02*
X0317416Y0306616D01*
X0295816Y0310716D02*
X0313316D01*
X0277616Y0328916D02*
X0295816Y0310716D01*
X0157641Y0365455D02*
X0168590D01*
X0181595Y0378459D01*
X0230716D01*
X0233059Y0376116D01*
X0158816Y0389916D02*
X0169916D01*
X0173216Y0393216D01*
X0223155Y0429578D02*
Y0438755D01*
Y0429578D02*
X0234716Y0418016D01*
X0223416Y0439216D02*
X0243855Y0459655D01*
X0471755Y0414055D02*
X0500355D01*
X0471616Y0413916D02*
X0471755Y0414055D01*
X0468374Y0417159D02*
Y0425374D01*
Y0417159D02*
X0471616Y0413916D01*
D34*
X0187016Y0294516D02*
D03*
X0299966Y0321216D02*
D03*
X0262916Y0393116D02*
D03*
X0297787Y0346716D02*
D03*
X0280216Y0459566D02*
D03*
X0381716Y0251103D02*
D03*
X0314216Y0195216D02*
D03*
X0321316Y0201316D02*
D03*
X0325316Y0207316D02*
D03*
X0154516Y0370292D02*
D03*
X0328616Y0188816D02*
D03*
X0484116Y0258416D02*
D03*
X0402216Y0161416D02*
D03*
X0284116Y0342916D02*
D03*
X0263116Y0376816D02*
D03*
X0386467Y0294707D02*
D03*
X0380939Y0295007D02*
D03*
X0381062Y0300507D02*
D03*
X0398016Y0217916D02*
D03*
X0405016Y0216516D02*
D03*
X0425816Y0219316D02*
D03*
X0280316Y0349316D02*
D03*
X0285016Y0329816D02*
D03*
X0315884Y0240158D02*
D03*
X0339816Y0165777D02*
D03*
X0399684Y0227471D02*
D03*
X0386262Y0300807D02*
D03*
X0257687Y0240139D02*
D03*
X0223916Y0286316D02*
D03*
X0267262Y0257739D02*
D03*
X0388416Y0244116D02*
D03*
X0378203Y0216758D02*
D03*
X0450516Y0216371D02*
D03*
X0461516Y0185771D02*
D03*
X0410316Y0153171D02*
D03*
X0532516Y0270816D02*
D03*
X0541516Y0313176D02*
D03*
X0253716Y0296516D02*
D03*
X0202279Y0197930D02*
D03*
X0223979Y0211416D02*
D03*
X0161379Y0248816D02*
D03*
X0484942Y0409275D02*
D03*
X0355455Y0435755D02*
D03*
X0317726Y0366416D02*
D03*
X0317816Y0361916D02*
D03*
X0562216Y0328016D02*
D03*
X0278816Y0361416D02*
D03*
X0199516Y0409916D02*
D03*
X0327416Y0356916D02*
D03*
X0489116Y0225716D02*
D03*
X0456916Y0311616D02*
D03*
X0499016Y0308316D02*
D03*
X0449316Y0257516D02*
D03*
X0409216Y0258216D02*
D03*
X0313916Y0256516D02*
D03*
X0441916Y0173026D02*
D03*
X0177916Y0166016D02*
D03*
X0194716Y0276716D02*
D03*
X0196316Y0285316D02*
D03*
X0284316Y0136556D02*
D03*
X0289716D02*
D03*
X0285116Y0196016D02*
D03*
X0288716Y0191356D02*
D03*
X0277416Y0180316D02*
D03*
X0262716Y0173816D02*
D03*
X0242316Y0160616D02*
D03*
X0247016Y0156216D02*
D03*
X0251616Y0151216D02*
D03*
X0258478Y0149516D02*
D03*
X0264116Y0152816D02*
D03*
X0270716Y0153916D02*
D03*
X0277516Y0157216D02*
D03*
X0280416Y0161516D02*
D03*
X0502916Y0288216D02*
D03*
X0465816Y0257216D02*
D03*
X0421616Y0182926D02*
D03*
X0412316Y0175276D02*
D03*
X0387616Y0223216D02*
D03*
X0374616Y0252216D02*
D03*
X0364816Y0182216D02*
D03*
X0434116Y0302516D02*
D03*
X0325716Y0226501D02*
D03*
X0322216Y0230616D02*
D03*
X0380116Y0152216D02*
D03*
X0380216Y0172876D02*
D03*
X0165616Y0191356D02*
D03*
X0299709Y0210016D02*
D03*
X0314816Y0171476D02*
D03*
X0299216Y0180416D02*
D03*
X0263316Y0236176D02*
D03*
X0236216Y0171316D02*
D03*
X0238816Y0166016D02*
D03*
X0242974Y0180516D02*
D03*
X0241116Y0185216D02*
D03*
X0245216Y0189116D02*
D03*
X0250316Y0191416D02*
D03*
X0254016Y0195616D02*
D03*
X0228816Y0229556D02*
D03*
X0203216D02*
D03*
X0269416Y0209076D02*
D03*
X0220016Y0243576D02*
D03*
X0253416Y0226416D02*
D03*
X0202416Y0243616D02*
D03*
X0515916Y0383623D02*
D03*
X0554216Y0391916D02*
D03*
X0441616Y0399316D02*
D03*
X0403416Y0441516D02*
D03*
X0214716Y0280116D02*
D03*
X0231016Y0273016D02*
D03*
X0234216Y0380616D02*
D03*
X0369516Y0252281D02*
D03*
X0526516Y0265116D02*
D03*
X0518116Y0273416D02*
D03*
X0384716Y0267016D02*
D03*
X0389516Y0252133D02*
D03*
X0527716Y0273216D02*
D03*
X0414116Y0287714D02*
D03*
X0399716Y0252616D02*
D03*
X0317416Y0306616D02*
D03*
X0252316Y0353516D02*
D03*
X0277316Y0306616D02*
D03*
X0249716Y0361816D02*
D03*
X0229016Y0437872D02*
D03*
X0239016Y0404216D02*
D03*
X0211416Y0336316D02*
D03*
X0299916Y0301416D02*
D03*
X0277616Y0328916D02*
D03*
X0173216Y0393216D02*
D03*
X0229816Y0364316D02*
D03*
X0295855Y0436855D02*
D03*
X0163855Y0425355D02*
D03*
X0166155Y0369455D02*
D03*
X0223155Y0438755D02*
D03*
X0500355Y0414055D02*
D03*
D86*
X0158616Y0231516D02*
D03*
D87*
X0158616Y0221516D02*
D03*
X0158616Y0211516D02*
D03*
X0168616Y0231516D02*
D03*
X0168616Y0221516D02*
D03*
X0168616Y0211516D02*
D03*
X0441016Y0149716D02*
D03*
X0431016D02*
D03*
X0421016D02*
D03*
X0441016Y0139716D02*
D03*
X0431016D02*
D03*
D88*
X0371116Y0132716D02*
D03*
D89*
Y0122716D02*
D03*
X0361116Y0132716D02*
D03*
Y0122716D02*
D03*
X0351116Y0132716D02*
D03*
Y0122716D02*
D03*
X0341116Y0132716D02*
D03*
X0341116Y0122716D02*
D03*
X0331116Y0132716D02*
D03*
X0331116Y0122716D02*
D03*
D90*
X0203516Y0464616D02*
D03*
D91*
X0191193Y0452293D02*
D03*
X0215839D02*
D03*
Y0476939D02*
D03*
X0191193D02*
D03*
D92*
X0478216Y0425374D02*
D03*
X0468374Y0435216D02*
D03*
X0478216D02*
D03*
X0468374Y0425374D02*
D03*
X0357716Y0460816D02*
D03*
X0377716D02*
D03*
X0397716D02*
D03*
X0407716D02*
D03*
X0367716D02*
D03*
D93*
X0449673Y0445059D02*
D03*
X0496917D02*
D03*
D94*
X0307716Y0440616D02*
D03*
X0325616Y0457316D02*
D03*
X0307516Y0475016D02*
D03*
D95*
X0563816Y0120616D02*
D03*
X0563616Y0479116D02*
D03*
X0166516D02*
D03*
X0166716Y0120316D02*
D03*
D96*
X0421016Y0139716D02*
D03*
D97*
X0248416Y0479916D02*
D03*
X0264916D02*
D03*
D98*
X0345816Y0414116D02*
D03*
Y0397616D02*
D03*
M02*
