G04*
G04 #@! TF.GenerationSoftware,Altium Limited,Altium Designer,18.1.3 (115)*
G04*
G04 Layer_Color=2752767*
%FSAX25Y25*%
%MOIN*%
G70*
G01*
G75*
%ADD101C,0.00200*%
%ADD102C,0.00267*%
D101*
X0157816Y0230716D02*
Y0232316D01*
X0159416D01*
Y0230716D01*
X0157816D01*
X0157816Y0220716D02*
Y0222316D01*
X0159416D01*
Y0220716D01*
X0157816D01*
X0157816Y0210716D02*
Y0212316D01*
X0159416D01*
Y0210716D01*
X0157816D01*
X0167816Y0230716D02*
Y0232316D01*
X0169416D01*
Y0230716D01*
X0167816D01*
X0167816Y0220716D02*
Y0222316D01*
X0169416D01*
Y0220716D01*
X0167816D01*
X0167816Y0210716D02*
Y0212316D01*
X0169416D01*
Y0210716D01*
X0167816D01*
X0370316Y0131916D02*
Y0133516D01*
X0371916D01*
Y0131916D01*
X0370316D01*
Y0121916D02*
Y0123516D01*
X0371916D01*
Y0121916D01*
X0370316D01*
X0360316Y0131916D02*
Y0133516D01*
X0361916D01*
Y0131916D01*
X0360316D01*
Y0121916D02*
Y0123516D01*
X0361916D01*
Y0121916D01*
X0360316D01*
X0350316Y0131916D02*
Y0133516D01*
X0351916D01*
Y0131916D01*
X0350316D01*
Y0121916D02*
Y0123516D01*
X0351916D01*
Y0121916D01*
X0350316D01*
X0340316Y0131916D02*
Y0133516D01*
X0341916D01*
Y0131916D01*
X0340316D01*
X0340316Y0121916D02*
Y0123516D01*
X0341916D01*
Y0121916D01*
X0340316D01*
X0330316Y0131916D02*
Y0133516D01*
X0331916D01*
Y0131916D01*
X0330316D01*
X0330316Y0121916D02*
Y0123516D01*
X0331916D01*
Y0121916D01*
X0330316D01*
X0191193Y0451493D02*
X0190393Y0453093D01*
X0191993D01*
X0191193Y0451493D01*
X0215839D02*
X0215039Y0453093D01*
X0216639D01*
X0215839Y0451493D01*
Y0476139D02*
X0215039Y0477739D01*
X0216639D01*
X0215839Y0476139D01*
X0191193D02*
X0190393Y0477739D01*
X0191993D01*
X0191193Y0476139D01*
X0478216Y0424574D02*
X0478616Y0424974D01*
X0479016D01*
X0478616Y0425374D01*
X0479016Y0425774D01*
X0478616D01*
X0478216Y0426174D01*
X0477816Y0425774D01*
X0477416D01*
X0477816Y0425374D01*
X0477416Y0424974D01*
X0477816D01*
X0478216Y0424574D01*
X0468374Y0434416D02*
X0468774Y0434816D01*
X0469174D01*
X0468774Y0435216D01*
X0469174Y0435616D01*
X0468774D01*
X0468374Y0436016D01*
X0467974Y0435616D01*
X0467574D01*
X0467974Y0435216D01*
X0467574Y0434816D01*
X0467974D01*
X0468374Y0434416D01*
X0478216D02*
X0478616Y0434816D01*
X0479016D01*
X0478616Y0435216D01*
X0479016Y0435616D01*
X0478616D01*
X0478216Y0436016D01*
X0477816Y0435616D01*
X0477416D01*
X0477816Y0435216D01*
X0477416Y0434816D01*
X0477816D01*
X0478216Y0434416D01*
X0448873Y0444259D02*
X0449273Y0445059D01*
X0448873Y0445859D01*
X0449673Y0445459D01*
X0450473Y0445859D01*
X0450073Y0445059D01*
X0450473Y0444259D01*
X0449673Y0444659D01*
X0448873Y0444259D01*
X0496117D02*
X0496517Y0445059D01*
X0496117Y0445859D01*
X0496917Y0445459D01*
X0497717Y0445859D01*
X0497317Y0445059D01*
X0497717Y0444259D01*
X0496917Y0444659D01*
X0496117Y0444259D01*
X0468374Y0424574D02*
X0468774Y0424974D01*
X0469174D01*
X0468774Y0425374D01*
X0469174Y0425774D01*
X0468774D01*
X0468374Y0426174D01*
X0467974Y0425774D01*
X0467574D01*
X0467974Y0425374D01*
X0467574Y0424974D01*
X0467974D01*
X0468374Y0424574D01*
X0307316Y0440216D02*
Y0439816D01*
X0308116D01*
Y0440216D01*
X0308516D01*
Y0441016D01*
X0308116D01*
Y0441416D01*
X0307316D01*
Y0441016D01*
X0306916D01*
Y0440216D01*
X0307316D01*
X0563016Y0119816D02*
X0563416D01*
X0563816Y0120216D01*
X0564216Y0119816D01*
X0564616D01*
Y0120216D01*
X0564216Y0120616D01*
X0564616Y0121016D01*
Y0121416D01*
X0564216D01*
X0563816Y0121016D01*
X0563416Y0121416D01*
X0563016D01*
Y0121016D01*
X0563416Y0120616D01*
X0563016Y0120216D01*
Y0119816D01*
X0562816Y0478316D02*
X0563216D01*
X0563616Y0478716D01*
X0564016Y0478316D01*
X0564416D01*
Y0478716D01*
X0564016Y0479116D01*
X0564416Y0479516D01*
Y0479916D01*
X0564016D01*
X0563616Y0479516D01*
X0563216Y0479916D01*
X0562816D01*
Y0479516D01*
X0563216Y0479116D01*
X0562816Y0478716D01*
Y0478316D01*
X0165716D02*
X0166116D01*
X0166516Y0478716D01*
X0166916Y0478316D01*
X0167316D01*
Y0478716D01*
X0166916Y0479116D01*
X0167316Y0479516D01*
Y0479916D01*
X0166916D01*
X0166516Y0479516D01*
X0166116Y0479916D01*
X0165716D01*
Y0479516D01*
X0166116Y0479116D01*
X0165716Y0478716D01*
Y0478316D01*
X0325216Y0456916D02*
Y0456516D01*
X0326016D01*
Y0456916D01*
X0326416D01*
Y0457716D01*
X0326016D01*
Y0458116D01*
X0325216D01*
Y0457716D01*
X0324816D01*
Y0456916D01*
X0325216D01*
X0307116Y0474616D02*
Y0474216D01*
X0307916D01*
Y0474616D01*
X0308316D01*
Y0475416D01*
X0307916D01*
Y0475816D01*
X0307116D01*
Y0475416D01*
X0306716D01*
Y0474616D01*
X0307116D01*
X0356916Y0460816D02*
X0357716Y0461616D01*
X0358516Y0460816D01*
X0357716Y0460016D01*
X0356916Y0460816D01*
X0376916D02*
X0377716Y0461616D01*
X0378516Y0460816D01*
X0377716Y0460016D01*
X0376916Y0460816D01*
X0396916D02*
X0397716Y0461616D01*
X0398516Y0460816D01*
X0397716Y0460016D01*
X0396916Y0460816D01*
X0406916D02*
X0407716Y0461616D01*
X0408516Y0460816D01*
X0407716Y0460016D01*
X0406916Y0460816D01*
X0366916D02*
X0367716Y0461616D01*
X0368516Y0460816D01*
X0367716Y0460016D01*
X0366916Y0460816D01*
X0440216Y0148916D02*
Y0150516D01*
X0441816D01*
Y0148916D01*
X0440216D01*
X0430216D02*
Y0150516D01*
X0431816D01*
Y0148916D01*
X0430216D01*
X0420216D02*
Y0150516D01*
X0421816D01*
Y0148916D01*
X0420216D01*
X0440216Y0138916D02*
Y0140516D01*
X0441816D01*
Y0138916D01*
X0440216D01*
X0430216D02*
Y0140516D01*
X0431816D01*
Y0138916D01*
X0430216D01*
X0420216D02*
Y0140516D01*
X0421816D01*
Y0138916D01*
X0420216D01*
X0165916Y0119516D02*
X0166316D01*
X0166716Y0119916D01*
X0167116Y0119516D01*
X0167516D01*
Y0119916D01*
X0167116Y0120316D01*
X0167516Y0120716D01*
Y0121116D01*
X0167116D01*
X0166716Y0120716D01*
X0166316Y0121116D01*
X0165916D01*
Y0120716D01*
X0166316Y0120316D01*
X0165916Y0119916D01*
Y0119516D01*
X0186216Y0293716D02*
Y0295316D01*
X0187816D01*
Y0293716D01*
X0186216D01*
X0186616Y0294116D02*
Y0294916D01*
X0187416D01*
Y0294116D01*
X0186616D01*
X0299166Y0320416D02*
Y0322016D01*
X0300766D01*
Y0320416D01*
X0299166D01*
X0299566Y0320816D02*
Y0321616D01*
X0300366D01*
Y0320816D01*
X0299566D01*
X0262116Y0392316D02*
Y0393916D01*
X0263716D01*
Y0392316D01*
X0262116D01*
X0262516Y0392716D02*
Y0393516D01*
X0263316D01*
Y0392716D01*
X0262516D01*
X0296987Y0345916D02*
Y0347516D01*
X0298587D01*
Y0345916D01*
X0296987D01*
X0297387Y0346316D02*
Y0347116D01*
X0298187D01*
Y0346316D01*
X0297387D01*
X0279416Y0458766D02*
Y0460366D01*
X0281016D01*
Y0458766D01*
X0279416D01*
X0279816Y0459166D02*
Y0459966D01*
X0280616D01*
Y0459166D01*
X0279816D01*
X0380916Y0250303D02*
Y0251903D01*
X0382516D01*
Y0250303D01*
X0380916D01*
X0381316Y0250703D02*
Y0251503D01*
X0382116D01*
Y0250703D01*
X0381316D01*
X0313416Y0194416D02*
Y0196016D01*
X0315016D01*
Y0194416D01*
X0313416D01*
X0313816Y0194816D02*
Y0195616D01*
X0314616D01*
Y0194816D01*
X0313816D01*
X0320516Y0200516D02*
Y0202116D01*
X0322116D01*
Y0200516D01*
X0320516D01*
X0320916Y0200916D02*
Y0201716D01*
X0321716D01*
Y0200916D01*
X0320916D01*
X0324516Y0206516D02*
Y0208116D01*
X0326116D01*
Y0206516D01*
X0324516D01*
X0324916Y0206916D02*
Y0207716D01*
X0325716D01*
Y0206916D01*
X0324916D01*
X0153716Y0369492D02*
Y0371092D01*
X0155316D01*
Y0369492D01*
X0153716D01*
X0154116Y0369892D02*
Y0370692D01*
X0154916D01*
Y0369892D01*
X0154116D01*
X0327816Y0188016D02*
Y0189616D01*
X0329416D01*
Y0188016D01*
X0327816D01*
X0328216Y0188416D02*
Y0189216D01*
X0329016D01*
Y0188416D01*
X0328216D01*
X0483316Y0257616D02*
Y0259216D01*
X0484916D01*
Y0257616D01*
X0483316D01*
X0483716Y0258016D02*
Y0258816D01*
X0484516D01*
Y0258016D01*
X0483716D01*
X0401416Y0160616D02*
Y0162216D01*
X0403016D01*
Y0160616D01*
X0401416D01*
X0401816Y0161016D02*
Y0161816D01*
X0402616D01*
Y0161016D01*
X0401816D01*
X0283316Y0342116D02*
Y0343716D01*
X0284916D01*
Y0342116D01*
X0283316D01*
X0283716Y0342516D02*
Y0343316D01*
X0284516D01*
Y0342516D01*
X0283716D01*
X0262316Y0376016D02*
Y0377616D01*
X0263916D01*
Y0376016D01*
X0262316D01*
X0262716Y0376416D02*
Y0377216D01*
X0263516D01*
Y0376416D01*
X0262716D01*
X0385667Y0293907D02*
Y0295507D01*
X0387267D01*
Y0293907D01*
X0385667D01*
X0386067Y0294307D02*
Y0295107D01*
X0386867D01*
Y0294307D01*
X0386067D01*
X0380139Y0294207D02*
Y0295807D01*
X0381739D01*
Y0294207D01*
X0380139D01*
X0380539Y0294607D02*
Y0295407D01*
X0381339D01*
Y0294607D01*
X0380539D01*
X0380261Y0299707D02*
Y0301307D01*
X0381861D01*
Y0299707D01*
X0380261D01*
X0380662Y0300107D02*
Y0300907D01*
X0381462D01*
Y0300107D01*
X0380662D01*
X0397216Y0217116D02*
Y0218716D01*
X0398816D01*
Y0217116D01*
X0397216D01*
X0397616Y0217516D02*
Y0218316D01*
X0398416D01*
Y0217516D01*
X0397616D01*
X0404216Y0215716D02*
Y0217316D01*
X0405816D01*
Y0215716D01*
X0404216D01*
X0404616Y0216116D02*
Y0216916D01*
X0405416D01*
Y0216116D01*
X0404616D01*
X0425016Y0218516D02*
Y0220116D01*
X0426616D01*
Y0218516D01*
X0425016D01*
X0425416Y0218916D02*
Y0219716D01*
X0426216D01*
Y0218916D01*
X0425416D01*
X0279516Y0348516D02*
Y0350116D01*
X0281116D01*
Y0348516D01*
X0279516D01*
X0279916Y0348916D02*
Y0349716D01*
X0280716D01*
Y0348916D01*
X0279916D01*
X0284216Y0329016D02*
Y0330616D01*
X0285816D01*
Y0329016D01*
X0284216D01*
X0284616Y0329416D02*
Y0330216D01*
X0285416D01*
Y0329416D01*
X0284616D01*
X0315084Y0239358D02*
Y0240958D01*
X0316684D01*
Y0239358D01*
X0315084D01*
X0315484Y0239758D02*
Y0240558D01*
X0316284D01*
Y0239758D01*
X0315484D01*
X0339016Y0164977D02*
Y0166577D01*
X0340616D01*
Y0164977D01*
X0339016D01*
X0339416Y0165377D02*
Y0166177D01*
X0340216D01*
Y0165377D01*
X0339416D01*
X0398884Y0226671D02*
Y0228271D01*
X0400484D01*
Y0226671D01*
X0398884D01*
X0399284Y0227071D02*
Y0227871D01*
X0400084D01*
Y0227071D01*
X0399284D01*
X0385461Y0300007D02*
Y0301607D01*
X0387062D01*
Y0300007D01*
X0385461D01*
X0385861Y0300407D02*
Y0301207D01*
X0386662D01*
Y0300407D01*
X0385861D01*
X0256887Y0239339D02*
Y0240939D01*
X0258487D01*
Y0239339D01*
X0256887D01*
X0257287Y0239739D02*
Y0240539D01*
X0258087D01*
Y0239739D01*
X0257287D01*
X0223116Y0285516D02*
Y0287116D01*
X0224716D01*
Y0285516D01*
X0223116D01*
X0223516Y0285916D02*
Y0286716D01*
X0224316D01*
Y0285916D01*
X0223516D01*
X0266461Y0256939D02*
Y0258539D01*
X0268061D01*
Y0256939D01*
X0266461D01*
X0266862Y0257339D02*
Y0258139D01*
X0267661D01*
Y0257339D01*
X0266862D01*
X0387616Y0243316D02*
Y0244916D01*
X0389216D01*
Y0243316D01*
X0387616D01*
X0388016Y0243716D02*
Y0244516D01*
X0388816D01*
Y0243716D01*
X0388016D01*
X0377403Y0215958D02*
Y0217558D01*
X0379003D01*
Y0215958D01*
X0377403D01*
X0377803Y0216358D02*
Y0217158D01*
X0378603D01*
Y0216358D01*
X0377803D01*
X0449716Y0215571D02*
Y0217171D01*
X0451316D01*
Y0215571D01*
X0449716D01*
X0450116Y0215971D02*
Y0216771D01*
X0450916D01*
Y0215971D01*
X0450116D01*
X0460716Y0184971D02*
Y0186571D01*
X0462316D01*
Y0184971D01*
X0460716D01*
X0461116Y0185371D02*
Y0186171D01*
X0461916D01*
Y0185371D01*
X0461116D01*
X0409516Y0152371D02*
Y0153971D01*
X0411116D01*
Y0152371D01*
X0409516D01*
X0409916Y0152771D02*
Y0153571D01*
X0410716D01*
Y0152771D01*
X0409916D01*
X0531716Y0270016D02*
Y0271616D01*
X0533316D01*
Y0270016D01*
X0531716D01*
X0532116Y0270416D02*
Y0271216D01*
X0532916D01*
Y0270416D01*
X0532116D01*
X0540716Y0312376D02*
Y0313976D01*
X0542316D01*
Y0312376D01*
X0540716D01*
X0541116Y0312776D02*
Y0313576D01*
X0541916D01*
Y0312776D01*
X0541116D01*
X0252916Y0295716D02*
Y0297316D01*
X0254516D01*
Y0295716D01*
X0252916D01*
X0253316Y0296116D02*
Y0296916D01*
X0254116D01*
Y0296116D01*
X0253316D01*
X0201479Y0197130D02*
Y0198730D01*
X0203079D01*
Y0197130D01*
X0201479D01*
X0201879Y0197530D02*
Y0198330D01*
X0202679D01*
Y0197530D01*
X0201879D01*
X0223179Y0210616D02*
Y0212216D01*
X0224779D01*
Y0210616D01*
X0223179D01*
X0223579Y0211016D02*
Y0211816D01*
X0224379D01*
Y0211016D01*
X0223579D01*
X0160579Y0248016D02*
Y0249616D01*
X0162179D01*
Y0248016D01*
X0160579D01*
X0160979Y0248416D02*
Y0249216D01*
X0161779D01*
Y0248416D01*
X0160979D01*
X0484142Y0408475D02*
Y0410075D01*
X0485742D01*
Y0408475D01*
X0484142D01*
X0484542Y0408875D02*
Y0409675D01*
X0485342D01*
Y0408875D01*
X0484542D01*
X0354655Y0434955D02*
Y0436555D01*
X0356255D01*
Y0434955D01*
X0354655D01*
X0355055Y0435355D02*
Y0436155D01*
X0355855D01*
Y0435355D01*
X0355055D01*
X0316926Y0365616D02*
Y0367216D01*
X0318526D01*
Y0365616D01*
X0316926D01*
X0317326Y0366016D02*
Y0366816D01*
X0318126D01*
Y0366016D01*
X0317326D01*
X0317016Y0361116D02*
Y0362716D01*
X0318616D01*
Y0361116D01*
X0317016D01*
X0317416Y0361516D02*
Y0362316D01*
X0318216D01*
Y0361516D01*
X0317416D01*
X0561416Y0327216D02*
Y0328816D01*
X0563016D01*
Y0327216D01*
X0561416D01*
X0561816Y0327616D02*
Y0328416D01*
X0562616D01*
Y0327616D01*
X0561816D01*
X0278016Y0360616D02*
Y0362216D01*
X0279616D01*
Y0360616D01*
X0278016D01*
X0278416Y0361016D02*
Y0361816D01*
X0279216D01*
Y0361016D01*
X0278416D01*
X0198716Y0409116D02*
Y0410716D01*
X0200316D01*
Y0409116D01*
X0198716D01*
X0199116Y0409516D02*
Y0410316D01*
X0199916D01*
Y0409516D01*
X0199116D01*
X0326616Y0356116D02*
Y0357716D01*
X0328216D01*
Y0356116D01*
X0326616D01*
X0327016Y0356516D02*
Y0357316D01*
X0327816D01*
Y0356516D01*
X0327016D01*
X0488316Y0224916D02*
Y0226516D01*
X0489916D01*
Y0224916D01*
X0488316D01*
X0488716Y0225316D02*
Y0226116D01*
X0489516D01*
Y0225316D01*
X0488716D01*
X0456116Y0310816D02*
Y0312416D01*
X0457716D01*
Y0310816D01*
X0456116D01*
X0456516Y0311216D02*
Y0312016D01*
X0457316D01*
Y0311216D01*
X0456516D01*
X0498216Y0307516D02*
Y0309116D01*
X0499816D01*
Y0307516D01*
X0498216D01*
X0498616Y0307916D02*
Y0308716D01*
X0499416D01*
Y0307916D01*
X0498616D01*
X0448516Y0256716D02*
Y0258316D01*
X0450116D01*
Y0256716D01*
X0448516D01*
X0448916Y0257116D02*
Y0257916D01*
X0449716D01*
Y0257116D01*
X0448916D01*
X0408416Y0257416D02*
Y0259016D01*
X0410016D01*
Y0257416D01*
X0408416D01*
X0408816Y0257816D02*
Y0258616D01*
X0409616D01*
Y0257816D01*
X0408816D01*
X0313116Y0255716D02*
Y0257316D01*
X0314716D01*
Y0255716D01*
X0313116D01*
X0313516Y0256116D02*
Y0256916D01*
X0314316D01*
Y0256116D01*
X0313516D01*
X0441116Y0172226D02*
Y0173826D01*
X0442716D01*
Y0172226D01*
X0441116D01*
X0441516Y0172626D02*
Y0173426D01*
X0442316D01*
Y0172626D01*
X0441516D01*
X0177116Y0165216D02*
Y0166816D01*
X0178716D01*
Y0165216D01*
X0177116D01*
X0177516Y0165616D02*
Y0166416D01*
X0178316D01*
Y0165616D01*
X0177516D01*
X0193916Y0275916D02*
Y0277516D01*
X0195516D01*
Y0275916D01*
X0193916D01*
X0194316Y0276316D02*
Y0277116D01*
X0195116D01*
Y0276316D01*
X0194316D01*
X0195516Y0284516D02*
Y0286116D01*
X0197116D01*
Y0284516D01*
X0195516D01*
X0195916Y0284916D02*
Y0285716D01*
X0196716D01*
Y0284916D01*
X0195916D01*
X0283516Y0135756D02*
Y0137356D01*
X0285116D01*
Y0135756D01*
X0283516D01*
X0283916Y0136156D02*
Y0136956D01*
X0284716D01*
Y0136156D01*
X0283916D01*
X0288916Y0135756D02*
Y0137356D01*
X0290516D01*
Y0135756D01*
X0288916D01*
X0289316Y0136156D02*
Y0136956D01*
X0290116D01*
Y0136156D01*
X0289316D01*
X0284316Y0195216D02*
Y0196816D01*
X0285916D01*
Y0195216D01*
X0284316D01*
X0284716Y0195616D02*
Y0196416D01*
X0285516D01*
Y0195616D01*
X0284716D01*
X0287916Y0190556D02*
Y0192156D01*
X0289516D01*
Y0190556D01*
X0287916D01*
X0288316Y0190956D02*
Y0191756D01*
X0289116D01*
Y0190956D01*
X0288316D01*
X0276616Y0179516D02*
Y0181116D01*
X0278216D01*
Y0179516D01*
X0276616D01*
X0277016Y0179916D02*
Y0180716D01*
X0277816D01*
Y0179916D01*
X0277016D01*
X0261916Y0173016D02*
Y0174616D01*
X0263516D01*
Y0173016D01*
X0261916D01*
X0262316Y0173416D02*
Y0174216D01*
X0263116D01*
Y0173416D01*
X0262316D01*
X0241516Y0159816D02*
Y0161416D01*
X0243116D01*
Y0159816D01*
X0241516D01*
X0241916Y0160216D02*
Y0161016D01*
X0242716D01*
Y0160216D01*
X0241916D01*
X0246216Y0155416D02*
Y0157016D01*
X0247816D01*
Y0155416D01*
X0246216D01*
X0246616Y0155816D02*
Y0156616D01*
X0247416D01*
Y0155816D01*
X0246616D01*
X0250816Y0150416D02*
Y0152016D01*
X0252416D01*
Y0150416D01*
X0250816D01*
X0251216Y0150816D02*
Y0151616D01*
X0252016D01*
Y0150816D01*
X0251216D01*
X0257678Y0148716D02*
Y0150316D01*
X0259278D01*
Y0148716D01*
X0257678D01*
X0258078Y0149116D02*
Y0149916D01*
X0258878D01*
Y0149116D01*
X0258078D01*
X0263316Y0152016D02*
Y0153616D01*
X0264916D01*
Y0152016D01*
X0263316D01*
X0263716Y0152416D02*
Y0153216D01*
X0264516D01*
Y0152416D01*
X0263716D01*
X0269916Y0153116D02*
Y0154716D01*
X0271516D01*
Y0153116D01*
X0269916D01*
X0270316Y0153516D02*
Y0154316D01*
X0271116D01*
Y0153516D01*
X0270316D01*
X0276716Y0156416D02*
Y0158016D01*
X0278316D01*
Y0156416D01*
X0276716D01*
X0277116Y0156816D02*
Y0157616D01*
X0277916D01*
Y0156816D01*
X0277116D01*
X0279616Y0160716D02*
Y0162316D01*
X0281216D01*
Y0160716D01*
X0279616D01*
X0280016Y0161116D02*
Y0161916D01*
X0280816D01*
Y0161116D01*
X0280016D01*
X0502116Y0287416D02*
Y0289016D01*
X0503716D01*
Y0287416D01*
X0502116D01*
X0502516Y0287816D02*
Y0288616D01*
X0503316D01*
Y0287816D01*
X0502516D01*
X0465016Y0256416D02*
Y0258016D01*
X0466616D01*
Y0256416D01*
X0465016D01*
X0465416Y0256816D02*
Y0257616D01*
X0466216D01*
Y0256816D01*
X0465416D01*
X0420816Y0182126D02*
Y0183726D01*
X0422416D01*
Y0182126D01*
X0420816D01*
X0421216Y0182526D02*
Y0183326D01*
X0422016D01*
Y0182526D01*
X0421216D01*
X0411516Y0174476D02*
Y0176076D01*
X0413116D01*
Y0174476D01*
X0411516D01*
X0411916Y0174876D02*
Y0175676D01*
X0412716D01*
Y0174876D01*
X0411916D01*
X0386816Y0222416D02*
Y0224016D01*
X0388416D01*
Y0222416D01*
X0386816D01*
X0387216Y0222816D02*
Y0223616D01*
X0388016D01*
Y0222816D01*
X0387216D01*
X0373816Y0251416D02*
Y0253016D01*
X0375416D01*
Y0251416D01*
X0373816D01*
X0374216Y0251816D02*
Y0252616D01*
X0375016D01*
Y0251816D01*
X0374216D01*
X0364016Y0181416D02*
Y0183016D01*
X0365616D01*
Y0181416D01*
X0364016D01*
X0364416Y0181816D02*
Y0182616D01*
X0365216D01*
Y0181816D01*
X0364416D01*
X0433316Y0301716D02*
Y0303316D01*
X0434916D01*
Y0301716D01*
X0433316D01*
X0433716Y0302116D02*
Y0302916D01*
X0434516D01*
Y0302116D01*
X0433716D01*
X0324916Y0225701D02*
Y0227301D01*
X0326516D01*
Y0225701D01*
X0324916D01*
X0325316Y0226101D02*
Y0226901D01*
X0326116D01*
Y0226101D01*
X0325316D01*
X0321416Y0229816D02*
Y0231416D01*
X0323016D01*
Y0229816D01*
X0321416D01*
X0321816Y0230216D02*
Y0231016D01*
X0322616D01*
Y0230216D01*
X0321816D01*
X0379316Y0151416D02*
Y0153016D01*
X0380916D01*
Y0151416D01*
X0379316D01*
X0379716Y0151816D02*
Y0152616D01*
X0380516D01*
Y0151816D01*
X0379716D01*
X0379416Y0172076D02*
Y0173676D01*
X0381016D01*
Y0172076D01*
X0379416D01*
X0379816Y0172476D02*
Y0173276D01*
X0380616D01*
Y0172476D01*
X0379816D01*
X0164816Y0190556D02*
Y0192156D01*
X0166416D01*
Y0190556D01*
X0164816D01*
X0165216Y0190956D02*
Y0191756D01*
X0166016D01*
Y0190956D01*
X0165216D01*
X0298909Y0209216D02*
Y0210816D01*
X0300509D01*
Y0209216D01*
X0298909D01*
X0299309Y0209616D02*
Y0210416D01*
X0300109D01*
Y0209616D01*
X0299309D01*
X0314016Y0170676D02*
Y0172276D01*
X0315616D01*
Y0170676D01*
X0314016D01*
X0314416Y0171076D02*
Y0171876D01*
X0315216D01*
Y0171076D01*
X0314416D01*
X0298416Y0179616D02*
Y0181216D01*
X0300016D01*
Y0179616D01*
X0298416D01*
X0298816Y0180016D02*
Y0180816D01*
X0299616D01*
Y0180016D01*
X0298816D01*
X0262516Y0235376D02*
Y0236976D01*
X0264116D01*
Y0235376D01*
X0262516D01*
X0262916Y0235776D02*
Y0236576D01*
X0263716D01*
Y0235776D01*
X0262916D01*
X0235416Y0170516D02*
Y0172116D01*
X0237016D01*
Y0170516D01*
X0235416D01*
X0235816Y0170916D02*
Y0171716D01*
X0236616D01*
Y0170916D01*
X0235816D01*
X0238016Y0165216D02*
Y0166816D01*
X0239616D01*
Y0165216D01*
X0238016D01*
X0238416Y0165616D02*
Y0166416D01*
X0239216D01*
Y0165616D01*
X0238416D01*
X0242174Y0179716D02*
Y0181316D01*
X0243774D01*
Y0179716D01*
X0242174D01*
X0242574Y0180116D02*
Y0180916D01*
X0243374D01*
Y0180116D01*
X0242574D01*
X0240316Y0184416D02*
Y0186016D01*
X0241916D01*
Y0184416D01*
X0240316D01*
X0240716Y0184816D02*
Y0185616D01*
X0241516D01*
Y0184816D01*
X0240716D01*
X0244416Y0188316D02*
Y0189916D01*
X0246016D01*
Y0188316D01*
X0244416D01*
X0244816Y0188716D02*
Y0189516D01*
X0245616D01*
Y0188716D01*
X0244816D01*
X0249516Y0190616D02*
Y0192216D01*
X0251116D01*
Y0190616D01*
X0249516D01*
X0249916Y0191016D02*
Y0191816D01*
X0250716D01*
Y0191016D01*
X0249916D01*
X0253216Y0194816D02*
Y0196416D01*
X0254816D01*
Y0194816D01*
X0253216D01*
X0253616Y0195216D02*
Y0196016D01*
X0254416D01*
Y0195216D01*
X0253616D01*
X0228016Y0228756D02*
Y0230356D01*
X0229616D01*
Y0228756D01*
X0228016D01*
X0228416Y0229156D02*
Y0229956D01*
X0229216D01*
Y0229156D01*
X0228416D01*
X0202416Y0228756D02*
Y0230356D01*
X0204016D01*
Y0228756D01*
X0202416D01*
X0202816Y0229156D02*
Y0229956D01*
X0203616D01*
Y0229156D01*
X0202816D01*
X0268616Y0208276D02*
Y0209876D01*
X0270216D01*
Y0208276D01*
X0268616D01*
X0269016Y0208676D02*
Y0209476D01*
X0269816D01*
Y0208676D01*
X0269016D01*
X0219216Y0242776D02*
Y0244376D01*
X0220816D01*
Y0242776D01*
X0219216D01*
X0219616Y0243176D02*
Y0243976D01*
X0220416D01*
Y0243176D01*
X0219616D01*
X0252616Y0225616D02*
Y0227216D01*
X0254216D01*
Y0225616D01*
X0252616D01*
X0253016Y0226016D02*
Y0226816D01*
X0253816D01*
Y0226016D01*
X0253016D01*
X0201616Y0242816D02*
Y0244416D01*
X0203216D01*
Y0242816D01*
X0201616D01*
X0202016Y0243216D02*
Y0244016D01*
X0202816D01*
Y0243216D01*
X0202016D01*
X0515116Y0382823D02*
Y0384423D01*
X0516716D01*
Y0382823D01*
X0515116D01*
X0515516Y0383223D02*
Y0384023D01*
X0516316D01*
Y0383223D01*
X0515516D01*
X0553416Y0391116D02*
Y0392716D01*
X0555016D01*
Y0391116D01*
X0553416D01*
X0553816Y0391516D02*
Y0392316D01*
X0554616D01*
Y0391516D01*
X0553816D01*
X0440816Y0398516D02*
Y0400116D01*
X0442416D01*
Y0398516D01*
X0440816D01*
X0441216Y0398916D02*
Y0399716D01*
X0442016D01*
Y0398916D01*
X0441216D01*
X0402616Y0440716D02*
Y0442316D01*
X0404216D01*
Y0440716D01*
X0402616D01*
X0403016Y0441116D02*
Y0441916D01*
X0403816D01*
Y0441116D01*
X0403016D01*
X0213916Y0279316D02*
Y0280916D01*
X0215516D01*
Y0279316D01*
X0213916D01*
X0214316Y0279716D02*
Y0280516D01*
X0215116D01*
Y0279716D01*
X0214316D01*
X0230216Y0272216D02*
Y0273816D01*
X0231816D01*
Y0272216D01*
X0230216D01*
X0230616Y0272616D02*
Y0273416D01*
X0231416D01*
Y0272616D01*
X0230616D01*
X0233416Y0379816D02*
Y0381416D01*
X0235016D01*
Y0379816D01*
X0233416D01*
X0233816Y0380216D02*
Y0381016D01*
X0234616D01*
Y0380216D01*
X0233816D01*
X0368716Y0251481D02*
Y0253081D01*
X0370316D01*
Y0251481D01*
X0368716D01*
X0369116Y0251881D02*
Y0252681D01*
X0369916D01*
Y0251881D01*
X0369116D01*
X0525716Y0264316D02*
Y0265916D01*
X0527316D01*
Y0264316D01*
X0525716D01*
X0526116Y0264716D02*
Y0265516D01*
X0526916D01*
Y0264716D01*
X0526116D01*
X0517316Y0272616D02*
Y0274216D01*
X0518916D01*
Y0272616D01*
X0517316D01*
X0517716Y0273016D02*
Y0273816D01*
X0518516D01*
Y0273016D01*
X0517716D01*
X0383916Y0266216D02*
Y0267816D01*
X0385516D01*
Y0266216D01*
X0383916D01*
X0384316Y0266616D02*
Y0267416D01*
X0385116D01*
Y0266616D01*
X0384316D01*
X0388716Y0251333D02*
Y0252934D01*
X0390316D01*
Y0251333D01*
X0388716D01*
X0389116Y0251733D02*
Y0252534D01*
X0389916D01*
Y0251733D01*
X0389116D01*
X0526916Y0272416D02*
Y0274016D01*
X0528516D01*
Y0272416D01*
X0526916D01*
X0527316Y0272816D02*
Y0273616D01*
X0528116D01*
Y0272816D01*
X0527316D01*
X0413316Y0286914D02*
Y0288514D01*
X0414916D01*
Y0286914D01*
X0413316D01*
X0413716Y0287314D02*
Y0288114D01*
X0414516D01*
Y0287314D01*
X0413716D01*
X0398916Y0251816D02*
Y0253416D01*
X0400516D01*
Y0251816D01*
X0398916D01*
X0399316Y0252216D02*
Y0253016D01*
X0400116D01*
Y0252216D01*
X0399316D01*
X0316616Y0305816D02*
Y0307416D01*
X0318216D01*
Y0305816D01*
X0316616D01*
X0317016Y0306216D02*
Y0307016D01*
X0317816D01*
Y0306216D01*
X0317016D01*
X0251516Y0352716D02*
Y0354316D01*
X0253116D01*
Y0352716D01*
X0251516D01*
X0251916Y0353116D02*
Y0353916D01*
X0252716D01*
Y0353116D01*
X0251916D01*
X0276516Y0305816D02*
Y0307416D01*
X0278116D01*
Y0305816D01*
X0276516D01*
X0276916Y0306216D02*
Y0307016D01*
X0277716D01*
Y0306216D01*
X0276916D01*
X0248916Y0361016D02*
Y0362616D01*
X0250516D01*
Y0361016D01*
X0248916D01*
X0249316Y0361416D02*
Y0362216D01*
X0250116D01*
Y0361416D01*
X0249316D01*
X0228216Y0437072D02*
Y0438672D01*
X0229816D01*
Y0437072D01*
X0228216D01*
X0228616Y0437472D02*
Y0438272D01*
X0229416D01*
Y0437472D01*
X0228616D01*
X0238216Y0403416D02*
Y0405016D01*
X0239816D01*
Y0403416D01*
X0238216D01*
X0238616Y0403816D02*
Y0404616D01*
X0239416D01*
Y0403816D01*
X0238616D01*
X0210616Y0335516D02*
Y0337116D01*
X0212216D01*
Y0335516D01*
X0210616D01*
X0211016Y0335916D02*
Y0336716D01*
X0211816D01*
Y0335916D01*
X0211016D01*
X0299116Y0300616D02*
Y0302216D01*
X0300716D01*
Y0300616D01*
X0299116D01*
X0299516Y0301016D02*
Y0301816D01*
X0300316D01*
Y0301016D01*
X0299516D01*
X0276816Y0328116D02*
Y0329716D01*
X0278416D01*
Y0328116D01*
X0276816D01*
X0277216Y0328516D02*
Y0329316D01*
X0278016D01*
Y0328516D01*
X0277216D01*
X0172416Y0392416D02*
Y0394016D01*
X0174016D01*
Y0392416D01*
X0172416D01*
X0172816Y0392816D02*
Y0393616D01*
X0173616D01*
Y0392816D01*
X0172816D01*
X0229016Y0363516D02*
Y0365116D01*
X0230616D01*
Y0363516D01*
X0229016D01*
X0229416Y0363916D02*
Y0364716D01*
X0230216D01*
Y0363916D01*
X0229416D01*
X0295055Y0436055D02*
Y0437655D01*
X0296655D01*
Y0436055D01*
X0295055D01*
X0295455Y0436455D02*
Y0437255D01*
X0296255D01*
Y0436455D01*
X0295455D01*
X0163055Y0424555D02*
Y0426155D01*
X0164655D01*
Y0424555D01*
X0163055D01*
X0163455Y0424955D02*
Y0425755D01*
X0164255D01*
Y0424955D01*
X0163455D01*
X0165355Y0368655D02*
Y0370255D01*
X0166955D01*
Y0368655D01*
X0165355D01*
X0165755Y0369055D02*
Y0369855D01*
X0166555D01*
Y0369055D01*
X0165755D01*
X0222355Y0437955D02*
Y0439555D01*
X0223955D01*
Y0437955D01*
X0222355D01*
X0222755Y0438355D02*
Y0439155D01*
X0223555D01*
Y0438355D01*
X0222755D01*
X0499555Y0413255D02*
Y0414855D01*
X0501155D01*
Y0413255D01*
X0499555D01*
X0499955Y0413655D02*
Y0414455D01*
X0500755D01*
Y0413655D01*
X0499955D01*
D102*
X0204316Y0464616D02*
G03*
X0204316Y0464616I-0000800J0000000D01*
G01*
M02*
