G04*
G04 #@! TF.GenerationSoftware,Altium Limited,Altium Designer,18.1.3 (115)*
G04*
G04 Layer_Color=65535*
%FSAX25Y25*%
%MOIN*%
G70*
G01*
G75*
%ADD10C,0.01575*%
%ADD11C,0.00984*%
%ADD12C,0.00700*%
%ADD13C,0.01000*%
%ADD14C,0.02000*%
%ADD15C,0.02362*%
%ADD16C,0.00787*%
%ADD17C,0.00800*%
%ADD18C,0.01500*%
D10*
X0201485Y0407160D02*
G03*
X0201485Y0407160I-0000787J0000000D01*
G01*
X0249723Y0387072D02*
G03*
X0249723Y0387072I-0000787J0000000D01*
G01*
D11*
X0209063Y0402830D02*
G03*
X0209063Y0402830I-0000492J0000000D01*
G01*
X0271501Y0309963D02*
G03*
X0271501Y0309963I-0000492J0000000D01*
G01*
X0275104Y0315377D02*
G03*
X0275104Y0315377I-0000492J0000000D01*
G01*
X0241553Y0391403D02*
G03*
X0241553Y0391403I-0000492J0000000D01*
G01*
X0536177Y0390531D02*
G03*
X0536177Y0390531I-0000492J0000000D01*
G01*
X0315056Y0396634D02*
G03*
X0315056Y0396634I-0000492J0000000D01*
G01*
X0390612Y0166469D02*
G03*
X0390612Y0166469I-0000492J0000000D01*
G01*
D12*
X0543759Y0354559D02*
G03*
X0543759Y0349874I0000000J-0002342D01*
G01*
X0316174Y0175159D02*
G03*
X0320859Y0175159I0002342J0000000D01*
G01*
X0495574Y0266574D02*
G03*
X0495574Y0271259I0000000J0002342D01*
G01*
X0202574Y0303974D02*
G03*
X0202574Y0308659I0000000J0002342D01*
G01*
X0171359Y0338374D02*
G03*
X0166674Y0338374I-0002342J0000000D01*
G01*
X0407059Y0274759D02*
G03*
X0407059Y0270074I0000000J-0002342D01*
G01*
D13*
X0259771Y0283515D02*
G03*
X0259771Y0283515I-0009055J0000000D01*
G01*
X0205216Y0352916D02*
G03*
X0205216Y0352916I-0003000J0000000D01*
G01*
X0225716Y0352516D02*
G03*
X0225716Y0352516I-0003000J0000000D01*
G01*
X0227138Y0464616D02*
G03*
X0227138Y0464616I-0023622J0000000D01*
G01*
X0316216Y0440616D02*
G03*
X0316216Y0440616I-0008500J0000000D01*
G01*
X0216071Y0167115D02*
G03*
X0216071Y0167115I-0009055J0000000D01*
G01*
X0494707Y0294915D02*
G03*
X0494707Y0294915I-0000591J0000000D01*
G01*
X0403116Y0302516D02*
G03*
X0403116Y0302516I-0003000J0000000D01*
G01*
X0334116Y0457316D02*
G03*
X0334116Y0457316I-0008500J0000000D01*
G01*
X0316016Y0475016D02*
G03*
X0316016Y0475016I-0008500J0000000D01*
G01*
X0263708Y0272267D02*
Y0294267D01*
X0237724D02*
X0263708D01*
X0237724Y0272267D02*
Y0294267D01*
Y0272267D02*
X0263708D01*
X0249831Y0176963D02*
X0250401D01*
X0262453Y0164912D01*
X0262453Y0164310D02*
X0262453Y0164912D01*
X0253575Y0156034D02*
X0254215D01*
X0241585Y0168024D02*
X0253575Y0156034D01*
X0241585Y0168024D02*
Y0168625D01*
X0244570Y0465137D02*
X0251263D01*
X0244570Y0458587D02*
X0251263D01*
Y0458637D02*
Y0467137D01*
X0244570Y0458637D02*
Y0467137D01*
X0251263D01*
X0232470Y0444095D02*
X0239163D01*
X0232470Y0450645D02*
X0239163D01*
X0232470Y0442095D02*
Y0450595D01*
X0239163Y0442095D02*
Y0450595D01*
X0232470Y0442095D02*
X0239163D01*
X0449673Y0419468D02*
Y0484823D01*
X0496917D01*
Y0419468D02*
Y0484823D01*
X0449673Y0419468D02*
X0496523D01*
X0194024Y0155867D02*
X0220008D01*
X0194024D02*
Y0177867D01*
X0220008D01*
Y0155867D02*
Y0177867D01*
X0417559Y0454911D02*
Y0485226D01*
X0337559Y0454911D02*
X0417559D01*
X0337559D02*
Y0485226D01*
X0417559D01*
D14*
X0206948Y0253624D02*
G03*
X0206948Y0253624I-0000492J0000000D01*
G01*
X0223949Y0253224D02*
G03*
X0223949Y0253224I-0000492J0000000D01*
G01*
X0190108Y0254024D02*
G03*
X0190108Y0254024I-0000492J0000000D01*
G01*
D15*
X0281836Y0305770D02*
G03*
X0281836Y0305770I-0001181J0000000D01*
G01*
X0276511Y0323940D02*
G03*
X0276511Y0323940I-0001181J0000000D01*
G01*
X0396715Y0174934D02*
G03*
X0396715Y0174934I-0001181J0000000D01*
G01*
D16*
X0523913Y0389842D02*
G03*
X0518913Y0389842I-0002500J0000000D01*
G01*
X0491616Y0273016D02*
G03*
X0491616Y0270516I0000000J-0001250D01*
G01*
X0195185Y0415822D02*
X0203847D01*
X0195185Y0404011D02*
X0203847D01*
X0195185D02*
Y0415822D01*
X0203847Y0404011D02*
Y0415822D01*
X0153616Y0236516D02*
X0173616D01*
X0153616Y0206516D02*
X0173616D01*
X0153616D02*
Y0236516D01*
X0173616Y0206516D02*
Y0236516D01*
X0537816Y0324116D02*
X0543148D01*
X0537816Y0316116D02*
X0543148D01*
X0537766Y0316179D02*
Y0324053D01*
X0552516Y0316179D02*
Y0324053D01*
X0547085Y0324116D02*
X0552516D01*
X0547085Y0316116D02*
X0552516D01*
X0561385Y0380916D02*
X0566716D01*
X0561385Y0388916D02*
X0566716D01*
X0566766Y0380979D02*
Y0388853D01*
X0552016Y0380979D02*
Y0388853D01*
Y0380916D02*
X0557448D01*
X0552016Y0388916D02*
X0557448D01*
X0561185Y0371216D02*
X0566516D01*
X0561185Y0379216D02*
X0566516D01*
X0566566Y0371279D02*
Y0379153D01*
X0551816Y0371279D02*
Y0379153D01*
Y0371216D02*
X0557248D01*
X0551816Y0379216D02*
X0557248D01*
X0540016Y0381785D02*
Y0387216D01*
X0532016Y0381785D02*
Y0387216D01*
X0532079D02*
X0539953D01*
X0532079Y0372466D02*
X0539953D01*
X0540016Y0372516D02*
Y0377848D01*
X0532016Y0372516D02*
Y0377848D01*
X0529016Y0379885D02*
Y0385316D01*
X0521016Y0379885D02*
Y0385316D01*
X0521079D02*
X0528953D01*
X0521079Y0370566D02*
X0528953D01*
X0529016Y0370616D02*
Y0375948D01*
X0521016Y0370616D02*
Y0375948D01*
X0524074Y0359216D02*
X0543759D01*
X0524074Y0345216D02*
Y0359216D01*
Y0345216D02*
X0543759D01*
Y0349874D01*
Y0354559D02*
Y0359216D01*
X0560616Y0270885D02*
Y0276316D01*
X0552616Y0270885D02*
Y0276316D01*
X0552679D02*
X0560553D01*
X0552679Y0261566D02*
X0560553D01*
X0560616Y0261616D02*
Y0266948D01*
X0552616Y0261616D02*
Y0266948D01*
X0550716Y0271272D02*
Y0276703D01*
X0542716Y0271272D02*
Y0276703D01*
X0542779D02*
X0550653D01*
X0542779Y0261953D02*
X0550653D01*
X0550716Y0262003D02*
Y0267335D01*
X0542716Y0262003D02*
Y0267335D01*
X0485816Y0237216D02*
X0491148D01*
X0485816Y0229216D02*
X0491148D01*
X0485766Y0229279D02*
Y0237153D01*
X0500516Y0229279D02*
Y0237153D01*
X0495085Y0237216D02*
X0500516D01*
X0495085Y0229216D02*
X0500516D01*
X0312116Y0328616D02*
X0317448D01*
X0312116Y0320616D02*
X0317448D01*
X0312066Y0320679D02*
Y0328553D01*
X0326816Y0320679D02*
Y0328553D01*
X0321385Y0328616D02*
X0326816D01*
X0321385Y0320616D02*
X0326816D01*
X0292816Y0166485D02*
Y0171816D01*
X0284816Y0166485D02*
Y0171816D01*
X0284879Y0171866D02*
X0292753D01*
X0284879Y0157116D02*
X0292753D01*
X0292816D02*
Y0162548D01*
X0284816Y0157116D02*
Y0162548D01*
X0214216Y0332416D02*
X0219548D01*
X0214216Y0324416D02*
X0219548D01*
X0214166Y0324479D02*
Y0332353D01*
X0228916Y0324479D02*
Y0332353D01*
X0223485Y0332416D02*
X0228916D01*
X0223485Y0324416D02*
X0228916D01*
X0251716Y0251485D02*
Y0256816D01*
X0243716Y0251485D02*
Y0256816D01*
X0243779Y0256866D02*
X0251653D01*
X0243779Y0242116D02*
X0251653D01*
X0251716D02*
Y0247548D01*
X0243716Y0242116D02*
Y0247548D01*
X0231416Y0160085D02*
Y0165416D01*
X0223416Y0160085D02*
Y0165416D01*
X0223479Y0165466D02*
X0231353D01*
X0223479Y0150716D02*
X0231353D01*
X0231416D02*
Y0156148D01*
X0223416Y0150716D02*
Y0156148D01*
X0163185Y0161716D02*
X0168516D01*
X0163185Y0169716D02*
X0168516D01*
X0168566Y0161779D02*
Y0169653D01*
X0153816Y0161779D02*
Y0169653D01*
Y0161716D02*
X0159248D01*
X0153816Y0169716D02*
X0159248D01*
X0307616Y0143485D02*
Y0148816D01*
X0299616Y0143485D02*
Y0148816D01*
X0299679Y0148866D02*
X0307553D01*
X0299679Y0134116D02*
X0307553D01*
X0307616D02*
Y0139548D01*
X0299616Y0134116D02*
Y0139548D01*
X0425885Y0117416D02*
X0431216D01*
X0425885Y0125416D02*
X0431216D01*
X0431266Y0117479D02*
Y0125353D01*
X0416516Y0117479D02*
Y0125353D01*
Y0117416D02*
X0421948D01*
X0416516Y0125416D02*
X0421948D01*
X0311116Y0192616D02*
X0316448D01*
X0311116Y0184616D02*
X0316448D01*
X0311066Y0184679D02*
Y0192553D01*
X0325816Y0184679D02*
Y0192553D01*
X0320385Y0192616D02*
X0325816D01*
X0320385Y0184616D02*
X0325816D01*
X0311516Y0155474D02*
Y0175159D01*
Y0155474D02*
X0325516D01*
Y0175159D01*
X0320859D02*
X0325516D01*
X0311516D02*
X0316174D01*
X0310816Y0109476D02*
X0310816Y0145366D01*
X0391416D02*
X0391416Y0109476D01*
X0310816Y0109476D02*
X0391416Y0109476D01*
X0310816Y0145366D02*
X0391416D01*
X0360116Y0140716D02*
Y0145047D01*
X0342116Y0145047D02*
X0342116Y0140716D01*
X0360116D01*
X0309516Y0253316D02*
X0314848D01*
X0309516Y0245316D02*
X0314848D01*
X0309466Y0245379D02*
Y0253253D01*
X0324216Y0245379D02*
Y0253253D01*
X0318785Y0253316D02*
X0324216D01*
X0318785Y0245316D02*
X0324216D01*
X0252580Y0177396D02*
X0256350Y0173626D01*
X0258237Y0183053D02*
X0262006Y0179283D01*
X0256430Y0173635D02*
X0261997Y0179203D01*
X0246000Y0184065D02*
X0251568Y0189633D01*
X0245955Y0184020D02*
X0249796Y0180180D01*
X0251612Y0189677D02*
X0255453Y0185837D01*
X0200785Y0233216D02*
X0206116D01*
X0200785Y0241216D02*
X0206116D01*
X0206166Y0233279D02*
Y0241153D01*
X0191416Y0233279D02*
Y0241153D01*
Y0233216D02*
X0196848D01*
X0191416Y0241216D02*
X0196848D01*
X0254878Y0242816D02*
Y0248148D01*
X0262878Y0242816D02*
Y0248148D01*
X0254941Y0242766D02*
X0262815D01*
X0254941Y0257516D02*
X0262815D01*
X0254878Y0252085D02*
Y0257516D01*
X0262878Y0252085D02*
Y0257516D01*
X0226416Y0279616D02*
Y0284948D01*
X0234416Y0279616D02*
Y0284948D01*
X0226479Y0279566D02*
X0234353D01*
X0226479Y0294316D02*
X0234353D01*
X0226416Y0288885D02*
Y0294316D01*
X0234416Y0288885D02*
Y0294316D01*
X0169985Y0281316D02*
X0175316D01*
X0169985Y0289316D02*
X0175316D01*
X0175366Y0281379D02*
Y0289253D01*
X0160616Y0281379D02*
Y0289253D01*
Y0281316D02*
X0166048D01*
X0160616Y0289316D02*
X0166048D01*
X0169785Y0262616D02*
X0175116D01*
X0169785Y0270616D02*
X0175116D01*
X0175166Y0262679D02*
Y0270553D01*
X0160416Y0262679D02*
Y0270553D01*
Y0262616D02*
X0165848D01*
X0160416Y0270616D02*
X0165848D01*
X0169885Y0272016D02*
X0175216D01*
X0169885Y0280016D02*
X0175216D01*
X0175266Y0272079D02*
Y0279953D01*
X0160516Y0272079D02*
Y0279953D01*
Y0272016D02*
X0165948D01*
X0160516Y0280016D02*
X0165948D01*
X0214256Y0257416D02*
X0216256D01*
X0218111Y0264316D02*
X0221162D01*
Y0260016D02*
Y0264316D01*
X0209351Y0264216D02*
X0212402D01*
X0209351Y0260016D02*
Y0264216D01*
X0231256Y0257016D02*
X0233256D01*
X0235111Y0263916D02*
X0238162D01*
Y0259616D02*
Y0263916D01*
X0226351Y0263816D02*
X0229402D01*
X0226351Y0259616D02*
Y0263816D01*
X0197416Y0257816D02*
X0199416D01*
X0201271Y0264716D02*
X0204322D01*
Y0260416D02*
Y0264716D01*
X0192511Y0264616D02*
X0195562D01*
X0192511Y0260416D02*
Y0264616D01*
X0496116Y0298716D02*
X0501448D01*
X0496116Y0290716D02*
X0501448D01*
X0496066Y0290779D02*
Y0298653D01*
X0510816Y0290779D02*
Y0298653D01*
X0505385Y0298716D02*
X0510816D01*
X0505385Y0290716D02*
X0510816D01*
X0495574Y0266574D02*
X0495574Y0261916D01*
Y0271259D02*
Y0275916D01*
X0535259D01*
X0535259Y0261916D02*
X0535259Y0275916D01*
X0495574Y0261916D02*
X0535259D01*
X0411216Y0248985D02*
Y0254316D01*
X0403216Y0248985D02*
Y0254316D01*
X0403279Y0254366D02*
X0411153D01*
X0403279Y0239616D02*
X0411153D01*
X0411216D02*
Y0245048D01*
X0403216Y0239616D02*
Y0245048D01*
X0444316Y0243016D02*
X0449648D01*
X0444316Y0235016D02*
X0449648D01*
X0444266Y0235079D02*
Y0242953D01*
X0459016Y0235079D02*
Y0242953D01*
X0453585Y0243016D02*
X0459016D01*
X0453585Y0235016D02*
X0459016D01*
X0454085Y0301116D02*
X0459416D01*
X0454085Y0309116D02*
X0459416D01*
X0459466Y0301179D02*
Y0309053D01*
X0444716Y0301179D02*
Y0309053D01*
Y0301116D02*
X0450148D01*
X0444716Y0309116D02*
X0450148D01*
X0311416Y0317316D02*
X0316748D01*
X0311416Y0309316D02*
X0316748D01*
X0311366Y0309379D02*
Y0317253D01*
X0326116Y0309379D02*
Y0317253D01*
X0320685Y0317316D02*
X0326116D01*
X0320685Y0309316D02*
X0326116D01*
X0537716Y0333116D02*
X0543048D01*
X0537716Y0325116D02*
X0543048D01*
X0537666Y0325179D02*
Y0333053D01*
X0552416Y0325179D02*
Y0333053D01*
X0546985Y0333116D02*
X0552416D01*
X0546985Y0325116D02*
X0552416D01*
X0276718Y0258526D02*
Y0309707D01*
X0301915Y0258526D02*
Y0309707D01*
X0276718Y0309707D02*
X0301915Y0309707D01*
X0276718Y0258526D02*
X0301915Y0258526D01*
X0256496Y0347816D02*
X0261827D01*
X0256496Y0339816D02*
X0261827D01*
X0256446Y0339879D02*
Y0347753D01*
X0271196Y0339879D02*
Y0347753D01*
X0265764Y0347816D02*
X0271196D01*
X0265764Y0339816D02*
X0271196D01*
X0253316Y0364616D02*
X0258648D01*
X0253316Y0356616D02*
X0258648D01*
X0253266Y0356679D02*
Y0364553D01*
X0268016Y0356679D02*
Y0364553D01*
X0262585Y0364616D02*
X0268016D01*
X0262585Y0356616D02*
X0268016D01*
X0207216Y0347616D02*
X0212548D01*
X0207216Y0339616D02*
X0212548D01*
X0207166Y0339679D02*
Y0347553D01*
X0221916Y0339679D02*
Y0347553D01*
X0216485Y0347616D02*
X0221916D01*
X0216485Y0339616D02*
X0221916D01*
X0271393Y0320003D02*
X0306039D01*
X0271393Y0330830D02*
X0306039D01*
X0271393Y0320003D02*
Y0330830D01*
X0306039Y0320003D02*
Y0330830D01*
X0243416Y0309616D02*
Y0314948D01*
X0251416Y0309616D02*
Y0314948D01*
X0243479Y0309566D02*
X0251353D01*
X0243479Y0324316D02*
X0251353D01*
X0243416Y0318885D02*
Y0324316D01*
X0251416Y0318885D02*
Y0324316D01*
X0243516Y0330576D02*
Y0335908D01*
X0251516Y0330576D02*
Y0335908D01*
X0243579Y0330526D02*
X0251453D01*
X0243579Y0345276D02*
X0251453D01*
X0243516Y0339844D02*
Y0345276D01*
X0251516Y0339844D02*
Y0345276D01*
X0202574Y0299316D02*
X0222259D01*
Y0313316D01*
X0202574D02*
X0222259D01*
X0202574Y0308659D02*
Y0313316D01*
Y0299316D02*
Y0303974D01*
X0152616Y0315916D02*
X0157948D01*
X0152616Y0307916D02*
X0157948D01*
X0152566Y0307979D02*
Y0315853D01*
X0167316Y0307979D02*
Y0315853D01*
X0161885Y0315916D02*
X0167316D01*
X0161885Y0307916D02*
X0167316D01*
X0152816Y0331416D02*
X0158148D01*
X0152816Y0323416D02*
X0158148D01*
X0152766Y0323479D02*
Y0331353D01*
X0167516Y0323479D02*
Y0331353D01*
X0162085Y0331416D02*
X0167516D01*
X0162085Y0323416D02*
X0167516D01*
X0223316Y0371585D02*
Y0376916D01*
X0215316Y0371585D02*
Y0376916D01*
X0215379Y0376966D02*
X0223253D01*
X0215379Y0362216D02*
X0223253D01*
X0223316D02*
Y0367648D01*
X0215316Y0362216D02*
Y0367648D01*
X0240985Y0366716D02*
X0246316D01*
X0240985Y0374716D02*
X0246316D01*
X0246366Y0366779D02*
Y0374653D01*
X0231616Y0366779D02*
Y0374653D01*
Y0366716D02*
X0237048D01*
X0231616Y0374716D02*
X0237048D01*
X0187416Y0350016D02*
Y0355348D01*
X0195416Y0350016D02*
Y0355348D01*
X0187479Y0349966D02*
X0195353D01*
X0187479Y0364716D02*
X0195353D01*
X0187416Y0359285D02*
Y0364716D01*
X0195416Y0359285D02*
Y0364716D01*
X0306085Y0415816D02*
X0311416D01*
X0306085Y0423816D02*
X0311416D01*
X0311466Y0415879D02*
Y0423753D01*
X0296716Y0415879D02*
Y0423753D01*
Y0415816D02*
X0302148D01*
X0296716Y0423816D02*
X0302148D01*
X0230516Y0309416D02*
Y0314748D01*
X0238516Y0309416D02*
Y0314748D01*
X0230579Y0309366D02*
X0238453D01*
X0230579Y0324116D02*
X0238453D01*
X0230516Y0318685D02*
Y0324116D01*
X0238516Y0318685D02*
Y0324116D01*
X0237716Y0339444D02*
Y0344776D01*
X0229716Y0339444D02*
Y0344776D01*
X0229779Y0344826D02*
X0237653D01*
X0229779Y0330076D02*
X0237653D01*
X0237716D02*
Y0335507D01*
X0229716Y0330076D02*
Y0335507D01*
X0273716Y0383885D02*
Y0389216D01*
X0265716Y0383885D02*
Y0389216D01*
X0265779Y0389266D02*
X0273653D01*
X0265779Y0374516D02*
X0273653D01*
X0273716D02*
Y0379948D01*
X0265716Y0374516D02*
Y0379948D01*
X0211716Y0371385D02*
Y0376716D01*
X0203716Y0371385D02*
Y0376716D01*
X0203779Y0376766D02*
X0211653D01*
X0203779Y0362016D02*
X0211653D01*
X0211716D02*
Y0367448D01*
X0203716Y0362016D02*
Y0367448D01*
X0241585Y0351816D02*
X0246916D01*
X0241585Y0359816D02*
X0246916D01*
X0246966Y0351879D02*
Y0359753D01*
X0232216Y0351879D02*
Y0359753D01*
Y0351816D02*
X0237648D01*
X0232216Y0359816D02*
X0237648D01*
X0252216Y0400116D02*
Y0405448D01*
X0260216Y0400116D02*
Y0405448D01*
X0252279Y0400066D02*
X0260153D01*
X0252279Y0414816D02*
X0260153D01*
X0252216Y0409385D02*
Y0414816D01*
X0260216Y0409385D02*
Y0414816D01*
X0245785Y0378411D02*
Y0390222D01*
X0254447Y0378411D02*
Y0390222D01*
X0245785D02*
X0254447D01*
X0245785Y0378411D02*
X0254447D01*
X0180616Y0396216D02*
X0185948D01*
X0180616Y0388216D02*
X0185948D01*
X0180566Y0388279D02*
Y0396153D01*
X0195316Y0388279D02*
Y0396153D01*
X0189885Y0396216D02*
X0195316D01*
X0189885Y0388216D02*
X0195316D01*
X0160416Y0402416D02*
Y0407748D01*
X0168416Y0402416D02*
Y0407748D01*
X0160479Y0402366D02*
X0168353D01*
X0160479Y0417116D02*
X0168353D01*
X0160416Y0411685D02*
Y0417116D01*
X0168416Y0411685D02*
Y0417116D01*
X0170116Y0384416D02*
X0175448D01*
X0170116Y0376416D02*
X0175448D01*
X0170066Y0376479D02*
Y0384353D01*
X0184816Y0376479D02*
Y0384353D01*
X0179385Y0384416D02*
X0184816D01*
X0179385Y0376416D02*
X0184816D01*
X0169816Y0373716D02*
X0175148D01*
X0169816Y0365716D02*
X0175148D01*
X0169766Y0365779D02*
Y0373653D01*
X0184516Y0365779D02*
Y0373653D01*
X0179085Y0373716D02*
X0184516D01*
X0179085Y0365716D02*
X0184516D01*
X0199416Y0380785D02*
Y0386116D01*
X0191416Y0380785D02*
Y0386116D01*
X0191479Y0386166D02*
X0199353D01*
X0191479Y0371416D02*
X0199353D01*
X0199416D02*
Y0376848D01*
X0191416Y0371416D02*
Y0376848D01*
X0218516Y0391176D02*
Y0396508D01*
X0226516Y0391176D02*
Y0396508D01*
X0218579Y0391126D02*
X0226453D01*
X0218579Y0405876D02*
X0226453D01*
X0218516Y0400445D02*
Y0405876D01*
X0226516Y0400445D02*
Y0405876D01*
X0230316Y0413216D02*
Y0418548D01*
X0238316Y0413216D02*
Y0418548D01*
X0230379Y0413166D02*
X0238253D01*
X0230379Y0427916D02*
X0238253D01*
X0230316Y0422485D02*
Y0427916D01*
X0238316Y0422485D02*
Y0427916D01*
X0228016Y0422185D02*
Y0427516D01*
X0220016Y0422185D02*
Y0427516D01*
X0220079Y0427566D02*
X0227953D01*
X0220079Y0412816D02*
X0227953D01*
X0228016D02*
Y0418248D01*
X0220016Y0412816D02*
Y0418248D01*
X0290685Y0424136D02*
X0296016D01*
X0290685Y0432136D02*
X0296016D01*
X0296066Y0424199D02*
Y0432073D01*
X0281316Y0424199D02*
Y0432073D01*
Y0424136D02*
X0286748D01*
X0281316Y0432136D02*
X0286748D01*
X0415285Y0221416D02*
X0420616D01*
X0415285Y0229416D02*
X0420616D01*
X0420666Y0221479D02*
Y0229353D01*
X0405916Y0221479D02*
Y0229353D01*
Y0221416D02*
X0411348D01*
X0405916Y0229416D02*
X0411348D01*
X0439685Y0402316D02*
X0445016D01*
X0439685Y0410316D02*
X0445016D01*
X0445066Y0402379D02*
Y0410253D01*
X0430316Y0402379D02*
Y0410253D01*
Y0402316D02*
X0435748D01*
X0430316Y0410316D02*
X0435748D01*
X0473285Y0378616D02*
X0478616D01*
X0473285Y0386616D02*
X0478616D01*
X0478666Y0378679D02*
Y0386553D01*
X0463916Y0378679D02*
Y0386553D01*
Y0378616D02*
X0469348D01*
X0463916Y0386616D02*
X0469348D01*
X0478316Y0403985D02*
Y0409316D01*
X0470316Y0403985D02*
Y0409316D01*
X0470379Y0409366D02*
X0478253D01*
X0470379Y0394616D02*
X0478253D01*
X0478316D02*
Y0400048D01*
X0470316Y0394616D02*
Y0400048D01*
X0510216Y0389842D02*
Y0430590D01*
X0532216Y0389842D02*
Y0430590D01*
X0510216D02*
X0532216D01*
X0510216Y0389842D02*
X0518913D01*
X0523913D02*
X0532216D01*
X0496216Y0408346D02*
Y0413678D01*
X0488216Y0408346D02*
Y0413678D01*
X0488279Y0413728D02*
X0496153D01*
X0488279Y0398978D02*
X0496153D01*
X0496216D02*
Y0404409D01*
X0488216Y0398978D02*
Y0404409D01*
X0437416Y0416416D02*
Y0421748D01*
X0445416Y0416416D02*
Y0421748D01*
X0437479Y0416366D02*
X0445353D01*
X0437479Y0431116D02*
X0445353D01*
X0437416Y0425685D02*
Y0431116D01*
X0445416Y0425685D02*
Y0431116D01*
X0325385Y0378316D02*
X0330716D01*
X0325385Y0386316D02*
X0330716D01*
X0330766Y0378379D02*
Y0386253D01*
X0316016Y0378379D02*
Y0386253D01*
Y0378316D02*
X0321448D01*
X0316016Y0386316D02*
X0321448D01*
X0329328Y0409429D02*
X0332871D01*
Y0399193D02*
Y0409429D01*
X0314761D02*
X0318304D01*
X0314761Y0399193D02*
Y0409429D01*
X0302216Y0457885D02*
Y0463216D01*
X0294216Y0457885D02*
Y0463216D01*
X0294279Y0463266D02*
X0302153D01*
X0294279Y0448516D02*
X0302153D01*
X0302216D02*
Y0453948D01*
X0294216Y0448516D02*
Y0453948D01*
X0329585Y0433516D02*
X0334916D01*
X0329585Y0441516D02*
X0334916D01*
X0334966Y0433579D02*
Y0441453D01*
X0320216Y0433579D02*
Y0441453D01*
Y0433516D02*
X0325648D01*
X0320216Y0441516D02*
X0325648D01*
X0277716Y0440435D02*
Y0445667D01*
X0276916Y0439635D02*
X0277716Y0440435D01*
X0269616Y0439635D02*
X0276916D01*
X0268816Y0440435D02*
X0269616Y0439635D01*
X0268816Y0440435D02*
Y0445667D01*
Y0455312D02*
X0277716D01*
X0268816Y0449604D02*
Y0455312D01*
X0277716Y0449604D02*
Y0455312D01*
X0269116Y0463616D02*
Y0468948D01*
X0277116Y0463616D02*
Y0468948D01*
X0269179Y0463566D02*
X0277053D01*
X0269179Y0478316D02*
X0277053D01*
X0269116Y0472885D02*
Y0478316D01*
X0277116Y0472885D02*
Y0478316D01*
X0284216Y0440416D02*
Y0445748D01*
X0292216Y0440416D02*
Y0445748D01*
X0284279Y0440366D02*
X0292153D01*
X0284279Y0455116D02*
X0292153D01*
X0284216Y0449685D02*
Y0455116D01*
X0292216Y0449685D02*
Y0455116D01*
X0270316Y0416239D02*
Y0421948D01*
X0279216Y0416239D02*
Y0421948D01*
X0270316Y0416239D02*
X0279216D01*
Y0425885D02*
Y0431116D01*
X0278416Y0431916D02*
X0279216Y0431116D01*
X0271116Y0431916D02*
X0278416D01*
X0270316Y0431116D02*
X0271116Y0431916D01*
X0270316Y0425885D02*
Y0431116D01*
X0312716D02*
X0318048D01*
X0312716Y0423116D02*
X0318048D01*
X0312666Y0423179D02*
Y0431053D01*
X0327416Y0423179D02*
Y0431053D01*
X0321985Y0431116D02*
X0327416D01*
X0321985Y0423116D02*
X0327416D01*
X0414185Y0427416D02*
X0419516D01*
X0414185Y0435416D02*
X0419516D01*
X0419566Y0427479D02*
Y0435353D01*
X0404816Y0427479D02*
Y0435353D01*
Y0427416D02*
X0410248D01*
X0404816Y0435416D02*
X0410248D01*
X0400216Y0443285D02*
Y0448616D01*
X0392216Y0443285D02*
Y0448616D01*
X0392279Y0448666D02*
X0400153D01*
X0392279Y0433916D02*
X0400153D01*
X0400216D02*
Y0439348D01*
X0392216Y0433916D02*
Y0439348D01*
X0415085Y0443616D02*
X0420416D01*
X0415085Y0451616D02*
X0420416D01*
X0420466Y0443679D02*
Y0451553D01*
X0405716Y0443679D02*
Y0451553D01*
Y0443616D02*
X0411148D01*
X0405716Y0451616D02*
X0411148D01*
X0222816Y0183716D02*
Y0189148D01*
X0230816Y0183716D02*
Y0189148D01*
X0222879Y0183716D02*
X0230753D01*
X0222879Y0198466D02*
X0230753D01*
X0222816Y0193085D02*
Y0198416D01*
X0230816Y0193085D02*
Y0198416D01*
X0154016Y0178616D02*
X0159248D01*
X0153216Y0179416D02*
X0154016Y0178616D01*
X0153216Y0179416D02*
Y0186716D01*
X0154016Y0187516D01*
X0159248D01*
X0168893Y0178616D02*
Y0187516D01*
X0163185D02*
X0168893D01*
X0163185Y0178616D02*
X0168893D01*
X0268898Y0161720D02*
X0272739Y0157879D01*
X0274555Y0167377D02*
X0278396Y0163536D01*
X0272783Y0157924D02*
X0278351Y0163492D01*
X0262354Y0168354D02*
X0267921Y0173922D01*
X0262344Y0168274D02*
X0266114Y0164504D01*
X0268001Y0173931D02*
X0271771Y0170161D01*
X0190616Y0190585D02*
Y0196016D01*
X0182616Y0190585D02*
Y0196016D01*
X0182679D02*
X0190553D01*
X0182679Y0181266D02*
X0190553D01*
X0190616Y0181316D02*
Y0186648D01*
X0182616Y0181316D02*
Y0186648D01*
X0191016Y0319945D02*
Y0325376D01*
X0183016Y0319945D02*
Y0325376D01*
X0183079D02*
X0190953D01*
X0183079Y0310626D02*
X0190953D01*
X0191016Y0310676D02*
Y0316007D01*
X0183016Y0310676D02*
Y0316007D01*
X0226016Y0241389D02*
X0231448D01*
X0226016Y0233389D02*
X0231448D01*
X0226016Y0233452D02*
Y0241326D01*
X0240766Y0233452D02*
Y0241326D01*
X0235385Y0241389D02*
X0240716D01*
X0235385Y0233389D02*
X0240716D01*
X0208816Y0241116D02*
X0214248D01*
X0208816Y0233116D02*
X0214248D01*
X0208816Y0233179D02*
Y0241053D01*
X0223566Y0233179D02*
Y0241053D01*
X0218185Y0241116D02*
X0223516D01*
X0218185Y0233116D02*
X0223516D01*
X0292016Y0472985D02*
Y0478416D01*
X0284016Y0472985D02*
Y0478416D01*
X0284079D02*
X0291953D01*
X0284079Y0463666D02*
X0291953D01*
X0292016Y0463716D02*
Y0469048D01*
X0284016Y0463716D02*
Y0469048D01*
X0391597Y0170996D02*
X0426636D01*
X0391597Y0206036D02*
X0426636D01*
X0391597Y0170996D02*
Y0206036D01*
X0426636Y0170996D02*
Y0206036D01*
X0171359Y0338374D02*
X0176016D01*
X0162016D02*
X0166674D01*
X0162016D02*
Y0358059D01*
X0176016D01*
Y0338374D02*
Y0358059D01*
X0491616Y0287691D02*
X0491616Y0273016D01*
Y0255841D02*
Y0270516D01*
X0411616Y0255841D02*
X0491616Y0255841D01*
X0411616Y0287691D02*
X0411616Y0255841D01*
X0411616Y0287691D02*
X0491616D01*
X0446185Y0178316D02*
X0451616D01*
X0446185Y0186316D02*
X0451616D01*
Y0178379D02*
Y0186253D01*
X0436866Y0178379D02*
Y0186253D01*
X0436916Y0178316D02*
X0442248D01*
X0436916Y0186316D02*
X0442248D01*
X0457816Y0394616D02*
Y0399848D01*
X0457016Y0393816D02*
X0457816Y0394616D01*
X0449716Y0393816D02*
X0457016D01*
X0448916Y0394616D02*
X0449716Y0393816D01*
X0448916Y0394616D02*
Y0399848D01*
Y0409493D02*
X0457816D01*
X0448916Y0403785D02*
Y0409493D01*
X0457816Y0403785D02*
Y0409493D01*
X0468016Y0403685D02*
Y0409393D01*
X0459116Y0403685D02*
Y0409393D01*
X0468016D01*
X0459116Y0394516D02*
Y0399748D01*
Y0394516D02*
X0459916Y0393716D01*
X0467216D01*
X0468016Y0394516D01*
Y0399748D01*
X0430816Y0424185D02*
Y0429616D01*
X0422816Y0424185D02*
Y0429616D01*
X0422879D02*
X0430753D01*
X0422879Y0414866D02*
X0430753D01*
X0430816Y0414916D02*
Y0420248D01*
X0422816Y0414916D02*
Y0420248D01*
X0504116Y0371316D02*
X0509548D01*
X0504116Y0363316D02*
X0509548D01*
X0504116Y0363379D02*
Y0371253D01*
X0518866Y0363379D02*
Y0371253D01*
X0513485Y0371316D02*
X0518816D01*
X0513485Y0363316D02*
X0518816D01*
X0554116Y0406985D02*
Y0412416D01*
X0546116Y0406985D02*
Y0412416D01*
X0546179D02*
X0554053D01*
X0546179Y0397666D02*
X0554053D01*
X0554116Y0397716D02*
Y0403048D01*
X0546116Y0397716D02*
Y0403048D01*
X0243916Y0428016D02*
Y0433448D01*
X0251916Y0428016D02*
Y0433448D01*
X0243979Y0428016D02*
X0251853D01*
X0243979Y0442766D02*
X0251853D01*
X0243916Y0437385D02*
Y0442716D01*
X0251916Y0437385D02*
Y0442716D01*
X0240316Y0400316D02*
Y0405748D01*
X0248316Y0400316D02*
Y0405748D01*
X0240379Y0400316D02*
X0248253D01*
X0240379Y0415066D02*
X0248253D01*
X0240316Y0409685D02*
Y0415016D01*
X0248316Y0409685D02*
Y0415016D01*
X0152716Y0435676D02*
X0158148D01*
X0152716Y0427676D02*
X0158148D01*
X0152716Y0427739D02*
Y0435613D01*
X0167466Y0427739D02*
Y0435613D01*
X0162085Y0435676D02*
X0167416D01*
X0162085Y0427676D02*
X0167416D01*
X0190516Y0432116D02*
X0195948D01*
X0190516Y0424116D02*
X0195948D01*
X0190516Y0424179D02*
Y0432053D01*
X0205266Y0424179D02*
Y0432053D01*
X0199885Y0432116D02*
X0205216D01*
X0199885Y0424116D02*
X0205216D01*
X0416016Y0154716D02*
X0446016D01*
X0416016Y0134716D02*
X0446016D01*
Y0154716D01*
X0416016Y0134716D02*
Y0154716D01*
X0367374Y0279416D02*
X0407059D01*
X0367374D02*
X0367374Y0265416D01*
X0407059D01*
X0407059Y0270074D01*
X0407059Y0274759D02*
X0407059Y0279416D01*
X0451085Y0115416D02*
X0456516D01*
X0451085Y0123416D02*
X0456516D01*
Y0115479D02*
Y0123353D01*
X0441766Y0115479D02*
Y0123353D01*
X0441816Y0115416D02*
X0447148D01*
X0441816Y0123416D02*
X0447148D01*
X0400716Y0122485D02*
Y0127916D01*
X0392716Y0122485D02*
Y0127916D01*
X0392779D02*
X0400653D01*
X0392779Y0113166D02*
X0400653D01*
X0400716Y0113216D02*
Y0118548D01*
X0392716Y0113216D02*
Y0118548D01*
X0363816Y0206216D02*
X0369248D01*
X0363816Y0198216D02*
X0369248D01*
X0363816Y0198279D02*
Y0206153D01*
X0378566Y0198279D02*
Y0206153D01*
X0373185Y0206216D02*
X0378516D01*
X0373185Y0198216D02*
X0378516D01*
X0173716Y0248185D02*
Y0253616D01*
X0165716Y0248185D02*
Y0253616D01*
X0165779D02*
X0173653D01*
X0165779Y0238866D02*
X0173653D01*
X0173716Y0238916D02*
Y0244248D01*
X0165716Y0238916D02*
Y0244248D01*
X0283216Y0383785D02*
Y0389216D01*
X0275216Y0383785D02*
Y0389216D01*
X0275279D02*
X0283153D01*
X0275279Y0374466D02*
X0283153D01*
X0283216Y0374516D02*
Y0379848D01*
X0275216Y0374516D02*
Y0379848D01*
D17*
X0253204Y0212075D02*
X0256032Y0209247D01*
X0253204Y0212075D02*
Y0217025D01*
X0257093Y0220914D01*
X0282902Y0182377D02*
X0288913Y0176366D01*
X0294923Y0182377D01*
X0283256Y0247077D02*
X0289620Y0253441D01*
X0294923Y0248138D01*
X0321793Y0209247D02*
X0327803Y0215257D01*
X0321793Y0221268D02*
X0327803Y0215257D01*
X0152316Y0193815D02*
X0154982D01*
X0153649D01*
Y0189816D01*
X0156315D02*
Y0193815D01*
X0158314D01*
X0158981Y0193148D01*
Y0191815D01*
X0158314Y0191149D01*
X0156315D01*
X0157648D02*
X0158981Y0189816D01*
X0160314Y0193815D02*
X0161646D01*
X0160980D01*
Y0189816D01*
X0160314D01*
X0161646D01*
X0461116Y0411916D02*
Y0415915D01*
X0463116D01*
X0463782Y0415248D01*
Y0413915D01*
X0463116Y0413249D01*
X0461116D01*
X0462449D02*
X0463782Y0411916D01*
X0465115Y0415915D02*
Y0411916D01*
X0467781D01*
X0450416Y0416415D02*
X0453082D01*
X0451749D01*
Y0412416D01*
X0454415Y0416415D02*
Y0412416D01*
X0457081D01*
X0266616Y0459315D02*
X0269282D01*
X0273281Y0461315D02*
X0270615D01*
Y0459315D01*
X0271948Y0459982D01*
X0272614D01*
X0273281Y0459315D01*
Y0457983D01*
X0272614Y0457316D01*
X0271281D01*
X0270615Y0457983D01*
X0274614Y0461315D02*
Y0458649D01*
X0275946Y0457316D01*
X0277279Y0458649D01*
Y0461315D01*
X0267916Y0435578D02*
X0270582D01*
X0269249Y0436911D02*
Y0434246D01*
X0274581Y0437578D02*
X0271915D01*
Y0435578D01*
X0273248Y0436245D01*
X0273914D01*
X0274581Y0435578D01*
Y0434246D01*
X0273914Y0433579D01*
X0272581D01*
X0271915Y0434246D01*
X0275914Y0437578D02*
Y0434912D01*
X0277246Y0433579D01*
X0278579Y0434912D01*
Y0437578D01*
X0150316Y0229216D02*
X0151982D01*
X0151149D01*
Y0234215D01*
X0150316Y0233382D01*
X0420216Y0127716D02*
X0421882D01*
X0421049D01*
Y0132715D01*
X0420216Y0131881D01*
X0435634Y0220202D02*
X0432968D01*
Y0218203D01*
X0434301D01*
X0432968D01*
Y0216203D01*
X0439633D02*
X0436967D01*
X0439633Y0218869D01*
Y0219535D01*
X0438966Y0220202D01*
X0437633D01*
X0436967Y0219535D01*
X0246022Y0231815D02*
X0243356D01*
Y0229816D01*
X0244689D01*
X0243356D01*
Y0227816D01*
X0247355D02*
X0248688D01*
X0248022D01*
Y0231815D01*
X0247355Y0231148D01*
X0543100Y0279921D02*
Y0283919D01*
X0545099D01*
X0545766Y0283253D01*
Y0281920D01*
X0545099Y0281253D01*
X0543100D01*
X0544433D02*
X0545766Y0279921D01*
X0547099Y0283253D02*
X0547765Y0283919D01*
X0549098D01*
X0549764Y0283253D01*
Y0282586D01*
X0549098Y0281920D01*
X0548432D01*
X0549098D01*
X0549764Y0281253D01*
Y0280587D01*
X0549098Y0279921D01*
X0547765D01*
X0547099Y0280587D01*
X0551097Y0279921D02*
X0552430D01*
X0551764D01*
Y0283919D01*
X0551097Y0283253D01*
X0518916Y0385616D02*
Y0389615D01*
X0520916D01*
X0521582Y0388948D01*
Y0387615D01*
X0520916Y0386949D01*
X0518916D01*
X0520249D02*
X0521582Y0385616D01*
X0522915Y0388948D02*
X0523581Y0389615D01*
X0524914D01*
X0525581Y0388948D01*
Y0388282D01*
X0524914Y0387615D01*
X0524248D01*
X0524914D01*
X0525581Y0386949D01*
Y0386283D01*
X0524914Y0385616D01*
X0523581D01*
X0522915Y0386283D01*
X0526914Y0388948D02*
X0527580Y0389615D01*
X0528913D01*
X0529579Y0388948D01*
Y0386283D01*
X0528913Y0385616D01*
X0527580D01*
X0526914Y0386283D01*
Y0388948D01*
X0553000Y0279560D02*
Y0283559D01*
X0554999D01*
X0555666Y0282892D01*
Y0281559D01*
X0554999Y0280893D01*
X0553000D01*
X0554333D02*
X0555666Y0279560D01*
X0559664D02*
X0556999D01*
X0559664Y0282226D01*
Y0282892D01*
X0558998Y0283559D01*
X0557665D01*
X0556999Y0282892D01*
X0560997Y0280226D02*
X0561664Y0279560D01*
X0562997D01*
X0563663Y0280226D01*
Y0282892D01*
X0562997Y0283559D01*
X0561664D01*
X0560997Y0282892D01*
Y0282226D01*
X0561664Y0281559D01*
X0563663D01*
X0540533Y0379816D02*
Y0383815D01*
X0542532D01*
X0543199Y0383148D01*
Y0381816D01*
X0542532Y0381149D01*
X0540533D01*
X0541866D02*
X0543199Y0379816D01*
X0547197D02*
X0544532D01*
X0547197Y0382482D01*
Y0383148D01*
X0546531Y0383815D01*
X0545198D01*
X0544532Y0383148D01*
X0548530D02*
X0549197Y0383815D01*
X0550530D01*
X0551196Y0383148D01*
Y0382482D01*
X0550530Y0381816D01*
X0551196Y0381149D01*
Y0380483D01*
X0550530Y0379816D01*
X0549197D01*
X0548530Y0380483D01*
Y0381149D01*
X0549197Y0381816D01*
X0548530Y0382482D01*
Y0383148D01*
X0549197Y0381816D02*
X0550530D01*
X0557082Y0323448D02*
X0556416Y0324115D01*
X0555083D01*
X0554416Y0323448D01*
Y0320783D01*
X0555083Y0320116D01*
X0556416D01*
X0557082Y0320783D01*
X0561081Y0324115D02*
X0558415D01*
Y0322115D01*
X0559748Y0322782D01*
X0560414D01*
X0561081Y0322115D01*
Y0320783D01*
X0560414Y0320116D01*
X0559081D01*
X0558415Y0320783D01*
X0562414Y0324115D02*
X0565079D01*
Y0323448D01*
X0562414Y0320783D01*
Y0320116D01*
X0568582Y0393748D02*
X0567915Y0394415D01*
X0566583D01*
X0565916Y0393748D01*
Y0391083D01*
X0566583Y0390416D01*
X0567915D01*
X0568582Y0391083D01*
X0572581Y0394415D02*
X0569915D01*
Y0392415D01*
X0571248Y0393082D01*
X0571914D01*
X0572581Y0392415D01*
Y0391083D01*
X0571914Y0390416D01*
X0570581D01*
X0569915Y0391083D01*
X0576579Y0394415D02*
X0575246Y0393748D01*
X0573914Y0392415D01*
Y0391083D01*
X0574580Y0390416D01*
X0575913D01*
X0576579Y0391083D01*
Y0391749D01*
X0575913Y0392415D01*
X0573914D01*
X0325516Y0179915D02*
Y0176583D01*
X0326183Y0175916D01*
X0327516D01*
X0328182Y0176583D01*
Y0179915D01*
X0329515Y0175916D02*
X0330848D01*
X0330181D01*
Y0179915D01*
X0329515Y0179248D01*
X0332847D02*
X0333514Y0179915D01*
X0334846D01*
X0335513Y0179248D01*
Y0176583D01*
X0334846Y0175916D01*
X0333514D01*
X0332847Y0176583D01*
Y0179248D01*
X0234915Y0179915D02*
X0237581Y0175916D01*
Y0179915D02*
X0234915Y0175916D01*
X0238914D02*
X0240247D01*
X0239580D01*
Y0179915D01*
X0238914Y0179248D01*
X0296316Y0254115D02*
Y0250783D01*
X0296983Y0250116D01*
X0298316D01*
X0298982Y0250783D01*
Y0254115D01*
X0300315Y0250116D02*
X0301648D01*
X0300981D01*
Y0254115D01*
X0300315Y0253448D01*
X0303647Y0250116D02*
X0304980D01*
X0304314D01*
Y0254115D01*
X0303647Y0253448D01*
X0249382Y0302648D02*
X0248715Y0303315D01*
X0247383D01*
X0246716Y0302648D01*
Y0301982D01*
X0247383Y0301315D01*
X0248715D01*
X0249382Y0300649D01*
Y0299983D01*
X0248715Y0299316D01*
X0247383D01*
X0246716Y0299983D01*
X0253381Y0299316D02*
X0250715D01*
X0253381Y0301982D01*
Y0302648D01*
X0252714Y0303315D01*
X0251381D01*
X0250715Y0302648D01*
X0196982Y0192448D02*
X0196316Y0193115D01*
X0194983D01*
X0194316Y0192448D01*
Y0191782D01*
X0194983Y0191115D01*
X0196316D01*
X0196982Y0190449D01*
Y0189783D01*
X0196316Y0189116D01*
X0194983D01*
X0194316Y0189783D01*
X0198315Y0189116D02*
X0199648D01*
X0198981D01*
Y0193115D01*
X0198315Y0192448D01*
X0154116Y0172116D02*
Y0176115D01*
X0156115D01*
X0156782Y0175448D01*
Y0174116D01*
X0156115Y0173449D01*
X0154116D01*
X0155449D02*
X0156782Y0172116D01*
X0160781D02*
X0158115D01*
X0160781Y0174782D01*
Y0175448D01*
X0160114Y0176115D01*
X0158781D01*
X0158115Y0175448D01*
X0162114Y0176115D02*
X0164779D01*
Y0175448D01*
X0162114Y0172783D01*
Y0172116D01*
X0241916Y0258916D02*
Y0262915D01*
X0243916D01*
X0244582Y0262248D01*
Y0260915D01*
X0243916Y0260249D01*
X0241916D01*
X0243249D02*
X0244582Y0258916D01*
X0245915D02*
X0247248D01*
X0246581D01*
Y0262915D01*
X0245915Y0262248D01*
X0251913Y0262915D02*
X0249247D01*
Y0260915D01*
X0250580Y0261582D01*
X0251247D01*
X0251913Y0260915D01*
Y0259583D01*
X0251247Y0258916D01*
X0249914D01*
X0249247Y0259583D01*
X0223200Y0201700D02*
Y0205699D01*
X0225199D01*
X0225866Y0205032D01*
Y0203699D01*
X0225199Y0203033D01*
X0223200D01*
X0224533D02*
X0225866Y0201700D01*
X0227199D02*
X0228532D01*
X0227865D01*
Y0205699D01*
X0227199Y0205032D01*
X0232530Y0201700D02*
Y0205699D01*
X0230531Y0203699D01*
X0233197D01*
X0152716Y0239016D02*
Y0243015D01*
X0154716D01*
X0155382Y0242348D01*
Y0241016D01*
X0154716Y0240349D01*
X0152716D01*
X0156715Y0239016D02*
X0158048D01*
X0157381D01*
Y0243015D01*
X0156715Y0242348D01*
X0325182Y0151215D02*
X0323849D01*
X0324516D01*
Y0147883D01*
X0323849Y0147216D01*
X0323183D01*
X0322516Y0147883D01*
X0329181Y0147216D02*
X0326515D01*
X0329181Y0149882D01*
Y0150548D01*
X0328514Y0151215D01*
X0327181D01*
X0326515Y0150548D01*
X0326782Y0197148D02*
X0326115Y0197815D01*
X0324783D01*
X0324116Y0197148D01*
Y0194483D01*
X0324783Y0193816D01*
X0326115D01*
X0326782Y0194483D01*
X0328115Y0197148D02*
X0328781Y0197815D01*
X0330114D01*
X0330781Y0197148D01*
Y0196482D01*
X0330114Y0195816D01*
X0329448D01*
X0330114D01*
X0330781Y0195149D01*
Y0194483D01*
X0330114Y0193816D01*
X0328781D01*
X0328115Y0194483D01*
X0332114Y0197815D02*
X0334779D01*
Y0197148D01*
X0332114Y0194483D01*
Y0193816D01*
X0256144Y0262989D02*
X0255477Y0263655D01*
X0254145D01*
X0253478Y0262989D01*
Y0260323D01*
X0254145Y0259656D01*
X0255477D01*
X0256144Y0260323D01*
X0257477Y0262989D02*
X0258143Y0263655D01*
X0259476D01*
X0260143Y0262989D01*
Y0262322D01*
X0259476Y0261656D01*
X0258810D01*
X0259476D01*
X0260143Y0260989D01*
Y0260323D01*
X0259476Y0259656D01*
X0258143D01*
X0257477Y0260323D01*
X0264141Y0263655D02*
X0262808Y0262989D01*
X0261476Y0261656D01*
Y0260323D01*
X0262142Y0259656D01*
X0263475D01*
X0264141Y0260323D01*
Y0260989D01*
X0263475Y0261656D01*
X0261476D01*
X0320782Y0258448D02*
X0320115Y0259115D01*
X0318783D01*
X0318116Y0258448D01*
Y0255783D01*
X0318783Y0255116D01*
X0320115D01*
X0320782Y0255783D01*
X0322115Y0258448D02*
X0322781Y0259115D01*
X0324114D01*
X0324781Y0258448D01*
Y0257782D01*
X0324114Y0257116D01*
X0323448D01*
X0324114D01*
X0324781Y0256449D01*
Y0255783D01*
X0324114Y0255116D01*
X0322781D01*
X0322115Y0255783D01*
X0328779Y0259115D02*
X0326114D01*
Y0257116D01*
X0327447Y0257782D01*
X0328113D01*
X0328779Y0257116D01*
Y0255783D01*
X0328113Y0255116D01*
X0326780D01*
X0326114Y0255783D01*
X0499582Y0304148D02*
X0498915Y0304815D01*
X0497583D01*
X0496916Y0304148D01*
Y0301483D01*
X0497583Y0300816D01*
X0498915D01*
X0499582Y0301483D01*
X0500915Y0304148D02*
X0501581Y0304815D01*
X0502914D01*
X0503581Y0304148D01*
Y0303482D01*
X0502914Y0302816D01*
X0502248D01*
X0502914D01*
X0503581Y0302149D01*
Y0301483D01*
X0502914Y0300816D01*
X0501581D01*
X0500915Y0301483D01*
X0506913Y0300816D02*
Y0304815D01*
X0504914Y0302816D01*
X0507579D01*
X0414982Y0242748D02*
X0414316Y0243415D01*
X0412983D01*
X0412316Y0242748D01*
Y0240083D01*
X0412983Y0239416D01*
X0414316D01*
X0414982Y0240083D01*
X0416315Y0242748D02*
X0416981Y0243415D01*
X0418314D01*
X0418981Y0242748D01*
Y0242082D01*
X0418314Y0241416D01*
X0417648D01*
X0418314D01*
X0418981Y0240749D01*
Y0240083D01*
X0418314Y0239416D01*
X0416981D01*
X0416315Y0240083D01*
X0420314Y0242748D02*
X0420980Y0243415D01*
X0422313D01*
X0422979Y0242748D01*
Y0242082D01*
X0422313Y0241416D01*
X0421646D01*
X0422313D01*
X0422979Y0240749D01*
Y0240083D01*
X0422313Y0239416D01*
X0420980D01*
X0420314Y0240083D01*
X0446782Y0233048D02*
X0446115Y0233715D01*
X0444783D01*
X0444116Y0233048D01*
Y0230383D01*
X0444783Y0229716D01*
X0446115D01*
X0446782Y0230383D01*
X0448115Y0233048D02*
X0448781Y0233715D01*
X0450114D01*
X0450781Y0233048D01*
Y0232382D01*
X0450114Y0231715D01*
X0449448D01*
X0450114D01*
X0450781Y0231049D01*
Y0230383D01*
X0450114Y0229716D01*
X0448781D01*
X0448115Y0230383D01*
X0454779Y0229716D02*
X0452114D01*
X0454779Y0232382D01*
Y0233048D01*
X0454113Y0233715D01*
X0452780D01*
X0452114Y0233048D01*
X0447882Y0314048D02*
X0447216Y0314715D01*
X0445883D01*
X0445216Y0314048D01*
Y0311383D01*
X0445883Y0310716D01*
X0447216D01*
X0447882Y0311383D01*
X0449215Y0314048D02*
X0449881Y0314715D01*
X0451214D01*
X0451881Y0314048D01*
Y0313382D01*
X0451214Y0312716D01*
X0450548D01*
X0451214D01*
X0451881Y0312049D01*
Y0311383D01*
X0451214Y0310716D01*
X0449881D01*
X0449215Y0311383D01*
X0453214Y0310716D02*
X0454546D01*
X0453880D01*
Y0314715D01*
X0453214Y0314048D01*
X0227282Y0299808D02*
X0226616Y0300475D01*
X0225283D01*
X0224616Y0299808D01*
Y0297143D01*
X0225283Y0296476D01*
X0226616D01*
X0227282Y0297143D01*
X0228615Y0299808D02*
X0229281Y0300475D01*
X0230614D01*
X0231281Y0299808D01*
Y0299142D01*
X0230614Y0298475D01*
X0229948D01*
X0230614D01*
X0231281Y0297809D01*
Y0297143D01*
X0230614Y0296476D01*
X0229281D01*
X0228615Y0297143D01*
X0232614Y0299808D02*
X0233280Y0300475D01*
X0234613D01*
X0235279Y0299808D01*
Y0297143D01*
X0234613Y0296476D01*
X0233280D01*
X0232614Y0297143D01*
Y0299808D01*
X0185666Y0202532D02*
X0184999Y0203199D01*
X0183667D01*
X0183000Y0202532D01*
Y0199866D01*
X0183667Y0199200D01*
X0184999D01*
X0185666Y0199866D01*
X0189664Y0199200D02*
X0186999D01*
X0189664Y0201866D01*
Y0202532D01*
X0188998Y0203199D01*
X0187665D01*
X0186999Y0202532D01*
X0190997Y0199866D02*
X0191664Y0199200D01*
X0192997D01*
X0193663Y0199866D01*
Y0202532D01*
X0192997Y0203199D01*
X0191664D01*
X0190997Y0202532D01*
Y0201866D01*
X0191664Y0201199D01*
X0193663D01*
X0265466Y0180432D02*
X0264799Y0181099D01*
X0263466D01*
X0262800Y0180432D01*
Y0177767D01*
X0263466Y0177100D01*
X0264799D01*
X0265466Y0177767D01*
X0269464Y0177100D02*
X0266799D01*
X0269464Y0179766D01*
Y0180432D01*
X0268798Y0181099D01*
X0267465D01*
X0266799Y0180432D01*
X0270797D02*
X0271464Y0181099D01*
X0272797D01*
X0273463Y0180432D01*
Y0179766D01*
X0272797Y0179099D01*
X0273463Y0178433D01*
Y0177767D01*
X0272797Y0177100D01*
X0271464D01*
X0270797Y0177767D01*
Y0178433D01*
X0271464Y0179099D01*
X0270797Y0179766D01*
Y0180432D01*
X0271464Y0179099D02*
X0272797D01*
X0257482Y0191148D02*
X0256816Y0191815D01*
X0255483D01*
X0254816Y0191148D01*
Y0188483D01*
X0255483Y0187816D01*
X0256816D01*
X0257482Y0188483D01*
X0261481Y0187816D02*
X0258815D01*
X0261481Y0190482D01*
Y0191148D01*
X0260814Y0191815D01*
X0259481D01*
X0258815Y0191148D01*
X0262814Y0191815D02*
X0265479D01*
Y0191148D01*
X0262814Y0188483D01*
Y0187816D01*
X0183400Y0328560D02*
Y0332559D01*
X0185399D01*
X0186066Y0331892D01*
Y0330559D01*
X0185399Y0329893D01*
X0183400D01*
X0184733D02*
X0186066Y0328560D01*
X0190065D02*
X0187399D01*
X0190065Y0331226D01*
Y0331892D01*
X0189398Y0332559D01*
X0188065D01*
X0187399Y0331892D01*
X0194063Y0332559D02*
X0192730Y0331892D01*
X0191397Y0330559D01*
Y0329226D01*
X0192064Y0328560D01*
X0193397D01*
X0194063Y0329226D01*
Y0329893D01*
X0193397Y0330559D01*
X0191397D01*
X0148816Y0287316D02*
Y0291315D01*
X0150815D01*
X0151482Y0290648D01*
Y0289316D01*
X0150815Y0288649D01*
X0148816D01*
X0150149D02*
X0151482Y0287316D01*
X0155481D02*
X0152815D01*
X0155481Y0289982D01*
Y0290648D01*
X0154814Y0291315D01*
X0153481D01*
X0152815Y0290648D01*
X0159479Y0291315D02*
X0156814D01*
Y0289316D01*
X0158147Y0289982D01*
X0158813D01*
X0159479Y0289316D01*
Y0287983D01*
X0158813Y0287316D01*
X0157480D01*
X0156814Y0287983D01*
X0209200Y0244300D02*
Y0248299D01*
X0211199D01*
X0211866Y0247632D01*
Y0246299D01*
X0211199Y0245633D01*
X0209200D01*
X0210533D02*
X0211866Y0244300D01*
X0215864D02*
X0213199D01*
X0215864Y0246966D01*
Y0247632D01*
X0215198Y0248299D01*
X0213865D01*
X0213199Y0247632D01*
X0219197Y0244300D02*
Y0248299D01*
X0217197Y0246299D01*
X0219863D01*
X0148516Y0267816D02*
Y0271815D01*
X0150515D01*
X0151182Y0271148D01*
Y0269815D01*
X0150515Y0269149D01*
X0148516D01*
X0149849D02*
X0151182Y0267816D01*
X0155181D02*
X0152515D01*
X0155181Y0270482D01*
Y0271148D01*
X0154514Y0271815D01*
X0153181D01*
X0152515Y0271148D01*
X0156514D02*
X0157180Y0271815D01*
X0158513D01*
X0159179Y0271148D01*
Y0270482D01*
X0158513Y0269815D01*
X0157846D01*
X0158513D01*
X0159179Y0269149D01*
Y0268483D01*
X0158513Y0267816D01*
X0157180D01*
X0156514Y0268483D01*
X0191316Y0244716D02*
Y0248715D01*
X0193315D01*
X0193982Y0248048D01*
Y0246715D01*
X0193315Y0246049D01*
X0191316D01*
X0192649D02*
X0193982Y0244716D01*
X0197981D02*
X0195315D01*
X0197981Y0247382D01*
Y0248048D01*
X0197314Y0248715D01*
X0195981D01*
X0195315Y0248048D01*
X0201979Y0244716D02*
X0199314D01*
X0201979Y0247382D01*
Y0248048D01*
X0201313Y0248715D01*
X0199980D01*
X0199314Y0248048D01*
X0148916Y0277816D02*
Y0281815D01*
X0150916D01*
X0151582Y0281148D01*
Y0279816D01*
X0150916Y0279149D01*
X0148916D01*
X0150249D02*
X0151582Y0277816D01*
X0155581D02*
X0152915D01*
X0155581Y0280482D01*
Y0281148D01*
X0154914Y0281815D01*
X0153581D01*
X0152915Y0281148D01*
X0156914Y0277816D02*
X0158247D01*
X0157580D01*
Y0281815D01*
X0156914Y0281148D01*
X0226400Y0244573D02*
Y0248572D01*
X0228399D01*
X0229066Y0247905D01*
Y0246572D01*
X0228399Y0245906D01*
X0226400D01*
X0227733D02*
X0229066Y0244573D01*
X0233065D02*
X0230399D01*
X0233065Y0247239D01*
Y0247905D01*
X0232398Y0248572D01*
X0231065D01*
X0230399Y0247905D01*
X0234397D02*
X0235064Y0248572D01*
X0236397D01*
X0237063Y0247905D01*
Y0245239D01*
X0236397Y0244573D01*
X0235064D01*
X0234397Y0245239D01*
Y0247905D01*
X0208322Y0266183D02*
Y0268848D01*
X0207656Y0269515D01*
X0206323D01*
X0205656Y0268848D01*
Y0266183D01*
X0206323Y0265516D01*
X0207656D01*
X0206989Y0266849D02*
X0208322Y0265516D01*
X0207656D02*
X0208322Y0266183D01*
X0209655Y0268848D02*
X0210321Y0269515D01*
X0211654D01*
X0212321Y0268848D01*
Y0268182D01*
X0211654Y0267515D01*
X0210988D01*
X0211654D01*
X0212321Y0266849D01*
Y0266183D01*
X0211654Y0265516D01*
X0210321D01*
X0209655Y0266183D01*
X0190942Y0267583D02*
Y0270248D01*
X0190275Y0270915D01*
X0188943D01*
X0188276Y0270248D01*
Y0267583D01*
X0188943Y0266916D01*
X0190275D01*
X0189609Y0268249D02*
X0190942Y0266916D01*
X0190275D02*
X0190942Y0267583D01*
X0194940Y0266916D02*
X0192275D01*
X0194940Y0269582D01*
Y0270248D01*
X0194274Y0270915D01*
X0192941D01*
X0192275Y0270248D01*
X0227082Y0267683D02*
Y0270348D01*
X0226415Y0271015D01*
X0225083D01*
X0224416Y0270348D01*
Y0267683D01*
X0225083Y0267016D01*
X0226415D01*
X0225749Y0268349D02*
X0227082Y0267016D01*
X0226415D02*
X0227082Y0267683D01*
X0228415Y0267016D02*
X0229748D01*
X0229081D01*
Y0271015D01*
X0228415Y0270348D01*
X0284400Y0485599D02*
Y0481600D01*
X0287066D01*
X0290398D02*
Y0485599D01*
X0288399Y0483599D01*
X0291065D01*
X0384450Y0220846D02*
Y0217514D01*
X0385116Y0216847D01*
X0386449D01*
X0387115Y0217514D01*
Y0220846D01*
X0388448Y0216847D02*
X0389781D01*
X0389115D01*
Y0220846D01*
X0388448Y0220180D01*
X0394446Y0220846D02*
X0393113Y0220180D01*
X0391781Y0218847D01*
Y0217514D01*
X0392447Y0216847D01*
X0393780D01*
X0394446Y0217514D01*
Y0218180D01*
X0393780Y0218847D01*
X0391781D01*
X0337900Y0492499D02*
Y0489166D01*
X0338566Y0488500D01*
X0339899D01*
X0340566Y0489166D01*
Y0492499D01*
X0341899Y0488500D02*
X0343232D01*
X0342565D01*
Y0492499D01*
X0341899Y0491832D01*
X0347897Y0492499D02*
X0345231D01*
Y0490499D01*
X0346564Y0491166D01*
X0347230D01*
X0347897Y0490499D01*
Y0489166D01*
X0347230Y0488500D01*
X0345897D01*
X0345231Y0489166D01*
X0329416Y0418015D02*
Y0414683D01*
X0330083Y0414016D01*
X0331416D01*
X0332082Y0414683D01*
Y0418015D01*
X0333415Y0414016D02*
X0334748D01*
X0334081D01*
Y0418015D01*
X0333415Y0417348D01*
X0338747Y0414016D02*
Y0418015D01*
X0336747Y0416015D01*
X0339413D01*
X0546116Y0365615D02*
Y0362283D01*
X0546783Y0361616D01*
X0548115D01*
X0548782Y0362283D01*
Y0365615D01*
X0550115Y0361616D02*
X0551448D01*
X0550781D01*
Y0365615D01*
X0550115Y0364948D01*
X0553447D02*
X0554114Y0365615D01*
X0555446D01*
X0556113Y0364948D01*
Y0364282D01*
X0555446Y0363615D01*
X0554780D01*
X0555446D01*
X0556113Y0362949D01*
Y0362283D01*
X0555446Y0361616D01*
X0554114D01*
X0553447Y0362283D01*
X0510816Y0435815D02*
Y0432483D01*
X0511483Y0431816D01*
X0512816D01*
X0513482Y0432483D01*
Y0435815D01*
X0514815Y0431816D02*
X0516148D01*
X0515481D01*
Y0435815D01*
X0514815Y0435148D01*
X0520813Y0431816D02*
X0518147D01*
X0520813Y0434482D01*
Y0435148D01*
X0520147Y0435815D01*
X0518814D01*
X0518147Y0435148D01*
X0410900Y0306248D02*
Y0302916D01*
X0411566Y0302250D01*
X0412899D01*
X0413566Y0302916D01*
Y0306248D01*
X0414899Y0302916D02*
X0415565Y0302250D01*
X0416898D01*
X0417564Y0302916D01*
Y0305582D01*
X0416898Y0306248D01*
X0415565D01*
X0414899Y0305582D01*
Y0304915D01*
X0415565Y0304249D01*
X0417564D01*
X0367800Y0296299D02*
Y0292966D01*
X0368466Y0292300D01*
X0369799D01*
X0370466Y0292966D01*
Y0296299D01*
X0371799Y0295632D02*
X0372465Y0296299D01*
X0373798D01*
X0374465Y0295632D01*
Y0294966D01*
X0373798Y0294299D01*
X0374465Y0293633D01*
Y0292966D01*
X0373798Y0292300D01*
X0372465D01*
X0371799Y0292966D01*
Y0293633D01*
X0372465Y0294299D01*
X0371799Y0294966D01*
Y0295632D01*
X0372465Y0294299D02*
X0373798D01*
X0526316Y0291415D02*
Y0288083D01*
X0526983Y0287416D01*
X0528315D01*
X0528982Y0288083D01*
Y0291415D01*
X0530315D02*
X0532981D01*
Y0290748D01*
X0530315Y0288083D01*
Y0287416D01*
X0203216Y0328315D02*
Y0324983D01*
X0203883Y0324316D01*
X0205216D01*
X0205882Y0324983D01*
Y0328315D01*
X0209881D02*
X0208548Y0327648D01*
X0207215Y0326315D01*
Y0324983D01*
X0207881Y0324316D01*
X0209214D01*
X0209881Y0324983D01*
Y0325649D01*
X0209214Y0326315D01*
X0207215D01*
X0152700Y0365299D02*
Y0361966D01*
X0153366Y0361300D01*
X0154699D01*
X0155366Y0361966D01*
Y0365299D01*
X0159364D02*
X0156699D01*
Y0363299D01*
X0158032Y0363966D01*
X0158698D01*
X0159364Y0363299D01*
Y0361966D01*
X0158698Y0361300D01*
X0157365D01*
X0156699Y0361966D01*
X0274316Y0343915D02*
Y0340583D01*
X0274983Y0339916D01*
X0276315D01*
X0276982Y0340583D01*
Y0343915D01*
X0280314Y0339916D02*
Y0343915D01*
X0278315Y0341915D01*
X0280981D01*
X0318715Y0297916D02*
X0315383D01*
X0314716Y0297250D01*
Y0295917D01*
X0315383Y0295250D01*
X0318715D01*
X0318048Y0293917D02*
X0318715Y0293251D01*
Y0291918D01*
X0318048Y0291252D01*
X0317382D01*
X0316716Y0291918D01*
Y0292585D01*
Y0291918D01*
X0316049Y0291252D01*
X0315383D01*
X0314716Y0291918D01*
Y0293251D01*
X0315383Y0293917D01*
X0246616Y0396615D02*
Y0393283D01*
X0247283Y0392616D01*
X0248616D01*
X0249282Y0393283D01*
Y0396615D01*
X0253281Y0392616D02*
X0250615D01*
X0253281Y0395282D01*
Y0395948D01*
X0252614Y0396615D01*
X0251281D01*
X0250615Y0395948D01*
X0209816Y0425015D02*
Y0421683D01*
X0210483Y0421016D01*
X0211816D01*
X0212482Y0421683D01*
Y0425015D01*
X0213815Y0421016D02*
X0215148D01*
X0214481D01*
Y0425015D01*
X0213815Y0424348D01*
X0299300Y0490799D02*
X0301966D01*
X0300633D01*
Y0486800D01*
X0303299D02*
Y0490799D01*
X0305298D01*
X0305964Y0490132D01*
Y0488799D01*
X0305298Y0488133D01*
X0303299D01*
X0309963Y0490799D02*
X0308630Y0490132D01*
X0307297Y0488799D01*
Y0487466D01*
X0307964Y0486800D01*
X0309297D01*
X0309963Y0487466D01*
Y0488133D01*
X0309297Y0488799D01*
X0307297D01*
X0306716Y0454255D02*
X0309382D01*
X0308049D01*
Y0450256D01*
X0310715D02*
Y0454255D01*
X0312714D01*
X0313381Y0453589D01*
Y0452256D01*
X0312714Y0451589D01*
X0310715D01*
X0317379Y0454255D02*
X0314714D01*
Y0452256D01*
X0316047Y0452922D01*
X0316713D01*
X0317379Y0452256D01*
Y0450923D01*
X0316713Y0450256D01*
X0315380D01*
X0314714Y0450923D01*
X0317400Y0473099D02*
X0320066D01*
X0318733D01*
Y0469100D01*
X0321399D02*
Y0473099D01*
X0323398D01*
X0324064Y0472432D01*
Y0471099D01*
X0323398Y0470433D01*
X0321399D01*
X0327397Y0469100D02*
Y0473099D01*
X0325397Y0471099D01*
X0328063D01*
X0397416Y0312815D02*
X0400082D01*
X0398749D01*
Y0308816D01*
X0401415D02*
Y0312815D01*
X0403414D01*
X0404081Y0312148D01*
Y0310816D01*
X0403414Y0310149D01*
X0401415D01*
X0405414Y0312148D02*
X0406080Y0312815D01*
X0407413D01*
X0408079Y0312148D01*
Y0311482D01*
X0407413Y0310816D01*
X0406746D01*
X0407413D01*
X0408079Y0310149D01*
Y0309483D01*
X0407413Y0308816D01*
X0406080D01*
X0405414Y0309483D01*
X0199416Y0360815D02*
X0202082D01*
X0200749D01*
Y0356816D01*
X0203415D02*
Y0360815D01*
X0205414D01*
X0206081Y0360148D01*
Y0358816D01*
X0205414Y0358149D01*
X0203415D01*
X0210079Y0356816D02*
X0207414D01*
X0210079Y0359482D01*
Y0360148D01*
X0209413Y0360815D01*
X0208080D01*
X0207414Y0360148D01*
X0218716Y0360515D02*
X0221382D01*
X0220049D01*
Y0356516D01*
X0222715D02*
Y0360515D01*
X0224714D01*
X0225381Y0359848D01*
Y0358516D01*
X0224714Y0357849D01*
X0222715D01*
X0226714Y0356516D02*
X0228046D01*
X0227380D01*
Y0360515D01*
X0226714Y0359848D01*
X0283316Y0456416D02*
Y0460415D01*
X0285315D01*
X0285982Y0459748D01*
Y0458416D01*
X0285315Y0457749D01*
X0283316D01*
X0284649D02*
X0285982Y0456416D01*
X0287315D02*
X0288648D01*
X0287981D01*
Y0460415D01*
X0287315Y0459748D01*
X0290647Y0457083D02*
X0291314Y0456416D01*
X0292647D01*
X0293313Y0457083D01*
Y0459748D01*
X0292647Y0460415D01*
X0291314D01*
X0290647Y0459748D01*
Y0459082D01*
X0291314Y0458416D01*
X0293313D01*
X0282216Y0433936D02*
Y0437935D01*
X0284215D01*
X0284882Y0437268D01*
Y0435935D01*
X0284215Y0435269D01*
X0282216D01*
X0283549D02*
X0284882Y0433936D01*
X0286215D02*
X0287548D01*
X0286881D01*
Y0437935D01*
X0286215Y0437268D01*
X0289547D02*
X0290214Y0437935D01*
X0291547D01*
X0292213Y0437268D01*
Y0436602D01*
X0291547Y0435935D01*
X0292213Y0435269D01*
Y0434602D01*
X0291547Y0433936D01*
X0290214D01*
X0289547Y0434602D01*
Y0435269D01*
X0290214Y0435935D01*
X0289547Y0436602D01*
Y0437268D01*
X0290214Y0435935D02*
X0291547D01*
X0470416Y0410816D02*
Y0414815D01*
X0472415D01*
X0473082Y0414148D01*
Y0412816D01*
X0472415Y0412149D01*
X0470416D01*
X0471749D02*
X0473082Y0410816D01*
X0474415D02*
X0475748D01*
X0475081D01*
Y0414815D01*
X0474415Y0414148D01*
X0477747Y0414815D02*
X0480413D01*
Y0414148D01*
X0477747Y0411483D01*
Y0410816D01*
X0466216Y0388216D02*
Y0392215D01*
X0468216D01*
X0468882Y0391548D01*
Y0390215D01*
X0468216Y0389549D01*
X0466216D01*
X0467549D02*
X0468882Y0388216D01*
X0470215D02*
X0471548D01*
X0470881D01*
Y0392215D01*
X0470215Y0391548D01*
X0476213Y0392215D02*
X0474880Y0391548D01*
X0473547Y0390215D01*
Y0388883D01*
X0474214Y0388216D01*
X0475547D01*
X0476213Y0388883D01*
Y0389549D01*
X0475547Y0390215D01*
X0473547D01*
X0275600Y0392400D02*
Y0396399D01*
X0277599D01*
X0278266Y0395732D01*
Y0394399D01*
X0277599Y0393733D01*
X0275600D01*
X0276933D02*
X0278266Y0392400D01*
X0279599D02*
X0280932D01*
X0280265D01*
Y0396399D01*
X0279599Y0395732D01*
X0282931D02*
X0283597Y0396399D01*
X0284930D01*
X0285597Y0395732D01*
Y0395066D01*
X0284930Y0394399D01*
X0284264D01*
X0284930D01*
X0285597Y0393733D01*
Y0393066D01*
X0284930Y0392400D01*
X0283597D01*
X0282931Y0393066D01*
X0230116Y0346616D02*
Y0350615D01*
X0232116D01*
X0232782Y0349948D01*
Y0348616D01*
X0232116Y0347949D01*
X0230116D01*
X0231449D02*
X0232782Y0346616D01*
X0234115D02*
X0235448D01*
X0234781D01*
Y0350615D01*
X0234115Y0349948D01*
X0240113Y0346616D02*
X0237447D01*
X0240113Y0349282D01*
Y0349948D01*
X0239446Y0350615D01*
X0238114D01*
X0237447Y0349948D01*
X0232816Y0361416D02*
Y0365415D01*
X0234816D01*
X0235482Y0364748D01*
Y0363416D01*
X0234816Y0362749D01*
X0232816D01*
X0234149D02*
X0235482Y0361416D01*
X0236815D02*
X0238148D01*
X0237481D01*
Y0365415D01*
X0236815Y0364748D01*
X0240147Y0361416D02*
X0241480D01*
X0240814D01*
Y0365415D01*
X0240147Y0364748D01*
X0243716Y0346476D02*
Y0350475D01*
X0245715D01*
X0246382Y0349808D01*
Y0348475D01*
X0245715Y0347809D01*
X0243716D01*
X0245049D02*
X0246382Y0346476D01*
X0247715D02*
X0249048D01*
X0248381D01*
Y0350475D01*
X0247715Y0349808D01*
X0251047D02*
X0251714Y0350475D01*
X0253046D01*
X0253713Y0349808D01*
Y0347143D01*
X0253046Y0346476D01*
X0251714D01*
X0251047Y0347143D01*
Y0349808D01*
X0187916Y0366716D02*
Y0370715D01*
X0189916D01*
X0190582Y0370048D01*
Y0368716D01*
X0189916Y0368049D01*
X0187916D01*
X0189249D02*
X0190582Y0366716D01*
X0191915Y0367383D02*
X0192581Y0366716D01*
X0193914D01*
X0194581Y0367383D01*
Y0370048D01*
X0193914Y0370715D01*
X0192581D01*
X0191915Y0370048D01*
Y0369382D01*
X0192581Y0368716D01*
X0194581D01*
X0212116Y0379116D02*
Y0383115D01*
X0214116D01*
X0214782Y0382448D01*
Y0381116D01*
X0214116Y0380449D01*
X0212116D01*
X0213449D02*
X0214782Y0379116D01*
X0216115Y0382448D02*
X0216781Y0383115D01*
X0218114D01*
X0218781Y0382448D01*
Y0381782D01*
X0218114Y0381116D01*
X0218781Y0380449D01*
Y0379783D01*
X0218114Y0379116D01*
X0216781D01*
X0216115Y0379783D01*
Y0380449D01*
X0216781Y0381116D01*
X0216115Y0381782D01*
Y0382448D01*
X0216781Y0381116D02*
X0218114D01*
X0203316Y0378616D02*
Y0382615D01*
X0205315D01*
X0205982Y0381948D01*
Y0380615D01*
X0205315Y0379949D01*
X0203316D01*
X0204649D02*
X0205982Y0378616D01*
X0207315Y0382615D02*
X0209981D01*
Y0381948D01*
X0207315Y0379283D01*
Y0378616D01*
X0161016Y0418673D02*
Y0422672D01*
X0163015D01*
X0163682Y0422005D01*
Y0420672D01*
X0163015Y0420006D01*
X0161016D01*
X0162349D02*
X0163682Y0418673D01*
X0167681Y0422672D02*
X0166348Y0422005D01*
X0165015Y0420672D01*
Y0419339D01*
X0165681Y0418673D01*
X0167014D01*
X0167681Y0419339D01*
Y0420006D01*
X0167014Y0420672D01*
X0165015D01*
X0168476Y0385616D02*
Y0389615D01*
X0170475D01*
X0171142Y0388948D01*
Y0387615D01*
X0170475Y0386949D01*
X0168476D01*
X0169809D02*
X0171142Y0385616D01*
X0175141Y0389615D02*
X0172475D01*
Y0387615D01*
X0173808Y0388282D01*
X0174474D01*
X0175141Y0387615D01*
Y0386283D01*
X0174474Y0385616D01*
X0173141D01*
X0172475Y0386283D01*
X0220916Y0429916D02*
Y0433915D01*
X0222916D01*
X0223582Y0433248D01*
Y0431916D01*
X0222916Y0431249D01*
X0220916D01*
X0222249D02*
X0223582Y0429916D01*
X0226914D02*
Y0433915D01*
X0224915Y0431916D01*
X0227581D01*
X0162076Y0373716D02*
Y0377715D01*
X0164075D01*
X0164742Y0377048D01*
Y0375715D01*
X0164075Y0375049D01*
X0162076D01*
X0163409D02*
X0164742Y0373716D01*
X0166075Y0377048D02*
X0166741Y0377715D01*
X0168074D01*
X0168740Y0377048D01*
Y0376382D01*
X0168074Y0375715D01*
X0167408D01*
X0168074D01*
X0168740Y0375049D01*
Y0374383D01*
X0168074Y0373716D01*
X0166741D01*
X0166075Y0374383D01*
X0228316Y0405556D02*
Y0409555D01*
X0230315D01*
X0230982Y0408889D01*
Y0407556D01*
X0230315Y0406889D01*
X0228316D01*
X0229649D02*
X0230982Y0405556D01*
X0234981D02*
X0232315D01*
X0234981Y0408222D01*
Y0408889D01*
X0234314Y0409555D01*
X0232981D01*
X0232315Y0408889D01*
X0231016Y0429716D02*
Y0433715D01*
X0233015D01*
X0233682Y0433048D01*
Y0431715D01*
X0233015Y0431049D01*
X0231016D01*
X0232349D02*
X0233682Y0429716D01*
X0235015D02*
X0236348D01*
X0235681D01*
Y0433715D01*
X0235015Y0433048D01*
X0416416Y0157916D02*
Y0161915D01*
X0418415D01*
X0419082Y0161248D01*
Y0159915D01*
X0418415Y0159249D01*
X0416416D01*
X0423081Y0157916D02*
X0420415D01*
X0423081Y0160582D01*
Y0161248D01*
X0422414Y0161915D01*
X0421081D01*
X0420415Y0161248D01*
X0327116Y0417917D02*
Y0421916D01*
X0324450D01*
X0323117Y0418584D02*
X0322451Y0417917D01*
X0321118D01*
X0320452Y0418584D01*
Y0419250D01*
X0321118Y0419917D01*
X0321785D01*
X0321118D01*
X0320452Y0420583D01*
Y0421250D01*
X0321118Y0421916D01*
X0322451D01*
X0323117Y0421250D01*
X0407316Y0441815D02*
Y0437816D01*
X0409982D01*
X0413981D02*
X0411315D01*
X0413981Y0440482D01*
Y0441148D01*
X0413314Y0441815D01*
X0411981D01*
X0411315Y0441148D01*
X0431916Y0416015D02*
Y0412016D01*
X0434582D01*
X0435915D02*
X0437248D01*
X0436581D01*
Y0416015D01*
X0435915Y0415348D01*
X0456382Y0491415D02*
X0455049D01*
X0455716D01*
Y0488083D01*
X0455049Y0487416D01*
X0454383D01*
X0453716Y0488083D01*
X0457715Y0490748D02*
X0458381Y0491415D01*
X0459714D01*
X0460381Y0490748D01*
Y0490082D01*
X0459714Y0489416D01*
X0459048D01*
X0459714D01*
X0460381Y0488749D01*
Y0488083D01*
X0459714Y0487416D01*
X0458381D01*
X0457715Y0488083D01*
X0185805Y0491438D02*
X0184472D01*
X0185138D01*
Y0488105D01*
X0184472Y0487439D01*
X0183805D01*
X0183139Y0488105D01*
X0187138Y0487439D02*
X0188471D01*
X0187804D01*
Y0491438D01*
X0187138Y0490771D01*
X0233016Y0463215D02*
Y0459216D01*
X0235016D01*
X0235682Y0459883D01*
Y0462548D01*
X0235016Y0463215D01*
X0233016D01*
X0239681Y0459216D02*
X0237015D01*
X0239681Y0461882D01*
Y0462548D01*
X0239014Y0463215D01*
X0237681D01*
X0237015Y0462548D01*
X0238816Y0475415D02*
Y0471416D01*
X0240815D01*
X0241482Y0472083D01*
Y0474748D01*
X0240815Y0475415D01*
X0238816D01*
X0242815Y0471416D02*
X0244148D01*
X0243481D01*
Y0475415D01*
X0242815Y0474748D01*
X0329882Y0317008D02*
X0329216Y0317675D01*
X0327883D01*
X0327216Y0317008D01*
Y0314342D01*
X0327883Y0313676D01*
X0329216D01*
X0329882Y0314342D01*
X0333881Y0317675D02*
X0331215D01*
Y0315675D01*
X0332548Y0316342D01*
X0333214D01*
X0333881Y0315675D01*
Y0314342D01*
X0333214Y0313676D01*
X0331881D01*
X0331215Y0314342D01*
X0337879Y0317675D02*
X0335214D01*
Y0315675D01*
X0336546Y0316342D01*
X0337213D01*
X0337879Y0315675D01*
Y0314342D01*
X0337213Y0313676D01*
X0335880D01*
X0335214Y0314342D01*
X0225482Y0171348D02*
X0224816Y0172015D01*
X0223483D01*
X0222816Y0171348D01*
Y0168683D01*
X0223483Y0168016D01*
X0224816D01*
X0225482Y0168683D01*
X0229481Y0172015D02*
X0226815D01*
Y0170016D01*
X0228148Y0170682D01*
X0228814D01*
X0229481Y0170016D01*
Y0168683D01*
X0228814Y0168016D01*
X0227481D01*
X0226815Y0168683D01*
X0232813Y0168016D02*
Y0172015D01*
X0230814Y0170016D01*
X0233479D01*
X0300582Y0153048D02*
X0299916Y0153715D01*
X0298583D01*
X0297916Y0153048D01*
Y0150383D01*
X0298583Y0149716D01*
X0299916D01*
X0300582Y0150383D01*
X0304581Y0153715D02*
X0301915D01*
Y0151716D01*
X0303248Y0152382D01*
X0303914D01*
X0304581Y0151716D01*
Y0150383D01*
X0303914Y0149716D01*
X0302581D01*
X0301915Y0150383D01*
X0305914Y0153048D02*
X0306580Y0153715D01*
X0307913D01*
X0308579Y0153048D01*
Y0152382D01*
X0307913Y0151716D01*
X0307246D01*
X0307913D01*
X0308579Y0151049D01*
Y0150383D01*
X0307913Y0149716D01*
X0306580D01*
X0305914Y0150383D01*
X0428982Y0130548D02*
X0428315Y0131215D01*
X0426983D01*
X0426316Y0130548D01*
Y0127883D01*
X0426983Y0127216D01*
X0428315D01*
X0428982Y0127883D01*
X0432981Y0131215D02*
X0430315D01*
Y0129216D01*
X0431648Y0129882D01*
X0432314D01*
X0432981Y0129216D01*
Y0127883D01*
X0432314Y0127216D01*
X0430981D01*
X0430315Y0127883D01*
X0436979Y0127216D02*
X0434314D01*
X0436979Y0129882D01*
Y0130548D01*
X0436313Y0131215D01*
X0434980D01*
X0434314Y0130548D01*
X0306782Y0463348D02*
X0306116Y0464015D01*
X0304783D01*
X0304116Y0463348D01*
Y0460683D01*
X0304783Y0460016D01*
X0306116D01*
X0306782Y0460683D01*
X0310781Y0464015D02*
X0308115D01*
Y0462015D01*
X0309448Y0462682D01*
X0310114D01*
X0310781Y0462015D01*
Y0460683D01*
X0310114Y0460016D01*
X0308781D01*
X0308115Y0460683D01*
X0312114Y0460016D02*
X0313446D01*
X0312780D01*
Y0464015D01*
X0312114Y0463348D01*
X0271482Y0483548D02*
X0270815Y0484215D01*
X0269483D01*
X0268816Y0483548D01*
Y0480883D01*
X0269483Y0480216D01*
X0270815D01*
X0271482Y0480883D01*
X0275481Y0484215D02*
X0272815D01*
Y0482215D01*
X0274148Y0482882D01*
X0274814D01*
X0275481Y0482215D01*
Y0480883D01*
X0274814Y0480216D01*
X0273481D01*
X0272815Y0480883D01*
X0276814Y0483548D02*
X0277480Y0484215D01*
X0278813D01*
X0279479Y0483548D01*
Y0480883D01*
X0278813Y0480216D01*
X0277480D01*
X0276814Y0480883D01*
Y0483548D01*
X0299766Y0430332D02*
X0299099Y0430999D01*
X0297766D01*
X0297100Y0430332D01*
Y0427666D01*
X0297766Y0427000D01*
X0299099D01*
X0299766Y0427666D01*
X0303098Y0427000D02*
Y0430999D01*
X0301099Y0428999D01*
X0303765D01*
X0305097Y0427666D02*
X0305764Y0427000D01*
X0307097D01*
X0307763Y0427666D01*
Y0430332D01*
X0307097Y0430999D01*
X0305764D01*
X0305097Y0430332D01*
Y0429666D01*
X0305764Y0428999D01*
X0307763D01*
X0324682Y0446448D02*
X0324015Y0447115D01*
X0322683D01*
X0322016Y0446448D01*
Y0443783D01*
X0322683Y0443116D01*
X0324015D01*
X0324682Y0443783D01*
X0328014Y0443116D02*
Y0447115D01*
X0326015Y0445116D01*
X0328681D01*
X0330014Y0446448D02*
X0330680Y0447115D01*
X0332013D01*
X0332679Y0446448D01*
Y0445782D01*
X0332013Y0445116D01*
X0332679Y0444449D01*
Y0443783D01*
X0332013Y0443116D01*
X0330680D01*
X0330014Y0443783D01*
Y0444449D01*
X0330680Y0445116D01*
X0330014Y0445782D01*
Y0446448D01*
X0330680Y0445116D02*
X0332013D01*
X0322182Y0391948D02*
X0321515Y0392615D01*
X0320183D01*
X0319516Y0391948D01*
Y0389283D01*
X0320183Y0388616D01*
X0321515D01*
X0322182Y0389283D01*
X0325514Y0388616D02*
Y0392615D01*
X0323515Y0390616D01*
X0326181D01*
X0327514Y0392615D02*
X0330179D01*
Y0391948D01*
X0327514Y0389283D01*
Y0388616D01*
X0408082Y0425148D02*
X0407415Y0425815D01*
X0406083D01*
X0405416Y0425148D01*
Y0422483D01*
X0406083Y0421816D01*
X0407415D01*
X0408082Y0422483D01*
X0411414Y0421816D02*
Y0425815D01*
X0409415Y0423815D01*
X0412081D01*
X0416079Y0425815D02*
X0414747Y0425148D01*
X0413414Y0423815D01*
Y0422483D01*
X0414080Y0421816D01*
X0415413D01*
X0416079Y0422483D01*
Y0423149D01*
X0415413Y0423815D01*
X0413414D01*
X0394182Y0453348D02*
X0393515Y0454015D01*
X0392183D01*
X0391516Y0453348D01*
Y0450683D01*
X0392183Y0450016D01*
X0393515D01*
X0394182Y0450683D01*
X0397514Y0450016D02*
Y0454015D01*
X0395515Y0452015D01*
X0398181D01*
X0402179Y0454015D02*
X0399514D01*
Y0452015D01*
X0400846Y0452682D01*
X0401513D01*
X0402179Y0452015D01*
Y0450683D01*
X0401513Y0450016D01*
X0400180D01*
X0399514Y0450683D01*
X0411382Y0234648D02*
X0410715Y0235315D01*
X0409383D01*
X0408716Y0234648D01*
Y0231983D01*
X0409383Y0231316D01*
X0410715D01*
X0411382Y0231983D01*
X0414714Y0231316D02*
Y0235315D01*
X0412715Y0233315D01*
X0415381D01*
X0418713Y0231316D02*
Y0235315D01*
X0416714Y0233315D01*
X0419379D01*
X0439382Y0435948D02*
X0438716Y0436615D01*
X0437383D01*
X0436716Y0435948D01*
Y0433283D01*
X0437383Y0432616D01*
X0438716D01*
X0439382Y0433283D01*
X0442714Y0432616D02*
Y0436615D01*
X0440715Y0434616D01*
X0443381D01*
X0444714Y0435948D02*
X0445380Y0436615D01*
X0446713D01*
X0447379Y0435948D01*
Y0435282D01*
X0446713Y0434616D01*
X0446046D01*
X0446713D01*
X0447379Y0433949D01*
Y0433283D01*
X0446713Y0432616D01*
X0445380D01*
X0444714Y0433283D01*
X0507166Y0377832D02*
X0506499Y0378499D01*
X0505166D01*
X0504500Y0377832D01*
Y0375166D01*
X0505166Y0374500D01*
X0506499D01*
X0507166Y0375166D01*
X0510498Y0374500D02*
Y0378499D01*
X0508499Y0376499D01*
X0511165D01*
X0515163Y0374500D02*
X0512497D01*
X0515163Y0377166D01*
Y0377832D01*
X0514497Y0378499D01*
X0513164D01*
X0512497Y0377832D01*
X0570382Y0381748D02*
X0569715Y0382415D01*
X0568383D01*
X0567716Y0381748D01*
Y0379083D01*
X0568383Y0378416D01*
X0569715D01*
X0570382Y0379083D01*
X0573714Y0378416D02*
Y0382415D01*
X0571715Y0380416D01*
X0574381D01*
X0575714Y0378416D02*
X0577046D01*
X0576380D01*
Y0382415D01*
X0575714Y0381748D01*
X0549166Y0418932D02*
X0548499Y0419599D01*
X0547166D01*
X0546500Y0418932D01*
Y0416266D01*
X0547166Y0415600D01*
X0548499D01*
X0549166Y0416266D01*
X0552498Y0415600D02*
Y0419599D01*
X0550499Y0417599D01*
X0553164D01*
X0554497Y0418932D02*
X0555164Y0419599D01*
X0556497D01*
X0557163Y0418932D01*
Y0416266D01*
X0556497Y0415600D01*
X0555164D01*
X0554497Y0416266D01*
Y0418932D01*
X0488882Y0418110D02*
X0488215Y0418776D01*
X0486883D01*
X0486216Y0418110D01*
Y0415444D01*
X0486883Y0414778D01*
X0488215D01*
X0488882Y0415444D01*
X0490215Y0418110D02*
X0490881Y0418776D01*
X0492214D01*
X0492881Y0418110D01*
Y0417443D01*
X0492214Y0416777D01*
X0491548D01*
X0492214D01*
X0492881Y0416111D01*
Y0415444D01*
X0492214Y0414778D01*
X0490881D01*
X0490215Y0415444D01*
X0494214D02*
X0494880Y0414778D01*
X0496213D01*
X0496879Y0415444D01*
Y0418110D01*
X0496213Y0418776D01*
X0494880D01*
X0494214Y0418110D01*
Y0417443D01*
X0494880Y0416777D01*
X0496879D01*
X0425866Y0436132D02*
X0425199Y0436799D01*
X0423866D01*
X0423200Y0436132D01*
Y0433466D01*
X0423866Y0432800D01*
X0425199D01*
X0425866Y0433466D01*
X0427199Y0436132D02*
X0427865Y0436799D01*
X0429198D01*
X0429865Y0436132D01*
Y0435466D01*
X0429198Y0434799D01*
X0428532D01*
X0429198D01*
X0429865Y0434133D01*
Y0433466D01*
X0429198Y0432800D01*
X0427865D01*
X0427199Y0433466D01*
X0431197Y0436132D02*
X0431864Y0436799D01*
X0433197D01*
X0433863Y0436132D01*
Y0435466D01*
X0433197Y0434799D01*
X0433863Y0434133D01*
Y0433466D01*
X0433197Y0432800D01*
X0431864D01*
X0431197Y0433466D01*
Y0434133D01*
X0431864Y0434799D01*
X0431197Y0435466D01*
Y0436132D01*
X0431864Y0434799D02*
X0433197D01*
X0168766Y0260132D02*
X0168099Y0260799D01*
X0166767D01*
X0166100Y0260132D01*
Y0257466D01*
X0166767Y0256800D01*
X0168099D01*
X0168766Y0257466D01*
X0172765Y0256800D02*
X0170099D01*
X0172765Y0259466D01*
Y0260132D01*
X0172098Y0260799D01*
X0170765D01*
X0170099Y0260132D01*
X0176763Y0260799D02*
X0175430Y0260132D01*
X0174097Y0258799D01*
Y0257466D01*
X0174764Y0256800D01*
X0176097D01*
X0176763Y0257466D01*
Y0258133D01*
X0176097Y0258799D01*
X0174097D01*
X0547882Y0337848D02*
X0547216Y0338515D01*
X0545883D01*
X0545216Y0337848D01*
Y0335183D01*
X0545883Y0334516D01*
X0547216D01*
X0547882Y0335183D01*
X0551881Y0334516D02*
X0549215D01*
X0551881Y0337182D01*
Y0337848D01*
X0551214Y0338515D01*
X0549881D01*
X0549215Y0337848D01*
X0555879Y0338515D02*
X0553214D01*
Y0336515D01*
X0554546Y0337182D01*
X0555213D01*
X0555879Y0336515D01*
Y0335183D01*
X0555213Y0334516D01*
X0553880D01*
X0553214Y0335183D01*
X0439982Y0192848D02*
X0439316Y0193515D01*
X0437983D01*
X0437316Y0192848D01*
Y0190183D01*
X0437983Y0189516D01*
X0439316D01*
X0439982Y0190183D01*
X0443981Y0189516D02*
X0441315D01*
X0443981Y0192182D01*
Y0192848D01*
X0443314Y0193515D01*
X0441981D01*
X0441315Y0192848D01*
X0447313Y0189516D02*
Y0193515D01*
X0445314Y0191516D01*
X0447979D01*
X0444882Y0129948D02*
X0444215Y0130615D01*
X0442883D01*
X0442216Y0129948D01*
Y0127283D01*
X0442883Y0126616D01*
X0444215D01*
X0444882Y0127283D01*
X0448881Y0126616D02*
X0446215D01*
X0448881Y0129282D01*
Y0129948D01*
X0448214Y0130615D01*
X0446881D01*
X0446215Y0129948D01*
X0450214D02*
X0450880Y0130615D01*
X0452213D01*
X0452879Y0129948D01*
Y0129282D01*
X0452213Y0128615D01*
X0451546D01*
X0452213D01*
X0452879Y0127949D01*
Y0127283D01*
X0452213Y0126616D01*
X0450880D01*
X0450214Y0127283D01*
X0275682Y0175589D02*
X0275015Y0176255D01*
X0273683D01*
X0273016Y0175589D01*
Y0172923D01*
X0273683Y0172256D01*
X0275015D01*
X0275682Y0172923D01*
X0279681Y0172256D02*
X0277015D01*
X0279681Y0174922D01*
Y0175589D01*
X0279014Y0176255D01*
X0277681D01*
X0277015Y0175589D01*
X0283679Y0172256D02*
X0281014D01*
X0283679Y0174922D01*
Y0175589D01*
X0283013Y0176255D01*
X0281680D01*
X0281014Y0175589D01*
X0488854Y0242348D02*
X0488187Y0243015D01*
X0486854D01*
X0486188Y0242348D01*
Y0239683D01*
X0486854Y0239016D01*
X0488187D01*
X0488854Y0239683D01*
X0492852Y0239016D02*
X0490187D01*
X0492852Y0241682D01*
Y0242348D01*
X0492186Y0243015D01*
X0490853D01*
X0490187Y0242348D01*
X0494185Y0239016D02*
X0495518D01*
X0494852D01*
Y0243015D01*
X0494185Y0242348D01*
X0316382Y0333948D02*
X0315716Y0334615D01*
X0314383D01*
X0313716Y0333948D01*
Y0331283D01*
X0314383Y0330616D01*
X0315716D01*
X0316382Y0331283D01*
X0320381Y0330616D02*
X0317715D01*
X0320381Y0333282D01*
Y0333948D01*
X0319714Y0334615D01*
X0318381D01*
X0317715Y0333948D01*
X0321714D02*
X0322380Y0334615D01*
X0323713D01*
X0324379Y0333948D01*
Y0331283D01*
X0323713Y0330616D01*
X0322380D01*
X0321714Y0331283D01*
Y0333948D01*
X0395766Y0134432D02*
X0395099Y0135099D01*
X0393766D01*
X0393100Y0134432D01*
Y0131766D01*
X0393766Y0131100D01*
X0395099D01*
X0395766Y0131766D01*
X0397099Y0131100D02*
X0398432D01*
X0397765D01*
Y0135099D01*
X0397099Y0134432D01*
X0400431Y0131766D02*
X0401097Y0131100D01*
X0402430D01*
X0403097Y0131766D01*
Y0134432D01*
X0402430Y0135099D01*
X0401097D01*
X0400431Y0134432D01*
Y0133766D01*
X0401097Y0133099D01*
X0403097D01*
X0366866Y0212732D02*
X0366199Y0213399D01*
X0364866D01*
X0364200Y0212732D01*
Y0210066D01*
X0364866Y0209400D01*
X0366199D01*
X0366866Y0210066D01*
X0368199Y0209400D02*
X0369532D01*
X0368865D01*
Y0213399D01*
X0368199Y0212732D01*
X0371531D02*
X0372197Y0213399D01*
X0373530D01*
X0374197Y0212732D01*
Y0212066D01*
X0373530Y0211399D01*
X0374197Y0210733D01*
Y0210066D01*
X0373530Y0209400D01*
X0372197D01*
X0371531Y0210066D01*
Y0210733D01*
X0372197Y0211399D01*
X0371531Y0212066D01*
Y0212732D01*
X0372197Y0211399D02*
X0373530D01*
X0218740Y0337348D02*
X0218074Y0338015D01*
X0216741D01*
X0216074Y0337348D01*
Y0334683D01*
X0216741Y0334016D01*
X0218074D01*
X0218740Y0334683D01*
X0220073Y0334016D02*
X0221406D01*
X0220740D01*
Y0338015D01*
X0220073Y0337348D01*
X0223405Y0338015D02*
X0226071D01*
Y0337348D01*
X0223405Y0334683D01*
Y0334016D01*
X0155182Y0321348D02*
X0154516Y0322015D01*
X0153183D01*
X0152516Y0321348D01*
Y0318683D01*
X0153183Y0318016D01*
X0154516D01*
X0155182Y0318683D01*
X0156515Y0318016D02*
X0157848D01*
X0157181D01*
Y0322015D01*
X0156515Y0321348D01*
X0162513Y0322015D02*
X0161180Y0321348D01*
X0159847Y0320016D01*
Y0318683D01*
X0160514Y0318016D01*
X0161846D01*
X0162513Y0318683D01*
Y0319349D01*
X0161846Y0320016D01*
X0159847D01*
X0155582Y0336448D02*
X0154915Y0337115D01*
X0153583D01*
X0152916Y0336448D01*
Y0333783D01*
X0153583Y0333116D01*
X0154915D01*
X0155582Y0333783D01*
X0156915Y0333116D02*
X0158248D01*
X0157581D01*
Y0337115D01*
X0156915Y0336448D01*
X0162913Y0337115D02*
X0160247D01*
Y0335116D01*
X0161580Y0335782D01*
X0162247D01*
X0162913Y0335116D01*
Y0333783D01*
X0162247Y0333116D01*
X0160914D01*
X0160247Y0333783D01*
X0259762Y0352548D02*
X0259095Y0353215D01*
X0257762D01*
X0257096Y0352548D01*
Y0349883D01*
X0257762Y0349216D01*
X0259095D01*
X0259762Y0349883D01*
X0261094Y0349216D02*
X0262427D01*
X0261761D01*
Y0353215D01*
X0261094Y0352548D01*
X0266426Y0349216D02*
Y0353215D01*
X0264427Y0351216D01*
X0267092D01*
X0256082Y0369548D02*
X0255416Y0370215D01*
X0254083D01*
X0253416Y0369548D01*
Y0366883D01*
X0254083Y0366216D01*
X0255416D01*
X0256082Y0366883D01*
X0257415Y0366216D02*
X0258748D01*
X0258081D01*
Y0370215D01*
X0257415Y0369548D01*
X0260747D02*
X0261414Y0370215D01*
X0262747D01*
X0263413Y0369548D01*
Y0368882D01*
X0262747Y0368215D01*
X0262080D01*
X0262747D01*
X0263413Y0367549D01*
Y0366883D01*
X0262747Y0366216D01*
X0261414D01*
X0260747Y0366883D01*
X0245782Y0328348D02*
X0245115Y0329015D01*
X0243783D01*
X0243116Y0328348D01*
Y0325683D01*
X0243783Y0325016D01*
X0245115D01*
X0245782Y0325683D01*
X0247115Y0325016D02*
X0248448D01*
X0247781D01*
Y0329015D01*
X0247115Y0328348D01*
X0253113Y0325016D02*
X0250447D01*
X0253113Y0327682D01*
Y0328348D01*
X0252447Y0329015D01*
X0251114D01*
X0250447Y0328348D01*
X0226082Y0380048D02*
X0225415Y0380715D01*
X0224083D01*
X0223416Y0380048D01*
Y0377383D01*
X0224083Y0376716D01*
X0225415D01*
X0226082Y0377383D01*
X0227415Y0376716D02*
X0228748D01*
X0228081D01*
Y0380715D01*
X0227415Y0380048D01*
X0230747Y0376716D02*
X0232080D01*
X0231414D01*
Y0380715D01*
X0230747Y0380048D01*
X0253282Y0419848D02*
X0252615Y0420515D01*
X0251283D01*
X0250616Y0419848D01*
Y0417183D01*
X0251283Y0416516D01*
X0252615D01*
X0253282Y0417183D01*
X0254615Y0416516D02*
X0255948D01*
X0255281D01*
Y0420515D01*
X0254615Y0419848D01*
X0257947D02*
X0258614Y0420515D01*
X0259946D01*
X0260613Y0419848D01*
Y0417183D01*
X0259946Y0416516D01*
X0258614D01*
X0257947Y0417183D01*
Y0419848D01*
X0270550Y0369884D02*
X0271217Y0369217D01*
X0272550D01*
X0273216Y0369884D01*
Y0372550D01*
X0272550Y0373216D01*
X0271217D01*
X0270550Y0372550D01*
X0269217D02*
X0268551Y0373216D01*
X0267218D01*
X0266552Y0372550D01*
Y0369884D01*
X0267218Y0369217D01*
X0268551D01*
X0269217Y0369884D01*
Y0370550D01*
X0268551Y0371217D01*
X0266552D01*
X0234682Y0328548D02*
X0234015Y0329215D01*
X0232683D01*
X0232016Y0328548D01*
Y0325883D01*
X0232683Y0325216D01*
X0234015D01*
X0234682Y0325883D01*
X0236015Y0328548D02*
X0236681Y0329215D01*
X0238014D01*
X0238681Y0328548D01*
Y0327882D01*
X0238014Y0327216D01*
X0238681Y0326549D01*
Y0325883D01*
X0238014Y0325216D01*
X0236681D01*
X0236015Y0325883D01*
Y0326549D01*
X0236681Y0327216D01*
X0236015Y0327882D01*
Y0328548D01*
X0236681Y0327216D02*
X0238014D01*
X0210382Y0352448D02*
X0209716Y0353115D01*
X0208383D01*
X0207716Y0352448D01*
Y0349783D01*
X0208383Y0349116D01*
X0209716D01*
X0210382Y0349783D01*
X0211715Y0353115D02*
X0214381D01*
Y0352448D01*
X0211715Y0349783D01*
Y0349116D01*
X0179444Y0398982D02*
X0178777Y0398316D01*
Y0396983D01*
X0179444Y0396316D01*
X0182110D01*
X0182776Y0396983D01*
Y0398316D01*
X0182110Y0398982D01*
X0178777Y0402981D02*
X0179444Y0401648D01*
X0180777Y0400315D01*
X0182110D01*
X0182776Y0400981D01*
Y0402314D01*
X0182110Y0402981D01*
X0181443D01*
X0180777Y0402314D01*
Y0400315D01*
X0193566Y0438632D02*
X0192899Y0439299D01*
X0191567D01*
X0190900Y0438632D01*
Y0435966D01*
X0191567Y0435300D01*
X0192899D01*
X0193566Y0435966D01*
X0197564Y0439299D02*
X0194899D01*
Y0437299D01*
X0196232Y0437966D01*
X0196898D01*
X0197564Y0437299D01*
Y0435966D01*
X0196898Y0435300D01*
X0195565D01*
X0194899Y0435966D01*
X0155766Y0442192D02*
X0155099Y0442859D01*
X0153767D01*
X0153100Y0442192D01*
Y0439526D01*
X0153767Y0438860D01*
X0155099D01*
X0155766Y0439526D01*
X0159098Y0438860D02*
Y0442859D01*
X0157099Y0440859D01*
X0159765D01*
X0243366Y0421632D02*
X0242699Y0422299D01*
X0241366D01*
X0240700Y0421632D01*
Y0418966D01*
X0241366Y0418300D01*
X0242699D01*
X0243366Y0418966D01*
X0244699Y0421632D02*
X0245365Y0422299D01*
X0246698D01*
X0247364Y0421632D01*
Y0420966D01*
X0246698Y0420299D01*
X0246032D01*
X0246698D01*
X0247364Y0419633D01*
Y0418966D01*
X0246698Y0418300D01*
X0245365D01*
X0244699Y0418966D01*
X0203282Y0388148D02*
X0202615Y0388815D01*
X0201283D01*
X0200616Y0388148D01*
Y0385483D01*
X0201283Y0384816D01*
X0202615D01*
X0203282Y0385483D01*
X0207281Y0384816D02*
X0204615D01*
X0207281Y0387482D01*
Y0388148D01*
X0206614Y0388815D01*
X0205281D01*
X0204615Y0388148D01*
X0246966Y0449332D02*
X0246299Y0449999D01*
X0244966D01*
X0244300Y0449332D01*
Y0446666D01*
X0244966Y0446000D01*
X0246299D01*
X0246966Y0446666D01*
X0248299Y0446000D02*
X0249632D01*
X0248965D01*
Y0449999D01*
X0248299Y0449332D01*
D18*
X0196916Y0109516D02*
Y0114515D01*
X0199415D01*
X0200248Y0113681D01*
Y0112015D01*
X0199415Y0111182D01*
X0196916D01*
X0198582D02*
X0200248Y0109516D01*
X0201915Y0114515D02*
Y0110349D01*
X0202748Y0109516D01*
X0204414D01*
X0205247Y0110349D01*
Y0114515D01*
X0206913D02*
X0208579D01*
X0207746D01*
Y0109516D01*
X0206913D01*
X0208579D01*
X0216077Y0114515D02*
Y0113681D01*
X0217743Y0112015D01*
X0219409Y0113681D01*
Y0114515D01*
X0217743Y0112015D02*
Y0109516D01*
X0221075Y0114515D02*
Y0110349D01*
X0221908Y0109516D01*
X0223574D01*
X0224407Y0110349D01*
Y0114515D01*
X0226073Y0109516D02*
Y0112848D01*
X0227740Y0114515D01*
X0229406Y0112848D01*
Y0109516D01*
Y0112015D01*
X0226073D01*
X0231072Y0109516D02*
Y0114515D01*
X0234404Y0109516D01*
Y0114515D01*
X0241069Y0113681D02*
X0241902Y0114515D01*
X0243568D01*
X0244401Y0113681D01*
Y0112848D01*
X0243568Y0112015D01*
X0244401Y0111182D01*
Y0110349D01*
X0243568Y0109516D01*
X0241902D01*
X0241069Y0110349D01*
Y0111182D01*
X0241902Y0112015D01*
X0241069Y0112848D01*
Y0113681D01*
X0241902Y0112015D02*
X0243568D01*
X0246067Y0109516D02*
X0247733D01*
X0246900D01*
Y0114515D01*
X0246067Y0113681D01*
X0250232D02*
X0251065Y0114515D01*
X0252731D01*
X0253565Y0113681D01*
Y0112848D01*
X0252731Y0112015D01*
X0251898D01*
X0252731D01*
X0253565Y0111182D01*
Y0110349D01*
X0252731Y0109516D01*
X0251065D01*
X0250232Y0110349D01*
X0255231D02*
X0256064Y0109516D01*
X0257730D01*
X0258563Y0110349D01*
Y0113681D01*
X0257730Y0114515D01*
X0256064D01*
X0255231Y0113681D01*
Y0112848D01*
X0256064Y0112015D01*
X0258563D01*
X0263561Y0109516D02*
X0260229D01*
X0263561Y0112848D01*
Y0113681D01*
X0262728Y0114515D01*
X0261062D01*
X0260229Y0113681D01*
X0265227Y0114515D02*
X0268560D01*
Y0113681D01*
X0265227Y0110349D01*
Y0109516D01*
M02*
