G04*
G04 #@! TF.GenerationSoftware,Altium Limited,Altium Designer,18.1.3 (115)*
G04*
G04 Layer_Color=32768*
%FSAX25Y25*%
%MOIN*%
G70*
G01*
G75*
%ADD99C,0.00394*%
%ADD100C,0.00197*%
D99*
X0199516Y0407948D02*
Y0411885D01*
X0197548Y0409916D02*
X0201485D01*
X0287348Y0284116D02*
X0291285D01*
X0289316Y0282148D02*
Y0286085D01*
X0288716Y0323448D02*
Y0327385D01*
X0286748Y0325416D02*
X0290685D01*
X0248148Y0384316D02*
X0252085D01*
X0250116Y0382348D02*
Y0386285D01*
X0321848Y0404311D02*
X0325785D01*
X0323816Y0402343D02*
Y0406280D01*
X0409116Y0186548D02*
Y0190485D01*
X0407148Y0188516D02*
X0411085D01*
D100*
X0265891Y0257541D02*
Y0310691D01*
X0312741Y0257541D02*
Y0310691D01*
X0265891D02*
X0312741D01*
X0265891Y0257541D02*
X0312741D01*
X0271000Y0312030D02*
X0306433D01*
X0271000Y0338802D02*
X0306433D01*
X0271000Y0312030D02*
Y0338802D01*
X0306433Y0312030D02*
Y0338802D01*
X0383919Y0163319D02*
X0434313D01*
X0383919Y0213713D02*
X0434313D01*
X0383919Y0163319D02*
Y0213713D01*
X0434313Y0163319D02*
Y0213713D01*
M02*
