M48
;Layer_Color=9474304
;FILE_FORMAT=2:5
INCH
;TYPE=PLATED
T1F00S00C0.02000
T2F00S00C0.03543
T3F00S00C0.03937
T4F00S00C0.04724
T5F00S00C0.06200
T6F00S00C0.06700
T7F00S00C0.07087
T8F00S00C0.07874
T9F00S00C0.11811
%
T01
X0251616Y0151216
X0258478Y0149516
X0264116Y0152816
X0270716Y0153916
X0247016Y0156216
X0284316Y0136556
X0289716
X0380116Y0152216
X0410316Y0153171
X0489116Y0225716
X0484116Y0258416
X0502916Y0288216
X0499016Y0308316
X0518116Y0273416
X0527716Y0273216
X0532516Y0270816
X0526516Y0265116
X0465816Y0257216
X0449316Y0257516
X0409216Y0258216
X0399716Y0252616
X0389516Y0252133
X0381716Y0251103
X0374616Y0252216
X0369516Y0252281
X0388416Y0244116
X0387616Y0223216
X0398016Y0217916
X0405016Y0216516
X0399684Y0227471
X0378203Y0216758
X0380216Y0172876
X0364816Y0182216
X0339816Y0165777
X0314816Y0171476
X0314216Y0195216
X0321316Y0201316
X0325316Y0207316
X0325716Y0226501
X0322216Y0230616
X0315884Y0240158
X0313916Y0256516
X0317416Y0306616
X0381062Y0300507
X0386262Y0300807
X0386467Y0294707
X0380939Y0295007
X0384716Y0267016
X0414116Y0287714
X0434116Y0302516
X0456916Y0311616
X0450516Y0216371
X0425816Y0219316
X0421616Y0182926
X0412316Y0175276
X0402216Y0161416
X0441916Y0173026
X0461516Y0185771
X0328616Y0188816
X0299216Y0180416
X0288716Y0191356
X0285116Y0196016
X0277416Y0180316
X0262716Y0173816
X0242974Y0180516
X0241116Y0185216
X0245216Y0189116
X0250316Y0191416
X0254016Y0195616
X0269416Y0209076
X0299709Y0210016
X0263316Y0236176
X0257687Y0240139
X0253416Y0226416
X0228816Y0229556
X0220016Y0243576
X0202416Y0243616
X0203216Y0229556
X0202279Y0197930
X0223979Y0211416
X0236216Y0171316
X0238816Y0166016
X0242316Y0160616
X0277516Y0157216
X0280416Y0161516
X0177916Y0166016
X0165616Y0191356
X0161379Y0248816
X0194716Y0276716
X0196316Y0285316
X0187016Y0294516
X0214716Y0280116
X0223916Y0286316
X0231016Y0273016
X0253716Y0296516
X0277316Y0306616
X0299916Y0301416
X0267262Y0257739
X0154516Y0370292
X0166155Y0369455
X0173216Y0393216
X0163855Y0425355
X0199516Y0409916
X0239016Y0404216
X0234216Y0380616
X0229816Y0364316
X0249716Y0361816
X0252316Y0353516
X0280316Y0349316
X0284116Y0342916
X0285016Y0329816
X0277616Y0328916
X0299966Y0321216
X0297787Y0346716
X0278816Y0361416
X0263116Y0376816
X0262916Y0393116
X0295855Y0436855
X0280216Y0459566
X0229016Y0437872
X0223155Y0438755
X0211416Y0336316
X0317816Y0361916
X0317726Y0366416
X0327416Y0356916
X0355455Y0435755
X0403416Y0441516
X0441616Y0399316
X0484942Y0409275
X0500355Y0414055
X0515916Y0383623
X0554216Y0391916
X0562216Y0328016
X0541516Y0313176
T02
X0331116Y0122716
X0341116Y0122716
X0351116
Y0132716
X0341116
X0331116
X0361116Y0132716
Y0122716
X0371116Y0122716
Y0132716
X0421016Y0139716
Y0149716
X0431016
X0441016
Y0139716
X0431016
X0168616Y0211516
X0158616
X0158616Y0221516
X0168616
X0168616Y0231516
X0158616
T03
X0468374Y0425374
Y0435216
X0478216
Y0425374
T04
X0357716Y0460816
X0367716
X0377716
X0397716
X0407716
T05
X0203516Y0464616
T06
X0191193Y0452293
X0215839
Y0476939
X0191193
T07
X0307716Y0440616
X0325616Y0457316
X0307516Y0475016
T08
X0449673Y0445059
X0496917
T09
X0166716Y0120316
X0563816Y0120616
X0563616Y0479116
X0166516
M30
